<?xml version="1.0" encoding="UTF-8" standalone="no"?>
<!-- Created with Fritzing (http://www.fritzing.org/) -->

<svg
   y="0in"
   height="100.00005mm"
   width="100.00005mm"
   version="1.2"
   viewBox="0 0 283.46499 283.46499"
   x="0in"
   id="svg723"
   sodipodi:docname="bestof_laser_bottom_black_outline1.svg"
   inkscape:version="1.2.1 (9c6d41e410, 2022-07-14)"
   xmlns:inkscape="http://www.inkscape.org/namespaces/inkscape"
   xmlns:sodipodi="http://sodipodi.sourceforge.net/DTD/sodipodi-0.dtd"
   xmlns="http://www.w3.org/2000/svg"
   xmlns:svg="http://www.w3.org/2000/svg">
  <sodipodi:namedview
     id="namedview221"
     pagecolor="#505050"
     bordercolor="#eeeeee"
     borderopacity="1"
     inkscape:showpageshadow="0"
     inkscape:pageopacity="0"
     inkscape:pagecheckerboard="0"
     inkscape:deskcolor="#505050"
     inkscape:document-units="mm"
     showgrid="false"
     inkscape:zoom="2.8284271"
     inkscape:cx="124.45079"
     inkscape:cy="176.24636"
     inkscape:window-width="2160"
     inkscape:window-height="1361"
     inkscape:window-x="-9"
     inkscape:window-y="-9"
     inkscape:window-maximized="1"
     inkscape:current-layer="svg723" />
  <defs
     id="defs727" />
  <path
     id="path11242"
     style="color:#000000;fill:#ffffff;fill-opacity:1;stroke:#000000;stroke-width:0.283465;stroke-dasharray:none;stroke-opacity:1;paint-order:markers stroke fill"
     d="M 16.444351 12.079113 L 15.002943 12.084972 C 14.689766 12.084972 14.466774 12.143739 14.333509 12.262218 C 14.196013 12.380698 14.124505 12.537789 14.121107 12.732434 C 14.118004 12.910152 14.174597 13.057802 14.291029 13.176282 C 14.40746 13.294761 14.578326 13.364597 14.80226 13.385754 L 14.712904 18.476091 C 14.437815 18.476091 14.233937 18.537951 14.100599 18.660662 C 13.967261 18.783372 13.898845 18.940464 13.895521 19.130877 C 13.892197 19.32129 13.957059 19.476917 14.090345 19.599627 C 14.219473 19.718107 14.440742 19.776874 14.75392 19.776874 L 16.467789 19.776874 C 16.776734 19.776874 16.999726 19.718107 17.137223 19.599627 C 17.270561 19.476917 17.338903 19.318197 17.342301 19.123553 C 17.345625 18.93314 17.282464 18.779141 17.153336 18.660662 C 17.02005 18.537951 16.800172 18.476091 16.491226 18.476091 L 16.015151 18.476091 L 16.082534 14.598646 L 17.515153 17.950212 L 18.646013 17.950212 L 20.214862 14.598646 L 20.147479 18.476091 L 19.677264 18.476091 C 19.364086 18.476091 19.141168 18.537951 19.00783 18.660662 C 18.870333 18.779141 18.80029 18.936233 18.796892 19.130877 C 18.793568 19.32129 18.858431 19.476917 18.991717 19.599627 C 19.120845 19.718107 19.342114 19.776874 19.655292 19.776874 L 21.361836 19.776874 C 21.675014 19.776874 21.899471 19.718107 22.032735 19.599627 C 22.170306 19.476917 22.240275 19.318197 22.243673 19.123553 C 22.246997 18.93314 22.183836 18.779141 22.054708 18.660662 C 21.925654 18.537951 21.723351 18.476091 21.448262 18.476091 L 21.537617 13.385754 C 21.766522 13.364597 21.941464 13.294761 22.062032 13.176282 C 22.178368 13.057802 22.237641 12.910152 22.240743 12.732434 C 22.244141 12.537789 22.180906 12.380698 22.051778 12.262218 C 21.918492 12.139508 21.695522 12.079113 21.382344 12.079113 L 19.95412 12.084972 L 18.114274 16.000503 L 16.444351 12.079113 z M 28.867702 12.079113 L 23.027365 12.084972 L 22.992209 14.065443 C 22.986816 14.374335 23.0416 14.596542 23.157736 14.731947 C 23.273946 14.863121 23.430344 14.928236 23.625022 14.928236 C 23.8197 14.928236 23.979004 14.863121 24.104026 14.731947 C 24.224816 14.600774 24.287525 14.378566 24.292991 14.065443 L 24.30471 13.385754 L 27.339869 13.385754 L 27.307642 15.265151 L 26.163598 15.265151 C 26.169508 14.926639 26.141885 14.707687 26.080102 14.610365 C 25.952525 14.403026 25.769087 14.299818 25.527856 14.299818 C 25.33741 14.299818 25.181433 14.368027 25.06057 14.503431 C 24.935548 14.634605 24.869747 14.856812 24.864281 15.169936 L 24.837913 16.667008 C 24.832964 16.950511 24.864184 17.140975 24.930199 17.238297 C 25.062155 17.437173 25.242191 17.537126 25.470727 17.537126 C 25.711958 17.537126 25.899876 17.433917 26.034692 17.226578 C 26.099873 17.129256 26.135642 16.908677 26.141626 16.565933 L 27.284205 16.565933 L 27.250513 18.476091 L 23.931174 18.476091 L 23.942893 17.771501 C 23.948359 17.458377 23.893575 17.23617 23.777366 17.104996 C 23.656997 16.969591 23.498899 16.902848 23.304221 16.902848 C 23.113775 16.902848 22.957799 16.969591 22.836935 17.104996 C 22.711913 17.23617 22.647577 17.458377 22.642111 17.771501 L 22.606954 19.776874 L 28.732937 19.776874 C 29.046114 19.776874 29.270734 19.718107 29.40823 19.599627 C 29.484818 19.529144 29.534181 19.443355 29.567898 19.349139 C 29.598237 19.442928 29.645492 19.528552 29.720242 19.599627 C 29.84937 19.718107 30.070639 19.776874 30.383817 19.776874 L 31.126493 19.776874 C 32.208733 18.147785 33.100004 17.168444 33.799836 16.838394 L 35.087435 16.838394 L 35.059603 18.476091 L 34.589387 18.476091 C 34.276209 18.476091 34.053291 18.537951 33.919953 18.660662 C 33.782457 18.779141 33.712413 18.936233 33.709015 19.130877 C 33.705691 19.32129 33.770554 19.476917 33.90384 19.599627 C 34.032968 19.718107 34.254237 19.776874 34.567415 19.776874 L 36.540561 19.776874 C 36.853739 19.776874 37.079823 19.718107 37.217319 19.599627 C 37.350658 19.476917 37.419 19.318197 37.422398 19.123553 C 37.425722 18.93314 37.360933 18.779141 37.227573 18.660662 C 37.094287 18.537951 36.872944 18.476091 36.563998 18.476091 L 36.360385 18.476091 L 36.449741 13.385754 L 36.651889 13.385754 C 36.965067 13.385754 37.191151 13.326987 37.328648 13.208508 C 37.393434 13.148885 37.441022 13.080035 37.475132 13.00343 C 37.523033 13.112158 37.599517 13.207539 37.713902 13.28468 C 37.810059 13.352383 38.009612 13.385754 38.310094 13.385754 L 40.870643 19.776874 L 42.121621 19.776874 L 44.898967 13.385754 C 45.203681 13.385754 45.405427 13.352383 45.503948 13.28468 C 45.70938 13.153507 45.813288 12.969392 45.817425 12.732434 C 45.820823 12.537789 45.755961 12.380698 45.622601 12.262218 C 45.493547 12.139508 45.273668 12.079113 44.960491 12.079113 L 43.201212 12.084972 C 42.892266 12.084972 42.670901 12.143739 42.537637 12.262218 C 42.40014 12.380698 42.330097 12.537789 42.326699 12.732434 C 42.323301 12.927078 42.38661 13.085798 42.515664 13.208508 C 42.644792 13.326987 42.866061 13.385754 43.179239 13.385754 L 43.483927 13.385754 L 41.532753 17.879899 L 39.725134 13.385754 L 40.023963 13.385754 C 40.33714 13.385754 40.56176 13.326987 40.699256 13.208508 C 40.832594 13.085798 40.900937 12.927078 40.904334 12.732434 C 40.907732 12.537789 40.844497 12.380698 40.715369 12.262218 C 40.582083 12.139508 40.359113 12.079113 40.045935 12.079113 L 38.29984 12.084972 C 37.986662 12.084972 37.76367 12.143739 37.630406 12.262218 C 37.565009 12.31857 37.517517 12.384926 37.482456 12.458508 C 37.451022 12.385038 37.406101 12.3185 37.344761 12.262218 C 37.211475 12.139508 36.988505 12.079113 36.675327 12.079113 L 33.729523 12.084972 C 32.81115 12.084972 32.096591 12.313528 31.58499 12.77052 C 31.06923 13.223279 30.805349 13.775624 30.793974 14.427259 C 30.786882 14.833474 30.899724 15.203331 31.130888 15.537612 C 31.362126 15.867661 31.713316 16.161333 32.187041 16.419449 C 31.907742 16.660638 31.608843 16.970101 31.289091 17.346696 C 31.090203 17.587885 30.821006 17.964092 30.481962 18.476091 C 30.151855 18.476091 29.934161 18.510928 29.827176 18.57863 C 29.702117 18.663744 29.619412 18.77271 29.573758 18.902361 C 29.54217 18.811291 29.49461 18.728293 29.418484 18.660662 C 29.285198 18.537951 29.063855 18.476091 28.754909 18.476091 L 28.552761 18.476091 L 28.640651 13.385754 L 28.844265 13.385754 C 29.157443 13.385754 29.383527 13.326987 29.521023 13.208508 C 29.654362 13.085798 29.722704 12.927078 29.726102 12.732434 C 29.729499 12.537789 29.666264 12.380698 29.537137 12.262218 C 29.40385 12.139508 29.18088 12.079113 28.867702 12.079113 z M 52.272997 12.079113 L 46.43266 12.084972 L 46.397504 14.065443 C 46.392111 14.374335 46.44836 14.596542 46.564496 14.731947 C 46.680706 14.863121 46.835639 14.928236 47.030317 14.928236 C 47.224995 14.928236 47.384299 14.863121 47.509321 14.731947 C 47.630111 14.600774 47.694285 14.378566 47.699751 14.065443 L 47.71147 13.385754 L 50.745164 13.385754 L 50.712937 15.265151 L 49.570358 15.265151 C 49.576267 14.926639 49.548645 14.707687 49.486862 14.610365 C 49.359285 14.403026 49.174382 14.299818 48.93315 14.299818 C 48.742704 14.299818 48.586728 14.368027 48.465865 14.503431 C 48.340843 14.634605 48.276507 14.856812 48.27104 15.169936 L 48.244673 16.667008 C 48.239724 16.950511 48.269478 17.140975 48.335494 17.238297 C 48.46745 17.437173 48.647486 17.537126 48.876022 17.537126 C 49.117253 17.537126 49.305171 17.433917 49.439987 17.226578 C 49.505168 17.129256 49.540937 16.908677 49.546921 16.565933 L 50.6895 16.565933 L 50.657273 18.476091 L 47.336469 18.476091 L 47.349653 17.771501 C 47.355119 17.458377 47.29887 17.23617 47.182661 17.104996 C 47.062292 16.969591 46.905659 16.902848 46.71098 16.902848 C 46.520534 16.902848 46.364558 16.969591 46.243695 17.104996 C 46.118673 17.23617 46.052872 17.458377 46.047406 17.771501 L 46.012249 19.776874 L 52.138232 19.776874 C 52.451409 19.776874 52.677493 19.718107 52.81499 19.599627 C 52.948328 19.476917 53.01667 19.318197 53.020068 19.123553 C 53.023392 18.93314 52.958604 18.779141 52.825244 18.660662 C 52.691958 18.537951 52.470615 18.476091 52.161669 18.476091 L 51.958056 18.476091 L 52.047411 13.385754 L 52.24956 13.385754 C 52.562738 13.385754 52.788822 13.326987 52.926318 13.208508 C 53.059656 13.085798 53.127999 12.927078 53.131397 12.732434 C 53.134794 12.537789 53.071559 12.380698 52.942432 12.262218 C 52.809145 12.139508 52.586175 12.079113 52.272997 12.079113 z M 60.080622 12.079113 L 57.357475 12.084972 C 56.934261 12.084972 56.520072 12.162785 56.115286 12.319347 C 55.706268 12.475909 55.377655 12.675814 55.12798 12.917004 C 54.93859 13.098954 54.742098 13.348185 54.537648 13.66554 C 54.328965 13.982895 54.170075 14.297241 54.063038 14.610365 C 53.956001 14.923489 53.899555 15.307509 53.891651 15.760268 L 53.879932 16.381363 C 53.87033 16.931445 53.954597 17.420301 54.133351 17.847673 C 54.312178 18.270813 54.552603 18.618368 54.85259 18.889178 C 55.148417 19.155756 55.427537 19.352568 55.691946 19.47951 C 56.111687 19.678386 56.658198 19.776874 57.331107 19.776874 L 59.947321 19.776874 C 60.260499 19.776874 60.485118 19.718107 60.622614 19.599627 C 60.755953 19.476917 60.824295 19.318197 60.827693 19.123553 C 60.831017 18.93314 60.767782 18.777513 60.638728 18.654802 C 60.505442 18.532092 60.304677 18.47186 60.033747 18.476091 L 60.121637 13.385754 C 60.3968 13.381523 60.600678 13.321128 60.733943 13.202649 C 60.867281 13.079938 60.935697 12.922847 60.939021 12.732434 C 60.942419 12.537789 60.880649 12.380698 60.751521 12.262218 C 60.618235 12.139508 60.3938 12.079113 60.080622 12.079113 z M 33.656281 13.385754 L 35.147493 13.385754 L 35.110872 15.537612 L 34.09427 15.537612 C 33.71761 15.537612 33.382176 15.480473 33.087921 15.366225 C 32.69276 15.213895 32.429378 15.053547 32.296905 14.884291 C 32.160199 14.715035 32.09334 14.546874 32.096221 14.381849 C 32.100505 14.136428 32.235971 13.910964 32.501983 13.703626 C 32.768069 13.492056 33.152657 13.385754 33.656281 13.385754 z M 57.44976 13.385754 L 58.820855 13.385754 L 58.731499 18.476091 L 57.347221 18.476091 C 56.8309 18.476091 56.443941 18.402999 56.184134 18.2549 C 55.844729 18.060255 55.590687 17.812653 55.422414 17.512223 C 55.254141 17.211794 55.173833 16.821425 55.18218 16.343277 L 55.192434 15.728042 C 55.199599 15.317596 55.285335 14.957343 55.447317 14.648451 C 55.701201 14.166071 55.983414 13.837399 56.295462 13.659681 C 56.603352 13.47773 56.988457 13.385754 57.44976 13.385754 z M 158.89321 16.771012 C 158.88241 16.772912 158.87169 16.774771 158.86099 16.776871 C 158.66806 16.782371 158.47743 16.820051 158.29702 16.888199 C 158.23892 16.912429 158.1822 16.93981 158.1271 16.97023 C 158.01137 17.02965 157.90277 17.101886 157.80337 17.185563 C 157.71467 17.260253 157.63368 17.343678 157.56167 17.434586 C 157.51027 17.500476 157.46377 17.569992 157.42251 17.642594 C 157.34341 17.778791 157.28326 17.925166 157.2438 18.077653 C 157.2332 18.122693 157.22443 18.168143 157.21743 18.213884 C 157.19073 18.305414 157.1716 18.398991 157.1603 18.493669 C 157.1673 18.539419 157.17607 18.584859 157.18667 18.6299 L 157.14565 23.982444 L 15.092299 23.654319 C 14.341881 23.678679 13.693063 24.184828 13.486829 24.906761 C 13.441789 25.022566 13.409379 25.142891 13.390149 25.265648 C 13.378629 25.302888 13.368367 25.340508 13.359387 25.378441 C 13.361287 25.385741 13.363247 25.393104 13.365247 25.400414 C 13.327047 25.541341 13.306868 25.686541 13.305188 25.832543 L 13.267102 37.107456 C 12.181492 37.71594 11.44044 38.878882 11.44044 40.201209 C 11.44044 42.144632 13.040476 43.744669 14.9839 43.744669 C 16.927326 43.744669 18.527361 42.144632 18.527361 40.201209 C 18.527361 38.892905 17.802671 37.740128 16.735855 37.126499 L 16.804703 27.114283 L 158.19302 27.439478 C 158.41218 27.536518 158.64914 27.586901 158.88882 27.587428 L 164.51968 27.587428 L 164.51968 32.95755 C 164.52055 32.96879 164.52161 32.980021 164.52261 32.991241 C 164.52461 33.083631 164.53384 33.175727 164.55044 33.266632 C 164.55544 33.293132 164.56152 33.319514 164.56802 33.345734 C 164.58592 33.421414 164.60897 33.495805 164.63687 33.56839 C 164.64737 33.5975 164.65856 33.626306 164.67056 33.654816 C 164.70506 33.732376 164.74516 33.807281 164.79068 33.878937 C 164.79968 33.895697 164.80998 33.912312 164.81998 33.928742 C 164.87928 34.016252 164.94643 34.098137 165.02066 34.173371 C 165.03226 34.183781 165.04392 34.194043 165.05582 34.204133 C 165.11882 34.264833 165.18645 34.320661 165.25796 34.371125 C 165.28626 34.390035 165.31509 34.408115 165.34439 34.425325 C 165.40569 34.462945 165.4693 34.496705 165.53482 34.526399 C 165.56802 34.541629 165.60172 34.555789 165.63589 34.568879 C 165.70389 34.594219 165.77331 34.615258 165.8439 34.631868 C 165.8735 34.640468 165.90326 34.648285 165.93326 34.655305 C 166.03136 34.674125 166.1308 34.684427 166.23062 34.686067 L 170.27945 34.727083 C 170.88481 35.823662 172.05453 36.574252 173.38493 36.574252 C 174.70696 36.574252 175.8701 35.832947 176.47868 34.747591 L 193.24969 34.691926 L 193.30096 110.42588 L 176.46696 110.4669 C 175.85576 109.39157 174.69996 108.65928 173.38493 108.65928 C 171.4413 108.65928 169.84146 110.25829 169.84146 112.20128 C 169.84146 114.14426 171.4413 115.74474 173.38493 115.74474 C 174.70486 115.74474 175.86489 115.00649 176.47428 113.92393 L 195.03094 113.87706 L 195.03534 113.87706 C 195.12814 113.87621 195.22073 113.86806 195.31219 113.85216 C 195.32119 113.85116 195.33082 113.84876 195.34002 113.84776 C 195.43622 113.83046 195.53082 113.80499 195.62274 113.77159 C 195.62474 113.77062 195.6266 113.76966 195.6286 113.76866 C 195.81535 113.69986 195.98879 113.59921 196.14129 113.4713 L 196.14276 113.4713 C 196.29688 113.34205 196.42726 113.18689 196.52801 113.0128 C 196.5285 113.0118 196.52799 113.0094 196.52801 113.0084 C 196.67893 112.74592 196.75824 112.44839 196.75799 112.14561 C 196.75751 112.14261 196.75802 112.13866 196.75799 112.13536 L 196.70526 32.959015 L 196.70526 32.95755 L 196.70526 32.953155 C 196.70326 32.65422 196.62326 32.360975 196.47381 32.10208 C 196.47284 32.09918 196.47188 32.096191 196.47088 32.093291 L 196.46942 32.090362 C 196.31893 31.833106 196.10447 31.619146 195.84686 31.469267 C 195.84286 31.466367 195.83884 31.463378 195.83514 31.460478 C 195.57295 31.310312 195.27596 31.23152 194.97381 31.231962 L 194.97088 31.231962 L 176.46549 31.294951 C 175.85371 30.220502 174.69833 29.488797 173.38493 29.488797 C 172.08046 29.488797 170.93105 30.210513 170.31607 31.272978 L 167.97672 31.248076 L 167.97672 25.860375 C 167.97701 24.905623 167.20295 24.131571 166.2482 24.131858 L 160.59976 24.131858 L 160.63052 20.233905 L 214.81221 20.393573 L 214.81221 33.019073 C 214.81273 33.973253 215.58655 34.746413 216.54073 34.746126 L 231.07492 34.734407 C 231.68596 35.811954 232.84449 36.54642 234.15988 36.54642 C 236.10193 36.54642 237.70334 34.944994 237.70334 33.00296 C 237.70334 31.060929 236.10193 29.4595 234.15988 29.4595 C 232.84217 29.4595 231.68217 30.198185 231.07199 31.278837 L 218.26778 31.289091 L 218.26778 18.673845 L 218.26778 18.669451 C 218.26758 18.588571 218.2618 18.507807 218.2502 18.427751 C 218.24972 18.425351 218.24877 18.422827 218.24874 18.420427 C 218.23774 18.347237 218.22216 18.274817 218.20186 18.20363 C 218.19886 18.19187 218.19491 18.180164 218.19161 18.168474 C 218.17141 18.099634 218.14696 18.032122 218.11836 17.966325 C 218.11336 17.956015 218.10775 17.945763 218.10225 17.935563 C 218.07085 17.867893 218.03515 17.802327 217.99532 17.739274 C 217.95122 17.669954 217.90232 17.603873 217.84883 17.54152 L 217.84297 17.535661 C 217.79327 17.479011 217.73995 17.425677 217.68331 17.375993 C 217.67431 17.368093 217.66477 17.360275 217.65547 17.352555 C 217.60157 17.306125 217.54479 17.263075 217.48555 17.223649 C 217.47295 17.215649 217.46027 17.207861 217.44747 17.200211 C 217.39537 17.168081 217.34156 17.13874 217.28633 17.11232 C 217.27423 17.10632 217.26201 17.100462 217.24971 17.094742 C 217.18861 17.067702 217.12602 17.04422 217.06221 17.02443 C 217.04281 17.01823 217.02322 17.012372 217.00362 17.006852 C 216.93912 16.988402 216.87356 16.973736 216.80733 16.962906 C 216.79463 16.961306 216.78194 16.959812 216.76924 16.958512 C 216.69494 16.947792 216.62013 16.941924 216.54512 16.940934 L 158.89321 16.771012 z M 173.38493 22.258321 C 171.442 22.258321 169.84146 23.859692 169.84146 25.803246 C 169.84146 27.7468 171.442 29.345242 173.38493 29.345242 C 174.70393 29.345242 175.86457 28.608663 176.47428 27.527369 L 200.43622 27.501002 L 200.6413 124.51916 L 176.54899 125.0172 C 175.96305 123.86005 174.76033 123.05871 173.38493 123.05871 C 172.07373 123.05871 170.91988 123.78702 170.30729 124.85754 L 160.67007 124.80627 L 160.67007 97.845793 C 160.66974 97.46408 160.54303 97.093216 160.30972 96.791105 C 160.00981 96.351524 159.5181 96.06437 158.96206 96.064541 L 147.01039 96.064541 L 147.0309 90.808677 C 148.11104 90.198665 148.8473 89.039039 148.8473 87.720784 C 148.8473 85.777361 147.24872 84.177324 145.30531 84.177324 C 143.36189 84.177324 141.76185 85.777361 141.76185 87.720784 C 141.76185 89.037883 142.49673 90.196771 143.57533 90.807212 L 143.54896 97.334562 C 143.51056 97.480798 143.48734 97.634058 143.48744 97.793059 C 143.48819 98.747047 144.22974 99.518933 145.14271 99.518646 L 157.21304 99.518646 L 157.21304 126.52307 C 157.21398 126.52907 157.21496 126.53474 157.21596 126.54064 C 157.21996 126.69607 157.24421 126.8503 157.28921 126.99914 C 157.30171 127.04164 157.31589 127.08374 157.33169 127.12512 C 157.37709 127.24658 157.43609 127.36255 157.50747 127.47082 C 157.52467 127.50062 157.54277 127.52991 157.56167 127.55871 C 157.65827 127.68665 157.77211 127.80054 157.90005 127.89709 C 157.93115 127.91859 157.96286 127.93921 157.99526 127.95861 C 158.10142 128.02801 158.2149 128.08546 158.33364 128.13 C 158.37694 128.1474 158.42094 128.16298 158.46548 128.17688 C 158.61661 128.22298 158.77334 128.24808 158.9313 128.25158 L 170.28824 128.31457 C 170.89597 129.40271 172.06059 130.14416 173.38493 130.14416 C 174.64305 130.14416 175.75563 129.47424 176.38493 128.47424 C 176.40323 128.47441 176.42073 128.4767 176.43913 128.4757 L 202.41083 127.93957 C 202.49993 127.93757 202.58634 127.92664 202.67157 127.91174 C 202.68727 127.90874 202.70285 127.90595 202.71845 127.90295 C 202.81925 127.88245 202.91648 127.85362 203.00995 127.81652 C 203.01695 127.81352 203.02463 127.80927 203.03193 127.80627 C 203.12782 127.76657 203.2182 127.71817 203.30439 127.66272 C 203.31239 127.65772 203.32099 127.6521 203.32929 127.6466 C 203.41309 127.5906 203.49262 127.52839 203.56513 127.4591 C 203.57213 127.4521 203.5797 127.44443 203.5871 127.43713 C 203.6575 127.36733 203.72137 127.29099 203.779 127.21008 C 203.786 127.20008 203.7928 127.19068 203.7995 127.18078 C 203.8557 127.09828 203.90454 127.01037 203.94599 126.91857 C 203.94999 126.90857 203.95497 126.89918 203.95917 126.88928 C 203.99887 126.79678 204.03129 126.70052 204.05439 126.6007 C 204.05739 126.588 204.05971 126.57542 204.06171 126.56262 C 204.08231 126.46362 204.09397 126.36217 204.09687 126.25793 C 204.0971 126.24893 204.0998 126.24163 204.0998 126.23303 L 204.0998 126.1715 L 203.88886 26.00686 C 203.88918 25.98183 203.884 25.958408 203.883 25.933618 C 203.888 25.879568 203.89032 25.825304 203.89032 25.77102 C 203.88932 24.816841 203.11452 24.044338 202.16034 24.045432 L 176.46842 24.070335 C 175.85738 22.99318 174.70035 22.258321 173.38493 22.258321 z M 252.5847 29.458035 C 250.6427 29.458851 249.04124 31.059957 249.04124 33.001495 C 249.04124 34.943528 250.64349 36.544955 252.58617 36.544955 C 253.89584 36.544955 255.0481 35.816884 255.66088 34.747591 L 272.33375 34.836946 L 272.33375 76.293527 L 272.33375 76.294992 L 272.41285 168.10416 L 124.68468 168.10416 L 124.71105 144.08949 C 125.79102 143.47943 126.52746 142.31973 126.52746 141.00159 C 126.52746 139.05818 124.92742 137.45813 122.984 137.45813 C 121.04057 137.45813 119.44054 139.05818 119.44054 141.00159 C 119.44054 142.31856 120.17561 143.47753 121.25402 144.08802 L 121.22619 169.82975 L 121.22619 169.83121 C 121.22667 169.83221 121.22762 169.83461 121.22765 169.83561 C 121.23565 170.10393 121.30565 170.36672 121.43273 170.60318 C 121.45413 170.65008 121.47754 170.69609 121.50304 170.74088 C 121.64085 170.95984 121.82607 171.14506 122.04503 171.28287 C 122.08943 171.30827 122.13483 171.33178 122.18126 171.35318 C 122.41891 171.4814 122.68331 171.55215 122.95324 171.55973 L 274.14137 171.55973 L 274.14283 171.55973 C 274.25861 171.55773 274.37394 171.54488 274.48707 171.52018 C 274.52347 171.51118 274.55967 171.50188 274.59547 171.49088 C 274.67537 171.46968 274.75374 171.44281 274.82984 171.41031 C 274.86604 171.39441 274.90175 171.37734 274.93678 171.35904 C 275.01548 171.31804 275.09089 171.27105 275.16236 171.21842 C 275.18616 171.20242 275.20968 171.18581 275.23267 171.16861 C 275.32507 171.09351 275.40955 171.0091 275.48463 170.91666 C 275.49513 170.90166 275.50539 170.88655 275.51539 170.87125 C 275.57459 170.79335 275.62699 170.7105 275.67213 170.62369 C 275.68943 170.58959 275.70557 170.5549 275.72047 170.51969 C 275.75357 170.44219 275.7811 170.3624 275.8025 170.28092 C 275.8128 170.24752 275.82213 170.21381 275.83033 170.17984 C 275.85533 170.06527 275.86848 169.94846 275.86988 169.83121 L 275.86988 169.82975 L 275.78932 76.293527 L 275.78932 33.127472 C 275.78923 33.056952 275.78533 32.986512 275.77613 32.916534 C 275.77413 32.898434 275.77081 32.880365 275.76881 32.862335 C 275.75981 32.797705 275.74702 32.733635 275.73072 32.67044 C 275.73023 32.66894 275.73074 32.667546 275.73072 32.666046 C 275.71232 32.598336 275.68984 32.531804 275.66334 32.466827 C 275.65934 32.457027 275.65436 32.44726 275.65016 32.43753 C 275.62356 32.37426 275.59324 32.312625 275.55934 32.252959 C 275.55734 32.250559 275.55401 32.248035 275.55201 32.245635 C 275.48381 32.129081 275.40222 32.020921 275.30885 31.923369 C 275.29265 31.905939 275.27604 31.88884 275.25904 31.8721 C 275.21304 31.82745 275.16464 31.78539 275.11402 31.746123 C 275.11304 31.745145 275.11209 31.744093 275.11109 31.743193 C 275.05719 31.702833 275.00092 31.665663 274.94264 31.631865 C 274.92664 31.622865 274.9105 31.614028 274.8943 31.605498 C 274.77755 31.540618 274.65367 31.489499 274.52515 31.453154 C 274.50865 31.448554 274.49205 31.44415 274.47535 31.43997 C 274.42365 31.42731 274.3713 31.417039 274.31861 31.409209 C 274.29961 31.406409 274.28058 31.403984 274.26148 31.401884 C 274.19828 31.393984 274.13472 31.389581 274.07105 31.388701 L 255.67846 31.290556 C 255.07101 30.203212 253.90899 29.458594 252.58617 29.458035 L 252.5847 29.458035 z M 115.7462 31.230497 C 115.53012 31.233197 115.31646 31.276447 115.11632 31.357939 C 115.10162 31.364039 115.08687 31.370432 115.07237 31.376982 C 114.87295 31.461012 114.69108 31.581762 114.53624 31.732939 L 114.53038 31.737334 C 114.37868 31.892055 114.25743 32.073927 114.17296 32.273467 C 114.16496 32.290927 114.15808 32.308502 114.15098 32.326202 C 114.06998 32.526443 114.02726 32.740096 114.02501 32.956085 L 114.02501 32.959015 L 114.02501 32.96048 L 114.02501 32.964874 L 114.04552 37.12064 C 112.97251 37.732609 112.24229 38.888281 112.24229 40.201209 C 112.24229 42.144632 113.84232 43.744669 115.78575 43.744669 C 117.72917 43.744669 119.32775 42.144632 119.32775 40.201209 C 119.32775 38.877717 118.58679 37.714033 117.49962 37.105991 L 117.4879 34.686067 L 157.3229 34.686067 L 157.3229 40.142615 C 157.32324 40.262266 157.33598 40.381559 157.36098 40.498572 C 157.36898 40.528592 157.37775 40.558378 157.38735 40.587928 C 157.41025 40.676588 157.44011 40.763284 157.47671 40.847206 C 157.49401 40.883485 157.51257 40.919156 157.53237 40.954139 C 157.57077 41.026979 157.61437 41.096983 157.66274 41.163612 C 157.69014 41.199892 157.71897 41.235072 157.74917 41.269081 C 157.79837 41.325681 157.85123 41.379016 157.90737 41.428749 C 157.94407 41.461609 157.98227 41.492889 158.02163 41.522499 C 158.07923 41.564759 158.13942 41.603409 158.20181 41.638222 C 158.24651 41.665192 158.29251 41.690119 158.3395 41.712929 C 158.4081 41.742359 158.47859 41.767316 158.55044 41.787636 C 158.59384 41.803056 158.63784 41.816742 158.68227 41.828652 C 158.77497 41.847562 158.86901 41.858833 158.96353 41.862343 C 158.98743 41.865743 159.0113 41.868732 159.0353 41.871132 L 170.28385 41.963417 C 170.89056 43.055971 172.05802 43.801798 173.38493 43.801798 C 174.71159 43.801798 175.87774 43.055673 176.48454 41.963417 L 186.06316 41.885781 L 186.06316 96.080655 L 176.47282 96.07626 C 175.86288 94.995684 174.70338 94.258387 173.38493 94.258387 C 171.44129 94.258387 169.84146 95.860317 169.84146 97.803313 C 169.84146 99.746311 171.44129 101.34531 173.38493 101.34531 C 174.70197 101.34531 175.85943 100.60985 176.46989 99.53183 L 187.78875 99.539154 L 187.79021 99.539154 C 187.90246 99.537854 188.01433 99.525563 188.1242 99.502533 C 188.1537 99.496933 188.18299 99.4906 188.21209 99.48349 C 188.31937 99.45693 188.42385 99.420139 188.5241 99.373627 C 188.5384 99.366027 188.55248 99.358199 188.56658 99.350189 C 188.66198 99.302049 188.75269 99.245165 188.83758 99.180267 C 188.85188 99.169747 188.86606 99.159 188.88006 99.14804 C 188.96836 99.07612 189.04931 98.995652 189.12176 98.907806 C 189.13576 98.889526 189.14947 98.870962 189.16277 98.852142 C 189.22567 98.769872 189.2811 98.68212 189.3283 98.589934 C 189.3353 98.576844 189.34307 98.563664 189.35027 98.550384 C 189.39827 98.447888 189.43597 98.340929 189.46306 98.231047 C 189.46906 98.205777 189.47438 98.180385 189.47918 98.154875 C 189.50378 98.042224 189.51693 97.927393 189.51873 97.812102 L 189.51873 97.810637 L 189.51873 40.14408 C 189.51875 40.13918 189.51875 40.134281 189.51873 40.129431 C 189.51779 40.122631 189.5168 40.115754 189.5158 40.108924 C 189.5128 40.001526 189.50031 39.894617 189.47771 39.789587 C 189.47271 39.764067 189.46654 39.738665 189.46014 39.713415 C 189.43244 39.604482 189.39414 39.49851 189.34588 39.397009 C 189.33688 39.381249 189.32861 39.365614 189.31951 39.350134 C 189.27211 39.258964 189.21675 39.17219 189.15398 39.090856 C 189.14208 39.074036 189.12986 39.057432 189.11736 39.041052 C 189.04636 38.956042 188.96742 38.878041 188.88152 38.808141 C 188.85852 38.789971 188.83511 38.772377 188.81121 38.755407 C 188.72961 38.694657 188.64288 38.641229 188.55193 38.595739 C 188.54123 38.589739 188.5305 38.58391 188.5197 38.57816 C 188.41521 38.530841 188.30629 38.49403 188.19451 38.468297 C 188.17121 38.462397 188.1477 38.457064 188.1242 38.452184 C 188.01433 38.429154 187.90246 38.416893 187.79021 38.415563 C 187.78921 38.416049 187.78828 38.416503 187.78728 38.417028 C 187.78428 38.416529 187.78033 38.416076 187.77703 38.415563 L 176.45671 38.506383 C 175.84275 37.440712 174.69227 36.714878 173.38493 36.714878 C 172.07742 36.714878 170.92559 37.440525 170.31168 38.506383 L 160.777 38.428746 L 160.777 32.959015 C 160.77729 32.00541 160.00502 31.231832 159.05142 31.230497 L 115.75352 31.230497 L 115.75206 31.230497 C 115.75006 31.230494 115.7482 31.230494 115.7462 31.230497 z M 22.135274 31.347685 C 22.021944 31.349785 21.909096 31.363036 21.79836 31.387236 C 21.76937 31.393836 21.740554 31.401149 21.711934 31.409209 C 21.620204 31.432579 21.530544 31.463434 21.443867 31.501494 C 21.422197 31.510294 21.400704 31.519616 21.379414 31.529326 C 21.278038 31.579826 21.181871 31.640179 21.092305 31.709502 C 21.069855 31.727982 21.047877 31.747031 21.026387 31.766631 C 20.955737 31.827161 20.890097 31.893291 20.830097 31.964385 C 20.812557 31.984015 20.795458 32.004034 20.778828 32.024444 C 20.708238 32.115273 20.646902 32.212928 20.595722 32.315948 C 20.588122 32.332918 20.580799 32.350007 20.573749 32.367217 C 20.533579 32.457537 20.50124 32.551147 20.47707 32.647003 C 20.46947 32.676113 20.462632 32.705423 20.456562 32.734893 C 20.434182 32.841409 20.421921 32.949801 20.419941 33.058624 C 20.419423 33.064524 20.418976 33.070342 20.418476 33.076202 C 20.418474 33.077702 20.418474 33.079097 20.418476 33.080597 C 20.418473 33.082597 20.418473 33.084456 20.418476 33.086456 L 20.438984 37.125034 C 19.369675 37.738 18.641619 38.891042 18.641619 40.201209 C 18.641619 42.144632 20.241655 43.744669 22.185079 43.744669 C 24.128503 43.744669 25.728539 42.144632 25.728539 40.201209 C 25.728539 38.876469 24.984869 37.712092 23.896018 37.104526 L 23.882834 34.803255 L 34.771028 34.803255 L 34.771028 248.96947 C 34.772001 248.97147 34.773058 248.97333 34.773958 248.97533 C 34.794278 249.37341 34.951606 249.75223 35.219271 250.04759 C 35.280551 250.11989 35.347671 250.187 35.419954 250.24828 C 35.717028 250.51804 36.098724 250.67599 36.499545 250.69505 L 173.31608 250.73021 C 173.31808 250.72973 173.31994 250.72878 173.32194 250.72875 C 173.61687 250.72675 173.90633 250.64885 174.16276 250.50316 C 174.17356 250.49716 174.18438 250.49052 174.19498 250.48412 C 174.44114 250.33764 174.64702 250.13226 174.79411 249.88646 C 174.80211 249.87336 174.81091 249.86011 174.81901 249.84691 C 174.96206 249.59424 175.03914 249.3096 175.04313 249.01927 L 175.04313 249.00902 C 175.04362 249.00802 175.04457 249.00709 175.04459 249.00609 C 175.04412 249.00209 175.04317 248.99807 175.04313 248.99437 L 175.07829 245.34691 L 175.78727 245.34691 L 176.92839 245.34691 L 176.92839 238.26145 L 175.07829 238.26145 L 175.04313 234.63596 C 175.04368 234.62796 175.04459 234.61936 175.04459 234.61106 L 175.04459 214.6291 L 245.46116 214.81367 C 245.46216 214.81318 245.46309 214.81223 245.46409 214.81221 C 245.46609 214.81271 245.46942 214.81366 245.47142 214.81367 C 245.6946 214.81267 245.91547 214.76837 246.12181 214.6833 L 246.12327 214.68184 C 246.32861 214.59684 246.51563 214.47296 246.67405 214.31709 L 246.6887 214.30244 C 246.84311 214.14649 246.96641 213.96254 247.05199 213.76045 C 247.05499 213.75345 247.05894 213.74588 247.06224 213.73848 C 247.14714 213.53259 247.19137 213.31224 247.19261 213.08955 L 247.19261 213.08516 L 247.19261 213.0793 L 247.12376 194.48455 C 248.19654 193.87263 248.92699 192.71708 248.92699 191.40398 C 248.92699 189.46005 247.32746 187.86052 245.38353 187.86052 C 243.43958 187.86052 241.84007 189.46005 241.84007 191.40398 C 241.84007 192.72676 242.58097 193.88941 243.66673 194.49774 L 243.73118 211.35225 L 173.31901 211.16914 L 173.31754 211.16914 L 173.31461 211.16914 C 173.11455 211.17314 172.9168 211.21273 172.73014 211.28486 C 172.68344 211.30196 172.63753 211.32099 172.59244 211.34199 C 172.41199 211.42169 172.24652 211.53166 172.10319 211.66719 L 172.0944 211.67305 L 172.09293 211.67451 C 171.9557 211.81794 171.8442 211.98394 171.76334 212.16523 C 171.74104 212.21313 171.72108 212.26204 171.70328 212.31172 C 171.63258 212.49422 171.59351 212.6874 171.58756 212.88301 C 171.58707 212.88601 171.58758 212.8888 171.58756 212.8918 L 171.58756 212.89326 L 171.58756 212.89619 L 171.58756 234.61106 C 171.58804 234.61306 171.58753 234.61491 171.58756 234.61691 C 171.58706 234.62091 171.58757 234.62493 171.58756 234.62863 L 171.62272 238.26145 L 169.84146 238.26145 L 169.84146 245.34691 L 171.62272 245.34691 L 171.60367 247.27757 L 38.228063 247.24241 L 38.228063 33.076202 C 38.228116 32.925357 38.208409 32.775154 38.169469 32.629425 C 38.168498 32.627025 38.167539 32.6245 38.166539 32.6221 C 38.127769 32.478644 38.070659 32.340788 37.996617 32.211944 L 37.992222 32.206084 C 37.919843 32.081913 37.83225 31.967258 37.73148 31.864775 C 37.72468 31.857875 37.717872 31.851048 37.710972 31.844268 C 37.606931 31.741559 37.490277 31.652468 37.363804 31.579131 C 37.361804 31.578151 37.359945 31.577101 37.357945 31.576201 C 37.232108 31.504481 37.097753 31.448871 36.958042 31.410673 C 36.952242 31.408673 36.946334 31.406814 36.940464 31.404814 C 36.796564 31.366864 36.648365 31.347665 36.499545 31.347685 L 22.144063 31.347685 C 22.141163 31.347678 22.138174 31.347678 22.135274 31.347685 z M 86.884357 31.347685 C 85.929606 31.347399 85.155554 32.121451 85.15584 33.076202 L 85.15584 212.94014 L 85.15584 212.9416 C 85.156471 213.3987 85.338189 213.83693 85.661212 214.16035 L 85.662676 214.16035 L 85.664141 214.16182 C 85.988278 214.48556 86.427706 214.66734 86.885822 214.66719 L 86.887287 214.66719 L 150.12318 214.62324 L 150.06459 238.70969 C 148.98125 239.31881 148.24232 240.48134 148.24232 241.80198 C 148.24232 243.74541 149.84237 245.34398 151.78578 245.34398 C 153.7292 245.34398 155.32778 243.74541 155.32778 241.80198 C 155.32778 240.48735 154.59544 239.32983 153.52016 238.71848 L 153.58168 212.89912 L 153.58168 212.89326 L 153.58168 212.8918 C 153.58072 212.6697 153.53698 212.44987 153.45278 212.24434 C 153.45078 212.23834 153.44745 212.23159 153.44545 212.22529 C 153.35985 212.02319 153.23658 211.83926 153.08217 211.6833 C 153.07617 211.6773 153.07049 211.67056 153.06459 211.66426 C 152.90808 211.51022 152.72363 211.38742 152.52114 211.30244 C 152.51614 211.30044 152.51042 211.29858 152.50502 211.29658 C 152.29959 211.21188 152.07976 211.16764 151.85756 211.16621 L 151.85463 211.16621 L 88.614339 211.21016 L 88.614339 34.803255 L 92.474206 34.803255 L 92.466882 37.108921 C 91.382835 37.717844 90.64315 38.880045 90.64315 40.201209 C 90.64315 42.144632 92.243186 43.744669 94.18661 43.744669 C 96.130034 43.744669 97.73007 42.144632 97.73007 40.201209 C 97.73007 38.88729 96.998249 37.730784 95.923916 37.119175 L 95.932705 33.080597 C 95.932707 33.079097 95.932707 33.077702 95.932705 33.076202 C 95.932708 33.074202 95.932708 33.072343 95.932705 33.070343 C 95.932832 33.034673 95.931826 32.999013 95.929776 32.963409 C 95.927876 32.937969 95.925451 32.912567 95.922451 32.887237 C 95.921151 32.875017 95.919657 32.862806 95.918057 32.850616 C 95.915457 32.830546 95.912568 32.810527 95.909268 32.790557 C 95.908317 32.785158 95.907338 32.779804 95.906338 32.774444 C 95.901538 32.747954 95.896205 32.721583 95.890225 32.695343 C 95.885325 32.673263 95.879912 32.651295 95.874112 32.629425 C 95.871712 32.620125 95.869287 32.610842 95.866787 32.601592 C 95.859187 32.574543 95.850835 32.547676 95.841885 32.521026 C 95.840385 32.517126 95.83899 32.513227 95.83749 32.509307 C 95.82671 32.477227 95.814984 32.445482 95.802334 32.414092 C 95.790384 32.385932 95.777688 32.358086 95.764248 32.330596 L 95.762783 32.329131 C 95.760383 32.323231 95.757859 32.317403 95.755459 32.311553 C 95.751159 32.303253 95.746756 32.294911 95.742276 32.286651 C 95.729216 32.261411 95.71555 32.236504 95.70126 32.211944 C 95.69126 32.194674 95.681048 32.177584 95.670498 32.160674 L 95.666104 32.154815 C 95.650634 32.129505 95.634514 32.104598 95.617764 32.080108 C 95.604464 32.061278 95.590798 32.042713 95.576748 32.024444 C 95.570948 32.017044 95.56509 32.009741 95.55917 32.002471 C 95.55527 31.998071 95.551371 31.993667 95.547451 31.989287 C 95.530841 31.968387 95.513742 31.947874 95.496182 31.927764 C 95.474862 31.903714 95.452884 31.880271 95.430264 31.857451 C 95.417744 31.845541 95.405048 31.833825 95.392178 31.822295 C 95.349308 31.780935 95.304328 31.741825 95.257412 31.705107 C 95.241502 31.693107 95.225382 31.681391 95.209072 31.669951 C 95.194582 31.659471 95.179927 31.649209 95.165127 31.639189 C 95.153017 31.631189 95.140805 31.623412 95.128505 31.615752 C 95.108735 31.603142 95.088717 31.590931 95.068447 31.579131 C 95.060647 31.574631 95.052859 31.570327 95.045009 31.565947 C 94.921197 31.496817 94.789346 31.443192 94.652431 31.406279 C 94.648031 31.405285 94.643627 31.404249 94.639247 31.403349 C 94.570337 31.385379 94.500377 31.371674 94.429774 31.362334 C 94.420974 31.361334 94.412207 31.360304 94.403407 31.359404 C 94.398507 31.358895 94.393609 31.358442 94.388759 31.357939 C 94.361479 31.354839 94.334127 31.352415 94.306727 31.350615 C 94.286227 31.349761 94.265714 31.34935 94.245204 31.34915 C 94.233494 31.348542 94.221778 31.348085 94.210048 31.347685 L 94.208583 31.347685 C 94.207083 31.347683 94.205688 31.347683 94.204188 31.347685 L 86.884357 31.347685 z M 101.52109 31.347685 C 100.56748 31.348985 99.795216 32.122594 99.795502 33.076202 L 99.795502 198.58466 C 99.79522 199.53826 100.56748 200.31184 101.52109 200.31317 L 231.03683 200.38495 L 231.04269 200.38495 C 231.04469 200.38496 231.04802 200.38496 231.05002 200.38495 C 231.17522 200.38431 231.29997 200.37007 231.42209 200.34247 L 231.42355 200.34247 C 231.54377 200.31447 231.66065 200.27377 231.77219 200.22089 C 231.78119 200.21689 231.79082 200.2119 231.80002 200.2077 C 231.91238 200.1529 232.01847 200.08613 232.11642 200.00848 C 232.11942 200.00548 232.12338 200.0027 232.12668 199.9997 C 232.32534 199.83913 232.48593 199.63651 232.59689 199.40643 C 232.65289 199.29 232.69559 199.16765 232.72434 199.04169 L 232.72434 199.03876 C 232.75154 198.91855 232.76572 198.79579 232.76682 198.67255 C 232.76733 198.66755 232.76682 198.66183 232.76682 198.65643 C 232.76635 198.65243 232.76686 198.64745 232.76682 198.64325 L 232.73605 194.47576 C 233.80258 193.86209 234.52902 192.71071 234.52902 191.40252 C 234.52902 189.45857 232.92745 187.85906 230.9841 187.85906 C 229.04077 187.85906 227.4421 189.45857 227.4421 191.40252 C 227.4421 192.73012 228.18713 193.89711 229.27902 194.5036 L 229.2966 196.92645 L 103.24961 196.8576 L 103.24961 34.803255 L 106.83701 34.803255 L 106.8458 37.122104 C 105.77337 37.734232 105.04258 38.888713 105.04258 40.201209 C 105.04258 42.144632 106.64262 43.744669 108.58604 43.744669 C 110.52945 43.744669 112.1295 42.144632 112.1295 40.201209 C 112.1295 38.878881 111.38844 37.71594 110.30284 37.107456 L 110.28672 33.076202 L 110.28672 33.070343 L 110.28672 33.067413 C 110.28619 32.982063 110.27971 32.896868 110.26621 32.81253 C 110.26521 32.80373 110.26282 32.794943 110.26182 32.786163 C 110.23252 32.612185 110.17662 32.443728 110.09629 32.286651 C 110.09529 32.283751 110.0929 32.280762 110.0919 32.277862 C 110.052 32.201322 110.0065 32.127873 109.95567 32.058135 L 109.95567 32.055205 C 109.95467 32.053205 109.95227 32.051346 109.95127 32.049346 C 109.89877 31.978636 109.84103 31.912033 109.77842 31.850127 L 109.77256 31.844268 C 109.58147 31.656317 109.34928 31.515395 109.09434 31.432646 C 109.08634 31.430146 109.07774 31.427722 109.06944 31.425322 C 108.98944 31.400372 108.90763 31.381273 108.82481 31.368193 C 108.82281 31.368188 108.81948 31.368188 108.81748 31.368193 C 108.73218 31.354923 108.646 31.348075 108.55967 31.347685 L 101.52109 31.347685 z M 29.384793 36.657749 C 27.44137 36.657749 25.841333 38.257786 25.841332 40.201209 C 25.841333 42.144632 27.44137 43.744669 29.384793 43.744669 C 31.328217 43.744669 32.928253 42.144632 32.928253 40.201209 C 32.928253 38.257786 31.328217 36.657749 29.384793 36.657749 z M 43.785685 36.657749 C 41.842264 36.657749 40.242225 38.257787 40.242225 40.201209 C 40.242225 42.144632 41.842264 43.744669 43.785685 43.744669 C 45.729105 43.744669 47.329145 42.144632 47.329145 40.201209 C 47.329145 38.257787 45.729105 36.657749 43.785685 36.657749 z M 50.983934 36.657749 C 49.04051 36.657749 47.440473 38.257787 47.440473 40.201209 C 47.440473 42.144632 49.04051 43.744669 50.983934 43.744669 C 52.927358 43.744669 54.527394 42.144632 54.527394 40.201209 C 54.527394 38.257787 52.927358 36.657749 50.983934 36.657749 z M 58.185112 36.657749 C 56.241688 36.657749 54.641652 38.257787 54.641652 40.201209 C 54.641652 42.144632 56.241688 43.744669 58.185112 43.744669 C 60.128536 43.744669 61.728572 42.144632 61.728572 40.201209 C 61.728572 38.257787 60.128536 36.657749 58.185112 36.657749 z M 65.384826 36.657749 C 63.441403 36.657749 61.841366 38.257786 61.841365 40.201209 C 61.841366 42.144632 63.441403 43.744669 65.384826 43.744669 C 67.32825 43.744669 68.928286 42.144632 68.928286 40.201209 C 68.928286 38.257786 67.32825 36.657749 65.384826 36.657749 z M 72.586004 36.657749 C 70.642581 36.657749 69.042544 38.257786 69.042544 40.201209 C 69.042544 42.144632 70.642581 43.744669 72.586004 43.744669 C 74.529427 43.744669 76.129465 42.144632 76.129465 40.201209 C 76.129465 38.257786 74.529427 36.657749 72.586004 36.657749 z M 79.785718 36.657749 C 77.842297 36.657749 76.242258 38.257787 76.242258 40.201209 C 76.242258 42.144632 77.842297 43.744669 79.785718 43.744669 C 81.729138 43.744669 83.329178 42.144632 83.329178 40.201209 C 83.329178 38.257787 81.729138 36.657749 79.785718 36.657749 z M 122.984 36.657749 C 121.04057 36.657749 119.44054 38.257786 119.44054 40.201209 C 119.44054 42.144632 121.04057 43.744669 122.984 43.744669 C 124.92742 43.744669 126.52746 42.144632 126.52746 40.201209 C 126.52746 38.257786 124.92742 36.657749 122.984 36.657749 z M 130.18518 36.657749 C 128.24175 36.657749 126.64172 38.257786 126.64172 40.201209 C 126.64172 42.144632 128.24175 43.744669 130.18518 43.744669 C 132.1286 43.744669 133.72864 42.144632 133.72864 40.201209 C 133.72864 38.257786 132.1286 36.657749 130.18518 36.657749 z M 137.38489 36.657749 C 135.44146 36.657749 133.84143 38.257786 133.84143 40.201209 C 133.84143 42.144632 135.44146 43.744669 137.38489 43.744669 C 139.32831 43.744669 140.92835 42.144632 140.92835 40.201209 C 140.92835 38.257786 139.32831 36.657749 137.38489 36.657749 z M 144.58607 36.657749 C 142.64265 36.657749 141.04261 38.257786 141.04261 40.201209 C 141.04261 42.144632 142.64265 43.744669 144.58607 43.744669 C 146.52948 43.744669 148.12953 42.144632 148.12953 40.201209 C 148.12953 38.257786 146.52948 36.657749 144.58607 36.657749 z M 151.78578 36.657749 C 149.84237 36.657749 148.24232 38.257786 148.24232 40.201209 C 148.24232 42.144632 149.84237 43.744669 151.78578 43.744669 C 153.7292 43.744669 155.32778 42.144632 155.32778 40.201209 C 155.32778 38.257786 153.7292 36.657749 151.78578 36.657749 z M 7.7856517 36.659213 C 5.8421246 36.659213 4.2407262 38.257684 4.2407266 40.201209 C 4.2407262 42.144737 5.8421246 43.746134 7.7856517 43.746134 C 9.7291789 43.746134 11.327647 42.144737 11.327647 40.201209 C 11.327647 38.257684 9.7291789 36.659213 7.7856517 36.659213 z M 7.7856517 43.857462 C 5.8421245 43.857462 4.2407262 45.458861 4.2407266 47.402387 C 4.2407263 48.718936 4.9761133 49.877032 6.0542048 50.487351 L 5.9721735 162.69302 C 5.9726598 162.69402 5.9731529 162.69642 5.9736383 162.69742 C 5.973115 162.70342 5.9726235 162.71016 5.9721735 162.71646 C 5.9767635 163.00866 6.0553866 163.29493 6.2006893 163.54849 C 6.2045593 163.55449 6.2084691 163.56017 6.2124081 163.56607 C 6.360205 163.81776 6.5693461 164.0279 6.8203188 164.17691 C 6.8309918 164.18291 6.8417344 164.18975 6.8525454 164.19595 C 7.1081084 164.34119 7.3964986 164.41883 7.6904368 164.42154 C 7.6933668 164.42252 7.6962958 164.42347 7.6992258 164.42447 C 7.7026458 164.42399 7.7060657 164.42303 7.7094797 164.423 C 7.7138697 164.42351 7.7182694 164.42447 7.7226634 164.42447 L 11.44044 164.37466 L 11.44044 165.00308 L 11.44044 166.1442 L 18.527361 166.1442 L 18.527361 159.05874 L 11.44044 159.05874 L 11.44044 160.91909 L 9.4306727 160.94546 L 9.5112392 50.490281 C 10.591587 49.880766 11.327647 48.721109 11.327647 47.402387 C 11.327647 45.458861 9.7291789 43.857462 7.7856517 43.857462 z M 14.9839 43.857462 C 13.040476 43.857465 11.44044 45.457501 11.44044 47.400922 C 11.44044 48.710042 12.16697 49.862293 13.234875 50.475632 L 13.202649 54.70171 C 13.203849 54.71784 13.205343 54.73396 13.207043 54.75005 C 13.206542 54.75395 13.20609 54.757849 13.205579 54.761769 C 13.206979 54.772529 13.208373 54.783266 13.209973 54.793996 C 13.213973 54.882096 13.22478 54.969751 13.2422 55.056203 C 13.2483 55.084693 13.255158 55.113024 13.262708 55.141164 C 13.282747 55.219014 13.308209 55.295373 13.338879 55.36968 C 13.347679 55.39332 13.356922 55.416762 13.366712 55.439992 C 13.455611 55.631135 13.57873 55.804398 13.729993 55.951223 C 13.749133 55.968753 13.768677 55.985843 13.788587 56.002493 C 13.847647 56.055573 13.910296 56.104515 13.976087 56.148977 C 14.003427 56.166857 14.031263 56.183947 14.059583 56.200247 C 14.122433 56.236537 14.187501 56.268827 14.254408 56.296927 C 14.285268 56.311027 14.316528 56.324218 14.348158 56.336478 C 14.438648 56.369588 14.531743 56.39507 14.626478 56.41265 C 14.631878 56.41415 14.637222 56.415644 14.642592 56.417044 L 14.644056 56.417044 C 14.735036 56.432684 14.827132 56.441016 14.919447 56.441946 C 14.929707 56.441061 14.939969 56.440017 14.950209 56.439017 C 14.960459 56.440117 14.970711 56.441046 14.980971 56.441946 L 20.475605 56.289603 L 20.910664 153.75454 L 18.098161 153.72377 C 17.495716 152.61746 16.321624 151.85903 14.9839 151.85903 C 13.040476 151.85903 11.44044 153.45906 11.44044 155.40249 C 11.44044 157.34591 13.040476 158.94595 14.9839 158.94595 C 16.281457 158.94595 17.425152 158.2318 18.042497 157.17934 L 20.909199 157.21157 L 20.342304 263.40991 C 20.346404 263.88015 20.538742 264.30364 20.846211 264.61255 L 20.850605 264.61841 C 21.162577 264.92921 21.592411 265.12139 22.066427 265.12231 C 22.067927 265.1228 22.069321 265.12376 22.070821 265.12378 L 266.92993 265.13843 C 267.0633 265.13643 267.19602 265.11946 267.32544 265.08716 C 267.35894 265.07916 267.39215 265.07059 267.42505 265.06079 C 267.68056 264.98359 267.91471 264.84818 268.10913 264.66528 C 268.13423 264.64208 268.15868 264.61821 268.18238 264.59351 C 268.3662 264.39839 268.50211 264.16319 268.57935 263.90649 C 268.58965 263.87309 268.59898 263.83939 268.60718 263.80542 C 268.63948 263.676 268.65665 263.54328 268.65845 263.40991 L 268.65845 184.32439 C 268.65846 184.32139 268.65846 184.3186 268.65845 184.3156 C 268.65781 184.01256 268.57745 183.71501 268.42554 183.45281 L 268.42407 183.45134 C 268.11646 182.92071 267.5506 182.5929 266.93726 182.59001 L 238.13547 182.46111 C 238.13347 182.46159 238.13161 182.46254 238.12961 182.46257 C 238.12461 182.46206 238.1189 182.46111 238.1135 182.46111 C 237.94648 182.46311 237.78069 182.49021 237.62131 182.54021 C 237.61231 182.54221 237.60375 182.54407 237.59495 182.54607 C 237.43144 182.59997 237.2769 182.67795 237.13645 182.77751 C 237.12845 182.78251 237.12071 182.78756 237.11301 182.79216 C 236.97543 182.8928 236.85351 183.01325 236.75119 183.14958 C 236.74419 183.15758 236.73749 183.16608 236.73069 183.17448 C 236.62882 183.31547 236.5488 183.47103 236.49338 183.63591 C 236.49138 183.64091 236.48806 183.64586 236.48606 183.65056 C 236.43206 183.8162 236.4034 183.98905 236.4011 184.16326 C 236.4001 184.16826 236.39917 184.17397 236.39817 184.17937 C 236.39865 184.18137 236.3996 184.18469 236.39963 184.18669 C 236.39912 184.19169 236.39818 184.19674 236.39817 184.20134 L 236.43186 188.33074 C 235.36629 188.94467 234.64182 190.09504 234.64182 191.40252 C 234.64182 192.71304 235.36954 193.86585 236.43918 194.47869 L 236.38645 203.99726 L 166.24381 204.09833 C 166.23881 204.09928 166.23299 204.10026 166.22769 204.10126 C 166.02705 204.10626 165.82878 204.14566 165.64175 204.21845 C 165.58355 204.24415 165.52684 204.27298 165.47183 204.30488 C 165.3427 204.36918 165.22214 204.44939 165.11294 204.54365 C 165.06004 204.59085 165.01019 204.64125 164.96353 204.69452 C 164.86873 204.80363 164.78805 204.9242 164.7233 205.05341 C 164.6919 205.10801 164.66363 205.16421 164.63834 205.22187 C 164.56284 205.41331 164.52218 205.61671 164.51822 205.82245 L 164.46255 238.71262 C 163.38032 239.32205 162.64175 240.48363 162.64175 241.80345 C 162.64175 243.74687 164.24178 245.34544 166.18521 245.34544 C 168.12863 245.34544 169.72867 243.74687 169.72867 241.80345 C 169.72867 240.48782 168.99474 239.32947 167.91812 238.71848 L 167.97232 207.54951 L 238.10764 207.45136 C 238.21842 207.44936 238.32879 207.43744 238.43723 207.41474 C 238.47013 207.40774 238.50288 207.4 238.53538 207.3913 C 238.62198 207.3686 238.70672 207.33921 238.78879 207.30341 C 238.81389 207.29341 238.8388 207.28355 238.8635 207.27265 C 238.96425 207.22295 239.05992 207.16363 239.14915 207.09541 C 239.17255 207.07651 239.19559 207.05691 239.21799 207.03681 C 239.28519 206.97971 239.34783 206.91748 239.40549 206.85078 C 239.42769 206.82648 239.44915 206.80157 239.46995 206.77607 C 239.53775 206.68917 239.59712 206.59596 239.64719 206.49775 C 239.65749 206.47405 239.66729 206.45017 239.67649 206.42597 C 239.71479 206.34077 239.74624 206.25258 239.77024 206.1623 C 239.77824 206.1332 239.78465 206.10391 239.79075 206.07441 C 239.81345 205.9689 239.82613 205.8615 239.82883 205.75361 C 239.82983 205.74661 239.83076 205.7399 239.83176 205.7331 L 239.89622 194.4992 C 240.98462 193.89172 241.72727 192.72753 241.72727 191.40252 C 241.72727 190.07447 240.98139 188.90775 239.88889 188.30144 L 239.86838 185.924 L 265.20142 186.03826 L 265.20142 261.68286 L 23.808127 261.66674 L 24.373558 155.52993 L 24.373558 155.52846 C 24.373595 155.52646 24.37353 155.52314 24.373558 155.52114 L 24.373558 155.48745 L 24.373558 155.48598 L 23.925315 54.531788 C 23.925373 54.526288 23.92385 54.521175 23.92385 54.515675 C 23.924104 54.498585 23.924104 54.481496 23.92385 54.464406 C 23.92035 54.425186 23.915452 54.386106 23.909202 54.347218 C 23.902602 54.279598 23.898439 54.21167 23.884299 54.146534 C 23.873929 54.107564 23.862213 54.068964 23.849143 54.030811 C 23.829133 53.962371 23.80973 53.893325 23.78176 53.828663 C 23.76362 53.790363 23.744066 53.752733 23.723166 53.71587 C 23.689886 53.65237 23.656886 53.589863 23.616233 53.531299 C 23.590613 53.497109 23.563746 53.46389 23.535666 53.43169 C 23.494626 53.38101 23.454656 53.329456 23.408225 53.28374 C 23.366605 53.245 23.323095 53.20833 23.277853 53.173877 C 23.234943 53.139217 23.193643 53.103297 23.147482 53.072803 C 23.101382 53.044223 23.053972 53.017821 23.005392 52.993701 C 22.952852 52.965701 22.901342 52.937149 22.845724 52.914599 C 22.795744 52.895649 22.744904 52.879025 22.69338 52.864795 C 22.63774 52.848065 22.58279 52.830505 22.524923 52.819385 C 22.459933 52.808815 22.394401 52.801967 22.328634 52.798877 C 22.290164 52.795977 22.253514 52.786073 22.214376 52.785693 C 22.204346 52.785587 22.195079 52.788623 22.185079 52.788623 C 22.172879 52.787523 22.160678 52.786493 22.148458 52.785693 L 16.672867 52.936572 L 16.690445 50.500535 C 17.781852 49.893701 18.527361 48.727565 18.527361 47.400922 C 18.527361 45.457501 16.927326 43.857465 14.9839 43.857462 z M 22.185079 43.857462 C 20.241655 43.857465 18.641619 45.457501 18.641619 47.400922 C 18.641619 49.344346 20.241655 50.944383 22.185079 50.944383 C 24.128503 50.944383 25.728539 49.344346 25.728539 47.400922 C 25.728539 45.457499 24.128503 43.857462 22.185079 43.857462 z M 29.383328 43.857462 C 27.440578 43.858279 25.841334 45.457995 25.841332 47.400922 C 25.841334 48.718863 26.578018 49.877221 27.65774 50.487351 L 27.733912 256.28783 L 27.733912 256.2893 C 27.73458 256.76549 27.930049 257.19734 28.242213 257.50951 L 28.243678 257.51098 C 28.556268 257.82211 28.986521 258.01504 29.462429 258.01489 L 29.463894 258.01489 L 29.465359 258.01489 L 252.52904 257.79809 L 252.53344 257.79809 C 252.73407 257.79309 252.93235 257.75368 253.11937 257.6809 C 253.16457 257.6642 253.20907 257.64564 253.25267 257.62524 C 253.4373 257.54434 253.60635 257.43184 253.75219 257.29272 L 253.75219 257.29125 L 253.75365 257.29125 C 253.89211 257.14574 254.00415 256.9772 254.08471 256.7932 C 254.10511 256.75 254.12357 256.7061 254.14037 256.66137 C 254.21397 256.47351 254.25415 256.27421 254.25902 256.0725 L 254.30883 194.49188 C 255.39003 193.88236 256.1267 192.72216 256.1267 191.40252 C 256.1267 189.45857 254.52803 187.85906 252.5847 187.85906 C 250.64136 187.85906 249.03978 189.45857 249.03978 191.40252 C 249.03978 192.71983 249.77598 193.87857 250.85472 194.48895 L 250.80345 254.34398 L 31.189482 254.55785 L 31.111845 50.487351 C 32.190966 49.877055 32.926788 48.718414 32.926788 47.400922 C 32.926788 45.457995 31.327542 43.858279 29.384793 43.857462 L 29.383328 43.857462 z M 43.785685 43.857462 C 41.842264 43.857465 40.242225 45.457501 40.242225 47.400922 C 40.242225 49.344346 41.842264 50.944383 43.785685 50.944383 C 45.729105 50.944383 47.329145 49.344346 47.329145 47.400922 C 47.329145 45.457501 45.729105 43.857465 43.785685 43.857462 z M 50.983934 43.857462 C 49.04051 43.857465 47.440473 45.457501 47.440473 47.400922 C 47.440473 49.344346 49.04051 50.944383 50.983934 50.944383 C 52.927358 50.944383 54.527394 49.344346 54.527394 47.400922 C 54.527394 45.457501 52.927358 43.857465 50.983934 43.857462 z M 58.185112 43.857462 C 56.241688 43.857465 54.641652 45.457501 54.641652 47.400922 C 54.641652 49.344346 56.241688 50.944383 58.185112 50.944383 C 60.128536 50.944383 61.728572 49.344346 61.728572 47.400922 C 61.728572 45.457501 60.128536 43.857465 58.185112 43.857462 z M 65.384826 43.857462 C 63.441405 43.857463 61.841367 45.457499 61.841365 47.400922 C 61.841367 49.344347 63.441405 50.944383 65.384826 50.944383 C 67.328246 50.944383 68.928286 49.344347 68.928286 47.400922 C 68.928286 45.457499 67.328246 43.857463 65.384826 43.857462 z M 72.586004 43.857462 C 70.642584 43.857463 69.042544 45.457499 69.042544 47.400922 C 69.042544 49.344347 70.642584 50.944383 72.586004 50.944383 C 74.529425 50.944383 76.129465 49.344347 76.129465 47.400922 C 76.129465 45.457499 74.529425 43.857463 72.586004 43.857462 z M 79.785718 43.857462 C 77.842297 43.857465 76.242258 45.457501 76.242258 47.400922 C 76.242258 49.344346 77.842297 50.944383 79.785718 50.944383 C 81.729138 50.944383 83.329178 49.344346 83.329178 47.400922 C 83.329178 45.457501 81.729138 43.857465 79.785718 43.857462 z M 94.185145 43.857462 C 92.241721 43.857462 90.641685 45.457499 90.641685 47.400922 C 90.641685 48.718414 91.377507 49.877055 92.456628 50.487351 L 92.477136 205.88984 C 92.476138 205.89484 92.475106 205.89979 92.474206 205.90449 C 92.482206 206.17677 92.554506 206.44329 92.685144 206.68232 C 92.723004 206.74752 92.765084 206.81013 92.811121 206.86982 C 92.927136 207.03579 93.071422 207.18007 93.23739 207.29609 C 93.29845 207.34279 93.362557 207.38539 93.429285 207.42353 C 93.668128 207.55293 93.934111 207.62419 94.205653 207.63154 L 157.19839 207.5539 L 157.25259 238.71702 C 156.17502 239.32774 155.44057 240.48711 155.44057 241.80345 C 155.44057 243.74687 157.04061 245.34544 158.98403 245.34544 C 160.92746 245.34544 162.52749 243.74687 162.52749 241.80345 C 162.52749 240.48363 161.78892 239.32205 160.70669 238.71262 L 160.65103 205.82245 C 160.64703 205.61613 160.60563 205.41221 160.52944 205.2204 C 160.50344 205.1612 160.47405 205.10348 160.44155 205.04755 C 160.37695 204.91996 160.29673 204.80089 160.20278 204.69306 C 160.15568 204.63916 160.10527 204.58833 160.05191 204.54072 C 159.94429 204.44842 159.82573 204.36969 159.69888 204.30634 C 159.64208 204.27324 159.58335 204.24348 159.5231 204.21698 C 159.33064 204.14168 159.12623 204.10147 158.91958 204.09833 L 95.931241 204.17304 L 95.912198 50.487351 C 96.99192 49.877221 97.728606 48.718862 97.728606 47.400922 C 97.728606 45.457501 96.128569 43.857465 94.185145 43.857462 z M 108.58604 43.857462 C 106.64262 43.857463 105.04258 45.457499 105.04258 47.400922 C 105.04258 48.718414 105.7784 49.877055 106.85752 50.487351 L 106.82969 191.26629 C 106.83014 191.56871 106.90999 191.86571 107.06113 192.12762 C 107.3691 192.66368 107.93999 192.99436 108.55821 192.99481 C 108.56621 192.99389 108.57481 192.99288 108.58311 192.99188 L 220.24239 193.12664 L 220.24239 194.94598 L 227.32785 194.94598 L 227.32785 187.85906 L 221.36593 187.85906 L 220.24239 187.85906 L 220.24239 189.66961 L 110.28672 189.53924 L 110.31309 50.487351 C 111.39281 49.877221 112.1295 48.718863 112.1295 47.400922 C 112.1295 45.457499 110.52945 43.857463 108.58604 43.857462 z M 115.78575 43.857462 C 113.84232 43.857465 112.24229 45.457499 112.24229 47.400922 C 112.24229 48.713691 112.97272 49.867999 114.04552 50.480027 L 114.02501 54.505421 L 114.02501 54.511281 L 114.02501 54.51421 C 114.02549 54.51621 114.02644 54.51807 114.02647 54.52007 C 114.02847 54.736058 114.07147 54.949711 114.15245 55.149953 C 114.15845 55.165173 114.16393 55.180313 114.17003 55.195363 C 114.25503 55.396179 114.37732 55.579086 114.53038 55.734426 L 114.53038 55.735891 C 114.53138 55.73687 114.53377 55.737921 114.53477 55.738821 C 114.68831 55.889542 114.86865 56.010264 115.06651 56.094778 C 115.08391 56.102378 115.10155 56.109721 115.11925 56.116751 C 115.31766 56.197031 115.52925 56.239746 115.74327 56.242728 C 115.74527 56.242731 115.74713 56.242731 115.74913 56.242728 L 115.75206 56.242728 L 164.5065 56.242728 L 164.5065 104.9957 L 164.5065 104.99717 C 164.5085 105.21208 164.55089 105.4247 164.63101 105.62412 C 164.63901 105.64482 164.64721 105.66534 164.65591 105.68564 C 164.74041 105.8835 164.86115 106.06384 165.01187 106.21738 L 165.01334 106.21738 C 165.16781 106.37013 165.3497 106.49238 165.54947 106.57773 C 165.56497 106.58473 165.58064 106.59068 165.59634 106.59678 C 165.79786 106.67878 166.01306 106.72205 166.23062 106.72422 L 166.23355 106.72422 L 170.29557 106.72715 C 170.90554 107.8073 172.06507 108.54356 173.38346 108.54356 C 175.32706 108.54356 176.92692 106.9437 176.92692 105.0001 C 176.92692 103.05649 175.32706 101.45664 173.38346 101.45664 C 172.06636 101.45664 170.90748 102.19171 170.29703 103.27011 L 167.96207 103.26718 L 167.96207 54.51421 L 167.96207 49.095748 L 170.25895 49.145553 C 170.85836 50.262533 172.03842 51.030809 173.38346 51.030809 C 175.32637 51.030809 176.92692 49.429438 176.92692 47.485884 C 176.92692 45.542326 175.32637 43.943888 173.38346 43.943888 C 172.09392 43.943888 170.95512 44.648121 170.33512 45.689983 L 166.27164 45.602093 C 166.26364 45.602521 166.25503 45.602975 166.24673 45.603558 C 166.24273 45.603053 166.23775 45.602599 166.23355 45.602093 C 166.21645 45.603293 166.19938 45.604787 166.18228 45.606487 C 166.10078 45.608587 166.01952 45.616385 165.93912 45.629925 C 165.90372 45.636625 165.86852 45.644452 165.83365 45.653362 C 165.76565 45.669302 165.69858 45.689361 165.63296 45.713421 C 165.59936 45.725571 165.56616 45.738762 165.53336 45.752972 C 165.46836 45.782722 165.40522 45.816482 165.34439 45.854046 C 165.31459 45.870266 165.2853 45.887366 165.2565 45.905316 C 165.1762 45.960846 165.10071 46.023078 165.03091 46.091351 C 165.02391 46.096651 165.01721 46.102044 165.01041 46.107464 C 164.99021 46.130864 164.97071 46.154792 164.95181 46.179242 C 164.90801 46.226712 164.86691 46.276592 164.82876 46.328656 C 164.80456 46.363446 164.78152 46.399116 164.75992 46.43559 C 164.72892 46.48682 164.70056 46.539622 164.67496 46.593793 C 164.65416 46.636443 164.63503 46.679943 164.61783 46.724164 C 164.59783 46.779884 164.58076 46.836604 164.56656 46.894086 C 164.55486 46.933266 164.5447 46.972836 164.5358 47.012739 C 164.5185 47.104568 164.5087 47.197646 164.5065 47.291059 C 164.50696 47.296459 164.50791 47.301802 164.50796 47.307172 C 164.50696 47.314972 164.50603 47.32279 164.50503 47.33061 L 164.50503 52.787158 L 117.4879 52.787158 L 117.49962 50.49614 C 118.58687 49.888119 119.32775 48.724468 119.32775 47.400922 C 119.32775 45.457499 117.72917 43.857465 115.78575 43.857462 z M 122.984 43.857462 C 121.04057 43.857465 119.44054 45.457499 119.44054 47.400922 C 119.44054 49.344346 121.04057 50.944383 122.984 50.944383 C 124.92742 50.944383 126.52746 49.344346 126.52746 47.400922 C 126.52746 45.457499 124.92742 43.857465 122.984 43.857462 z M 130.18518 43.857462 C 128.24175 43.857465 126.64172 45.457499 126.64172 47.400922 C 126.64172 49.344346 128.24175 50.944383 130.18518 50.944383 C 132.1286 50.944383 133.72864 49.344346 133.72864 47.400922 C 133.72864 45.457499 132.1286 43.857465 130.18518 43.857462 z M 137.38489 43.857462 C 135.44146 43.857465 133.84143 45.457499 133.84143 47.400922 C 133.84143 49.344346 135.44146 50.944383 137.38489 50.944383 C 139.32831 50.944383 140.92835 49.344346 140.92835 47.400922 C 140.92835 45.457499 139.32831 43.857465 137.38489 43.857462 z M 144.58607 43.857462 C 142.64265 43.857463 141.04261 45.457499 141.04261 47.400922 C 141.04261 49.344347 142.64265 50.944383 144.58607 50.944383 C 146.52948 50.944383 148.12953 49.344347 148.12953 47.400922 C 148.12953 45.457499 146.52948 43.857463 144.58607 43.857462 z M 151.78578 43.857462 C 149.84237 43.857465 148.24232 45.457499 148.24232 47.400922 C 148.24232 49.344346 149.84237 50.944383 151.78578 50.944383 C 153.7292 50.944383 155.32778 49.344346 155.32778 47.400922 C 155.32778 45.457499 153.7292 43.857465 151.78578 43.857462 z M 173.38493 51.172899 C 171.442 51.172899 169.84146 52.771341 169.84146 54.714894 C 169.84146 56.658448 171.442 58.259819 173.38493 58.259819 C 175.32783 58.259819 176.92839 56.658448 176.92839 54.714894 C 176.92839 52.771341 175.32783 51.172899 173.38493 51.172899 z M 230.98117 58.258354 C 229.0393 58.259987 227.4421 59.861081 227.4421 61.803279 C 227.4421 63.121699 228.17828 64.280107 229.25851 64.889708 L 229.25851 87.514241 C 228.17828 88.12433 227.4421 89.284147 227.4421 90.602134 C 227.4421 91.91646 228.1744 93.072726 229.24972 93.684168 L 229.18527 119.43761 C 229.18526 119.43961 229.18526 119.44293 229.18527 119.44493 L 229.18527 119.45079 C 229.18573 119.45679 229.18667 119.46247 229.18673 119.46837 C 229.18773 119.54537 229.19478 119.62116 229.20578 119.69542 C 229.20778 119.71112 229.20964 119.7267 229.21164 119.7423 C 229.22534 119.8205 229.2434 119.89661 229.2673 119.97081 L 229.2673 119.97228 C 229.3225 120.14312 229.40518 120.30099 229.50754 120.44396 C 229.50854 120.44596 229.51093 120.44928 229.51193 120.45128 L 229.51193 120.45275 C 229.52293 120.46705 229.53422 120.48123 229.54562 120.49523 C 229.58952 120.55203 229.63722 120.60845 229.68771 120.65929 C 229.69971 120.67069 229.71193 120.68188 229.72433 120.69298 C 229.77433 120.74038 229.82717 120.78508 229.88254 120.82628 C 229.88954 120.83128 229.89614 120.8371 229.90304 120.8424 L 229.90451 120.8424 C 229.97411 120.8925 230.0474 120.9362 230.12424 120.9757 C 230.13444 120.9807 230.1447 120.98565 230.155 120.99035 C 230.2253 121.02465 230.29949 121.05647 230.37472 121.08117 L 230.37619 121.08117 C 230.38019 121.08217 230.38421 121.08456 230.38791 121.08556 C 230.46471 121.11006 230.54415 121.12762 230.62521 121.14122 C 230.64321 121.14422 230.66131 121.14655 230.67941 121.14855 C 230.75471 121.15875 230.82986 121.16749 230.90793 121.16759 C 230.90993 121.16759 230.91325 121.1676 230.91525 121.16759 L 230.92111 121.16759 L 235.10617 121.14415 C 235.71894 122.21422 236.87162 122.94298 238.18235 122.94298 C 239.49976 122.94298 240.65845 122.20706 241.26878 121.12804 L 249.49681 121.12804 C 250.10714 122.20706 251.26583 122.94298 252.58324 122.94298 C 254.52665 122.94298 256.1267 121.34296 256.1267 119.39952 C 256.1267 117.45611 254.52665 115.85606 252.58324 115.85606 C 251.26583 115.85606 250.10714 116.59199 249.49681 117.67101 L 241.26878 117.67101 C 240.65845 116.59199 239.49976 115.85606 238.18235 115.85606 C 236.85809 115.85606 235.69341 116.59892 235.08567 117.68712 L 232.6467 117.70177 L 232.70969 102.60507 C 232.70991 102.50009 232.69955 102.39732 232.68185 102.29746 L 232.70383 93.688563 C 233.78639 93.078934 234.52609 91.918423 234.52609 90.599204 C 234.52609 89.282382 233.78904 88.123298 232.70969 87.512776 L 232.70969 64.888243 C 233.78904 64.27821 234.52609 63.120535 234.52609 61.803279 C 234.52609 59.861081 232.92595 58.259987 230.9841 58.258354 L 230.98263 58.258354 L 230.98117 58.258354 z M 173.38493 58.400444 C 171.442 58.400444 169.84146 60.000973 169.84146 61.943905 C 169.84146 63.886838 171.442 65.487365 173.38493 65.487365 C 175.32784 65.487365 176.92839 63.886838 176.92839 61.943905 C 176.92839 60.000973 175.32784 58.400444 173.38493 58.400444 z M 145.30531 69.776431 C 143.36189 69.776431 141.76185 71.376469 141.76185 73.319892 C 141.76185 75.263315 143.36189 76.863352 145.30531 76.863352 C 147.24872 76.863352 148.8473 75.263315 148.8473 73.319892 C 148.8473 71.376469 147.24872 69.776431 145.30531 69.776431 z M 152.50649 69.776431 C 150.56308 69.776431 148.96303 71.376469 148.96303 73.319892 C 148.96303 75.263315 150.56308 76.863352 152.50649 76.863352 C 154.4499 76.863352 156.04848 75.263315 156.04848 73.319892 C 156.04848 71.376469 154.4499 69.776431 152.50649 69.776431 z M 259.80786 76.265695 C 257.8674 76.266412 256.24242 77.657582 256.24242 79.598218 C 256.24242 81.539354 257.84477 83.141678 259.78588 83.141678 C 260.48709 83.141678 261.14284 82.931913 261.69604 82.573318 L 265.30103 84.49666 L 265.17505 160.86196 L 131.92395 160.86196 L 131.9137 144.08802 C 132.9927 143.4777 133.72864 142.31902 133.72864 141.00159 C 133.72864 139.05818 132.1286 137.45813 130.18518 137.45813 C 128.24175 137.45813 126.64172 139.05818 126.64172 141.00159 C 126.64172 142.32018 127.37901 143.47959 128.45959 144.08949 L 128.46838 162.59195 C 128.46938 162.89112 128.54818 163.18488 128.6969 163.44449 C 128.6979 163.44749 128.70029 163.45154 128.70129 163.45474 C 128.70229 163.45674 128.70468 163.4586 128.70568 163.4606 C 128.85597 163.71839 129.07045 163.93287 129.32824 164.08316 L 129.33117 164.08755 L 129.33264 164.08755 L 129.33557 164.08902 C 129.59719 164.23945 129.89364 164.31727 130.19543 164.31753 L 266.89917 164.31753 C 267.19148 164.31453 267.47827 164.2389 267.73267 164.09488 C 267.75147 164.08348 267.76993 164.07036 267.78833 164.05826 C 268.02213 163.91643 268.21893 163.72113 268.36255 163.48843 C 268.37675 163.46673 268.39037 163.44481 268.40357 163.42251 C 268.5471 163.16897 268.6242 162.88327 268.62769 162.59195 L 268.75659 83.461014 L 268.75659 83.455155 C 268.7559 83.361375 268.74759 83.267801 268.73169 83.175369 C 268.73069 83.167069 268.7283 83.158757 268.7273 83.150467 C 268.7103 83.055277 268.68529 82.961689 268.65259 82.870682 C 268.65159 82.867782 268.65066 82.864793 268.64966 82.861893 C 268.61756 82.773893 268.57836 82.688653 268.53247 82.60701 C 268.52647 82.59771 268.5209 82.588397 268.5149 82.579178 C 268.4679 82.498828 268.41452 82.422409 268.35523 82.350662 C 268.35223 82.347262 268.34944 82.343858 268.34644 82.340408 C 268.28764 82.271508 268.22198 82.207348 268.15308 82.148513 C 268.14608 82.142113 268.13851 82.13575 268.13111 82.12947 C 268.05981 82.07025 267.98389 82.01685 267.90405 81.969802 C 267.89705 81.965802 267.88948 81.961903 267.88208 81.958083 C 267.86848 81.950083 267.85487 81.942276 267.84107 81.934646 L 263.32495 79.52644 C 263.28686 77.617568 261.72628 76.266404 259.80932 76.265695 L 259.80786 76.265695 z M 145.30531 76.97761 C 143.36189 76.97761 141.76185 78.577647 141.76185 80.52107 C 141.76185 82.464493 143.36189 84.06453 145.30531 84.06453 C 147.24872 84.06453 148.8473 82.464493 148.8473 80.52107 C 148.8473 78.577647 147.24872 76.97761 145.30531 76.97761 z M 152.50649 76.97761 C 150.56308 76.97761 148.96303 78.577647 148.96303 80.52107 C 148.96303 82.464493 150.56308 84.06453 152.50649 84.06453 C 154.4499 84.06453 156.04848 82.464493 156.04848 80.52107 C 156.04848 78.577647 154.4499 76.97761 152.50649 76.97761 z M 152.50649 84.177324 C 150.56308 84.177324 148.96303 85.777361 148.96303 87.720784 C 148.96303 89.664206 150.56308 91.264244 152.50649 91.264244 C 154.4499 91.264244 156.04848 89.664206 156.04848 87.720784 C 156.04848 85.777361 154.4499 84.177324 152.50649 84.177324 z M 173.38493 87.058674 C 171.44131 87.058674 169.84146 88.65852 169.84146 90.602134 C 169.84146 92.545746 171.44131 94.145594 173.38493 94.145594 C 175.32852 94.145594 176.92839 92.545746 176.92839 90.602134 C 176.92839 88.65852 175.32852 87.058674 173.38493 87.058674 z M 259.78588 87.058674 C 257.84333 87.058674 256.24242 88.65958 256.24242 90.602134 C 256.24242 91.919037 256.97825 93.078069 258.05737 93.688563 L 258.05737 97.766691 L 256.24242 97.766691 L 256.24242 103.54844 L 256.24242 104.85361 L 259.78588 104.85361 L 263.32788 104.85361 L 263.32788 97.766691 L 261.5144 97.766691 L 261.5144 93.687098 C 262.59256 93.076342 263.32788 91.918327 263.32788 90.602134 C 263.32788 88.65958 261.72844 87.058674 259.78588 87.058674 z M 259.78588 104.85361 C 257.84477 104.85361 256.24242 106.45668 256.24242 108.39854 C 256.24242 109.69038 256.95105 110.83094 257.99731 111.44981 L 257.98412 112.13829 C 257.98452 112.14859 257.98548 112.15875 257.98559 112.16905 C 257.98509 112.17105 257.98413 112.17437 257.98412 112.17637 L 258.10717 153.61977 L 139.16028 153.61977 L 139.12366 144.08216 C 140.19704 143.47029 140.92835 142.31481 140.92835 141.00159 C 140.92835 139.05818 139.32831 137.45813 137.38489 137.45813 C 135.44146 137.45813 133.84143 139.05818 133.84143 141.00159 C 133.84143 142.32393 134.58248 143.48686 135.66809 144.09535 L 135.7135 155.33803 C 135.71251 155.34103 135.71157 155.34499 135.71057 155.34829 C 135.71153 155.35229 135.7125 155.35727 135.7135 155.36147 C 135.7175 155.64681 135.7929 155.92664 135.93177 156.17592 C 135.94677 156.20072 135.96234 156.22507 135.97864 156.24917 C 136.11961 156.47716 136.31168 156.66924 136.53968 156.8102 C 136.56328 156.8259 136.58715 156.84111 136.61145 156.85561 C 136.86279 156.99619 137.14527 157.07172 137.43323 157.07534 C 137.43523 157.07583 137.43709 157.07678 137.43909 157.0768 L 259.83862 157.0768 L 259.84301 157.0768 L 259.84448 157.0768 C 259.94178 157.0748 260.03884 157.06541 260.13452 157.04751 C 260.16252 157.04251 260.19031 157.03653 260.21801 157.02993 C 260.31401 157.00963 260.40809 156.98127 260.49926 156.94497 C 260.50126 156.944 260.50312 156.94157 260.50512 156.94057 C 260.59742 156.90097 260.68618 156.85347 260.77026 156.79848 C 260.78856 156.78658 260.80666 156.77436 260.82446 156.76186 C 260.90866 156.70446 260.98754 156.63978 261.0603 156.5685 L 261.06176 156.56704 C 261.13126 156.49594 261.19448 156.41901 261.25073 156.33706 C 261.26533 156.31586 261.27951 156.2944 261.29321 156.2726 C 261.34761 156.1889 261.39466 156.10072 261.43383 156.00893 C 261.43432 156.00793 261.43528 156.00554 261.4353 156.00454 C 261.4715 155.91334 261.49996 155.81928 261.52026 155.72329 C 261.52626 155.69759 261.53157 155.67165 261.53637 155.64565 C 261.55467 155.54755 261.56447 155.44807 261.56567 155.34829 L 261.56567 155.34536 L 261.43823 112.20713 L 261.43823 112.20128 L 261.43823 112.16758 L 261.44995 111.51866 C 262.56244 110.91813 263.32641 109.74126 263.32641 108.4 C 263.32641 106.45814 261.72555 104.85508 259.78442 104.85508 L 259.78588 104.85361 z M 223.78585 94.258387 C 221.84224 94.258387 220.24239 95.860319 220.24239 97.803313 C 220.24239 99.746308 221.84224 101.34531 223.78585 101.34531 C 225.72946 101.34531 227.32785 99.746308 227.32785 97.803313 C 227.32785 95.860319 225.72946 94.258387 223.78585 94.258387 z M 223.78585 101.4581 C 221.84225 101.4581 220.24239 103.05795 220.24239 105.00156 C 220.24239 106.94517 221.84225 108.54502 223.78585 108.54502 C 225.72945 108.54502 227.32785 106.94517 227.32785 105.00156 C 227.32785 103.05795 225.72945 101.4581 223.78585 101.4581 z M 144.58607 108.65928 C 142.64265 108.65928 141.04261 110.2593 141.04261 112.20274 C 141.04261 114.14617 142.64265 115.7462 144.58607 115.7462 C 146.52949 115.7462 148.12953 114.14617 148.12953 112.20274 C 148.12953 110.2593 146.52949 108.65928 144.58607 108.65928 z M 151.78578 108.65928 C 149.84237 108.65928 148.24232 110.2593 148.24232 112.20274 C 148.24232 114.14617 149.84237 115.7462 151.78578 115.7462 C 153.7292 115.7462 155.32778 114.14617 155.32778 112.20274 C 155.32778 110.2593 153.7292 108.65928 151.78578 108.65928 z M 223.78585 108.65928 C 221.84224 108.65928 220.24239 110.25829 220.24239 112.20128 C 220.24239 114.14426 221.84224 115.74474 223.78585 115.74474 C 225.72946 115.74474 227.32785 114.14426 227.32785 112.20128 C 227.32785 110.25829 225.72946 108.65928 223.78585 108.65928 z M 144.58607 115.85899 C 142.64265 115.85899 141.04261 117.45904 141.04261 119.40245 C 141.04261 121.34589 142.64265 122.94591 144.58607 122.94591 C 146.52949 122.94591 148.12953 121.34589 148.12953 119.40245 C 148.12953 117.45904 146.52949 115.85899 144.58607 115.85899 z M 151.78578 115.85899 C 149.84237 115.85899 148.24232 117.45904 148.24232 119.40245 C 148.24232 121.34589 149.84237 122.94591 151.78578 122.94591 C 153.7292 122.94591 155.32778 121.34589 155.32778 119.40245 C 155.32778 117.45904 153.7292 115.85899 151.78578 115.85899 z M 173.38493 115.85899 C 171.44131 115.85899 169.84146 117.45886 169.84146 119.40245 C 169.84146 121.34606 171.44131 122.94591 173.38493 122.94591 C 175.32852 122.94591 176.92839 121.34606 176.92839 119.40245 C 176.92839 117.45886 175.32852 115.85899 173.38493 115.85899 z M 223.78585 115.85899 C 221.84225 115.85899 220.24239 117.45886 220.24239 119.40245 C 220.24239 121.34606 221.84225 122.94591 223.78585 122.94591 C 225.72945 122.94591 227.32785 121.34606 227.32785 119.40245 C 227.32785 117.45886 225.72945 115.85899 223.78585 115.85899 z M 144.58607 123.05871 C 142.64265 123.05871 141.04261 124.65875 141.04261 126.60217 C 141.04261 128.54561 142.64265 130.14416 144.58607 130.14416 C 146.52948 130.14416 148.12953 128.54561 148.12953 126.60217 C 148.12953 124.65875 146.52948 123.05871 144.58607 123.05871 z M 151.78578 123.05871 C 149.84237 123.05871 148.24232 124.65874 148.24232 126.60217 C 148.24232 128.54561 149.84237 130.14416 151.78578 130.14416 C 153.7292 130.14416 155.32778 128.54561 155.32778 126.60217 C 155.32778 124.65874 153.7292 123.05871 151.78578 123.05871 z M 234.64182 123.05871 L 234.64182 129.00305 L 234.64182 130.14416 L 236.48313 130.14416 L 236.55051 139.2262 L 154.87075 139.27161 C 154.26019 138.19344 153.10256 137.45813 151.78578 137.45813 C 149.84237 137.45813 148.24232 139.05818 148.24232 141.00159 C 148.24232 142.94503 149.84237 144.54505 151.78578 144.54505 C 153.10398 144.54505 154.26364 143.80872 154.87368 142.72865 L 238.29514 142.68031 L 238.29954 142.68031 L 238.30247 142.68031 C 238.39327 142.67931 238.48392 142.6703 238.57346 142.6554 C 238.58966 142.6524 238.6058 142.64962 238.6218 142.64662 C 238.7069 142.63002 238.79064 142.60697 238.87229 142.57777 C 238.87929 142.57577 238.88696 142.57244 238.89426 142.57044 C 239.07987 142.50174 239.25231 142.40164 239.40403 142.27454 L 239.41575 142.26283 C 239.48185 142.20603 239.54354 142.14435 239.60032 142.07826 C 239.60932 142.06766 239.61905 142.05683 239.62815 142.04603 C 239.74874 141.89912 239.84426 141.73332 239.91087 141.55531 C 239.91487 141.54511 239.91782 141.53484 239.92112 141.52454 C 239.95132 141.43964 239.97483 141.35241 239.99143 141.2638 C 239.99343 141.2558 239.99483 141.24816 239.99583 141.24036 C 240.00983 141.15366 240.0171 141.06599 240.0178 140.97816 C 240.0188 140.96916 240.01973 140.96059 240.02073 140.95179 C 240.02025 140.94979 240.02076 140.94793 240.02073 140.94593 L 240.02073 140.94007 L 239.94016 130.14416 L 241.72874 130.14416 L 241.72874 123.05871 L 234.64182 123.05871 z M 249.04271 123.05871 L 249.04271 129.00305 L 249.04271 130.14416 L 250.85912 130.14416 L 250.86791 146.55922 L 146.24867 146.55922 L 146.27797 144.11 C 147.3774 143.5055 148.12953 142.33422 148.12953 141.00159 C 148.12953 139.05819 146.52948 137.45815 144.58607 137.45813 C 142.64265 137.45815 141.04261 139.05819 141.04261 141.00159 C 141.04261 142.30408 141.76191 143.45185 142.82093 144.06752 L 142.77406 148.26576 C 142.77453 148.27076 142.77547 148.27581 142.77552 148.28041 C 142.77503 148.28141 142.77408 148.2838 142.77406 148.2848 C 142.77454 148.2868 142.77549 148.28866 142.77552 148.29066 C 142.77752 148.58659 142.85492 148.87712 143.00111 149.13441 C 143.00711 149.14341 143.01269 149.15305 143.01869 149.16225 C 143.16709 149.41358 143.37673 149.62322 143.62806 149.77162 C 143.63506 149.77562 143.64167 149.78061 143.64857 149.78481 C 143.90213 149.93011 144.1884 150.00873 144.4806 150.01332 C 144.4866 150.01286 144.49228 150.01192 144.49818 150.01186 C 144.49918 150.01235 144.50011 150.0133 144.50111 150.01332 L 252.59496 150.01332 L 252.59642 150.01332 C 252.70604 150.01345 252.81542 150.00316 252.92308 149.98256 C 252.93208 149.98056 252.94065 149.97724 252.94945 149.97524 C 253.04855 149.95444 253.14557 149.92504 253.23949 149.88734 C 253.25269 149.88234 253.26594 149.87673 253.27904 149.87123 C 253.37514 149.82983 253.46735 149.77983 253.55443 149.72182 C 253.55643 149.71982 253.55976 149.71796 253.56176 149.71596 C 253.64696 149.65826 253.7269 149.59305 253.80053 149.52113 C 253.81053 149.51113 253.82022 149.50174 253.82982 149.49184 C 253.89872 149.42114 253.96146 149.34471 254.01732 149.26332 C 254.02532 149.25172 254.03316 149.24006 254.04076 149.22816 C 254.09446 149.14586 254.14099 149.05911 254.17992 148.96889 C 254.18592 148.95679 254.19083 148.94457 254.19603 148.93227 C 254.23693 148.83192 254.26838 148.72795 254.28978 148.62172 C 254.31198 148.51079 254.32328 148.39794 254.32348 148.2848 L 254.31322 130.14416 L 256.12817 130.14416 L 256.12817 123.05871 L 249.04271 123.05871 z M 43.785685 130.25989 C 41.842261 130.25989 40.242225 131.85992 40.242225 133.80335 C 40.242225 135.74677 41.842261 137.34534 43.785685 137.34534 C 45.729109 137.34534 47.329145 135.74677 47.329145 133.80335 C 47.329145 131.85992 45.729109 130.25989 43.785685 130.25989 z M 50.983934 130.25989 C 49.040512 130.25989 47.440473 131.85992 47.440473 133.80335 C 47.440473 135.74677 49.040512 137.34534 50.983934 137.34534 C 52.927357 137.34534 54.527394 135.74677 54.527394 133.80335 C 54.527394 131.85992 52.927357 130.25989 50.983934 130.25989 z M 58.185112 130.25989 C 56.241691 130.25989 54.641652 131.85992 54.641652 133.80335 C 54.641652 135.74677 56.241691 137.34534 58.185112 137.34534 C 60.128534 137.34534 61.728572 135.74677 61.728572 133.80335 C 61.728572 131.85992 60.128534 130.25989 58.185112 130.25989 z M 65.384826 130.25989 C 63.441404 130.25989 61.841367 131.85992 61.841365 133.80335 C 61.841367 135.74677 63.441404 137.34534 65.384826 137.34534 C 67.328248 137.34534 68.928286 135.74677 68.928286 133.80335 C 68.928286 131.85992 67.328248 130.25989 65.384826 130.25989 z M 72.586004 130.25989 C 70.643199 130.25989 69.041079 131.85994 69.041079 133.80335 C 69.041079 135.74678 70.643199 137.34534 72.586004 137.34534 C 74.528812 137.34534 76.128 135.74678 76.128 133.80335 C 76.128 131.85994 74.528812 130.25989 72.586004 130.25989 z M 79.785718 130.25989 C 77.842294 130.25989 76.242258 131.85992 76.242258 133.80335 C 76.242258 135.74677 77.842294 137.34534 79.785718 137.34534 C 81.729142 137.34534 83.329178 135.74677 83.329178 133.80335 C 83.329178 131.85992 81.729142 130.25989 79.785718 130.25989 z M 115.78575 130.25989 C 113.84232 130.25989 112.24229 131.85992 112.24229 133.80335 C 112.24229 135.74677 113.84232 137.34534 115.78575 137.34534 C 117.72917 137.34534 119.32775 135.74677 119.32775 133.80335 C 119.32775 131.85992 117.72917 130.25989 115.78575 130.25989 z M 122.984 130.25989 C 121.04057 130.25989 119.44054 131.85992 119.44054 133.80335 C 119.44054 135.74677 121.04057 137.34534 122.984 137.34534 C 124.92742 137.34534 126.52746 135.74677 126.52746 133.80335 C 126.52746 131.85992 124.92742 130.25989 122.984 130.25989 z M 130.18518 130.25989 C 128.24175 130.25989 126.64172 131.85992 126.64172 133.80335 C 126.64172 135.74677 128.24175 137.34534 130.18518 137.34534 C 132.1286 137.34534 133.72864 135.74677 133.72864 133.80335 C 133.72864 131.85992 132.1286 130.25989 130.18518 130.25989 z M 137.38489 130.25989 C 135.44146 130.25989 133.84143 131.85992 133.84143 133.80335 C 133.84143 135.74677 135.44146 137.34534 137.38489 137.34534 C 139.32831 137.34534 140.92835 135.74677 140.92835 133.80335 C 140.92835 131.85992 139.32831 130.25989 137.38489 130.25989 z M 144.58607 130.25989 C 142.64265 130.25989 141.04261 131.85992 141.04261 133.80335 C 141.04261 135.74677 142.64265 137.34534 144.58607 137.34534 C 146.52949 137.34534 148.12953 135.74677 148.12953 133.80335 C 148.12953 131.85992 146.52949 130.25989 144.58607 130.25989 z M 151.78578 130.25989 C 149.84237 130.25989 148.24232 131.85992 148.24232 133.80335 C 148.24232 135.74677 149.84237 137.34534 151.78578 137.34534 C 153.7292 137.34534 155.32778 135.74677 155.32778 133.80335 C 155.32778 131.85992 153.7292 130.25989 151.78578 130.25989 z M 43.785685 137.45813 C 41.842262 137.45815 40.242225 139.0582 40.242225 141.00159 C 40.242225 142.94502 41.842262 144.54505 43.785685 144.54505 C 45.729107 144.54505 47.329145 142.94502 47.329145 141.00159 C 47.329145 139.0582 45.729107 137.45815 43.785685 137.45813 z M 50.983934 137.45813 C 49.040511 137.45815 47.440473 139.0582 47.440473 141.00159 C 47.440473 142.94502 49.040511 144.54505 50.983934 144.54505 C 52.927356 144.54505 54.527394 142.94502 54.527394 141.00159 C 54.527394 139.0582 52.927356 137.45815 50.983934 137.45813 z M 58.185112 137.45813 C 56.24169 137.45815 54.641652 139.0582 54.641652 141.00159 C 54.641652 142.94502 56.24169 144.54505 58.185112 144.54505 C 60.128535 144.54505 61.728572 142.94502 61.728572 141.00159 C 61.728572 139.0582 60.128535 137.45815 58.185112 137.45813 z M 65.384826 137.45813 C 63.441405 137.45815 61.841365 139.0582 61.841365 141.00159 C 61.841365 142.94502 63.441405 144.54505 65.384826 144.54505 C 67.328248 144.54505 68.928286 142.94502 68.928286 141.00159 C 68.928286 139.0582 67.328248 137.45815 65.384826 137.45813 z M 72.586004 137.45813 C 70.643199 137.45815 69.041079 139.05818 69.041079 141.00159 C 69.041079 142.94502 70.643199 144.54505 72.586004 144.54505 C 74.528812 144.54505 76.128 142.94502 76.128 141.00159 C 76.128 139.05818 74.528812 137.45815 72.586004 137.45813 z M 79.785718 137.45813 C 77.842295 137.45815 76.242258 139.0582 76.242258 141.00159 C 76.242258 142.94502 77.842295 144.54505 79.785718 144.54505 C 81.72914 144.54505 83.329178 142.94502 83.329178 141.00159 C 83.329178 139.0582 81.72914 137.45815 79.785718 137.45813 z M 115.78575 137.45813 C 113.84232 137.45813 112.24229 139.05818 112.24229 141.00159 C 112.24229 142.94503 113.84232 144.54505 115.78575 144.54505 C 117.72917 144.54505 119.32775 142.94503 119.32775 141.00159 C 119.32775 139.05818 117.72917 137.45813 115.78575 137.45813 z M 259.78588 187.85906 C 257.84195 187.85906 256.24242 189.45858 256.24242 191.40252 C 256.24242 193.34646 257.84195 194.94598 259.78588 194.94598 C 261.72982 194.94598 263.32788 193.34646 263.32788 191.40252 C 263.32788 189.45858 261.72982 187.85906 259.78588 187.85906 z " />
</svg>
