<?xml version="1.0" encoding="UTF-8" standalone="no"?>
<!-- Created with Fritzing (http://www.fritzing.org/) -->

<svg
   y="0in"
   height="100.00005mm"
   width="100.00005mm"
   version="1.2"
   viewBox="0 0 283.46499 283.46499"
   x="0in"
   id="svg723"
   xmlns="http://www.w3.org/2000/svg"
   xmlns:svg="http://www.w3.org/2000/svg">
  <defs
     id="defs727" />
  <rect
     style="fill:#ffffff;fill-opacity:1;stroke:#000000;stroke-width:0.141732;stroke-linecap:round;stroke-dasharray:none;stroke-opacity:1;paint-order:markers stroke fill"
     id="rect6185"
     width="290.06277"
     height="289.87527"
     x="-3.3750031"
     y="-2.8125026" />
  <path
     id="path11242"
     style="color:#000000;fill:#ffffff;fill-opacity:1;stroke:#000000;stroke-width:0.283465;stroke-dasharray:none;stroke-opacity:1;paint-order:markers stroke fill"
     d="m 158.89321,16.771012 c -0.0108,0.0019 -0.0215,0.0038 -0.0322,0.0059 -0.19293,0.0055 -0.38356,0.04318 -0.56397,0.111328 -0.0581,0.02423 -0.11482,0.05161 -0.16992,0.08203 -0.11573,0.05942 -0.22433,0.131656 -0.32373,0.215333 -0.0887,0.07469 -0.16969,0.158115 -0.2417,0.249023 -0.0514,0.06589 -0.0979,0.135406 -0.13916,0.208008 -0.0791,0.136197 -0.13925,0.282572 -0.17871,0.435059 -0.0106,0.04504 -0.0194,0.09049 -0.0264,0.136231 -0.0267,0.09153 -0.0458,0.185107 -0.0571,0.279785 0.007,0.04575 0.0158,0.09119 0.0264,0.136231 l -0.041,5.352544 -142.053351,-0.328125 c -0.750419,0.02436 -1.399236,0.530508 -1.60547,1.252442 -0.04504,0.115805 -0.07745,0.23613 -0.09668,0.358887 -0.01152,0.03724 -0.02178,0.07486 -0.03076,0.112793 0.0019,0.0073 0.0039,0.01466 0.0059,0.02197 -0.0382,0.140927 -0.05838,0.286127 -0.06006,0.432129 l -0.03809,11.274913 c -1.085611,0.608485 -1.826662,1.771425 -1.826662,3.093753 0,1.943425 1.600034,3.54346 3.54346,3.54346 1.943427,0 3.543461,-1.600035 3.543461,-3.54346 0,-1.308305 -0.724689,-2.46108 -1.791506,-3.07471 l 0.06885,-10.012216 141.388317,0.325195 c 0.21916,0.09704 0.45612,0.147423 0.6958,0.14795 h 5.63086 v 5.370122 c 8.7e-4,0.01124 0.002,0.02247 0.003,0.03369 0.002,0.09239 0.0112,0.184486 0.0278,0.275391 0.005,0.0265 0.0111,0.05288 0.0176,0.0791 0.0179,0.07568 0.0409,0.150071 0.0688,0.222656 0.0105,0.02911 0.0217,0.05792 0.0337,0.08643 0.0345,0.07756 0.0746,0.152465 0.12012,0.224121 0.009,0.01676 0.0193,0.03337 0.0293,0.0498 0.0593,0.08751 0.12645,0.169395 0.20068,0.244629 0.0116,0.01041 0.0233,0.02067 0.0352,0.03076 0.063,0.0607 0.13063,0.116528 0.20214,0.166992 0.0283,0.01891 0.0571,0.03699 0.0864,0.0542 0.0613,0.03762 0.12491,0.07138 0.19043,0.101074 0.0332,0.01523 0.0669,0.02939 0.10107,0.04248 0.068,0.02534 0.13742,0.04638 0.20801,0.06299 0.0296,0.0086 0.0594,0.01642 0.0894,0.02344 0.0981,0.01882 0.19754,0.02912 0.29736,0.03076 l 4.04883,0.04102 c 0.60536,1.09658 1.77508,1.847169 3.10548,1.847169 1.32204,0 2.48517,-0.741303 3.09375,-1.826661 l 16.77101,-0.05566 0.0513,75.733954 -16.834,0.041 c -0.6112,-1.07533 -1.76699,-1.80762 -3.08203,-1.80762 -1.94363,0 -3.54347,1.59901 -3.54347,3.542 0,1.94299 1.59984,3.54346 3.54347,3.54346 1.31994,0 2.47996,-0.73825 3.08935,-1.82081 l 18.55666,-0.0469 c 0.001,0 0.003,0 0.004,0 0.0928,-8.5e-4 0.18539,-0.009 0.27685,-0.0249 0.009,-0.001 0.0186,-0.003 0.0278,-0.004 0.0962,-0.0173 0.1908,-0.0428 0.28272,-0.0762 0.002,-9.7e-4 0.004,-0.002 0.006,-0.003 0.18675,-0.0688 0.36019,-0.16945 0.51269,-0.29736 l 0.001,-0.001 c 0.15412,-0.12925 0.2845,-0.28441 0.38525,-0.4585 4.9e-4,-0.001 9.8e-4,-0.003 0.001,-0.004 0.15092,-0.26248 0.23023,-0.56001 0.22998,-0.86279 -4.8e-4,-0.003 -9.7e-4,-0.007 -0.001,-0.0103 l -0.0527,-79.17634 v -0.0015 c 0,-0.0015 0,-0.0029 0,-0.0044 -0.002,-0.298936 -0.082,-0.59218 -0.23145,-0.851075 -9.7e-4,-0.0029 -0.002,-0.0059 -0.003,-0.0088 l -0.001,-0.0029 c -0.15049,-0.257256 -0.36495,-0.471216 -0.62256,-0.621095 -0.004,-0.0029 -0.008,-0.0059 -0.0117,-0.0088 -0.26219,-0.150166 -0.55918,-0.228958 -0.86133,-0.228516 h -0.003 l -18.50539,0.06299 c -0.61178,-1.07445 -1.76715,-1.806154 -3.08056,-1.806154 -1.30447,0 -2.45388,0.721715 -3.06886,1.784181 l -2.33935,-0.0249 v -5.3877 c 2.9e-4,-0.954753 -0.77377,-1.728805 -1.72852,-1.728518 h -5.64844 l 0.0308,-3.897953 54.18169,0.159669 v 12.625499 c 5.2e-4,0.954181 0.77434,1.72734 1.72852,1.727053 l 14.53419,-0.01172 c 0.61104,1.077548 1.76957,1.812013 3.08496,1.812013 1.94205,0 3.54346,-1.601424 3.54346,-3.54346 0,-1.942033 -1.60141,-3.54346 -3.54346,-3.54346 -1.31771,0 -2.47771,0.738685 -3.08789,1.819338 l -12.80421,0.01025 V 18.673845 c 0,-0.0015 0,-0.0029 0,-0.0044 -2e-4,-0.08088 -0.006,-0.161644 -0.0176,-0.2417 -4.8e-4,-0.0024 -9.7e-4,-0.0049 -0.001,-0.0073 -0.011,-0.07319 -0.0266,-0.14561 -0.0469,-0.216797 -0.003,-0.01176 -0.007,-0.02347 -0.0103,-0.03516 -0.0202,-0.06884 -0.0447,-0.136352 -0.0733,-0.202149 -0.005,-0.01031 -0.0106,-0.02056 -0.0161,-0.03076 -0.0314,-0.06767 -0.0671,-0.133236 -0.10693,-0.196289 -0.0441,-0.06932 -0.093,-0.135401 -0.14649,-0.197754 -0.002,-0.002 -0.004,-0.0039 -0.006,-0.0059 -0.0497,-0.05665 -0.10302,-0.109983 -0.15966,-0.159668 -0.009,-0.0079 -0.0185,-0.01572 -0.0278,-0.02344 -0.0539,-0.04643 -0.11068,-0.08948 -0.16992,-0.128906 -0.0126,-0.008 -0.0253,-0.01579 -0.0381,-0.02344 -0.0521,-0.03213 -0.10591,-0.06147 -0.16114,-0.08789 -0.0121,-0.006 -0.0243,-0.01186 -0.0366,-0.01758 -0.0611,-0.02704 -0.12369,-0.05052 -0.1875,-0.07031 -0.0194,-0.0062 -0.039,-0.01206 -0.0586,-0.01758 -0.0645,-0.01845 -0.13006,-0.03312 -0.19629,-0.04395 -0.0127,-0.0016 -0.0254,-0.0031 -0.0381,-0.0044 -0.0743,-0.01072 -0.14911,-0.01659 -0.22412,-0.01758 z m 14.49172,5.487309 c -1.94293,0 -3.54347,1.601369 -3.54347,3.544925 0,1.943556 1.60054,3.541996 3.54347,3.541996 1.31901,0 2.47964,-0.736578 3.08935,-1.817873 l 23.96194,-0.02637 0.20508,97.018158 -24.09231,0.49804 c -0.58594,-1.15716 -1.78865,-1.95849 -3.16406,-1.95849 -1.3112,0 -2.46504,0.72831 -3.07764,1.79883 l -9.63722,-0.0513 V 97.845793 c -3.3e-4,-0.381713 -0.12704,-0.752576 -0.36035,-1.054688 -0.29991,-0.439581 -0.79162,-0.726735 -1.34766,-0.726564 h -11.95167 l 0.0205,-5.255864 c 1.08014,-0.610013 1.8164,-1.769636 1.8164,-3.087893 0,-1.943425 -1.59858,-3.54346 -3.54199,-3.54346 -1.94342,0 -3.54346,1.600035 -3.54346,3.54346 0,1.317101 0.73488,2.475986 1.81348,3.086428 l -0.0264,6.52735 c -0.0384,0.146236 -0.0616,0.299496 -0.0615,0.458497 7.5e-4,0.953989 0.7423,1.725874 1.65527,1.725587 h 12.07033 v 27.004424 c 9.4e-4,0.006 0.002,0.0117 0.003,0.0176 0.004,0.15543 0.0283,0.30966 0.0733,0.4585 0.0125,0.0425 0.0267,0.0846 0.0425,0.12598 0.0454,0.12146 0.1044,0.23743 0.17578,0.3457 0.0172,0.0298 0.0353,0.0591 0.0542,0.0879 0.0966,0.12794 0.21044,0.24183 0.33838,0.33838 0.0311,0.0215 0.0628,0.0421 0.0952,0.0615 0.10616,0.0694 0.21964,0.12685 0.33838,0.17139 0.0433,0.0174 0.0873,0.033 0.13184,0.0469 0.15113,0.0461 0.30786,0.0712 0.46582,0.0747 l 11.35694,0.063 c 0.60773,1.08814 1.77235,1.82959 3.09669,1.82959 1.25813,0 2.3707,-0.66992 3,-1.66992 0.0183,1.7e-4 0.0358,0.002 0.0542,0.001 l 25.9717,-0.53613 c 0.0891,-0.002 0.17551,-0.0129 0.26074,-0.0278 0.0157,-0.003 0.0313,-0.006 0.0469,-0.009 0.1008,-0.0205 0.19803,-0.0493 0.2915,-0.0864 0.007,-0.003 0.0147,-0.006 0.022,-0.009 0.0959,-0.0397 0.18627,-0.0881 0.27246,-0.14355 0.008,-0.005 0.0166,-0.0106 0.0249,-0.0161 0.0838,-0.056 0.16333,-0.11821 0.23584,-0.1875 0.007,-0.007 0.0146,-0.0147 0.022,-0.022 0.0704,-0.0698 0.13427,-0.14614 0.1919,-0.22705 0.007,-0.01 0.0138,-0.0194 0.0205,-0.0293 0.0562,-0.0825 0.10504,-0.17041 0.14649,-0.26221 0.004,-0.01 0.009,-0.0194 0.0132,-0.0293 0.0397,-0.0925 0.0721,-0.18875 0.0952,-0.28857 0.003,-0.0127 0.005,-0.0253 0.007,-0.0381 0.0206,-0.099 0.0323,-0.20045 0.0352,-0.30469 2.3e-4,-0.009 0.003,-0.0163 0.003,-0.0249 v -0.0615 -0.001 L 203.88886,26.00686 c 3.2e-4,-0.02503 -0.005,-0.04845 -0.006,-0.07324 0.005,-0.05405 0.007,-0.108314 0.007,-0.162598 -0.001,-0.95418 -0.7758,-1.726682 -1.72998,-1.725588 l -25.69192,0.0249 c -0.61104,-1.077156 -1.76806,-1.812014 -3.08349,-1.812014 z m 79.20124,7.199714 c -1.94268,0 -3.54493,1.601425 -3.54493,3.54346 0,1.942035 1.60225,3.54346 3.54493,3.54346 1.30967,0 2.46193,-0.728069 3.07471,-1.797364 l 16.67287,0.08935 v 41.456581 0.0015 l 0.0791,91.809168 H 124.68468 l 0.0264,-24.01467 c 1.07997,-0.61006 1.81641,-1.76976 1.81641,-3.0879 0,-1.94342 -1.60004,-3.54346 -3.54346,-3.54346 -1.94343,0 -3.54346,1.60004 -3.54346,3.54346 0,1.31697 0.73507,2.47594 1.81348,3.08643 l -0.0278,25.74173 v 0.001 0.001 c 4.8e-4,0.001 9.7e-4,0.003 0.001,0.004 0.008,0.26832 0.078,0.53112 0.20508,0.76758 0.0214,0.0469 0.0448,0.0929 0.0703,0.13769 0.13781,0.21896 0.32303,0.40419 0.54199,0.542 0.0444,0.0254 0.0898,0.0489 0.13623,0.0703 0.23765,0.12822 0.50205,0.19896 0.77198,0.20654 h 0.001 151.18813 0.001 c 0.11578,-0.002 0.2311,-0.0149 0.34423,-0.0396 0.0364,-0.009 0.0726,-0.0183 0.1084,-0.0293 0.0799,-0.0212 0.15828,-0.0481 0.23438,-0.0806 0.0362,-0.0159 0.0719,-0.033 0.10693,-0.0513 0.0787,-0.041 0.15412,-0.088 0.22559,-0.14063 0.0238,-0.016 0.0473,-0.0326 0.0703,-0.0498 0.0924,-0.0751 0.17687,-0.15951 0.25195,-0.25195 0.0105,-0.015 0.0208,-0.0301 0.0308,-0.0454 0.0592,-0.0779 0.1116,-0.16075 0.15674,-0.24756 0.0173,-0.0341 0.0334,-0.0688 0.0483,-0.10401 0.0331,-0.0775 0.0606,-0.15729 0.082,-0.23877 0.0103,-0.0334 0.0196,-0.0671 0.0278,-0.10107 0.025,-0.11457 0.0382,-0.23138 0.0396,-0.34863 v -0.001 -0.001 l -0.0806,-93.536223 V 33.127472 c -9e-5,-0.07052 -0.004,-0.14096 -0.0132,-0.210938 -0.002,-0.0181 -0.005,-0.03617 -0.007,-0.0542 -0.009,-0.06463 -0.0218,-0.1287 -0.0381,-0.191895 -4.9e-4,-0.0015 -9.8e-4,-0.0029 -0.001,-0.0044 -0.0184,-0.06771 -0.0409,-0.134242 -0.0674,-0.199219 -0.004,-0.0098 -0.009,-0.01957 -0.0132,-0.0293 -0.0266,-0.06327 -0.0569,-0.124905 -0.0908,-0.184571 -0.002,-0.0024 -0.004,-0.0049 -0.006,-0.0073 -0.0682,-0.116554 -0.1498,-0.224714 -0.24317,-0.322266 -0.0162,-0.01743 -0.0328,-0.03453 -0.0498,-0.05127 -0.046,-0.04465 -0.0944,-0.08671 -0.14502,-0.125977 -9.8e-4,-9.78e-4 -0.002,-0.002 -0.003,-0.0029 -0.0539,-0.04036 -0.11018,-0.07753 -0.16846,-0.111328 -0.016,-0.009 -0.0321,-0.01784 -0.0483,-0.02637 -0.11675,-0.06488 -0.24062,-0.115999 -0.36914,-0.152344 -0.0165,-0.0046 -0.0331,-0.009 -0.0498,-0.01318 -0.0517,-0.01266 -0.10404,-0.02293 -0.15673,-0.03076 -0.019,-0.0028 -0.038,-0.0052 -0.0571,-0.0073 -0.0632,-0.0079 -0.12676,-0.0123 -0.19043,-0.01318 l -18.3926,-0.09815 c -0.60768,-1.087754 -1.77031,-1.832521 -3.09375,-1.832521 z M 115.7462,31.230497 c -0.21608,0.0027 -0.42974,0.04595 -0.62988,0.127442 -0.0147,0.0061 -0.0294,0.01249 -0.0439,0.01904 -0.19942,0.08403 -0.38129,0.20478 -0.53613,0.355957 -0.002,0.0015 -0.004,0.0029 -0.006,0.0044 -0.1517,0.154721 -0.27295,0.336593 -0.35742,0.536133 -0.008,0.01746 -0.0149,0.03504 -0.022,0.05274 -0.081,0.200242 -0.12372,0.413894 -0.12597,0.629883 v 0.0029 0.0015 c 0,0.0015 0,0.0029 0,0.0044 l 0.0205,4.155766 c -1.07301,0.61197 -1.80323,1.76764 -1.80323,3.080569 0,1.943425 1.60003,3.54346 3.54346,3.54346 1.94342,0 3.542,-1.600035 3.542,-3.54346 0,-1.323493 -0.74096,-2.487176 -1.82813,-3.095218 l -0.0117,-2.419924 h 39.835 v 5.456548 c 3.4e-4,0.119651 0.0131,0.238943 0.0381,0.355957 0.008,0.03002 0.0168,0.05981 0.0264,0.08936 0.0229,0.08866 0.0528,0.175356 0.0894,0.259278 0.0173,0.03628 0.0359,0.07195 0.0557,0.106933 0.0384,0.07284 0.082,0.142844 0.13037,0.209473 0.0274,0.03628 0.0562,0.07146 0.0864,0.105469 0.0492,0.0566 0.10206,0.109935 0.1582,0.159668 0.0367,0.03286 0.0749,0.06414 0.11426,0.09375 0.0576,0.04226 0.11779,0.08091 0.18018,0.115723 0.0447,0.02697 0.0907,0.0519 0.13769,0.07471 0.0686,0.02943 0.13909,0.05439 0.21094,0.07471 0.0434,0.01542 0.0874,0.02911 0.13183,0.04102 0.0927,0.01891 0.18674,0.03018 0.28126,0.03369 0.0239,0.0034 0.0478,0.0064 0.0718,0.0088 l 11.24855,0.09228 c 0.60671,1.092555 1.77417,1.838381 3.10108,1.838381 1.32667,0 2.49281,-0.746124 3.09961,-1.838381 l 9.57862,-0.07764 v 54.194874 l -9.59034,-0.0044 c -0.60994,-1.080577 -1.76943,-1.817873 -3.08789,-1.817873 -1.94364,0 -3.54347,1.601928 -3.54347,3.544926 0,1.943 1.59983,3.541997 3.54347,3.541997 1.31705,0 2.4745,-0.73546 3.08496,-1.81348 l 11.31886,0.0073 h 0.001 0.001 c 0.11225,-0.0013 0.22411,-0.01359 0.33398,-0.03662 0.0295,-0.0056 0.0588,-0.01193 0.0879,-0.01904 0.10728,-0.02656 0.21176,-0.06335 0.31201,-0.109863 0.0143,-0.0076 0.0284,-0.01543 0.0425,-0.02344 0.0954,-0.04814 0.18611,-0.105024 0.271,-0.169922 0.0143,-0.01052 0.0285,-0.02127 0.0425,-0.03223 0.0883,-0.07192 0.16925,-0.152388 0.2417,-0.240234 0.014,-0.01828 0.0277,-0.03684 0.041,-0.05566 0.0629,-0.08227 0.11832,-0.170022 0.16552,-0.262208 0.007,-0.01309 0.0148,-0.02627 0.022,-0.03955 0.048,-0.102496 0.0857,-0.209455 0.11279,-0.319337 0.006,-0.02527 0.0113,-0.05066 0.0161,-0.07617 0.0246,-0.112652 0.0378,-0.227482 0.0396,-0.342773 v -0.0015 -57.666557 c 2e-5,-0.0049 2e-5,-0.0098 0,-0.01465 -9.4e-4,-0.0068 -0.002,-0.01368 -0.003,-0.02051 -0.003,-0.107398 -0.0155,-0.214307 -0.0381,-0.319337 -0.005,-0.02552 -0.0112,-0.05092 -0.0176,-0.07617 -0.0277,-0.108934 -0.066,-0.214905 -0.11426,-0.316406 -0.009,-0.01576 -0.0173,-0.03139 -0.0264,-0.04687 -0.0474,-0.09117 -0.10275,-0.177944 -0.16552,-0.259278 -0.0119,-0.01682 -0.0241,-0.03342 -0.0366,-0.0498 -0.071,-0.08501 -0.14994,-0.163011 -0.23584,-0.232911 -0.023,-0.01817 -0.0464,-0.03576 -0.0703,-0.05273 -0.0816,-0.06075 -0.16832,-0.114178 -0.25927,-0.159668 -0.0107,-0.006 -0.0214,-0.01183 -0.0322,-0.01758 -0.10449,-0.04732 -0.21342,-0.08413 -0.3252,-0.109863 -0.0233,-0.0059 -0.0468,-0.01123 -0.0703,-0.01611 -0.10987,-0.02303 -0.22173,-0.03529 -0.33398,-0.03662 -0.001,4.86e-4 -0.003,9.75e-4 -0.004,0.0015 -0.003,-4.99e-4 -0.007,-9.87e-4 -0.0103,-0.0015 l -11.32032,0.09082 c -0.61396,-1.065672 -1.76443,-1.791505 -3.07178,-1.791505 -1.30751,0 -2.45934,0.725646 -3.07325,1.791505 l -9.53468,-0.07764 v -5.469731 c 2.9e-4,-0.953606 -0.77197,-1.727183 -1.72558,-1.728518 h -43.2979 -0.001 c -0.002,-3e-6 -0.004,-3e-6 -0.006,0 z m -93.610926,0.117188 c -0.11333,0.0021 -0.226178,0.01535 -0.336914,0.03955 -0.02899,0.0066 -0.05781,0.01391 -0.08643,0.02197 -0.09173,0.02337 -0.18139,0.05423 -0.268067,0.09229 -0.02167,0.0088 -0.04316,0.01812 -0.06445,0.02783 -0.101376,0.0505 -0.197542,0.110853 -0.287109,0.180176 -0.02245,0.01848 -0.04443,0.03753 -0.06592,0.05713 -0.07065,0.06053 -0.13629,0.12666 -0.19629,0.197754 -0.01754,0.01963 -0.03464,0.03965 -0.05127,0.06006 -0.07059,0.09083 -0.131926,0.188484 -0.183106,0.291504 -0.0076,0.01697 -0.01492,0.03406 -0.02197,0.05127 -0.04017,0.09032 -0.07251,0.18393 -0.09668,0.279786 -0.0076,0.02911 -0.01444,0.05842 -0.02051,0.08789 -0.02238,0.106516 -0.03464,0.214908 -0.03662,0.323731 -5.18e-4,0.0059 -0.001,0.01172 -0.0015,0.01758 -2e-6,0.0015 -2e-6,0.0029 0,0.0044 -3e-6,0.002 -3e-6,0.0039 0,0.0059 l 0.02051,4.038578 c -1.06931,0.612966 -1.797365,1.766007 -1.797365,3.076175 0,1.943425 1.600034,3.54346 3.54346,3.54346 1.943426,0 3.54346,-1.600035 3.54346,-3.54346 0,-1.324741 -0.743669,-2.489117 -1.832521,-3.096683 l -0.01318,-2.301271 H 34.771028 V 248.96947 c 9.73e-4,0.002 0.002,0.004 0.0029,0.006 0.02032,0.39808 0.177648,0.7769 0.445313,1.07226 0.06128,0.0723 0.128399,0.13941 0.200683,0.20069 0.297074,0.26976 0.678769,0.42771 1.079591,0.44677 l 136.816535,0.0352 c 0.002,-4.8e-4 0.004,-9.7e-4 0.006,-0.001 0.29493,-0.002 0.58439,-0.0799 0.84082,-0.22559 0.0108,-0.006 0.0216,-0.0126 0.0322,-0.019 0.24616,-0.14648 0.45204,-0.35186 0.59913,-0.59766 0.008,-0.0131 0.0168,-0.0263 0.0249,-0.0395 0.14305,-0.25267 0.22013,-0.53731 0.22412,-0.82764 v -0.0103 c 4.9e-4,-0.001 9.8e-4,-0.003 0.001,-0.004 -4.7e-4,-0.004 -9.6e-4,-0.008 -0.001,-0.0117 l 0.0352,-3.64746 h 0.70898 1.14112 v -7.08546 h -1.8501 l -0.0352,-3.62549 c 5.5e-4,-0.008 0.001,-0.0166 0.001,-0.0249 v -19.98195 l 70.41657,0.18457 c 0.001,-4.9e-4 0.003,-9.8e-4 0.004,-0.001 0.002,5e-4 0.005,9.9e-4 0.007,0.001 0.22318,-0.001 0.44405,-0.0453 0.65039,-0.13037 l 0.001,-0.001 c 0.20534,-0.085 0.39235,-0.20887 0.55078,-0.36474 0.005,-0.005 0.01,-0.01 0.0146,-0.0146 0.15441,-0.15595 0.2777,-0.3399 0.36328,-0.54199 0.003,-0.007 0.007,-0.0146 0.0103,-0.022 0.0849,-0.20589 0.12913,-0.42623 0.13037,-0.64892 0,-0.001 0,-0.003 0,-0.004 0,-0.002 0,-0.004 0,-0.006 l -0.0688,-18.59474 c 1.07278,-0.61192 1.80322,-1.76747 1.80322,-3.08057 0,-1.94394 -1.59952,-3.54346 -3.54346,-3.54346 -1.94395,0 -3.54346,1.59952 -3.54346,3.54346 0,1.32278 0.7409,2.48542 1.82666,3.09375 l 0.0645,16.85451 -70.41218,-0.18311 h -0.001 -0.003 c -0.20006,0.004 -0.39782,0.0436 -0.58448,0.11573 -0.0467,0.0171 -0.0926,0.0361 -0.13769,0.0571 -0.18045,0.0797 -0.34593,0.18966 -0.48926,0.32519 -0.003,0.002 -0.006,0.004 -0.009,0.006 l -0.001,0.001 c -0.13723,0.14343 -0.24873,0.30943 -0.32959,0.49072 -0.0223,0.0479 -0.0423,0.0968 -0.0601,0.14648 -0.0707,0.1825 -0.10978,0.37568 -0.11573,0.57129 -4.9e-4,0.003 -9.8e-4,0.006 -0.001,0.009 v 0.001 0.003 21.71486 c 4.8e-4,0.002 9.7e-4,0.004 0.001,0.006 -5e-4,0.004 -9.9e-4,0.008 -0.001,0.0117 l 0.0352,3.63281 h -1.78126 v 7.08546 h 1.78126 l -0.019,1.93067 -133.375607,-0.0352 V 33.076202 c 5.3e-5,-0.150845 -0.01965,-0.301047 -0.05859,-0.446777 -9.71e-4,-0.0024 -0.0019,-0.0049 -0.0029,-0.0073 -0.03877,-0.143456 -0.09588,-0.281312 -0.169922,-0.410156 -0.0015,-0.002 -0.0029,-0.0039 -0.0044,-0.0059 -0.07238,-0.124171 -0.159972,-0.238826 -0.260742,-0.341309 -0.0068,-0.0069 -0.01361,-0.01373 -0.02051,-0.02051 -0.104041,-0.102709 -0.220695,-0.1918 -0.347168,-0.265137 -0.002,-9.8e-4 -0.0039,-0.002 -0.0059,-0.0029 -0.125837,-0.07172 -0.260192,-0.12733 -0.399903,-0.165528 -0.0058,-0.002 -0.01171,-0.0039 -0.01758,-0.0059 -0.1439,-0.03795 -0.292099,-0.05715 -0.440919,-0.05713 H 22.144063 c -0.0029,-7e-6 -0.0059,-7e-6 -0.0088,0 z m 64.749083,0 c -0.954752,-2.86e-4 -1.728803,0.773765 -1.728517,1.728517 v 179.863938 0.001 c 6.31e-4,0.4571 0.182349,0.89533 0.505372,1.21875 l 0.0015,0.001 0.0015,0.001 c 0.324137,0.32374 0.763564,0.50552 1.221681,0.50537 h 0.0015 l 63.235893,-0.0439 -0.0586,24.08645 c -1.08334,0.60912 -1.82227,1.77165 -1.82227,3.09229 0,1.94343 1.60004,3.54199 3.54346,3.54199 1.94342,0 3.542,-1.59856 3.542,-3.54199 0,-1.31463 -0.73234,-2.47215 -1.80762,-3.0835 l 0.0615,-25.81936 c 0,-0.002 0,-0.004 0,-0.006 v -0.001 c -9.6e-4,-0.2221 -0.0447,-0.44193 -0.1289,-0.64746 -0.002,-0.006 -0.005,-0.0127 -0.007,-0.019 -0.0856,-0.2021 -0.20887,-0.38604 -0.36328,-0.542 -0.006,-0.006 -0.0117,-0.0127 -0.0176,-0.019 -0.15651,-0.15404 -0.34096,-0.27683 -0.54345,-0.36181 -0.005,-0.002 -0.0107,-0.004 -0.0161,-0.006 -0.20543,-0.0847 -0.42526,-0.12895 -0.64746,-0.13038 -0.001,0 -0.003,0 -0.004,0 l -63.240296,0.044 V 34.803255 h 3.859867 l -0.0073,2.305666 c -1.084048,0.608924 -1.823732,1.771123 -1.823732,3.092288 0,1.943425 1.600034,3.54346 3.54346,3.54346 1.943426,0 3.543461,-1.600035 3.543461,-3.54346 0,-1.31392 -0.731821,-2.470424 -1.806155,-3.082034 l 0.0088,-4.038578 c 2e-6,-0.0015 2e-6,-0.0029 0,-0.0044 3e-6,-0.002 3e-6,-0.0039 0,-0.0059 1.27e-4,-0.03567 -8.5e-4,-0.07133 -0.0029,-0.106934 -0.0019,-0.02544 -0.0043,-0.05084 -0.0073,-0.07617 -0.0013,-0.01222 -0.0028,-0.02443 -0.0044,-0.03662 -0.0026,-0.02007 -0.0055,-0.04009 -0.0088,-0.06006 -9.51e-4,-0.0054 -0.0019,-0.01075 -0.0029,-0.01611 -0.0048,-0.02649 -0.01013,-0.05286 -0.01611,-0.0791 -0.0049,-0.02208 -0.01031,-0.04405 -0.01611,-0.06592 -0.0024,-0.0093 -0.0048,-0.01858 -0.0073,-0.02783 -0.0076,-0.02705 -0.01595,-0.05392 -0.0249,-0.08057 -0.0015,-0.0039 -0.0029,-0.0078 -0.0044,-0.01172 -0.01078,-0.03208 -0.02251,-0.06383 -0.03516,-0.09522 -0.01195,-0.02816 -0.02465,-0.05601 -0.03809,-0.0835 l -0.0015,-0.0015 c -0.0024,-0.0059 -0.0049,-0.01173 -0.0073,-0.01758 -0.0043,-0.0083 -0.0087,-0.01664 -0.01318,-0.0249 -0.01306,-0.02524 -0.02673,-0.05015 -0.04102,-0.07471 -0.01,-0.01727 -0.02021,-0.03436 -0.03076,-0.05127 -0.0015,-0.002 -0.0029,-0.0039 -0.0044,-0.0059 -0.01547,-0.02531 -0.03159,-0.05022 -0.04834,-0.07471 -0.0133,-0.01883 -0.02697,-0.03739 -0.04102,-0.05566 -0.0058,-0.0074 -0.01166,-0.0147 -0.01758,-0.02197 -0.0039,-0.0044 -0.0078,-0.0088 -0.01172,-0.01318 -0.01661,-0.0209 -0.03371,-0.04141 -0.05127,-0.06152 -0.02132,-0.02405 -0.0433,-0.04749 -0.06592,-0.07031 -0.01252,-0.01191 -0.02522,-0.02363 -0.03809,-0.03516 -0.04287,-0.04136 -0.08785,-0.08047 -0.134766,-0.117188 -0.01591,-0.012 -0.03203,-0.02372 -0.04834,-0.03516 -0.01449,-0.01048 -0.02914,-0.02074 -0.04394,-0.03076 -0.01211,-0.008 -0.02432,-0.01578 -0.03662,-0.02344 -0.01977,-0.01261 -0.03979,-0.02482 -0.06006,-0.03662 -0.0078,-0.0045 -0.01559,-0.0088 -0.02344,-0.01318 -0.123812,-0.06913 -0.255663,-0.122755 -0.392578,-0.159668 -0.0044,-9.94e-4 -0.0088,-0.002 -0.01318,-0.0029 -0.06891,-0.01797 -0.13887,-0.03167 -0.209473,-0.04101 -0.0088,-0.001 -0.01757,-0.002 -0.02637,-0.0029 -0.0049,-5.09e-4 -0.0098,-9.97e-4 -0.01465,-0.0015 -0.02728,-0.0031 -0.05463,-0.0055 -0.08203,-0.0073 -0.0205,-8.54e-4 -0.04101,-0.0013 -0.06152,-0.0015 -0.01171,-6.08e-4 -0.02343,-0.0011 -0.03516,-0.0015 h -0.0015 c -0.0015,-2e-6 -0.0029,-2e-6 -0.0044,0 z m 14.636733,0 c -0.95361,0.0013 -1.725874,0.774908 -1.725588,1.728517 V 198.58466 c -2.82e-4,0.95361 0.771978,1.72718 1.725588,1.72851 l 129.51574,0.0718 c 0.002,0 0.004,0 0.006,0 0.002,1e-5 0.005,1e-5 0.007,0 0.1252,-6.4e-4 0.24995,-0.0149 0.37207,-0.0425 h 0.001 c 0.12022,-0.028 0.2371,-0.0687 0.34864,-0.12158 0.009,-0.004 0.0186,-0.009 0.0278,-0.0132 0.11236,-0.0548 0.21845,-0.12157 0.3164,-0.19922 0.003,-0.003 0.007,-0.006 0.0103,-0.009 0.19866,-0.16057 0.35925,-0.36319 0.47021,-0.59327 0.056,-0.11643 0.0987,-0.23878 0.12745,-0.36474 v -0.003 c 0.0272,-0.12021 0.0414,-0.24297 0.0425,-0.36621 5.1e-4,-0.005 0.001,-0.0107 0.001,-0.0161 -4.7e-4,-0.004 -9.6e-4,-0.009 -0.001,-0.0132 l -0.0308,-4.16749 c 1.06653,-0.61368 1.79297,-1.76505 1.79297,-3.07324 0,-1.94395 -1.60157,-3.54346 -3.54492,-3.54346 -1.94333,0 -3.542,1.59951 -3.542,3.54346 0,1.3276 0.74503,2.49459 1.83692,3.10108 l 0.0176,2.42285 -126.04699,-0.0688 V 34.803255 h 3.5874 l 0.009,2.318849 c -1.07243,0.612128 -1.80322,1.766608 -1.80322,3.079105 0,1.943425 1.60004,3.54346 3.54346,3.54346 1.94341,0 3.54346,-1.600035 3.54346,-3.54346 0,-1.322329 -0.74105,-2.485268 -1.82666,-3.093753 l -0.0161,-4.031254 c 0,-0.002 0,-0.0039 0,-0.0059 v -0.0029 c -5.3e-4,-0.08535 -0.007,-0.170545 -0.0205,-0.254883 -0.001,-0.0088 -0.003,-0.01759 -0.004,-0.02637 -0.0293,-0.173978 -0.0852,-0.342435 -0.16553,-0.499512 -0.001,-0.0029 -0.003,-0.0059 -0.004,-0.0088 -0.0399,-0.07654 -0.0854,-0.149989 -0.13623,-0.219727 l -0.001,-0.0029 c -0.001,-0.002 -0.003,-0.0039 -0.004,-0.0059 -0.0525,-0.07071 -0.11024,-0.137313 -0.17285,-0.199219 -0.002,-0.002 -0.004,-0.0039 -0.006,-0.0059 -0.19109,-0.187951 -0.42329,-0.328873 -0.67823,-0.411622 -0.008,-0.0025 -0.0166,-0.0049 -0.0249,-0.0073 -0.08,-0.02495 -0.16181,-0.04405 -0.24463,-0.05713 -0.002,-5e-6 -0.005,-5e-6 -0.007,0 -0.0853,-0.01327 -0.17148,-0.02012 -0.25781,-0.02051 z m -72.136297,5.310064 c -1.943425,0 -3.54346,1.600035 -3.543461,3.54346 10e-7,1.943425 1.600036,3.54346 3.543461,3.54346 1.943426,0 3.54346,-1.600035 3.54346,-3.54346 0,-1.943425 -1.600034,-3.54346 -3.54346,-3.54346 z m 14.400892,0 c -1.943423,0 -3.54346,1.600036 -3.54346,3.54346 0,1.943425 1.600037,3.54346 3.54346,3.54346 1.943422,0 3.54346,-1.600035 3.54346,-3.54346 0,-1.943424 -1.600038,-3.54346 -3.54346,-3.54346 z m 7.198249,0 c -1.943426,0 -3.543461,1.600036 -3.543461,3.54346 0,1.943425 1.600035,3.54346 3.543461,3.54346 1.943426,0 3.54346,-1.600035 3.54346,-3.54346 0,-1.943424 -1.600034,-3.54346 -3.54346,-3.54346 z m 7.201178,0 c -1.943426,0 -3.54346,1.600036 -3.54346,3.54346 0,1.943425 1.600034,3.54346 3.54346,3.54346 1.943426,0 3.54346,-1.600035 3.54346,-3.54346 0,-1.943424 -1.600034,-3.54346 -3.54346,-3.54346 z m 7.199714,0 c -1.943425,0 -3.54346,1.600035 -3.543461,3.54346 10e-7,1.943425 1.600036,3.54346 3.543461,3.54346 1.943426,0 3.54346,-1.600035 3.54346,-3.54346 0,-1.943425 -1.600034,-3.54346 -3.54346,-3.54346 z m 7.201178,0 c -1.943425,0 -3.54346,1.600035 -3.54346,3.54346 0,1.943425 1.600035,3.54346 3.54346,3.54346 1.943425,0 3.543461,-1.600035 3.543461,-3.54346 0,-1.943425 -1.600036,-3.54346 -3.543461,-3.54346 z m 7.199714,0 c -1.943423,0 -3.54346,1.600036 -3.54346,3.54346 0,1.943425 1.600037,3.54346 3.54346,3.54346 1.943422,0 3.54346,-1.600035 3.54346,-3.54346 0,-1.943424 -1.600038,-3.54346 -3.54346,-3.54346 z m 43.198282,0 c -1.94343,0 -3.54346,1.600035 -3.54346,3.54346 0,1.943425 1.60003,3.54346 3.54346,3.54346 1.94342,0 3.54346,-1.600035 3.54346,-3.54346 0,-1.943425 -1.60004,-3.54346 -3.54346,-3.54346 z m 7.20118,0 c -1.94343,0 -3.54346,1.600035 -3.54346,3.54346 0,1.943425 1.60003,3.54346 3.54346,3.54346 1.94342,0 3.54346,-1.600035 3.54346,-3.54346 0,-1.943425 -1.60004,-3.54346 -3.54346,-3.54346 z m 7.19971,0 c -1.94343,0 -3.54346,1.600035 -3.54346,3.54346 0,1.943425 1.60003,3.54346 3.54346,3.54346 1.94342,0 3.54346,-1.600035 3.54346,-3.54346 0,-1.943425 -1.60004,-3.54346 -3.54346,-3.54346 z m 7.20118,0 c -1.94342,0 -3.54346,1.600035 -3.54346,3.54346 0,1.943425 1.60004,3.54346 3.54346,3.54346 1.94341,0 3.54346,-1.600035 3.54346,-3.54346 0,-1.943425 -1.60005,-3.54346 -3.54346,-3.54346 z m 7.19971,0 c -1.94342,0 -3.54346,1.600035 -3.54346,3.54346 0,1.943425 1.60004,3.54346 3.54346,3.54346 1.94342,0 3.542,-1.600035 3.542,-3.54346 0,-1.943425 -1.59858,-3.54346 -3.542,-3.54346 z m -144.0001283,0.0015 c -1.943529,0 -3.5449255,1.598469 -3.5449251,3.541996 -4e-7,1.94353 1.6013961,3.544925 3.5449251,3.544925 1.9435292,0 3.5419953,-1.601395 3.5419953,-3.544925 0,-1.943527 -1.5984661,-3.541996 -3.5419953,-3.541996 z m 0,7.198249 c -1.9435291,0 -3.5449255,1.601397 -3.5449251,3.544925 -3e-7,1.31655 0.7353856,2.474644 1.8134782,3.084964 L 5.9721735,162.69302 c 4.863e-4,0.001 9.746e-4,0.003 0.00146,0.004 -5.233e-4,0.006 -0.00101,0.0127 -0.00146,0.019 0.00459,0.2922 0.083213,0.57847 0.2285158,0.83203 0.00387,0.006 0.00778,0.0117 0.011719,0.0176 0.1477971,0.25169 0.3569378,0.46183 0.6079107,0.61084 0.010673,0.006 0.021416,0.0128 0.032227,0.019 0.2555633,0.14524 0.5439529,0.22288 0.8378914,0.22559 0.00293,9.8e-4 0.00586,0.002 0.00879,0.003 0.00342,-4.8e-4 0.00684,-9.7e-4 0.010254,-0.001 0.00439,5.1e-4 0.00879,0.001 0.013184,0.001 l 3.7177766,-0.0498 v 0.62842 1.14112 h 7.086921 v -7.08546 H 11.44044 v 1.86035 l -2.0097673,0.0264 0.080566,-110.455179 c 1.0803488,-0.609515 1.8164078,-1.769171 1.8164078,-3.087894 0,-1.943528 -1.5984661,-3.544925 -3.5419953,-3.544925 z m 7.1982483,0 c -1.943426,3e-6 -3.54346,1.600037 -3.54346,3.54346 0,1.309121 0.726528,2.46137 1.794435,3.07471 l -0.03223,4.226078 c 0.0012,0.01613 0.0027,0.03225 0.0044,0.04834 -5.01e-4,0.0039 -9.89e-4,0.0078 -0.0015,0.01172 0.0014,0.01076 0.0028,0.0215 0.0044,0.03223 0.004,0.0881 0.01481,0.175755 0.03223,0.262207 0.0061,0.02849 0.01296,0.05682 0.02051,0.08496 0.02004,0.07785 0.0455,0.154209 0.07617,0.228516 0.0088,0.02364 0.01804,0.04708 0.02783,0.07031 0.0889,0.191143 0.212018,0.364406 0.363281,0.511231 0.01914,0.01753 0.03868,0.03462 0.05859,0.05127 0.05906,0.05308 0.121709,0.102022 0.1875,0.146484 0.02734,0.01788 0.05518,0.03497 0.0835,0.05127 0.06285,0.03629 0.127918,0.06858 0.194825,0.09668 0.03086,0.0141 0.06212,0.02729 0.09375,0.03955 0.09049,0.03311 0.183585,0.05859 0.27832,0.07617 0.0054,0.0015 0.01074,0.003 0.01611,0.0044 h 0.0015 c 0.09098,0.01564 0.183076,0.02397 0.275391,0.0249 0.01026,-8.85e-4 0.02052,-0.0019 0.03076,-0.0029 0.01025,0.0011 0.0205,0.002 0.03076,0.0029 l 5.494634,-0.152343 0.435059,97.464937 -2.812503,-0.0308 c -0.602446,-1.10632 -1.776536,-1.86474 -3.114261,-1.86474 -1.943426,0 -3.54346,1.60003 -3.54346,3.54346 0,1.94343 1.600034,3.54346 3.54346,3.54346 1.297558,0 2.441251,-0.71415 3.058597,-1.76661 l 2.866702,0.0322 -0.566895,106.19834 c 0.0041,0.47024 0.196438,0.89373 0.503907,1.20264 0.0015,0.002 0.0029,0.004 0.0044,0.006 0.311972,0.3108 0.741806,0.50298 1.215822,0.5039 0.0015,4.9e-4 0.0029,9.8e-4 0.0044,0.001 l 244.859109,0.0147 c 0.13337,-0.002 0.26609,-0.019 0.39551,-0.0513 0.0335,-0.008 0.0667,-0.0166 0.0996,-0.0264 0.25551,-0.0772 0.48966,-0.21261 0.68408,-0.39551 0.0251,-0.0232 0.0496,-0.0471 0.0733,-0.0718 0.18382,-0.19512 0.31973,-0.43032 0.39697,-0.68702 0.0103,-0.0334 0.0196,-0.0671 0.0278,-0.10107 0.0323,-0.12942 0.0495,-0.26214 0.0513,-0.39551 v -79.08552 c 10e-6,-0.003 10e-6,-0.006 0,-0.009 -6.4e-4,-0.30304 -0.081,-0.60059 -0.23291,-0.86279 l -0.001,-0.001 c -0.30762,-0.53063 -0.87347,-0.85844 -1.48681,-0.86133 l -28.80179,-0.1289 c -0.002,4.8e-4 -0.005,9.7e-4 -0.007,0.001 -0.005,-5.1e-4 -0.0107,-0.001 -0.0161,-0.001 -0.16702,0.002 -0.33281,0.0291 -0.49219,0.0791 -0.009,0.002 -0.0176,0.004 -0.0264,0.006 -0.16351,0.0539 -0.31805,0.13188 -0.4585,0.23144 -0.008,0.005 -0.0157,0.01 -0.0234,0.0146 -0.13758,0.10064 -0.2595,0.22109 -0.36182,0.35742 -0.007,0.008 -0.0137,0.0165 -0.0205,0.0249 -0.10187,0.14099 -0.18188,0.29655 -0.2373,0.46143 -0.002,0.005 -0.004,0.01 -0.006,0.0147 -0.054,0.16564 -0.0827,0.33849 -0.085,0.5127 -0.001,0.005 -0.002,0.0107 -0.003,0.0161 4.8e-4,0.002 9.7e-4,0.005 0.001,0.007 -5.1e-4,0.005 -9.9e-4,0.01 -0.001,0.0146 l 0.0337,4.1294 c -1.06557,0.61393 -1.79004,1.7643 -1.79004,3.07178 0,1.31052 0.72772,2.46332 1.79736,3.07617 l -0.0527,9.51857 -70.14264,0.10107 c -0.005,9.5e-4 -0.0108,0.002 -0.0161,0.003 -0.20064,0.005 -0.39891,0.0444 -0.58594,0.11719 -0.0582,0.0257 -0.11491,0.0545 -0.16992,0.0864 -0.12913,0.0643 -0.24969,0.14451 -0.35889,0.23877 -0.0529,0.0472 -0.10275,0.0976 -0.14941,0.15087 -0.0948,0.10911 -0.17548,0.22968 -0.24023,0.35889 -0.0314,0.0546 -0.0597,0.1108 -0.085,0.16846 -0.0755,0.19144 -0.11616,0.39483 -0.12012,0.60058 l -0.0557,32.89017 c -1.08223,0.60943 -1.8208,1.77101 -1.8208,3.09083 0,1.94343 1.60003,3.54199 3.54346,3.54199 1.94342,0 3.54346,-1.59856 3.54346,-3.54199 0,-1.31563 -0.73393,-2.47398 -1.81055,-3.08497 l 0.0542,-31.16897 70.13532,-0.0982 c 0.11078,-0.002 0.22115,-0.0139 0.32959,-0.0366 0.0329,-0.007 0.0657,-0.0147 0.0982,-0.0234 0.0866,-0.0227 0.17134,-0.0521 0.25341,-0.0879 0.0251,-0.01 0.05,-0.0199 0.0747,-0.0308 0.10075,-0.0497 0.19642,-0.10902 0.28565,-0.17724 0.0234,-0.0189 0.0464,-0.0385 0.0688,-0.0586 0.0672,-0.0571 0.12984,-0.11933 0.1875,-0.18603 0.0222,-0.0243 0.0437,-0.0492 0.0645,-0.0747 0.0678,-0.0869 0.12717,-0.18011 0.17724,-0.27832 0.0103,-0.0237 0.0201,-0.0476 0.0293,-0.0718 0.0383,-0.0852 0.0697,-0.17339 0.0937,-0.26367 0.008,-0.0291 0.0144,-0.0584 0.0205,-0.0879 0.0227,-0.10551 0.0354,-0.21291 0.0381,-0.3208 0.001,-0.007 0.002,-0.0137 0.003,-0.0205 l 0.0645,-11.2339 c 1.0884,-0.60748 1.83105,-1.77167 1.83105,-3.09668 0,-1.32805 -0.74588,-2.49477 -1.83838,-3.10108 l -0.0205,-2.37744 25.33304,0.11426 v 75.6446 l -241.393293,-0.0161 0.565431,-106.13681 v -0.001 c 3.7e-5,-0.002 -2.8e-5,-0.005 0,-0.007 v -0.001 -0.0337 -0.001 L 23.925315,54.531788 c 5.8e-5,-0.0055 -0.0015,-0.01061 -0.0015,-0.01611 2.54e-4,-0.01709 2.54e-4,-0.03418 0,-0.05127 -0.0035,-0.03922 -0.0084,-0.0783 -0.01465,-0.117188 -0.0066,-0.06762 -0.01076,-0.135548 -0.0249,-0.200684 -0.01037,-0.03897 -0.02209,-0.07757 -0.03516,-0.115723 -0.02001,-0.06844 -0.03941,-0.137486 -0.06738,-0.202148 -0.01814,-0.0383 -0.03769,-0.07593 -0.05859,-0.112793 -0.03328,-0.0635 -0.06628,-0.126007 -0.106933,-0.184571 -0.02562,-0.03419 -0.05249,-0.06741 -0.08057,-0.09961 -0.04104,-0.05068 -0.08101,-0.102234 -0.127441,-0.14795 -0.04162,-0.03874 -0.08513,-0.07541 -0.130372,-0.109863 -0.04291,-0.03466 -0.08421,-0.07058 -0.130371,-0.101074 -0.0461,-0.02858 -0.09351,-0.05498 -0.14209,-0.0791 -0.05254,-0.028 -0.10405,-0.05655 -0.159668,-0.0791 -0.04998,-0.01895 -0.10082,-0.03557 -0.152344,-0.0498 -0.05564,-0.01673 -0.11059,-0.03429 -0.168457,-0.04541 -0.06499,-0.01057 -0.130522,-0.01742 -0.196289,-0.02051 -0.03847,-0.0029 -0.07512,-0.0128 -0.114258,-0.01318 -0.01003,-1.06e-4 -0.0193,0.0029 -0.0293,0.0029 -0.0122,-0.0011 -0.0244,-0.0021 -0.03662,-0.0029 l -5.475591,0.150879 0.01758,-2.436037 c 1.091408,-0.606834 1.836916,-1.772969 1.836916,-3.099613 0,-1.943423 -1.600034,-3.543457 -3.543461,-3.54346 z m 7.201179,0 c -1.943426,3e-6 -3.54346,1.600037 -3.54346,3.54346 0,1.943425 1.600034,3.543461 3.54346,3.543461 1.943426,0 3.54346,-1.600036 3.54346,-3.543461 0,-1.943425 -1.600034,-3.54346 -3.54346,-3.54346 z m 7.199714,0 c -1.943423,1e-6 -3.543459,1.600035 -3.543461,3.54346 2e-6,1.317942 0.736685,2.476298 1.816408,3.086429 l 0.07617,205.800479 v 0.001 0.001 c 6.68e-4,0.47619 0.196136,0.90805 0.508301,1.22022 l 0.0015,0.001 c 0.31259,0.31113 0.742842,0.50406 1.218751,0.50391 h 0.0015 0.0015 l 223.063681,-0.2168 c 0.001,0 0.003,0 0.004,0 0.20063,-0.005 0.39891,-0.0444 0.58593,-0.11718 0.0452,-0.0167 0.0897,-0.0353 0.1333,-0.0557 0.18463,-0.0809 0.35368,-0.1934 0.49952,-0.33252 l 0.001,-0.001 0.001,-0.001 c 0.13846,-0.14551 0.25049,-0.31405 0.33105,-0.49805 0.0204,-0.0432 0.0389,-0.0871 0.0557,-0.13183 0.0736,-0.18786 0.11378,-0.38716 0.11865,-0.58887 l 0.0498,-61.58062 c 1.0812,-0.60952 1.81788,-1.76972 1.81788,-3.08936 0,-1.94395 -1.59867,-3.54346 -3.542,-3.54346 -1.94335,0 -3.54493,1.59951 -3.54493,3.54346 0,1.31731 0.73621,2.47605 1.81495,3.08643 l -0.0513,59.85503 -219.613973,0.21387 -0.07764,-204.070499 c 1.079122,-0.610297 1.814943,-1.768936 1.814943,-3.086429 0,-1.943425 -1.600038,-3.543459 -3.54346,-3.54346 z m 14.400892,0 c -1.943423,3e-6 -3.54346,1.600037 -3.54346,3.54346 0,1.943425 1.600037,3.543461 3.54346,3.543461 1.943422,0 3.54346,-1.600036 3.54346,-3.543461 0,-1.943423 -1.600038,-3.543457 -3.54346,-3.54346 z m 7.198249,0 c -1.943426,3e-6 -3.543461,1.600037 -3.543461,3.54346 0,1.943425 1.600035,3.543461 3.543461,3.543461 1.943426,0 3.54346,-1.600036 3.54346,-3.543461 0,-1.943423 -1.600034,-3.543457 -3.54346,-3.54346 z m 7.201178,0 c -1.943426,3e-6 -3.54346,1.600037 -3.54346,3.54346 0,1.943425 1.600034,3.543461 3.54346,3.543461 1.943426,0 3.54346,-1.600036 3.54346,-3.543461 0,-1.943423 -1.600034,-3.543457 -3.54346,-3.54346 z m 7.199714,0 c -1.943423,1e-6 -3.543459,1.600035 -3.543461,3.54346 2e-6,1.943426 1.600038,3.543461 3.543461,3.543461 1.943422,0 3.54346,-1.600035 3.54346,-3.543461 0,-1.943425 -1.600038,-3.543459 -3.54346,-3.54346 z m 7.201178,0 c -1.943422,1e-6 -3.54346,1.600035 -3.54346,3.54346 0,1.943426 1.600038,3.543461 3.54346,3.543461 1.943423,0 3.543461,-1.600035 3.543461,-3.543461 0,-1.943425 -1.600038,-3.543459 -3.543461,-3.54346 z m 7.199714,0 c -1.943423,3e-6 -3.54346,1.600037 -3.54346,3.54346 0,1.943425 1.600037,3.543461 3.54346,3.543461 1.943422,0 3.54346,-1.600036 3.54346,-3.543461 0,-1.943423 -1.600038,-3.543457 -3.54346,-3.54346 z m 14.399427,0 c -1.943426,0 -3.54346,1.600035 -3.54346,3.54346 0,1.317493 0.735821,2.476132 1.814943,3.086429 l 0.02051,155.402489 c -9.98e-4,0.005 -0.002,0.01 -0.0029,0.0147 0.008,0.27228 0.0803,0.5388 0.210938,0.77783 0.03786,0.0652 0.07994,0.12781 0.125977,0.1875 0.116016,0.16597 0.2603,0.31025 0.426269,0.42627 0.06106,0.0467 0.125167,0.0893 0.191895,0.12744 0.238843,0.1294 0.504826,0.20066 0.776368,0.20801 l 62.992737,-0.0776 0.0542,31.16312 c -1.07757,0.61072 -1.81202,1.77009 -1.81202,3.08643 0,1.94343 1.60004,3.54199 3.54346,3.54199 1.94343,0 3.54346,-1.59856 3.54346,-3.54199 0,-1.31982 -0.73857,-2.4814 -1.8208,-3.09083 l -0.0557,-32.89017 c -0.004,-0.20633 -0.0454,-0.41024 -0.12159,-0.60205 -0.026,-0.0592 -0.0554,-0.11692 -0.0879,-0.17285 -0.0646,-0.12759 -0.14482,-0.24666 -0.23877,-0.35449 -0.0471,-0.0539 -0.0975,-0.10473 -0.15087,-0.15234 -0.10762,-0.0923 -0.22618,-0.17103 -0.35303,-0.23438 -0.0568,-0.0331 -0.11553,-0.0629 -0.17578,-0.0894 -0.19246,-0.0753 -0.39687,-0.11551 -0.60352,-0.11865 l -62.988339,0.0747 -0.01904,-153.685689 c 1.079723,-0.610131 1.816408,-1.768488 1.816408,-3.086429 0,-1.943423 -1.600035,-3.543457 -3.543461,-3.54346 z m 14.400895,0 c -1.94342,1e-6 -3.54346,1.600035 -3.54346,3.54346 0,1.317493 0.73582,2.476132 1.81494,3.086429 l -0.0278,140.778939 c 4.5e-4,0.30242 0.0803,0.59942 0.23144,0.86133 0.30797,0.53606 0.87886,0.86674 1.49708,0.86719 0.008,-9.2e-4 0.0166,-0.002 0.0249,-0.003 l 111.65928,0.13476 v 1.81934 h 7.08546 v -7.08692 h -5.96192 -1.12354 v 1.81055 l -109.95567,-0.13037 0.0264,-139.051889 c 1.07972,-0.610131 1.81641,-1.768487 1.81641,-3.086429 0,-1.943425 -1.60005,-3.543459 -3.54346,-3.54346 z m 7.19971,0 c -1.94343,3e-6 -3.54346,1.600035 -3.54346,3.54346 0,1.31277 0.73043,2.467076 1.80323,3.079105 l -0.0205,4.025394 c 0,0.002 0,0.0039 0,0.0059 v 0.0029 c 4.8e-4,0.002 9.7e-4,0.0039 0.001,0.0059 0.002,0.215989 0.045,0.429641 0.12598,0.629883 0.006,0.01522 0.0115,0.03036 0.0176,0.04541 0.085,0.200816 0.20729,0.383723 0.36035,0.539063 l 0.001,0.0015 c 0.001,9.79e-4 0.003,0.002 0.004,0.0029 0.15354,0.150721 0.33388,0.271443 0.53174,0.355957 0.0174,0.0076 0.035,0.01494 0.0527,0.02197 0.19841,0.08028 0.41001,0.122995 0.62403,0.125977 0.002,3e-6 0.004,3e-6 0.006,0 h 0.003 48.75444 v 48.752972 0.001 c 0.002,0.21491 0.0444,0.42753 0.12452,0.62695 0.008,0.0207 0.0162,0.0412 0.0249,0.0615 0.0845,0.19786 0.20524,0.3782 0.35596,0.53174 h 0.001 c 0.15447,0.15275 0.33636,0.275 0.53613,0.36035 0.0155,0.007 0.0312,0.0129 0.0469,0.019 0.20152,0.082 0.41672,0.12527 0.63428,0.12744 h 0.003 l 4.06201,0.004 c 0.60997,1.08015 1.76951,1.81641 3.0879,1.81641 1.9436,0 3.54346,-1.59985 3.54346,-3.54346 0,-1.94361 -1.59986,-3.54346 -3.54346,-3.54346 -1.3171,0 -2.47598,0.73507 -3.08643,1.81348 l -2.33497,-0.003 V 54.51421 49.095748 l 2.29688,0.0498 c 0.59941,1.116981 1.77948,1.885256 3.12452,1.885256 1.94291,0 3.54346,-1.601369 3.54346,-3.544925 0,-1.943559 -1.60055,-3.541996 -3.54346,-3.541996 -1.28954,0 -2.42835,0.704232 -3.04835,1.746095 l -4.06348,-0.08789 c -0.008,4.28e-4 -0.0166,9.17e-4 -0.0249,0.0015 -0.004,-5.05e-4 -0.009,-9.94e-4 -0.0132,-0.0015 -0.0171,0.0012 -0.0342,0.0027 -0.0513,0.0044 -0.0815,0.0021 -0.16277,0.0099 -0.24317,0.02344 -0.0354,0.0067 -0.0706,0.01453 -0.10547,0.02344 -0.068,0.01594 -0.13506,0.036 -0.20068,0.06006 -0.0336,0.01215 -0.0668,0.02534 -0.0996,0.03955 -0.065,0.02975 -0.12813,0.06351 -0.18896,0.101074 -0.0298,0.01622 -0.0591,0.03332 -0.0879,0.05127 -0.0803,0.05553 -0.15578,0.117762 -0.22558,0.186035 -0.007,0.0053 -0.0137,0.01069 -0.0205,0.01611 -0.0202,0.0234 -0.0397,0.04733 -0.0586,0.07178 -0.0438,0.04747 -0.0849,0.09735 -0.12305,0.149414 -0.0242,0.03479 -0.0472,0.07046 -0.0688,0.106934 -0.031,0.05123 -0.0594,0.104032 -0.085,0.158203 -0.0208,0.04265 -0.0399,0.08615 -0.0571,0.130371 -0.02,0.05572 -0.0371,0.11244 -0.0513,0.169922 -0.0117,0.03918 -0.0219,0.07875 -0.0308,0.118653 -0.0173,0.09183 -0.0271,0.184907 -0.0293,0.27832 4.6e-4,0.0054 9.5e-4,0.01074 0.001,0.01611 -0.001,0.0078 -0.002,0.01562 -0.003,0.02344 l 0.001,5.456548 H 117.4879 l 0.0117,-2.291018 c 1.08725,-0.608022 1.82813,-1.771671 1.82813,-3.095218 0,-1.943425 -1.59858,-3.543457 -3.542,-3.54346 z m 7.19825,0 c -1.94343,3e-6 -3.54346,1.600035 -3.54346,3.54346 0,1.943425 1.60003,3.543461 3.54346,3.543461 1.94342,0 3.54346,-1.600036 3.54346,-3.543461 0,-1.943425 -1.60004,-3.543457 -3.54346,-3.54346 z m 7.20118,0 c -1.94343,3e-6 -3.54346,1.600035 -3.54346,3.54346 0,1.943425 1.60003,3.543461 3.54346,3.543461 1.94342,0 3.54346,-1.600036 3.54346,-3.543461 0,-1.943425 -1.60004,-3.543457 -3.54346,-3.54346 z m 7.19971,0 c -1.94343,3e-6 -3.54346,1.600035 -3.54346,3.54346 0,1.943425 1.60003,3.543461 3.54346,3.543461 1.94342,0 3.54346,-1.600036 3.54346,-3.543461 0,-1.943425 -1.60004,-3.543457 -3.54346,-3.54346 z m 7.20118,0 c -1.94342,1e-6 -3.54346,1.600035 -3.54346,3.54346 0,1.943426 1.60004,3.543461 3.54346,3.543461 1.94341,0 3.54346,-1.600035 3.54346,-3.543461 0,-1.943425 -1.60005,-3.543459 -3.54346,-3.54346 z m 7.19971,0 c -1.94342,3e-6 -3.54346,1.600035 -3.54346,3.54346 0,1.943425 1.60004,3.543461 3.54346,3.543461 1.94342,0 3.542,-1.600036 3.542,-3.543461 0,-1.943425 -1.59858,-3.543457 -3.542,-3.54346 z m 21.59915,7.315437 c -1.94293,0 -3.54347,1.59844 -3.54347,3.541995 0,1.943556 1.60054,3.544925 3.54347,3.544925 1.94291,0 3.54346,-1.601369 3.54346,-3.544925 0,-1.943555 -1.60055,-3.541995 -3.54346,-3.541995 z m 57.59917,7.085455 c -1.94321,0 -3.542,1.601733 -3.542,3.544925 0,1.318421 0.73618,2.476827 1.81641,3.086429 v 22.624533 c -1.08023,0.61009 -1.81641,1.769905 -1.81641,3.087893 0,1.314327 0.7323,2.470591 1.80762,3.082034 l -0.0644,25.753442 c -1e-5,0.002 -1e-5,0.005 0,0.007 0,0.002 0,0.004 0,0.006 4.6e-4,0.006 9.4e-4,0.0117 0.001,0.0176 0.001,0.077 0.008,0.15279 0.019,0.22705 0.002,0.0157 0.005,0.0313 0.007,0.0469 0.0137,0.0782 0.0318,0.15431 0.0557,0.22851 v 0.001 0.001 c 0.0552,0.17084 0.13787,0.32871 0.24023,0.47168 0.001,0.002 0.003,0.005 0.004,0.007 v 0.001 c 0.011,0.0143 0.0223,0.0285 0.0337,0.0425 0.0439,0.0568 0.0916,0.11323 0.14209,0.16407 0.012,0.0114 0.0242,0.0226 0.0366,0.0337 0.05,0.0474 0.10283,0.0921 0.1582,0.1333 0.007,0.005 0.0136,0.0108 0.0205,0.0161 l 0.001,0.001 c 0.0696,0.0501 0.14289,0.0938 0.21973,0.1333 0.0102,0.005 0.0205,0.01 0.0308,0.0147 0.0703,0.0343 0.1445,0.0661 0.21973,0.0908 h 0.001 c 0.004,0.001 0.008,0.003 0.0117,0.004 0.0768,0.0245 0.15625,0.0421 0.23731,0.0557 0.018,0.003 0.0361,0.005 0.0542,0.007 0.0753,0.0102 0.15044,0.0189 0.22851,0.019 h 0.001 c 0.002,0 0.005,1e-5 0.007,0 0.002,0 0.004,0 0.006,0 l 4.18506,-0.0234 c 0.61277,1.07007 1.76545,1.79883 3.07618,1.79883 1.31741,0 2.4761,-0.73592 3.08643,-1.81494 h 8.22803 c 0.61033,1.07902 1.76902,1.81494 3.08643,1.81494 1.94341,0 3.54346,-1.60002 3.54346,-3.54346 0,-1.94342 -1.60005,-3.54346 -3.54346,-3.54346 -1.31741,0 -2.4761,0.73593 -3.08643,1.81495 h -8.22803 c -0.61033,-1.07902 -1.76902,-1.81495 -3.08643,-1.81495 -1.32426,0 -2.48893,0.74286 -3.09668,1.83106 l -2.43897,0.0147 0.063,-15.0967 c 2.2e-4,-0.10498 -0.0101,-0.20775 -0.0278,-0.30761 l 0.022,-8.608898 c 1.08256,-0.609629 1.82226,-1.770138 1.82226,-3.089358 0,-1.316824 -0.73705,-2.475906 -1.8164,-3.086429 V 64.888243 c 1.07935,-0.610034 1.8164,-1.767707 1.8164,-3.084964 0,-1.943192 -1.60173,-3.544925 -3.54492,-3.544925 z m 28.80178,0 c -1.94257,0 -3.54346,1.601729 -3.54346,3.544925 0,1.317257 0.73594,2.474931 1.81495,3.084964 v 4.078129 h -1.81495 v 5.781744 1.305177 h 7.08546 v -7.086921 h -1.81348 v -4.078129 c 1.0784,-0.610201 1.81348,-1.768159 1.81348,-3.084964 0,-1.943196 -1.59943,-3.544925 -3.542,-3.544925 z m -86.40095,0.14209 c -1.94293,0 -3.54347,1.600527 -3.54347,3.543461 0,1.942935 1.60054,3.54346 3.54347,3.54346 1.94292,0 3.54346,-1.600525 3.54346,-3.54346 0,-1.942934 -1.60054,-3.543461 -3.54346,-3.543461 z m -28.07962,11.375987 c -1.94342,0 -3.54346,1.600036 -3.54346,3.543461 0,1.943425 1.60004,3.54346 3.54346,3.54346 1.94341,0 3.54199,-1.600035 3.54199,-3.54346 0,-1.943425 -1.59858,-3.543461 -3.54199,-3.543461 z m 7.20118,0 c -1.94341,0 -3.54346,1.600036 -3.54346,3.543461 0,1.943425 1.60005,3.54346 3.54346,3.54346 1.94341,0 3.54199,-1.600035 3.54199,-3.54346 0,-1.943425 -1.59858,-3.543461 -3.54199,-3.543461 z m 107.30283,6.489781 c -1.94112,0 -3.5669,1.390868 -3.5669,3.332006 0,1.941138 1.60234,3.54346 3.54346,3.54346 0.70121,0 1.35696,-0.209765 1.91016,-0.56836 l 3.60499,1.923342 -0.12598,76.3653 h -133.2511 l -0.0102,-16.77394 c 1.07901,-0.61032 1.81494,-1.769 1.81494,-3.08643 0,-1.94342 -1.60004,-3.54346 -3.54346,-3.54346 -1.94343,0 -3.54346,1.60004 -3.54346,3.54346 0,1.31859 0.73729,2.478 1.81787,3.0879 l 0.009,18.50246 c 0.001,0.29917 0.0798,0.59293 0.22852,0.85254 0.001,0.003 0.003,0.007 0.004,0.0102 0.001,0.002 0.003,0.004 0.004,0.006 0.15029,0.25779 0.36477,0.47227 0.62256,0.62256 0.001,0.001 0.003,0.003 0.004,0.004 h 0.001 l 0.003,0.001 c 0.26162,0.15043 0.55808,0.22972 0.85987,0.22998 h 136.70374 c 0.29231,-0.003 0.57909,-0.0801 0.83349,-0.22412 0.0188,-0.0114 0.0373,-0.0231 0.0557,-0.0352 0.2338,-0.14183 0.4306,-0.33712 0.57422,-0.56982 0.0142,-0.0217 0.0278,-0.0436 0.041,-0.0659 0.14353,-0.25354 0.22063,-0.53925 0.22412,-0.83057 l 0.12891,-79.130931 c 0,-0.002 0,-0.0039 0,-0.0059 -6.9e-4,-0.09378 -0.009,-0.187354 -0.0249,-0.279786 -0.001,-0.0083 -0.003,-0.01661 -0.004,-0.0249 -0.017,-0.09519 -0.042,-0.188778 -0.0747,-0.279785 -0.001,-0.0029 -0.003,-0.0059 -0.004,-0.0088 -0.0321,-0.088 -0.0713,-0.173239 -0.11719,-0.254883 -0.006,-0.0093 -0.0116,-0.01861 -0.0176,-0.02783 -0.047,-0.08035 -0.10038,-0.156768 -0.15967,-0.228515 -0.003,-0.0034 -0.006,-0.0068 -0.009,-0.01025 -0.0588,-0.0689 -0.123,-0.13306 -0.1919,-0.191895 -0.007,-0.0064 -0.0146,-0.01276 -0.022,-0.01904 -0.0713,-0.05922 -0.14721,-0.11262 -0.22705,-0.159668 -0.007,-0.004 -0.0146,-0.0079 -0.022,-0.01172 -0.0136,-0.008 -0.0272,-0.01581 -0.041,-0.02344 l -4.51612,-2.408206 c -0.0381,-1.909375 -1.59944,-3.261693 -3.51709,-3.261693 z M 145.30531,76.97761 c -1.94342,0 -3.54346,1.600035 -3.54346,3.54346 0,1.943425 1.60004,3.54346 3.54346,3.54346 1.94341,0 3.54199,-1.600035 3.54199,-3.54346 0,-1.943425 -1.59858,-3.54346 -3.54199,-3.54346 z m 7.20118,0 c -1.94341,0 -3.54346,1.600035 -3.54346,3.54346 0,1.943425 1.60005,3.54346 3.54346,3.54346 1.94341,0 3.54199,-1.600035 3.54199,-3.54346 0,-1.943425 -1.59858,-3.54346 -3.54199,-3.54346 z m 0,7.199714 c -1.94341,0 -3.54346,1.600035 -3.54346,3.54346 0,1.943424 1.60005,3.54346 3.54346,3.54346 1.94341,0 3.54199,-1.600036 3.54199,-3.54346 0,-1.943425 -1.59858,-3.54346 -3.54199,-3.54346 z m 20.87844,2.88135 c -1.94362,0 -3.54347,1.599844 -3.54347,3.54346 0,1.943614 1.59985,3.54346 3.54347,3.54346 1.9436,0 3.54346,-1.599846 3.54346,-3.54346 0,-1.943616 -1.59986,-3.54346 -3.54346,-3.54346 z m 86.40095,0 c -1.94256,0 -3.54346,1.600904 -3.54346,3.54346 0,1.316904 0.73583,2.475935 1.81495,3.086429 v 4.078128 h -1.81495 v 5.781749 1.30517 h 3.54346 3.542 v -7.086919 h -1.81348 v -4.079593 c 1.07816,-0.610756 1.81348,-1.76877 1.81348,-3.084964 0,-1.942556 -1.59944,-3.54346 -3.542,-3.54346 z m 0,17.794936 c -1.94112,0 -3.54346,1.60307 -3.54346,3.54493 0,1.29184 0.70863,2.4324 1.75489,3.05127 l -0.0132,0.68848 c 4e-4,0.0103 8.9e-4,0.0205 0.001,0.0308 -5e-4,0.002 -9.9e-4,0.005 -0.001,0.007 l 0.12305,41.4434 H 139.16028 l -0.0366,-9.53761 c 1.07338,-0.61187 1.80469,-1.76735 1.80469,-3.08057 0,-1.94342 -1.60004,-3.54346 -3.54346,-3.54346 -1.94343,0 -3.54346,1.60004 -3.54346,3.54346 0,1.32234 0.74105,2.48527 1.82666,3.09376 l 0.0454,11.24268 c -9.9e-4,0.003 -0.002,0.007 -0.003,0.0103 9.6e-4,0.004 0.002,0.009 0.003,0.0132 0.004,0.28534 0.0794,0.56516 0.21827,0.81445 0.015,0.0248 0.0306,0.0492 0.0469,0.0733 0.14097,0.22799 0.33304,0.42007 0.56104,0.56103 0.0236,0.0157 0.0475,0.0309 0.0718,0.0454 0.25134,0.14058 0.53382,0.21611 0.82178,0.21973 0.002,4.9e-4 0.004,9.8e-4 0.006,0.001 h 122.39953 c 0.001,0 0.003,0 0.004,0 h 0.001 c 0.0973,-0.002 0.19436,-0.0114 0.29004,-0.0293 0.028,-0.005 0.0558,-0.011 0.0835,-0.0176 0.096,-0.0203 0.19008,-0.0487 0.28125,-0.085 0.002,-9.7e-4 0.004,-0.002 0.006,-0.003 0.0923,-0.0396 0.18106,-0.0871 0.26514,-0.14209 0.0183,-0.0119 0.0364,-0.0241 0.0542,-0.0366 0.0842,-0.0574 0.16308,-0.12208 0.23584,-0.19336 l 0.001,-0.001 0.001,-0.001 c 0.0695,-0.0711 0.13271,-0.14803 0.18896,-0.22998 0.0146,-0.0212 0.0288,-0.0427 0.0425,-0.0645 0.0544,-0.0837 0.10146,-0.17188 0.14063,-0.26367 4.9e-4,-0.001 9.8e-4,-0.003 0.001,-0.004 0.0362,-0.0912 0.0647,-0.18526 0.085,-0.28125 0.006,-0.0257 0.0113,-0.0516 0.0161,-0.0776 0.0183,-0.0981 0.0281,-0.19758 0.0293,-0.29736 v -0.001 -0.003 l -0.12745,-43.13822 v -0.006 -0.0337 l 0.0117,-0.64893 c 1.11249,-0.60053 1.87647,-1.77739 1.87647,-3.11865 0,-1.94186 -1.60087,-3.54493 -3.542,-3.54493 z M 223.78585,94.258387 c -1.94361,0 -3.54346,1.60193 -3.54346,3.544926 0,1.942997 1.59985,3.541997 3.54346,3.541997 1.94361,0 3.542,-1.599 3.542,-3.541997 0,-1.942996 -1.59839,-3.544926 -3.542,-3.544926 z m 0,7.199713 c -1.9436,0 -3.54346,1.59985 -3.54346,3.54346 0,1.94361 1.59986,3.54346 3.54346,3.54346 1.9436,0 3.542,-1.59985 3.542,-3.54346 0,-1.94361 -1.5984,-3.54346 -3.542,-3.54346 z m -79.19978,7.20118 c -1.94342,0 -3.54346,1.60002 -3.54346,3.54346 0,1.94343 1.60004,3.54346 3.54346,3.54346 1.94342,0 3.54346,-1.60003 3.54346,-3.54346 0,-1.94344 -1.60004,-3.54346 -3.54346,-3.54346 z m 7.19971,0 c -1.94342,0 -3.54346,1.60002 -3.54346,3.54346 0,1.94343 1.60004,3.54346 3.54346,3.54346 1.94342,0 3.542,-1.60003 3.542,-3.54346 0,-1.94344 -1.59858,-3.54346 -3.542,-3.54346 z m 72.00007,0 c -1.94361,0 -3.54346,1.59901 -3.54346,3.542 0,1.94299 1.59985,3.54346 3.54346,3.54346 1.94361,0 3.542,-1.60047 3.542,-3.54346 0,-1.94299 -1.59839,-3.542 -3.542,-3.542 z m -79.19978,7.19971 c -1.94342,0 -3.54346,1.60004 -3.54346,3.54346 0,1.94344 1.60004,3.54346 3.54346,3.54346 1.94342,0 3.54346,-1.60002 3.54346,-3.54346 0,-1.94342 -1.60004,-3.54346 -3.54346,-3.54346 z m 7.19971,0 c -1.94342,0 -3.54346,1.60004 -3.54346,3.54346 0,1.94344 1.60004,3.54346 3.54346,3.54346 1.94342,0 3.542,-1.60002 3.542,-3.54346 0,-1.94342 -1.59858,-3.54346 -3.542,-3.54346 z m 21.59915,0 c -1.94362,0 -3.54347,1.59986 -3.54347,3.54346 0,1.94361 1.59985,3.54346 3.54347,3.54346 1.9436,0 3.54346,-1.59985 3.54346,-3.54346 0,-1.9436 -1.59986,-3.54346 -3.54346,-3.54346 z m 50.40092,0 c -1.9436,0 -3.54346,1.59986 -3.54346,3.54346 0,1.94361 1.59986,3.54346 3.54346,3.54346 1.9436,0 3.542,-1.59985 3.542,-3.54346 0,-1.9436 -1.5984,-3.54346 -3.542,-3.54346 z m -79.19978,7.19972 c -1.94342,0 -3.54346,1.60004 -3.54346,3.54346 0,1.94344 1.60004,3.54199 3.54346,3.54199 1.94341,0 3.54346,-1.59855 3.54346,-3.54199 0,-1.94342 -1.60005,-3.54346 -3.54346,-3.54346 z m 7.19971,0 c -1.94342,0 -3.54346,1.60003 -3.54346,3.54346 0,1.94344 1.60004,3.54199 3.54346,3.54199 1.94342,0 3.542,-1.59855 3.542,-3.54199 0,-1.94343 -1.59858,-3.54346 -3.542,-3.54346 z m 82.85604,0 v 5.94434 1.14111 h 1.84131 l 0.0674,9.08204 -81.67976,0.0454 c -0.61056,-1.07817 -1.76819,-1.81348 -3.08497,-1.81348 -1.94342,0 -3.54346,1.60004 -3.54346,3.54346 0,1.94344 1.60004,3.54346 3.54346,3.54346 1.3182,0 2.47786,-0.73633 3.0879,-1.8164 l 83.42146,-0.0483 c 0.001,0 0.003,0 0.004,0 0.001,0 0.003,0 0.004,0 0.0908,-0.001 0.18146,-0.01 0.271,-0.0249 0.0162,-0.003 0.0323,-0.006 0.0483,-0.009 0.0851,-0.0166 0.16883,-0.0397 0.25048,-0.0689 0.007,-0.002 0.0147,-0.005 0.022,-0.007 0.18561,-0.0687 0.35804,-0.1688 0.50976,-0.2959 0.004,-0.004 0.008,-0.008 0.0117,-0.0117 0.0661,-0.0568 0.12779,-0.11848 0.18457,-0.18457 0.009,-0.0106 0.0187,-0.0214 0.0278,-0.0322 0.12059,-0.14691 0.21611,-0.31271 0.28272,-0.49072 0.004,-0.0102 0.007,-0.0205 0.0103,-0.0308 0.0302,-0.0849 0.0537,-0.17213 0.0703,-0.26074 0.002,-0.008 0.003,-0.0156 0.004,-0.0234 0.014,-0.0867 0.0213,-0.17437 0.022,-0.2622 0.001,-0.009 0.002,-0.0176 0.003,-0.0264 -4.8e-4,-0.002 -9.7e-4,-0.004 -0.001,-0.006 0,-0.002 0,-0.004 0,-0.006 l -0.0806,-10.79591 h 1.78858 v -7.08545 z m 14.40089,0 v 5.94434 1.14111 h 1.81641 l 0.009,16.41506 H 146.24867 l 0.0293,-2.44922 c 1.09943,-0.6045 1.85156,-1.77578 1.85156,-3.10841 0,-1.94341 -1.60005,-3.54344 -3.54346,-3.54346 -1.94342,2e-5 -3.54346,1.60005 -3.54346,3.54346 0,1.30249 0.7193,2.45026 1.77832,3.06593 l -0.0469,4.19824 c 4.7e-4,0.005 9.5e-4,0.01 0.001,0.0146 -4.9e-4,0.001 -9.8e-4,0.003 -0.001,0.004 4.8e-4,0.002 9.7e-4,0.004 0.001,0.006 0.002,0.29593 0.0794,0.58646 0.22559,0.84375 0.006,0.009 0.0116,0.0186 0.0176,0.0278 0.1484,0.25133 0.35804,0.46097 0.60937,0.60937 0.007,0.004 0.0136,0.009 0.0205,0.0132 0.25356,0.1453 0.53983,0.22392 0.83203,0.22851 0.006,-4.6e-4 0.0117,-9.4e-4 0.0176,-0.001 0.001,4.9e-4 0.003,9.8e-4 0.004,0.001 h 108.09385 0.001 c 0.10962,1.3e-4 0.219,-0.0102 0.32666,-0.0308 0.009,-0.002 0.0176,-0.005 0.0264,-0.007 0.0991,-0.0208 0.19612,-0.0502 0.29004,-0.0879 0.0132,-0.005 0.0264,-0.0106 0.0395,-0.0161 0.0961,-0.0414 0.18831,-0.0914 0.27539,-0.14941 0.002,-0.002 0.005,-0.004 0.007,-0.006 0.0852,-0.0577 0.16514,-0.12291 0.23877,-0.19483 0.01,-0.01 0.0197,-0.0194 0.0293,-0.0293 0.0689,-0.0707 0.13164,-0.14713 0.1875,-0.22852 0.008,-0.0116 0.0158,-0.0233 0.0234,-0.0352 0.0537,-0.0823 0.10023,-0.16905 0.13916,-0.25927 0.006,-0.0121 0.0109,-0.0243 0.0161,-0.0366 0.0409,-0.10035 0.0723,-0.20432 0.0937,-0.31055 0.0222,-0.11093 0.0335,-0.22378 0.0337,-0.33692 l -0.0102,-18.14064 h 1.81494 v -7.08545 z m -205.257025,7.20118 c -1.943426,0 -3.54346,1.60003 -3.54346,3.54346 0,1.94343 1.600034,3.54199 3.54346,3.54199 1.943426,0 3.54346,-1.59856 3.54346,-3.54199 0,-1.94343 -1.600034,-3.54346 -3.54346,-3.54346 z m 7.198249,0 c -1.943424,0 -3.543461,1.60003 -3.543461,3.54346 0,1.94343 1.600037,3.54199 3.543461,3.54199 1.943425,0 3.54346,-1.59856 3.54346,-3.54199 0,-1.94343 -1.600035,-3.54346 -3.54346,-3.54346 z m 7.201178,0 c -1.943423,0 -3.54346,1.60003 -3.54346,3.54346 0,1.94343 1.600037,3.54199 3.54346,3.54199 1.943424,0 3.54346,-1.59856 3.54346,-3.54199 0,-1.94343 -1.600036,-3.54346 -3.54346,-3.54346 z m 7.199714,0 c -1.943424,0 -3.543459,1.60003 -3.543461,3.54346 2e-6,1.94343 1.600037,3.54199 3.543461,3.54199 1.943424,0 3.54346,-1.59856 3.54346,-3.54199 0,-1.94343 -1.600036,-3.54346 -3.54346,-3.54346 z m 7.201178,0 c -1.942807,0 -3.544925,1.60005 -3.544925,3.54346 0,1.94344 1.602118,3.54199 3.544925,3.54199 1.94281,0 3.541996,-1.59855 3.541996,-3.54199 0,-1.94341 -1.599186,-3.54346 -3.541996,-3.54346 z m 7.199714,0 c -1.943426,0 -3.54346,1.60003 -3.54346,3.54346 0,1.94343 1.600034,3.54199 3.54346,3.54199 1.943426,0 3.54346,-1.59856 3.54346,-3.54199 0,-1.94343 -1.600034,-3.54346 -3.54346,-3.54346 z m 36.000032,0 c -1.94343,0 -3.54346,1.60003 -3.54346,3.54346 0,1.94343 1.60003,3.54199 3.54346,3.54199 1.94342,0 3.542,-1.59856 3.542,-3.54199 0,-1.94343 -1.59858,-3.54346 -3.542,-3.54346 z m 7.19825,0 c -1.94343,0 -3.54346,1.60003 -3.54346,3.54346 0,1.94343 1.60003,3.54199 3.54346,3.54199 1.94342,0 3.54346,-1.59856 3.54346,-3.54199 0,-1.94343 -1.60004,-3.54346 -3.54346,-3.54346 z m 7.20118,0 c -1.94343,0 -3.54346,1.60003 -3.54346,3.54346 0,1.94343 1.60003,3.54199 3.54346,3.54199 1.94342,0 3.54346,-1.59856 3.54346,-3.54199 0,-1.94343 -1.60004,-3.54346 -3.54346,-3.54346 z m 7.19971,0 c -1.94343,0 -3.54346,1.60003 -3.54346,3.54346 0,1.94343 1.60003,3.54199 3.54346,3.54199 1.94342,0 3.54346,-1.59856 3.54346,-3.54199 0,-1.94343 -1.60004,-3.54346 -3.54346,-3.54346 z m 7.20118,0 c -1.94342,0 -3.54346,1.60003 -3.54346,3.54346 0,1.94343 1.60004,3.54199 3.54346,3.54199 1.94342,0 3.54346,-1.59856 3.54346,-3.54199 0,-1.94343 -1.60004,-3.54346 -3.54346,-3.54346 z m 7.19971,0 c -1.94342,0 -3.54346,1.60003 -3.54346,3.54346 0,1.94343 1.60004,3.54199 3.54346,3.54199 1.94342,0 3.542,-1.59856 3.542,-3.54199 0,-1.94343 -1.59858,-3.54346 -3.542,-3.54346 z m -108.000095,7.19824 c -1.943425,2e-5 -3.54346,1.60006 -3.54346,3.54346 0,1.94343 1.600035,3.54346 3.54346,3.54346 1.943424,0 3.54346,-1.60003 3.54346,-3.54346 0,-1.9434 -1.600036,-3.54344 -3.54346,-3.54346 z m 7.198249,0 c -1.943425,2e-5 -3.543461,1.60006 -3.543461,3.54346 0,1.94343 1.600036,3.54346 3.543461,3.54346 1.943424,0 3.54346,-1.60003 3.54346,-3.54346 0,-1.9434 -1.600036,-3.54344 -3.54346,-3.54346 z m 7.201178,0 c -1.943424,2e-5 -3.54346,1.60006 -3.54346,3.54346 0,1.94343 1.600036,3.54346 3.54346,3.54346 1.943425,0 3.54346,-1.60003 3.54346,-3.54346 0,-1.9434 -1.600035,-3.54344 -3.54346,-3.54346 z m 7.199714,0 c -1.943423,2e-5 -3.543461,1.60006 -3.543461,3.54346 0,1.94343 1.600038,3.54346 3.543461,3.54346 1.943424,0 3.54346,-1.60003 3.54346,-3.54346 0,-1.9434 -1.600036,-3.54344 -3.54346,-3.54346 z m 7.201178,0 c -1.942807,2e-5 -3.544925,1.60004 -3.544925,3.54346 0,1.94343 1.602118,3.54346 3.544925,3.54346 1.94281,0 3.541996,-1.60003 3.541996,-3.54346 0,-1.94342 -1.599186,-3.54344 -3.541996,-3.54346 z m 7.199714,0 c -1.943425,2e-5 -3.54346,1.60006 -3.54346,3.54346 0,1.94343 1.600035,3.54346 3.54346,3.54346 1.943424,0 3.54346,-1.60003 3.54346,-3.54346 0,-1.9434 -1.600036,-3.54344 -3.54346,-3.54346 z m 36.000032,0 c -1.94343,0 -3.54346,1.60004 -3.54346,3.54346 0,1.94344 1.60003,3.54346 3.54346,3.54346 1.94342,0 3.542,-1.60002 3.542,-3.54346 0,-1.94342 -1.59858,-3.54346 -3.542,-3.54346 z m 144.00013,50.40093 c -1.94394,0 -3.54346,1.59952 -3.54346,3.54346 0,1.94394 1.59952,3.54346 3.54346,3.54346 1.94394,0 3.542,-1.59952 3.542,-3.54346 0,-1.94394 -1.59806,-3.54346 -3.542,-3.54346 z" />
  <path
     style="fill:#000000;fill-opacity:1;stroke:#000000;stroke-width:0.28346483;stroke-linecap:round;stroke-dasharray:none;stroke-opacity:1;paint-order:markers stroke fill"
     d="m 258.36938,104.91806 2.83594,0.0117"
     id="path3115" />
  <text
     xml:space="preserve"
     style="font-size:20px;font-family:Magneto;-inkscape-font-specification:'Magneto, Normal';fill:#ffffff;fill-opacity:1;stroke:#000000;stroke-width:0.28346483;stroke-linecap:round;stroke-dasharray:none;stroke-opacity:1;paint-order:markers stroke fill"
     x="21.750021"
     y="18.187517"
     id="text6081"><tspan
       id="tspan6079"
       style="stroke-width:0.28346483;fill:#ffffff;fill-opacity:1;stroke-dasharray:none"
       x="21.750021"
       y="18.187517">orion-v1</tspan></text>
</svg>
