<?xml version="1.0" encoding="UTF-8" standalone="no"?>
<!-- Created with Fritzing (http://www.fritzing.org/) -->

<svg
   y="0in"
   height="100.00005mm"
   width="100.00005mm"
   version="1.2"
   viewBox="0 0 283.46499 283.46499"
   x="0in"
   id="svg723"
   xmlns="http://www.w3.org/2000/svg"
   xmlns:svg="http://www.w3.org/2000/svg">
  <defs
     id="defs727" />
  <rect
     fill="none"
     stroke="#000000"
     y="0.28799999"
     stroke-width="0.5"
     height="282.88901"
     width="282.88901"
     id="boardoutline"
     fill-opacity="0.5"
     x="-283.177"
     transform="scale(-1,1)"
     style="stroke:#ffffff;stroke-opacity:1" />
  <path
     style="color:#000000;fill:#ffffff;fill-opacity:1;stroke:#ffffff;stroke-width:0.56693;stroke-dasharray:none;stroke-opacity:1"
     d="m 7.7851562,37.083984 c 1.7103354,0 3.1171878,1.406853 3.1171878,3.117188 0,1.710335 -1.4068524,3.11914 -3.1171878,3.11914 -1.7103353,0 -3.1191407,-1.408805 -3.1191406,-3.11914 -10e-8,-1.710335 1.4088053,-3.117188 3.1191406,-3.117188 z"
     id="path11242" />
  <path
     style="color:#000000;fill:#ffffff;fill-opacity:1;stroke:#ffffff;stroke-width:0.56693;stroke-dasharray:none;stroke-opacity:1"
     d="m 7.7851562,44.283203 c 1.7103354,0 3.1171878,1.408805 3.1171878,3.119141 0,1.710335 -1.4068524,3.117187 -3.1171878,3.117187 -1.7103353,0 -3.1191407,-1.406852 -3.1191406,-3.117187 -10e-8,-1.710336 1.4088053,-3.119141 3.1191406,-3.119141 z"
     id="path11248" />
  <path
     style="color:#000000;fill:#ffffff;fill-opacity:1;stroke:#ffffff;stroke-width:0.56693;stroke-dasharray:none;stroke-opacity:1"
     d="m 11.904297,165.68164 v -0.99219 -5.16797 h 6.160156 v 6.16016 z"
     id="path11254" />
  <path
     style="color:#000000;fill:#ffffff;fill-opacity:1;stroke:#ffffff;stroke-width:0.56693;stroke-dasharray:none;stroke-opacity:1"
     d="m 14.984375,158.48242 c -1.689354,0 -3.080078,-1.39072 -3.080078,-3.08008 0,-1.68935 1.390724,-3.08007 3.080078,-3.08007 1.689354,0 3.080078,1.39072 3.080078,3.08007 0,1.68936 -1.390724,3.08008 -3.080078,3.08008 z"
     id="path11266" />
  <path
     style="color:#000000;fill:#ffffff;fill-opacity:1;stroke:#ffffff;stroke-width:0.56693;stroke-dasharray:none;stroke-opacity:1"
     d="m 43.785156,136.88281 c -1.689354,0 -3.080078,-1.39072 -3.080078,-3.08008 0,-1.68935 1.390724,-3.08007 3.080078,-3.08007 1.689354,0 3.080078,1.39072 3.080078,3.08007 0,1.68936 -1.390724,3.08008 -3.080078,3.08008 z"
     id="path11272" />
  <path
     style="color:#000000;fill:#ffffff;fill-opacity:1;stroke:#ffffff;stroke-width:0.56693;stroke-dasharray:none;stroke-opacity:1"
     d="m 50.984375,136.88281 c -1.689354,0 -3.080078,-1.39072 -3.080078,-3.08008 0,-1.68935 1.390724,-3.08007 3.080078,-3.08007 1.689354,0 3.080078,1.39072 3.080078,3.08007 0,1.68936 -1.390724,3.08008 -3.080078,3.08008 z"
     id="path11278" />
  <path
     style="color:#000000;fill:#ffffff;fill-opacity:1;stroke:#ffffff;stroke-width:0.56693;stroke-dasharray:none;stroke-opacity:1"
     d="m 58.185547,136.88281 c -1.689354,0 -3.080078,-1.39072 -3.080078,-3.08008 0,-1.68935 1.390724,-3.08007 3.080078,-3.08007 1.689354,0 3.080078,1.39072 3.080078,3.08007 0,1.68936 -1.390724,3.08008 -3.080078,3.08008 z"
     id="path11284" />
  <path
     style="color:#000000;fill:#ffffff;fill-opacity:1;stroke:#ffffff;stroke-width:0.56693;stroke-dasharray:none;stroke-opacity:1"
     d="m 65.384766,136.88281 c -1.689354,0 -3.080078,-1.39072 -3.080079,-3.08008 10e-7,-1.68935 1.390725,-3.08007 3.080079,-3.08007 1.689354,0 3.080078,1.39072 3.080078,3.08007 0,1.68936 -1.390724,3.08008 -3.080078,3.08008 z"
     id="path11290" />
  <path
     style="color:#000000;fill:#ffffff;fill-opacity:1;stroke:#ffffff;stroke-width:0.56693;stroke-dasharray:none;stroke-opacity:1"
     d="m 72.585937,136.88281 c -1.689353,0 -3.082031,-1.39072 -3.082031,-3.08008 0,-1.68935 1.392678,-3.08007 3.082031,-3.08007 1.689354,0 3.080079,1.39072 3.080079,3.08007 0,1.68936 -1.390725,3.08008 -3.080079,3.08008 z"
     id="path11296" />
  <path
     style="color:#000000;fill:#ffffff;fill-opacity:1;stroke:#ffffff;stroke-width:0.56693;stroke-dasharray:none;stroke-opacity:1"
     d="m 79.785156,136.88281 c -1.689354,0 -3.080078,-1.39072 -3.080078,-3.08008 0,-1.68935 1.390724,-3.08007 3.080078,-3.08007 1.689354,0 3.080078,1.39072 3.080078,3.08007 0,1.68936 -1.390724,3.08008 -3.080078,3.08008 z"
     id="path11302" />
  <path
     style="color:#000000;fill:#ffffff;fill-opacity:1;stroke:#ffffff;stroke-width:0.56693;stroke-dasharray:none;stroke-opacity:1"
     d="m 115.78516,136.88281 c -1.68936,0 -3.08008,-1.39072 -3.08008,-3.08008 0,-1.68935 1.39072,-3.08007 3.08008,-3.08007 1.68935,0 3.08007,1.39072 3.08007,3.08007 0,1.68936 -1.39072,3.08008 -3.08007,3.08008 z"
     id="path11308" />
  <path
     style="color:#000000;fill:#ffffff;fill-opacity:1;stroke:#ffffff;stroke-width:0.56693;stroke-dasharray:none;stroke-opacity:1"
     d="m 122.98438,136.88281 c -1.68936,0 -3.08008,-1.39072 -3.08008,-3.08008 0,-1.68935 1.39072,-3.08007 3.08008,-3.08007 1.68935,0 3.08007,1.39072 3.08007,3.08007 0,1.68936 -1.39072,3.08008 -3.08007,3.08008 z"
     id="path11314" />
  <path
     style="color:#000000;fill:#ffffff;fill-opacity:1;stroke:#ffffff;stroke-width:0.56693;stroke-dasharray:none;stroke-opacity:1"
     d="m 130.18555,136.88281 c -1.68936,0 -3.08008,-1.39072 -3.08008,-3.08008 0,-1.68935 1.39072,-3.08007 3.08008,-3.08007 1.68935,0 3.08007,1.39072 3.08007,3.08007 0,1.68936 -1.39072,3.08008 -3.08007,3.08008 z"
     id="path11320" />
  <path
     style="color:#000000;fill:#ffffff;fill-opacity:1;stroke:#ffffff;stroke-width:0.56693;stroke-dasharray:none;stroke-opacity:1"
     d="m 137.38477,136.88281 c -1.68936,0 -3.08008,-1.39072 -3.08008,-3.08008 0,-1.68935 1.39072,-3.08007 3.08008,-3.08007 1.68935,0 3.08007,1.39072 3.08007,3.08007 0,1.68936 -1.39072,3.08008 -3.08007,3.08008 z"
     id="path11326" />
  <path
     style="color:#000000;fill:#ffffff;fill-opacity:1;stroke:#ffffff;stroke-width:0.56693;stroke-dasharray:none;stroke-opacity:1"
     d="m 144.58594,136.88281 c -1.68936,0 -3.08008,-1.39072 -3.08008,-3.08008 0,-1.68935 1.39072,-3.08007 3.08008,-3.08007 1.68935,0 3.08008,1.39072 3.08008,3.08007 0,1.68936 -1.39073,3.08008 -3.08008,3.08008 z"
     id="path11332" />
  <path
     style="color:#000000;fill:#ffffff;fill-opacity:1;stroke:#ffffff;stroke-width:0.56693;stroke-dasharray:none;stroke-opacity:1"
     d="m 151.78516,136.88281 c -1.68936,0 -3.08008,-1.39072 -3.08008,-3.08008 0,-1.68935 1.39072,-3.08007 3.08008,-3.08007 1.68935,0 3.08007,1.39072 3.08007,3.08007 0,1.68936 -1.39072,3.08008 -3.08007,3.08008 z"
     id="path11338" />
  <path
     style="color:#000000;fill:#ffffff;fill-opacity:1;stroke:#ffffff;stroke-width:0.56693;stroke-dasharray:none;stroke-opacity:1"
     d="m 151.78516,144.08203 c -1.68936,0 -3.08008,-1.39072 -3.08008,-3.08008 0,-1.68935 1.39072,-3.08007 3.08008,-3.08008 1.68935,10e-6 3.08007,1.39073 3.08007,3.08008 0,1.68936 -1.39072,3.08008 -3.08007,3.08008 z"
     id="path11344" />
  <path
     style="color:#000000;fill:#ffffff;fill-opacity:1;stroke:#ffffff;stroke-width:0.56693;stroke-dasharray:none;stroke-opacity:1"
     d="m 144.58594,144.08203 c -1.68936,0 -3.08008,-1.39072 -3.08008,-3.08008 0,-1.68935 1.39072,-3.08007 3.08008,-3.08008 1.68935,10e-6 3.08008,1.39073 3.08008,3.08008 0,1.68936 -1.39073,3.08008 -3.08008,3.08008 z"
     id="path11350" />
  <path
     style="color:#000000;fill:#ffffff;fill-opacity:1;stroke:#ffffff;stroke-width:0.56693;stroke-dasharray:none;stroke-opacity:1"
     d="m 137.38477,144.08203 c -1.68936,0 -3.08008,-1.39072 -3.08008,-3.08008 0,-1.68935 1.39072,-3.08007 3.08008,-3.08008 1.68935,10e-6 3.08007,1.39073 3.08007,3.08008 0,1.68936 -1.39072,3.08008 -3.08007,3.08008 z"
     id="path11356" />
  <path
     style="color:#000000;fill:#ffffff;fill-opacity:1;stroke:#ffffff;stroke-width:0.56693;stroke-dasharray:none;stroke-opacity:1"
     d="m 130.18555,144.08203 c -1.68936,0 -3.08008,-1.39072 -3.08008,-3.08008 0,-1.68935 1.39072,-3.08007 3.08008,-3.08008 1.68935,10e-6 3.08007,1.39073 3.08007,3.08008 0,1.68936 -1.39072,3.08008 -3.08007,3.08008 z"
     id="path11362" />
  <path
     style="color:#000000;fill:#ffffff;fill-opacity:1;stroke:#ffffff;stroke-width:0.56693;stroke-dasharray:none;stroke-opacity:1"
     d="m 122.98438,144.08203 c -1.68936,0 -3.08008,-1.39072 -3.08008,-3.08008 0,-1.68935 1.39072,-3.08007 3.08008,-3.08008 1.68935,10e-6 3.08007,1.39073 3.08007,3.08008 0,1.68936 -1.39072,3.08008 -3.08007,3.08008 z"
     id="path11368" />
  <path
     style="color:#000000;fill:#ffffff;fill-opacity:1;stroke:#ffffff;stroke-width:0.56693;stroke-dasharray:none;stroke-opacity:1"
     d="m 115.78516,144.08203 c -1.68936,0 -3.08008,-1.39072 -3.08008,-3.08008 0,-1.68935 1.39072,-3.08007 3.08008,-3.08008 1.68935,10e-6 3.08007,1.39073 3.08007,3.08008 0,1.68936 -1.39072,3.08008 -3.08007,3.08008 z"
     id="path11374" />
  <path
     style="color:#000000;fill:#ffffff;fill-opacity:1;stroke:#ffffff;stroke-width:0.56693;stroke-dasharray:none;stroke-opacity:1"
     d="m 79.785156,144.08203 c -1.689354,0 -3.080078,-1.39072 -3.080078,-3.08008 0,-1.68935 1.390724,-3.08007 3.080078,-3.08008 1.689354,10e-6 3.080078,1.39073 3.080078,3.08008 0,1.68936 -1.390724,3.08008 -3.080078,3.08008 z"
     id="path11380" />
  <path
     style="color:#000000;fill:#ffffff;fill-opacity:1;stroke:#ffffff;stroke-width:0.56693;stroke-dasharray:none;stroke-opacity:1"
     d="m 72.585937,144.08203 c -1.689353,0 -3.082031,-1.39072 -3.082031,-3.08008 0,-1.68935 1.392678,-3.08007 3.082031,-3.08008 1.689354,10e-6 3.080079,1.39073 3.080079,3.08008 0,1.68936 -1.390725,3.08008 -3.080079,3.08008 z"
     id="path11386" />
  <path
     style="color:#000000;fill:#ffffff;fill-opacity:1;stroke:#ffffff;stroke-width:0.56693;stroke-dasharray:none;stroke-opacity:1"
     d="m 65.384766,144.08203 c -1.689354,0 -3.080078,-1.39072 -3.080079,-3.08008 10e-7,-1.68935 1.390725,-3.08007 3.080079,-3.08008 1.689354,10e-6 3.080078,1.39073 3.080078,3.08008 0,1.68936 -1.390724,3.08008 -3.080078,3.08008 z"
     id="path11392" />
  <path
     style="color:#000000;fill:#ffffff;fill-opacity:1;stroke:#ffffff;stroke-width:0.56693;stroke-dasharray:none;stroke-opacity:1"
     d="m 58.185547,144.08203 c -1.689354,0 -3.080078,-1.39072 -3.080078,-3.08008 0,-1.68935 1.390724,-3.08007 3.080078,-3.08008 1.689354,10e-6 3.080078,1.39073 3.080078,3.08008 0,1.68936 -1.390724,3.08008 -3.080078,3.08008 z"
     id="path11398" />
  <path
     style="color:#000000;fill:#ffffff;fill-opacity:1;stroke:#ffffff;stroke-width:0.56693;stroke-dasharray:none;stroke-opacity:1"
     d="m 50.984375,144.08203 c -1.689354,0 -3.080078,-1.39072 -3.080078,-3.08008 0,-1.68935 1.390724,-3.08007 3.080078,-3.08008 1.689354,10e-6 3.080078,1.39073 3.080078,3.08008 0,1.68936 -1.390724,3.08008 -3.080078,3.08008 z"
     id="path11404" />
  <path
     style="color:#000000;fill:#ffffff;fill-opacity:1;stroke:#ffffff;stroke-width:0.56693;stroke-dasharray:none;stroke-opacity:1"
     d="m 43.785156,144.08203 c -1.689354,0 -3.080078,-1.39072 -3.080078,-3.08008 0,-1.68935 1.390724,-3.08007 3.080078,-3.08008 1.689354,10e-6 3.080078,1.39073 3.080078,3.08008 0,1.68936 -1.390724,3.08008 -3.080078,3.08008 z"
     id="path11410" />
  <path
     style="color:#000000;fill:#ffffff;fill-opacity:1;stroke:#ffffff;stroke-width:0.56693;stroke-dasharray:none;stroke-opacity:1"
     d="m 43.785156,43.28125 c -1.689354,0 -3.080078,-1.390724 -3.080078,-3.080078 0,-1.689354 1.390724,-3.080078 3.080078,-3.080078 1.689354,0 3.080078,1.390724 3.080078,3.080078 0,1.689354 -1.390724,3.080078 -3.080078,3.080078 z"
     id="path11416" />
  <path
     style="color:#000000;fill:#ffffff;fill-opacity:1;stroke:#ffffff;stroke-width:0.56693;stroke-dasharray:none;stroke-opacity:1"
     d="m 50.984375,43.28125 c -1.689354,0 -3.080078,-1.390724 -3.080078,-3.080078 0,-1.689354 1.390724,-3.080078 3.080078,-3.080078 1.689354,0 3.080078,1.390724 3.080078,3.080078 0,1.689354 -1.390724,3.080078 -3.080078,3.080078 z"
     id="path11422" />
  <path
     style="color:#000000;fill:#ffffff;fill-opacity:1;stroke:#ffffff;stroke-width:0.56693;stroke-dasharray:none;stroke-opacity:1"
     d="m 58.185547,43.28125 c -1.689354,0 -3.080078,-1.390724 -3.080078,-3.080078 0,-1.689354 1.390724,-3.080078 3.080078,-3.080078 1.689354,0 3.080078,1.390724 3.080078,3.080078 0,1.689354 -1.390724,3.080078 -3.080078,3.080078 z"
     id="path11428" />
  <path
     style="color:#000000;fill:#ffffff;fill-opacity:1;stroke:#ffffff;stroke-width:0.56693;stroke-dasharray:none;stroke-opacity:1"
     d="m 65.384766,43.28125 c -1.689354,0 -3.080078,-1.390724 -3.080079,-3.080078 10e-7,-1.689354 1.390725,-3.080078 3.080079,-3.080078 1.689354,0 3.080078,1.390724 3.080078,3.080078 0,1.689354 -1.390724,3.080078 -3.080078,3.080078 z"
     id="path11434" />
  <path
     style="color:#000000;fill:#ffffff;fill-opacity:1;stroke:#ffffff;stroke-width:0.56693;stroke-dasharray:none;stroke-opacity:1"
     d="m 72.585937,43.28125 c -1.689353,0 -3.080078,-1.390724 -3.080078,-3.080078 0,-1.689354 1.390725,-3.080078 3.080078,-3.080078 1.689354,0 3.080079,1.390724 3.080079,3.080078 0,1.689354 -1.390725,3.080078 -3.080079,3.080078 z"
     id="path11440" />
  <path
     style="color:#000000;fill:#ffffff;fill-opacity:1;stroke:#ffffff;stroke-width:0.56693;stroke-dasharray:none;stroke-opacity:1"
     d="m 79.785156,43.28125 c -1.689354,0 -3.080078,-1.390724 -3.080078,-3.080078 0,-1.689354 1.390724,-3.080078 3.080078,-3.080078 1.689354,0 3.080078,1.390724 3.080078,3.080078 0,1.689354 -1.390724,3.080078 -3.080078,3.080078 z"
     id="path11446" />
  <path
     style="color:#000000;fill:#ffffff;fill-opacity:1;stroke:#ffffff;stroke-width:0.56693;stroke-dasharray:none;stroke-opacity:1"
     d="m 94.185547,43.28125 c -1.689355,10e-7 -3.080078,-1.390724 -3.080078,-3.080078 0,-1.689355 1.390723,-3.080079 3.080078,-3.080078 1.689354,0 3.080078,1.390724 3.080078,3.080078 0,1.689354 -1.390724,3.080078 -3.080078,3.080078 z"
     id="path11452" />
  <path
     style="color:#000000;fill:#ffffff;fill-opacity:1;stroke:#ffffff;stroke-width:0.56693;stroke-dasharray:none;stroke-opacity:1"
     d="m 108.58594,43.28125 c -1.68936,0 -3.08008,-1.390724 -3.08008,-3.080078 0,-1.689354 1.39072,-3.080078 3.08008,-3.080078 1.68935,0 3.08008,1.390724 3.08008,3.080078 0,1.689354 -1.39073,3.080078 -3.08008,3.080078 z"
     id="path11458" />
  <path
     style="color:#000000;fill:#ffffff;fill-opacity:1;stroke:#ffffff;stroke-width:0.56693;stroke-dasharray:none;stroke-opacity:1"
     d="m 115.78516,43.28125 c -1.68936,0 -3.08008,-1.390724 -3.08008,-3.080078 0,-1.689354 1.39072,-3.080078 3.08008,-3.080078 1.68935,0 3.08007,1.390724 3.08007,3.080078 0,1.689354 -1.39072,3.080078 -3.08007,3.080078 z"
     id="path11464" />
  <path
     style="color:#000000;fill:#ffffff;fill-opacity:1;stroke:#ffffff;stroke-width:0.56693;stroke-dasharray:none;stroke-opacity:1"
     d="m 122.98438,43.28125 c -1.68936,0 -3.08008,-1.390724 -3.08008,-3.080078 0,-1.689354 1.39072,-3.080078 3.08008,-3.080078 1.68935,0 3.08007,1.390724 3.08007,3.080078 0,1.689354 -1.39072,3.080078 -3.08007,3.080078 z"
     id="path11470" />
  <path
     style="color:#000000;fill:#ffffff;fill-opacity:1;stroke:#ffffff;stroke-width:0.56693;stroke-dasharray:none;stroke-opacity:1"
     d="m 130.18555,43.28125 c -1.68936,0 -3.08008,-1.390724 -3.08008,-3.080078 0,-1.689354 1.39072,-3.080078 3.08008,-3.080078 1.68935,0 3.08007,1.390724 3.08007,3.080078 0,1.689354 -1.39072,3.080078 -3.08007,3.080078 z"
     id="path11476" />
  <path
     style="color:#000000;fill:#ffffff;fill-opacity:1;stroke:#ffffff;stroke-width:0.56693;stroke-dasharray:none;stroke-opacity:1"
     d="m 137.38477,43.28125 c -1.68936,0 -3.08008,-1.390724 -3.08008,-3.080078 0,-1.689354 1.39072,-3.080078 3.08008,-3.080078 1.68935,0 3.08007,1.390724 3.08007,3.080078 0,1.689354 -1.39072,3.080078 -3.08007,3.080078 z"
     id="path11482" />
  <path
     style="color:#000000;fill:#ffffff;fill-opacity:1;stroke:#ffffff;stroke-width:0.56693;stroke-dasharray:none;stroke-opacity:1"
     d="m 144.58594,43.28125 c -1.68936,0 -3.08008,-1.390724 -3.08008,-3.080078 0,-1.689354 1.39072,-3.080078 3.08008,-3.080078 1.68935,0 3.08008,1.390724 3.08008,3.080078 0,1.689354 -1.39073,3.080078 -3.08008,3.080078 z"
     id="path11488" />
  <path
     style="color:#000000;fill:#ffffff;fill-opacity:1;stroke:#ffffff;stroke-width:0.56693;stroke-dasharray:none;stroke-opacity:1"
     d="m 151.78516,43.28125 c -1.68936,0 -3.08008,-1.390724 -3.08008,-3.080078 0,-1.689354 1.39072,-3.080078 3.08008,-3.080078 1.68935,0 3.08007,1.390724 3.08007,3.080078 0,1.689354 -1.39072,3.080078 -3.08007,3.080078 z"
     id="path11494" />
  <path
     style="color:#000000;fill:#ffffff;fill-opacity:1;stroke:#ffffff;stroke-width:0.56693;stroke-dasharray:none;stroke-opacity:1"
     d="m 151.78516,50.480469 c -1.68936,0 -3.08008,-1.390724 -3.08008,-3.080078 0,-1.689354 1.39072,-3.080078 3.08008,-3.080079 1.68935,10e-7 3.08007,1.390725 3.08007,3.080079 0,1.689354 -1.39072,3.080078 -3.08007,3.080078 z"
     id="path11500" />
  <path
     style="color:#000000;fill:#ffffff;fill-opacity:1;stroke:#ffffff;stroke-width:0.56693;stroke-dasharray:none;stroke-opacity:1"
     d="m 144.58594,50.480469 c -1.68936,0 -3.08008,-1.390724 -3.08008,-3.080078 0,-1.689354 1.39072,-3.080078 3.08008,-3.080079 1.68935,10e-7 3.08008,1.390725 3.08008,3.080079 0,1.689354 -1.39073,3.080078 -3.08008,3.080078 z"
     id="path11506" />
  <path
     style="color:#000000;fill:#ffffff;fill-opacity:1;stroke:#ffffff;stroke-width:0.56693;stroke-dasharray:none;stroke-opacity:1"
     d="m 137.38477,50.480469 c -1.68936,0 -3.08008,-1.390724 -3.08008,-3.080078 0,-1.689354 1.39072,-3.080078 3.08008,-3.080079 1.68935,10e-7 3.08007,1.390725 3.08007,3.080079 0,1.689354 -1.39072,3.080078 -3.08007,3.080078 z"
     id="path11512" />
  <path
     style="color:#000000;fill:#ffffff;fill-opacity:1;stroke:#ffffff;stroke-width:0.56693;stroke-dasharray:none;stroke-opacity:1"
     d="m 130.18555,50.480469 c -1.68936,0 -3.08008,-1.390724 -3.08008,-3.080078 0,-1.689354 1.39072,-3.080078 3.08008,-3.080079 1.68935,10e-7 3.08007,1.390725 3.08007,3.080079 0,1.689354 -1.39072,3.080078 -3.08007,3.080078 z"
     id="path11518" />
  <path
     style="color:#000000;fill:#ffffff;fill-opacity:1;stroke:#ffffff;stroke-width:0.56693;stroke-dasharray:none;stroke-opacity:1"
     d="m 122.98438,50.480469 c -1.68936,0 -3.08008,-1.390724 -3.08008,-3.080078 0,-1.689354 1.39072,-3.080078 3.08008,-3.080079 1.68935,10e-7 3.08007,1.390725 3.08007,3.080079 0,1.689354 -1.39072,3.080078 -3.08007,3.080078 z"
     id="path11524" />
  <path
     style="color:#000000;fill:#ffffff;fill-opacity:1;stroke:#ffffff;stroke-width:0.56693;stroke-dasharray:none;stroke-opacity:1"
     d="m 115.78516,50.480469 c -1.68936,0 -3.08008,-1.390724 -3.08008,-3.080078 0,-1.689354 1.39072,-3.080078 3.08008,-3.080079 1.68935,10e-7 3.08007,1.390725 3.08007,3.080079 0,1.689354 -1.39072,3.080078 -3.08007,3.080078 z"
     id="path11530" />
  <path
     style="color:#000000;fill:#ffffff;fill-opacity:1;stroke:#ffffff;stroke-width:0.56693;stroke-dasharray:none;stroke-opacity:1"
     d="m 108.58594,50.480469 c -1.68936,0 -3.08008,-1.390724 -3.08008,-3.080078 0,-1.689354 1.39072,-3.080078 3.08008,-3.080079 1.68935,10e-7 3.08008,1.390725 3.08008,3.080079 0,1.689354 -1.39073,3.080078 -3.08008,3.080078 z"
     id="path11536" />
  <path
     style="color:#000000;fill:#ffffff;fill-opacity:1;stroke:#ffffff;stroke-width:0.56693;stroke-dasharray:none;stroke-opacity:1"
     d="m 94.185547,50.480469 c -1.689355,0 -3.080078,-1.390724 -3.080078,-3.080078 0,-1.689355 1.390723,-3.080079 3.080078,-3.080079 1.689354,10e-7 3.080078,1.390725 3.080078,3.080079 0,1.689354 -1.390724,3.080078 -3.080078,3.080078 z"
     id="path11542" />
  <path
     style="color:#000000;fill:#ffffff;fill-opacity:1;stroke:#ffffff;stroke-width:0.56693;stroke-dasharray:none;stroke-opacity:1"
     d="m 79.785156,50.480469 c -1.689354,0 -3.080078,-1.390724 -3.080078,-3.080078 0,-1.689354 1.390724,-3.080078 3.080078,-3.080079 1.689354,10e-7 3.080078,1.390725 3.080078,3.080079 0,1.689354 -1.390724,3.080078 -3.080078,3.080078 z"
     id="path11548" />
  <path
     style="color:#000000;fill:#ffffff;fill-opacity:1;stroke:#ffffff;stroke-width:0.56693;stroke-dasharray:none;stroke-opacity:1"
     d="m 72.585937,50.480469 c -1.689353,0 -3.080078,-1.390724 -3.080078,-3.080078 0,-1.689354 1.390725,-3.080078 3.080078,-3.080079 1.689354,10e-7 3.080079,1.390725 3.080079,3.080079 0,1.689354 -1.390725,3.080078 -3.080079,3.080078 z"
     id="path11554" />
  <path
     style="color:#000000;fill:#ffffff;fill-opacity:1;stroke:#ffffff;stroke-width:0.56693;stroke-dasharray:none;stroke-opacity:1"
     d="m 65.384766,50.480469 c -1.689354,0 -3.080078,-1.390724 -3.080079,-3.080078 10e-7,-1.689354 1.390725,-3.080078 3.080079,-3.080079 1.689354,10e-7 3.080078,1.390725 3.080078,3.080079 0,1.689354 -1.390724,3.080078 -3.080078,3.080078 z"
     id="path11560" />
  <path
     style="color:#000000;fill:#ffffff;fill-opacity:1;stroke:#ffffff;stroke-width:0.56693;stroke-dasharray:none;stroke-opacity:1"
     d="m 58.185547,50.480469 c -1.689354,0 -3.080078,-1.390724 -3.080078,-3.080078 0,-1.689354 1.390724,-3.080078 3.080078,-3.080079 1.689354,10e-7 3.080078,1.390725 3.080078,3.080079 0,1.689354 -1.390724,3.080078 -3.080078,3.080078 z"
     id="path11566" />
  <path
     style="color:#000000;fill:#ffffff;fill-opacity:1;stroke:#ffffff;stroke-width:0.56693;stroke-dasharray:none;stroke-opacity:1"
     d="m 50.984375,50.480469 c -1.689354,0 -3.080078,-1.390724 -3.080078,-3.080078 0,-1.689354 1.390724,-3.080078 3.080078,-3.080079 1.689354,10e-7 3.080078,1.390725 3.080078,3.080079 0,1.689354 -1.390724,3.080078 -3.080078,3.080078 z"
     id="path11572" />
  <path
     style="color:#000000;fill:#ffffff;fill-opacity:1;stroke:#ffffff;stroke-width:0.56693;stroke-dasharray:none;stroke-opacity:1"
     d="m 43.785156,50.480469 c -1.689354,0 -3.080078,-1.390724 -3.080078,-3.080078 0,-1.689354 1.390724,-3.080078 3.080078,-3.080079 1.689354,10e-7 3.080078,1.390725 3.080078,3.080079 0,1.689354 -1.390724,3.080078 -3.080078,3.080078 z"
     id="path11578" />
  <path
     style="color:#000000;fill:#ffffff;fill-opacity:1;stroke:#ffffff;stroke-width:0.56693;stroke-dasharray:none;stroke-opacity:1"
     d="m 22.185547,43.28125 c -1.689354,0 -3.080078,-1.390724 -3.080078,-3.080078 0,-1.689354 1.390724,-3.080078 3.080078,-3.080078 1.689354,0 3.080078,1.390724 3.080078,3.080078 0,1.689354 -1.390724,3.080078 -3.080078,3.080078 z"
     id="path11584" />
  <path
     style="color:#000000;fill:#ffffff;fill-opacity:1;stroke:#ffffff;stroke-width:0.56693;stroke-dasharray:none;stroke-opacity:1"
     d="m 29.384766,43.28125 c -1.689354,0 -3.080078,-1.390724 -3.080079,-3.080078 10e-7,-1.689354 1.390725,-3.080078 3.080079,-3.080078 1.689354,0 3.080078,1.390724 3.080078,3.080078 0,1.689354 -1.390724,3.080078 -3.080078,3.080078 z"
     id="path11590" />
  <path
     style="color:#000000;fill:#ffffff;fill-opacity:1;stroke:#ffffff;stroke-width:0.56693;stroke-dasharray:none;stroke-opacity:1"
     d="m 29.384766,50.480469 c -1.689354,0 -3.080078,-1.390724 -3.080079,-3.080078 10e-7,-1.689354 1.390725,-3.080078 3.080079,-3.080079 1.689354,10e-7 3.080078,1.390725 3.080078,3.080079 0,1.689354 -1.390724,3.080078 -3.080078,3.080078 z"
     id="path11596" />
  <path
     style="color:#000000;fill:#ffffff;fill-opacity:1;stroke:#ffffff;stroke-width:0.56693;stroke-dasharray:none;stroke-opacity:1"
     d="m 22.185547,50.480469 c -1.689354,0 -3.080078,-1.390724 -3.080078,-3.080078 0,-1.689354 1.390724,-3.080078 3.080078,-3.080079 1.689354,0 3.080078,1.390724 3.080078,3.080079 0,1.689354 -1.390724,3.080078 -3.080078,3.080078 z"
     id="path11602" />
  <path
     style="color:#000000;fill:#ffffff;fill-opacity:1;stroke:#ffffff;stroke-width:0.56693;stroke-dasharray:none;stroke-opacity:1"
     d="m 14.984375,50.480469 c -1.689354,0 -3.080078,-1.390724 -3.080078,-3.080078 0,-1.689354 1.390724,-3.080078 3.080078,-3.080079 1.689354,10e-7 3.080078,1.390725 3.080078,3.080079 0,1.689354 -1.390724,3.080078 -3.080078,3.080078 z"
     id="path11608" />
  <path
     style="color:#000000;fill:#ffffff;fill-opacity:1;stroke:#ffffff;stroke-width:0.56693;stroke-dasharray:none;stroke-opacity:1"
     d="m 144.58594,129.68164 c -1.68936,0 -3.08008,-1.39072 -3.08008,-3.08008 0,-1.68935 1.39072,-3.08008 3.08008,-3.08008 1.68935,0 3.08008,1.39073 3.08008,3.08008 0,1.68936 -1.39073,3.08008 -3.08008,3.08008 z"
     id="path11614" />
  <path
     style="color:#000000;fill:#ffffff;fill-opacity:1;stroke:#ffffff;stroke-width:0.56693;stroke-dasharray:none;stroke-opacity:1"
     d="m 145.30469,90.800781 c -1.68936,0 -3.08008,-1.390724 -3.08008,-3.080078 0,-1.689354 1.39072,-3.080078 3.08008,-3.080078 1.68935,0 3.08008,1.390724 3.08008,3.080078 0,1.689354 -1.39073,3.080078 -3.08008,3.080078 z"
     id="path11620" />
  <path
     style="color:#000000;fill:#ffffff;fill-opacity:1;stroke:#ffffff;stroke-width:0.56693;stroke-dasharray:none;stroke-opacity:1"
     d="m 144.58594,122.48242 c -1.68936,0 -3.08008,-1.39072 -3.08008,-3.08008 0,-1.68935 1.39072,-3.08007 3.08008,-3.08007 1.68935,0 3.08008,1.39072 3.08008,3.08007 0,1.68936 -1.39073,3.08008 -3.08008,3.08008 z"
     id="path11626" />
  <path
     style="color:#000000;fill:#ffffff;fill-opacity:1;stroke:#ffffff;stroke-width:0.56693;stroke-dasharray:none;stroke-opacity:1"
     d="m 145.30469,83.601562 c -1.68936,0 -3.08008,-1.390724 -3.08008,-3.080078 0,-1.689354 1.39072,-3.080078 3.08008,-3.080078 1.68935,0 3.08008,1.390724 3.08008,3.080078 0,1.689354 -1.39073,3.080078 -3.08008,3.080078 z"
     id="path11632" />
  <path
     style="color:#000000;fill:#ffffff;fill-opacity:1;stroke:#ffffff;stroke-width:0.56693;stroke-dasharray:none;stroke-opacity:1"
     d="m 144.58594,115.2832 c -1.68936,0 -3.08008,-1.39072 -3.08008,-3.08007 0,-1.68936 1.39072,-3.08008 3.08008,-3.08008 1.68935,0 3.08008,1.39072 3.08008,3.08008 0,1.68935 -1.39073,3.08007 -3.08008,3.08007 z"
     id="path11638" />
  <path
     style="color:#000000;fill:#ffffff;fill-opacity:1;stroke:#ffffff;stroke-width:0.56693;stroke-dasharray:none;stroke-opacity:1"
     d="m 145.30469,76.400391 c -1.68936,0 -3.08008,-1.390725 -3.08008,-3.080079 0,-1.689353 1.39072,-3.080078 3.08008,-3.080078 1.68935,0 3.08008,1.390725 3.08008,3.080078 0,1.689354 -1.39073,3.080079 -3.08008,3.080079 z"
     id="path11644" />
  <path
     style="color:#000000;fill:#ffffff;fill-opacity:1;stroke:#ffffff;stroke-width:0.56693;stroke-dasharray:none;stroke-opacity:1"
     d="m 151.78516,115.2832 c -1.68936,0 -3.08008,-1.39072 -3.08008,-3.08007 0,-1.68936 1.39072,-3.08008 3.08008,-3.08008 1.68935,0 3.08007,1.39072 3.08007,3.08008 0,1.68935 -1.39072,3.08007 -3.08007,3.08007 z"
     id="path11650" />
  <path
     style="color:#000000;fill:#ffffff;fill-opacity:1;stroke:#ffffff;stroke-width:0.56693;stroke-dasharray:none;stroke-opacity:1"
     d="m 151.78516,122.48242 c -1.68936,0 -3.08008,-1.39072 -3.08008,-3.08008 0,-1.68935 1.39072,-3.08007 3.08008,-3.08007 1.68935,0 3.08007,1.39072 3.08007,3.08007 0,1.68936 -1.39072,3.08008 -3.08007,3.08008 z"
     id="path11656" />
  <path
     style="color:#000000;fill:#ffffff;fill-opacity:1;stroke:#ffffff;stroke-width:0.56693;stroke-dasharray:none;stroke-opacity:1"
     d="m 151.78516,129.68164 c -1.68936,0 -3.08008,-1.39072 -3.08008,-3.08008 0,-1.68935 1.39072,-3.08008 3.08008,-3.08008 1.68935,0 3.08007,1.39073 3.08007,3.08008 0,1.68936 -1.39072,3.08008 -3.08007,3.08008 z"
     id="path11662" />
  <path
     style="color:#000000;fill:#ffffff;fill-opacity:1;stroke:#ffffff;stroke-width:0.56693;stroke-dasharray:none;stroke-opacity:1"
     d="m 14.984375,43.28125 c -1.689354,0 -3.080078,-1.390724 -3.080078,-3.080078 0,-1.689354 1.390724,-3.080078 3.080078,-3.080078 1.689354,0 3.080078,1.390724 3.080078,3.080078 0,1.689354 -1.390724,3.080078 -3.080078,3.080078 z"
     id="path11668" />
  <path
     style="color:#000000;fill:#ffffff;fill-opacity:1;stroke:#ffffff;stroke-width:0.56693;stroke-dasharray:none;stroke-opacity:1"
     d="m 152.50586,76.400391 c -1.68935,0 -3.08008,-1.390725 -3.08008,-3.080079 0,-1.689353 1.39073,-3.080078 3.08008,-3.080078 1.68935,0 3.08008,1.390725 3.08008,3.080078 0,1.689354 -1.39073,3.080079 -3.08008,3.080079 z"
     id="path11704" />
  <path
     style="color:#000000;fill:#ffffff;fill-opacity:1;stroke:#ffffff;stroke-width:0.56693;stroke-dasharray:none;stroke-opacity:1"
     d="m 152.50586,83.601562 c -1.68935,0 -3.08008,-1.390724 -3.08008,-3.080078 0,-1.689354 1.39073,-3.080078 3.08008,-3.080078 1.68935,0 3.08008,1.390724 3.08008,3.080078 0,1.689354 -1.39073,3.080078 -3.08008,3.080078 z"
     id="path11710" />
  <path
     style="color:#000000;fill:#ffffff;fill-opacity:1;stroke:#ffffff;stroke-width:0.56693;stroke-dasharray:none;stroke-opacity:1"
     d="m 152.50586,90.800781 c -1.68935,0 -3.08008,-1.390724 -3.08008,-3.080078 0,-1.689354 1.39073,-3.080078 3.08008,-3.080078 1.68935,0 3.08008,1.390724 3.08008,3.080078 0,1.689354 -1.39073,3.080078 -3.08008,3.080078 z"
     id="path11716" />
  <path
     style="color:#000000;fill:#ffffff;fill-opacity:1;stroke:#ffffff;stroke-width:0.56693;stroke-dasharray:none;stroke-opacity:1"
     d="m 252.58594,30.111328 c 1.58431,0 2.88867,1.306316 2.88867,2.890625 0,1.58431 -1.30436,2.890625 -2.88867,2.890625 -1.58431,0 -2.89063,-1.306315 -2.89063,-2.890625 0,-1.584309 1.30632,-2.890625 2.89063,-2.890625 z"
     id="path11722" />
  <path
     style="color:#000000;fill:#ffffff;fill-opacity:1;stroke:#ffffff;stroke-width:0.56693;stroke-dasharray:none;stroke-opacity:1"
     d="m 234.16016,30.111328 c 1.58431,0 2.89062,1.306316 2.89062,2.890625 0,1.58431 -1.30631,2.890625 -2.89062,2.890625 -1.58431,0 -2.89063,-1.306315 -2.89063,-2.890625 0,-1.584309 1.30632,-2.890625 2.89063,-2.890625 z"
     id="path11728" />
  <path
     style="color:#000000;fill:#ffffff;fill-opacity:1;stroke:#ffffff;stroke-width:0.56693;stroke-dasharray:none;stroke-opacity:1"
     d="m 220.65625,188.27344 h 0.99219 5.26562 v 6.25781 h -6.25781 z"
     id="path11734" />
  <path
     style="color:#000000;fill:#ffffff;fill-opacity:1;stroke:#ffffff;stroke-width:0.56693;stroke-dasharray:none;stroke-opacity:1"
     d="m 227.85547,191.40234 c 0,-1.71659 1.41231,-3.1289 3.1289,-3.1289 1.7166,0 3.13086,1.41231 3.13086,3.1289 0,1.7166 -1.41426,3.12891 -3.13086,3.12891 -1.71659,0 -3.1289,-1.41231 -3.1289,-3.12891 z"
     id="path11746" />
  <path
     style="color:#000000;fill:#ffffff;fill-opacity:1;stroke:#ffffff;stroke-width:0.56693;stroke-dasharray:none;stroke-opacity:1"
     d="m 235.05469,191.40234 c 0,-1.71659 1.41426,-3.1289 3.13086,-3.1289 1.71659,0 3.1289,1.41231 3.1289,3.1289 0,1.7166 -1.41231,3.12891 -3.1289,3.12891 -1.7166,0 -3.13086,-1.41231 -3.13086,-3.12891 z"
     id="path11752" />
  <path
     style="color:#000000;fill:#ffffff;fill-opacity:1;stroke:#ffffff;stroke-width:0.56693;stroke-dasharray:none;stroke-opacity:1"
     d="m 242.25586,191.40234 c 0,-1.71659 1.41231,-3.1289 3.12891,-3.1289 1.71659,0 3.1289,1.41231 3.1289,3.1289 0,1.7166 -1.41231,3.12891 -3.1289,3.12891 -1.7166,0 -3.12891,-1.41231 -3.12891,-3.12891 z"
     id="path11758" />
  <path
     style="color:#000000;fill:#ffffff;fill-opacity:1;stroke:#ffffff;stroke-width:0.56693;stroke-dasharray:none;stroke-opacity:1"
     d="m 249.45508,191.40234 c 0,-1.71659 1.41426,-3.1289 3.13086,-3.1289 1.71659,0 3.1289,1.41231 3.1289,3.1289 0,1.7166 -1.41231,3.12891 -3.1289,3.12891 -1.7166,0 -3.13086,-1.41231 -3.13086,-3.12891 z"
     id="path11764" />
  <path
     style="color:#000000;fill:#ffffff;fill-opacity:1;stroke:#ffffff;stroke-width:0.56693;stroke-dasharray:none;stroke-opacity:1"
     d="m 256.65625,191.40234 c 0,-1.71659 1.41231,-3.1289 3.12891,-3.1289 1.71659,0 3.1289,1.41231 3.1289,3.1289 0,1.7166 -1.41231,3.12891 -3.1289,3.12891 -1.7166,0 -3.12891,-1.41231 -3.12891,-3.12891 z"
     id="path11770" />
  <path
     style="color:#000000;fill:#ffffff;fill-opacity:1;stroke:#ffffff;stroke-width:0.56693;stroke-dasharray:none;stroke-opacity:1"
     d="m 170.33203,25.802734 c 0,-1.673934 1.3788,-3.052734 3.05274,-3.052734 1.67393,0 3.05273,1.3788 3.05273,3.052734 0,1.673935 -1.3788,3.050782 -3.05273,3.050782 -1.67394,0 -3.05274,-1.376847 -3.05274,-3.050782 z"
     id="path11776" />
  <path
     style="color:#000000;fill:#ffffff;fill-opacity:1;stroke:#ffffff;stroke-width:0.56693;stroke-dasharray:none;stroke-opacity:1"
     d="m 170.33203,33.03125 c 0,-1.673934 1.3788,-3.052734 3.05274,-3.052734 1.67393,0 3.05273,1.3788 3.05273,3.052734 0,1.673934 -1.3788,3.050781 -3.05273,3.050781 -1.67394,0 -3.05274,-1.376847 -3.05274,-3.050781 z"
     id="path11782" />
  <path
     style="color:#000000;fill:#ffffff;fill-opacity:1;stroke:#ffffff;stroke-width:0.56693;stroke-dasharray:none;stroke-opacity:1"
     d="m 170.33203,40.257812 c 0,-1.673934 1.3788,-3.050781 3.05274,-3.050781 1.67393,0 3.05273,1.376847 3.05273,3.050781 0,1.673935 -1.3788,3.052735 -3.05273,3.052735 -1.67394,0 -3.05274,-1.3788 -3.05274,-3.052735 z"
     id="path11788" />
  <path
     style="color:#000000;fill:#ffffff;fill-opacity:1;stroke:#ffffff;stroke-width:0.56693;stroke-dasharray:none;stroke-opacity:1"
     d="m 170.33203,47.486328 c 0,-1.673935 1.3788,-3.050781 3.05274,-3.050781 1.67393,0 3.05273,1.376846 3.05273,3.050781 0,1.673934 -1.3788,3.052734 -3.05273,3.052734 -1.67394,0 -3.05274,-1.3788 -3.05274,-3.052734 z"
     id="path11794" />
  <path
     style="color:#000000;fill:#ffffff;fill-opacity:1;stroke:#ffffff;stroke-width:0.56693;stroke-dasharray:none;stroke-opacity:1"
     d="m 170.33203,54.714844 c 0,-1.673934 1.3788,-3.050781 3.05274,-3.050782 1.67393,10e-7 3.05273,1.376848 3.05273,3.050782 0,1.673934 -1.3788,3.052734 -3.05273,3.052734 -1.67394,0 -3.05274,-1.3788 -3.05274,-3.052734 z"
     id="path11800" />
  <path
     style="color:#000000;fill:#ffffff;fill-opacity:1;stroke:#ffffff;stroke-width:0.56693;stroke-dasharray:none;stroke-opacity:1"
     d="m 170.33203,61.943359 c 0,-1.673934 1.3788,-3.052734 3.05274,-3.052734 1.67393,0 3.05273,1.3788 3.05273,3.052734 0,1.673935 -1.3788,3.052735 -3.05273,3.052735 -1.67394,0 -3.05274,-1.3788 -3.05274,-3.052735 z"
     id="path11806" />
  <path
     style="color:#000000;fill:#ffffff;fill-opacity:1;stroke:#ffffff;stroke-width:0.56693;stroke-dasharray:none;stroke-opacity:1"
     d="m 176.46484,244.88281 h -0.99218 -5.16797 v -6.16015 h 6.16015 z"
     id="path11812" />
  <path
     style="color:#000000;fill:#ffffff;fill-opacity:1;stroke:#ffffff;stroke-width:0.56693;stroke-dasharray:none;stroke-opacity:1"
     d="m 169.26562,241.80273 c 0,1.68936 -1.39072,3.08008 -3.08007,3.08008 -1.68936,0 -3.08008,-1.39072 -3.08008,-3.08008 0,-1.68935 1.39072,-3.08007 3.08008,-3.08007 1.68935,0 3.08007,1.39072 3.08007,3.08007 z"
     id="path11824" />
  <path
     style="color:#000000;fill:#ffffff;fill-opacity:1;stroke:#ffffff;stroke-width:0.56693;stroke-dasharray:none;stroke-opacity:1"
     d="m 162.06445,241.80273 c 0,1.68936 -1.39072,3.08008 -3.08008,3.08008 -1.68935,0 -3.08007,-1.39072 -3.08007,-3.08008 0,-1.68935 1.39072,-3.08007 3.08007,-3.08007 1.68936,0 3.08008,1.39072 3.08008,3.08007 z"
     id="path11830" />
  <path
     style="color:#000000;fill:#ffffff;fill-opacity:1;stroke:#ffffff;stroke-width:0.56693;stroke-dasharray:none;stroke-opacity:1"
     d="m 154.86523,241.80273 c 0,1.68936 -1.39072,3.08008 -3.08007,3.08008 -1.68936,0 -3.08008,-1.39072 -3.08008,-3.08008 0,-1.68935 1.39072,-3.08007 3.08008,-3.08007 1.68935,0 3.08007,1.39072 3.08007,3.08007 z"
     id="path11836" />
  <path
     style="color:#000000;fill:#ffffff;fill-opacity:1;stroke:#ffffff;stroke-width:0.56693;stroke-dasharray:none;stroke-opacity:1"
     d="m 235.10547,129.68164 v -0.99219 -5.16797 h 6.16015 v 6.16016 z"
     id="path11842" />
  <path
     style="color:#000000;fill:#ffffff;fill-opacity:1;stroke:#ffffff;stroke-width:0.56693;stroke-dasharray:none;stroke-opacity:1"
     d="m 238.18555,122.48242 c -1.68936,0 -3.08008,-1.39072 -3.08008,-3.08008 0,-1.68935 1.39072,-3.08007 3.08008,-3.08007 1.68935,0 3.08007,1.39072 3.08007,3.08007 0,1.68936 -1.39072,3.08008 -3.08007,3.08008 z"
     id="path11854" />
  <path
     style="color:#000000;fill:#ffffff;fill-opacity:1;stroke:#ffffff;stroke-width:0.56693;stroke-dasharray:none;stroke-opacity:1"
     d="m 249.50586,129.68164 v -0.99219 -5.16797 h 6.16016 v 6.16016 z"
     id="path11860" />
  <path
     style="color:#000000;fill:#ffffff;fill-opacity:1;stroke:#ffffff;stroke-width:0.56693;stroke-dasharray:none;stroke-opacity:1"
     d="m 252.58594,122.48242 c -1.68936,0 -3.08008,-1.39072 -3.08008,-3.08008 0,-1.68935 1.39072,-3.08007 3.08008,-3.08007 1.68935,0 3.08008,1.39072 3.08008,3.08007 0,1.68936 -1.39073,3.08008 -3.08008,3.08008 z"
     id="path11872" />
  <path
     style="color:#000000;fill:#ffffff;fill-opacity:1;stroke:#ffffff;stroke-width:0.56693;stroke-dasharray:none;stroke-opacity:1"
     d="m 259.78516,75.203125 c -1.47551,0 -2.69336,-1.21785 -2.69336,-2.693359 0,-1.47551 1.21785,-2.69336 2.69336,-2.69336 1.47551,0 2.69336,1.21785 2.69336,2.69336 0,1.475509 -1.21785,2.693359 -2.69336,2.693359 z m 0,-1.984375 c 0.40314,0 0.70898,-0.305844 0.70898,-0.708984 0,-0.403141 -0.30584,-0.708985 -0.70898,-0.708985 -0.40314,0 -0.70899,0.305844 -0.70899,0.708985 0,0.40314 0.30585,0.708984 0.70899,0.708984 z"
     id="path11878" />
  <path
     style="color:#000000;fill:#ffffff;fill-opacity:1;stroke:#ffffff;stroke-width:0.56693;stroke-dasharray:none;stroke-opacity:1"
     d="m 257.0918,75.203125 v -0.992188 -4.394531 h 5.38672 v 5.386719 z"
     id="path11884" />
  <path
     style="color:#000000;fill:#ffffff;fill-opacity:1;stroke:#ffffff;stroke-width:0.56693;stroke-dasharray:none;stroke-opacity:1"
     d="m 259.78516,82.291016 c -1.47551,0 -2.69336,-1.21785 -2.69336,-2.69336 0,-1.475509 1.21785,-2.693359 2.69336,-2.693359 1.47551,0 2.69335,1.21785 2.69336,2.693359 0,1.47551 -1.21785,2.69336 -2.69336,2.69336 z"
     id="path11890" />
  <path
     style="color:#000000;fill:#ffffff;fill-opacity:1;stroke:#ffffff;stroke-width:0.56693;stroke-dasharray:none;stroke-opacity:1"
     d="m 176.45312,126.60156 c 10e-6,1.68309 -1.38526,3.06836 -3.06835,3.06836 -1.6831,0 -3.06836,-1.38527 -3.06836,-3.06836 0,-1.68309 1.38526,-3.06836 3.06836,-3.06836 1.68309,0 3.06836,1.38527 3.06835,3.06836 z"
     id="path11896" />
  <path
     style="color:#000000;fill:#ffffff;fill-opacity:1;stroke:#ffffff;stroke-width:0.56693;stroke-dasharray:none;stroke-opacity:1"
     d="m 176.45312,119.40234 c 10e-6,1.68309 -1.38526,3.06836 -3.06835,3.06836 -1.6831,0 -3.06836,-1.38527 -3.06836,-3.06836 0,-1.68309 1.38526,-3.06836 3.06836,-3.06836 1.68309,0 3.06836,1.38527 3.06835,3.06836 z"
     id="path11902" />
  <path
     style="color:#000000;fill:#ffffff;fill-opacity:1;stroke:#ffffff;stroke-width:0.56693;stroke-dasharray:none;stroke-opacity:1"
     d="m 176.45312,112.20117 c 10e-6,1.68309 -1.38526,3.07031 -3.06835,3.07031 -1.6831,0 -3.06836,-1.38722 -3.06836,-3.07031 0,-1.68309 1.38526,-3.06836 3.06836,-3.06836 1.68309,0 3.06836,1.38527 3.06835,3.06836 z"
     id="path11908" />
  <path
     style="color:#000000;fill:#ffffff;fill-opacity:1;stroke:#ffffff;stroke-width:0.56693;stroke-dasharray:none;stroke-opacity:1"
     d="m 176.45312,105.00195 c 10e-6,1.68309 -1.38526,3.06836 -3.06835,3.06836 -1.6831,0 -3.06836,-1.38527 -3.06836,-3.06836 0,-1.68309 1.38526,-3.06836 3.06836,-3.06836 1.68309,0 3.06836,1.38527 3.06835,3.06836 z"
     id="path11914" />
  <path
     style="color:#000000;fill:#ffffff;fill-opacity:1;stroke:#ffffff;stroke-width:0.56693;stroke-dasharray:none;stroke-opacity:1"
     d="m 176.45312,97.802734 c 10e-6,1.683092 -1.38526,3.068356 -3.06835,3.068356 -1.6831,0 -3.06836,-1.385264 -3.06836,-3.068356 0,-1.683091 1.38526,-3.070312 3.06836,-3.070312 1.68309,0 3.06836,1.387221 3.06835,3.070312 z"
     id="path11920" />
  <path
     style="color:#000000;fill:#ffffff;fill-opacity:1;stroke:#ffffff;stroke-width:0.56693;stroke-dasharray:none;stroke-opacity:1"
     d="m 176.45312,90.601562 c 10e-6,1.683092 -1.38526,3.06836 -3.06835,3.06836 -1.6831,0 -3.06836,-1.385268 -3.06836,-3.06836 0,-1.683091 1.38526,-3.068359 3.06836,-3.068359 1.68309,0 3.06836,1.385268 3.06835,3.068359 z"
     id="path11926" />
  <path
     style="color:#000000;fill:#ffffff;fill-opacity:1;stroke:#ffffff;stroke-width:0.56693;stroke-dasharray:none;stroke-opacity:1"
     d="m 226.85352,119.40234 c 0,1.68309 -1.38527,3.06836 -3.06836,3.06836 -1.68309,0 -3.06836,-1.38527 -3.06836,-3.06836 0,-1.68309 1.38527,-3.06836 3.06836,-3.06836 1.68309,0 3.06836,1.38527 3.06836,3.06836 z"
     id="path11932" />
  <path
     style="color:#000000;fill:#ffffff;fill-opacity:1;stroke:#ffffff;stroke-width:0.56693;stroke-dasharray:none;stroke-opacity:1"
     d="m 226.85352,112.20117 c 0,1.68309 -1.38527,3.07031 -3.06836,3.07031 -1.68309,0 -3.06836,-1.38722 -3.06836,-3.07031 0,-1.68309 1.38527,-3.06836 3.06836,-3.06836 1.68309,0 3.06836,1.38527 3.06836,3.06836 z"
     id="path11938" />
  <path
     style="color:#000000;fill:#ffffff;fill-opacity:1;stroke:#ffffff;stroke-width:0.56693;stroke-dasharray:none;stroke-opacity:1"
     d="m 226.85352,105.00195 c 0,1.68309 -1.38527,3.06836 -3.06836,3.06836 -1.68309,0 -3.06836,-1.38527 -3.06836,-3.06836 0,-1.68309 1.38527,-3.06836 3.06836,-3.06836 1.68309,0 3.06836,1.38527 3.06836,3.06836 z"
     id="path11944" />
  <path
     style="color:#000000;fill:#ffffff;fill-opacity:1;stroke:#ffffff;stroke-width:0.56693;stroke-dasharray:none;stroke-opacity:1"
     d="m 226.85352,97.802734 c 0,1.683092 -1.38527,3.068356 -3.06836,3.068356 -1.68309,0 -3.06836,-1.385264 -3.06836,-3.068356 0,-1.683091 1.38527,-3.070312 3.06836,-3.070312 1.68309,0 3.06836,1.387221 3.06836,3.070312 z"
     id="path11950" />
  <path
     style="color:#000000;fill:#ffffff;fill-opacity:1;stroke:#ffffff;stroke-width:0.56693;stroke-dasharray:none;stroke-opacity:1"
     d="m 259.78516,104.00391 c -1.47551,0 -2.69336,-1.21785 -2.69336,-2.69336 0,-1.475512 1.21785,-2.693363 2.69336,-2.693363 1.4755,0 2.69335,1.217851 2.69336,2.693363 0,1.47551 -1.21785,2.69336 -2.69336,2.69336 z"
     id="path11956" />
  <path
     style="color:#000000;fill:#ffffff;fill-opacity:1;stroke:#ffffff;stroke-width:0.56693;stroke-dasharray:none;stroke-opacity:1"
     d="m 257.0918,104.00391 v -0.99219 -4.394533 h 5.38672 v 5.386723 z"
     id="path11991" />
  <path
     style="color:#000000;fill:#ffffff;fill-opacity:1;stroke:#ffffff;stroke-width:0.56693;stroke-dasharray:none;stroke-opacity:1"
     d="m 259.78516,111.08984 c -1.47551,0 -2.69336,-1.21589 -2.69336,-2.6914 0,-1.47551 1.21785,-2.69336 2.69336,-2.69336 1.47551,0 2.69336,1.21785 2.69336,2.69336 0,1.47551 -1.21785,2.6914 -2.69336,2.6914 z"
     id="path11997" />
  <path
     style="color:#000000;fill:#ffffff;fill-opacity:1;stroke:#ffffff;stroke-width:0.56693;stroke-dasharray:none;stroke-opacity:1"
     d="m 230.98437,64.773437 c -1.6297,0 -2.9707,-1.340996 -2.9707,-2.970703 0,-1.629706 1.341,-2.972656 2.9707,-2.972656 1.62971,0 2.97266,1.34295 2.97266,2.972656 0,1.629707 -1.34295,2.970703 -2.97266,2.970703 z"
     id="path12003" />
  <path
     style="color:#000000;fill:#ffffff;fill-opacity:1;stroke:#ffffff;stroke-width:0.56693;stroke-dasharray:none;stroke-opacity:1"
     d="m 259.78516,64.773437 c -1.62971,0 -2.97266,-1.340995 -2.97266,-2.970703 0,-1.629707 1.34295,-2.972656 2.97266,-2.972656 1.6297,0 2.97265,1.342949 2.97265,2.972656 0,1.629708 -1.34295,2.970703 -2.97265,2.970703 z"
     id="path12009" />
  <path
     style="color:#000000;fill:#ffffff;fill-opacity:1;stroke:#ffffff;stroke-width:0.56693;stroke-dasharray:none;stroke-opacity:1"
     d="m 259.78516,87.628906 c 1.6297,0 2.97265,1.342949 2.97265,2.972656 0,1.629708 -1.34295,2.972657 -2.97265,2.972657 -1.62971,0 -2.97266,-1.342949 -2.97266,-2.972657 0,-1.629707 1.34295,-2.972656 2.97266,-2.972656 z"
     id="path12015" />
  <path
     style="color:#000000;fill:#ffffff;fill-opacity:1;stroke:#ffffff;stroke-width:0.56693;stroke-dasharray:none;stroke-opacity:1"
     d="m 230.98437,87.628906 c 1.62971,0 2.97266,1.342949 2.97266,2.972656 0,1.629708 -1.34295,2.972657 -2.97266,2.972657 -1.6297,0 -2.9707,-1.342949 -2.9707,-2.972657 0,-1.629707 1.341,-2.972656 2.9707,-2.972656 z"
     id="path12021" />
  <path
     style="color:#000000;fill:#ffffff;stroke-linecap:round;stroke:#ffffff;stroke-opacity:1;stroke-width:0;stroke-dasharray:none"
     d="m 238.19531,127.8418 a 1.728,1.728 0 0 0 -1.71679,1.74023 l 0.0859,11.38281 a 1.728,1.728 0 0 0 1.74024,1.71485 1.728,1.728 0 0 0 1.71679,-1.74024 l -0.0859,-11.38281 a 1.728,1.728 0 0 0 -1.74024,-1.71484 z"
     id="path8971" />
  <path
     style="color:#000000;fill:#ffffff;stroke-linecap:round;stroke:#ffffff;stroke-opacity:1;stroke-width:0;stroke-dasharray:none"
     d="m 238.29297,139.22461 -83.54102,0.0469 a 1.728,1.728 0 0 0 -1.72656,1.73047 1.728,1.728 0 0 0 1.72852,1.72657 l 83.54101,-0.0488 a 1.728,1.728 0 0 0 1.72656,-1.72852 1.728,1.728 0 0 0 -1.72851,-1.72656 z"
     id="path8977" />
  <path
     style="color:#000000;display:inline;fill:#000000;fill-opacity:1;stroke:#ffffff;stroke-width:0;stroke-linecap:round;stroke-dasharray:none;stroke-opacity:1"
     d="m 15.039063,24.111328 a 1.728,1.728 0 0 0 -1.734375,1.720703 l -0.03711,11.394531 a 1.728,1.728 0 0 0 1.720703,1.734375 1.728,1.728 0 0 0 1.734375,-1.722656 L 16.761716,25.84375 A 1.728,1.728 0 0 0 15.03906,24.111328 Z"
     id="path8983" />
  <path
     style="color:#000000;fill:#ffffff;stroke-linecap:round;stroke:#ffffff;stroke-opacity:1;stroke-width:0;stroke-dasharray:none;fill-opacity:1"
     d="m 17.980469,153.72266 c -0.95404,-0.0155 -1.740089,0.74517 -1.75586,1.69921 -0.01551,0.95479 0.746365,1.74116 1.701172,1.75586 l 4.691407,0.0527 c 0.954794,0.0155 1.74116,-0.74636 1.75586,-1.70117 0.01551,-0.95404 -0.745179,-1.74009 -1.699219,-1.75586 z"
     id="path8989" />
  <path
     style="color:#000000;fill:#ffffff;stroke-linecap:round;stroke:#ffffff;stroke-opacity:1;stroke-width:0;stroke-dasharray:none;fill-opacity:1"
     d="m 11.994141,160.91211 -4.3164066,0.0547 a 1.728,1.728 0 0 0 -1.7050782,1.75 1.728,1.728 0 0 0 1.75,1.70703 l 4.3164068,-0.0566 a 1.728,1.728 0 0 0 1.705078,-1.75 1.728,1.728 0 0 0 -1.75,-1.70508 z"
     id="path8995" />
  <path
     style="color:#000000;fill:#ffffff;stroke-linecap:round;stroke:#ffffff;stroke-opacity:1;stroke-width:0;stroke-dasharray:none;fill-opacity:1"
     d="M 7.7851562,48.691406 A 1.728,1.728 0 0 0 6.0546875,50.417969 L 5.9726562,162.69336 a 1.728,1.728 0 0 0 1.7265625,1.73047 1.728,1.728 0 0 0 1.7304688,-1.72852 L 9.5117188,50.419922 A 1.728,1.728 0 0 0 7.7851562,48.691406 Z"
     id="path9001" />
  <path
     style="color:#000000;fill:#ffffff;stroke-linecap:round;stroke:#ffffff;stroke-opacity:1;stroke-width:0;stroke-dasharray:none"
     d="m 166.26562,31.228516 a 1.728,1.728 0 0 0 -1.74609,1.710937 1.728,1.728 0 0 0 1.71094,1.746094 l 4.0918,0.04102 a 1.728,1.728 0 0 0 1.74609,-1.708984 1.728,1.728 0 0 0 -1.71094,-1.746094 z"
     id="path9007" />
  <path
     style="color:#000000;fill:#ffffff;stroke-linecap:round;stroke:#ffffff;stroke-opacity:1;stroke-width:0;stroke-dasharray:none"
     d="m 166.24805,24.130859 a 1.728,1.728 0 0 0 -1.72852,1.728516 v 7.097656 a 1.728,1.728 0 0 0 1.72852,1.728516 1.728,1.728 0 0 0 1.72851,-1.728516 v -7.097656 a 1.728,1.728 0 0 0 -1.72851,-1.728516 z"
     id="path9013" />
  <path
     style="color:#000000;fill:#ffffff;stroke-linecap:round;stroke:#ffffff;stroke-opacity:1;stroke-width:0;stroke-dasharray:none"
     d="m 158.88867,24.130859 a 1.728,1.728 0 0 0 -1.72851,1.728516 1.728,1.728 0 0 0 1.72851,1.728516 h 7.35938 a 1.728,1.728 0 0 0 1.72851,-1.728516 1.728,1.728 0 0 0 -1.72851,-1.728516 z"
     id="path9019" />
  <path
     style="color:#000000;fill:#ffffff;stroke-linecap:round;stroke:#ffffff;stroke-opacity:1;stroke-width:0;stroke-dasharray:none"
     d="m 15.099609,23.800781 a 1.728,1.728 0 0 0 -1.740234,1.714844 l -0.08203,11.705078 a 1.728,1.728 0 0 0 1.716797,1.740234 1.728,1.728 0 0 0 1.740234,-1.716796 l 0.08008,-11.705079 a 1.728,1.728 0 0 0 -1.714844,-1.738281 z"
     id="path9025" />
  <path
     style="color:#000000;fill:#ffffff;stroke-linecap:round;stroke:#ffffff;stroke-opacity:1;stroke-width:0;stroke-dasharray:none"
     d="m 15.091797,23.654297 a 1.728,1.728 0 0 0 -1.732422,1.724609 1.728,1.728 0 0 0 1.724609,1.730469 l 143.800786,0.332031 a 1.728,1.728 0 0 0 1.73046,-1.722656 1.728,1.728 0 0 0 -1.72265,-1.732422 z"
     id="path9031" />
  <path
     style="color:#000000;fill:#ffffff;stroke-linecap:round;stroke:#ffffff;stroke-opacity:1;stroke-width:0;stroke-dasharray:none"
     d="m 158.89258,16.771484 a 1.728,1.728 0 0 0 -1.73242,1.722657 1.728,1.728 0 0 0 1.72265,1.732421 l 57.65235,0.169922 a 1.728,1.728 0 0 0 1.73242,-1.722656 1.728,1.728 0 0 0 -1.72266,-1.732422 z"
     id="path9037" />
  <path
     style="color:#000000;fill:#ffffff;stroke-linecap:round;stroke:#ffffff;stroke-opacity:1;stroke-width:0;stroke-dasharray:none;fill-opacity:1"
     d="m 231.2832,31.277344 -14.74414,0.01172 a 1.728,1.728 0 0 0 -1.72656,1.728516 1.728,1.728 0 0 0 1.72852,1.726563 l 14.74414,-0.01172 a 1.728,1.728 0 0 0 1.72656,-1.728516 1.728,1.728 0 0 0 -1.72852,-1.726562 z"
     id="path9043" />
  <path
     style="color:#000000;fill:#ffffff;stroke-linecap:round;stroke:#ffffff;stroke-opacity:1;stroke-width:0;stroke-dasharray:none"
     d="M 158.88867,16.771484 A 1.728,1.728 0 0 0 157.16016,18.5 v 7.359375 a 1.728,1.728 0 0 0 1.72851,1.728516 1.728,1.728 0 0 0 1.72656,-1.728516 V 18.5 a 1.728,1.728 0 0 0 -1.72656,-1.728516 z"
     id="path9049" />
  <path
     style="color:#000000;fill:#ffffff;stroke-linecap:round;stroke:#ffffff;stroke-opacity:1;stroke-width:0;stroke-dasharray:none"
     d="m 216.54102,16.941406 a 1.728,1.728 0 0 0 -1.72852,1.728516 v 14.347656 a 1.728,1.728 0 0 0 1.72852,1.726563 1.728,1.728 0 0 0 1.72656,-1.726563 V 18.669922 a 1.728,1.728 0 0 0 -1.72656,-1.728516 z"
     id="path9055" />
  <path
     style="color:#000000;fill:#ffffff;stroke-linecap:round;stroke:#ffffff;stroke-opacity:1;stroke-width:0;stroke-dasharray:none"
     d="m 241.15234,117.67383 a 1.728,1.728 0 0 0 -1.72656,1.72851 1.728,1.728 0 0 0 1.72656,1.72852 h 8.46485 a 1.728,1.728 0 0 0 1.72851,-1.72852 1.728,1.728 0 0 0 -1.72851,-1.72851 z"
     id="path9061" />
  <path
     style="color:#000000;fill:#ffffff;stroke-linecap:round;stroke:#ffffff;stroke-opacity:1;stroke-width:0;stroke-dasharray:none"
     d="m 235.20703,117.68945 -4.30273,0.0234 a 1.728,1.728 0 0 0 -1.71875,1.73828 1.728,1.728 0 0 0 1.73828,1.71875 l 4.30273,-0.0234 a 1.728,1.728 0 0 0 1.71875,-1.73828 1.728,1.728 0 0 0 -1.73828,-1.71875 z"
     id="path9067" />
  <path
     style="color:#000000;fill:#ffffff;stroke-linecap:round;stroke:#ffffff;stroke-opacity:1;stroke-width:0;stroke-dasharray:none"
     d="M 230.98242,91.734375 A 1.728,1.728 0 0 0 229.25,93.457031 l -0.0644,25.980469 a 1.728,1.728 0 0 0 1.72461,1.73242 1.728,1.728 0 0 0 1.73242,-1.72461 l 0.0644,-25.978513 a 1.728,1.728 0 0 0 -1.72461,-1.732422 z"
     id="path9073" />
  <path
     style="color:#000000;fill:#ffffff;stroke-linecap:round;stroke:#ffffff;stroke-opacity:1;stroke-width:0;stroke-dasharray:none"
     d="m 238.13477,182.46094 a 1.728,1.728 0 0 0 -1.73633,1.71875 1.728,1.728 0 0 0 1.7207,1.73633 l 28.80273,0.1289 a 1.728,1.728 0 0 0 1.73633,-1.7207 1.728,1.728 0 0 0 -1.7207,-1.73438 z"
     id="path9079" />
  <path
     style="color:#000000;fill:#ffffff;stroke-linecap:round;stroke:#ffffff;stroke-opacity:1;stroke-width:0;stroke-dasharray:none"
     d="m 266.92969,182.58984 a 1.728,1.728 0 0 0 -1.72852,1.72657 v 79.09375 a 1.728,1.728 0 0 0 1.72852,1.72851 1.728,1.728 0 0 0 1.72851,-1.72851 v -79.09375 a 1.728,1.728 0 0 0 -1.72851,-1.72657 z"
     id="path9085" />
  <path
     style="color:#000000;fill:#ffffff;stroke-linecap:round;stroke:#ffffff;stroke-opacity:1;stroke-width:0;stroke-dasharray:none"
     d="m 22.070312,261.66602 a 1.728,1.728 0 0 0 -1.728515,1.72851 1.728,1.728 0 0 0 1.728515,1.72852 l 244.859378,0.0156 a 1.728,1.728 0 0 0 1.72851,-1.72851 1.728,1.728 0 0 0 -1.72851,-1.72657 z"
     id="path9091" />
  <path
     style="color:#000000;fill:#ffffff;stroke-linecap:round;stroke:#ffffff;stroke-opacity:1;stroke-width:0;stroke-dasharray:none"
     d="m 14.976563,48.640625 a 1.728,1.728 0 0 0 -1.740235,1.714844 l -0.0332,4.345703 a 1.728,1.728 0 0 0 1.716797,1.740234 1.728,1.728 0 0 0 1.740234,-1.714844 l 0.03125,-4.345703 a 1.728,1.728 0 0 0 -1.714843,-1.740234 z"
     id="path9097" />
  <path
     style="color:#000000;fill:#ffffff;stroke-linecap:round;stroke:#ffffff;stroke-opacity:1;stroke-width:0;stroke-dasharray:none"
     d="m 22.148437,52.785156 -7.263671,0.201172 a 1.728,1.728 0 0 0 -1.679688,1.775391 1.728,1.728 0 0 0 1.775391,1.679687 l 7.263672,-0.201172 a 1.728,1.728 0 0 0 1.679687,-1.77539 1.728,1.728 0 0 0 -1.775391,-1.679688 z"
     id="path9103" />
  <path
     style="color:#000000;fill:#ffffff;stroke-linecap:round;stroke:#ffffff;stroke-opacity:1;stroke-width:0;stroke-dasharray:none"
     d="m 22.214844,52.785156 c -0.954013,-0.01005 -1.735648,0.754976 -1.746094,1.708985 l 0.44922,100.990229 c -0.01005,0.95477 0.75616,1.73672 1.710937,1.7461 0.95401,0.009 1.734764,-0.75693 1.744141,-1.71094 L 23.925781,54.53125 c 0.01004,-0.954768 -0.756162,-1.736719 -1.710937,-1.746094 z"
     id="path9109" />
  <path
     style="color:#000000;fill:#ffffff;stroke-linecap:round;stroke:#ffffff;stroke-opacity:1;stroke-width:0;stroke-dasharray:none"
     d="m 22.63086,153.77344 c -0.954769,0.008 -1.721844,0.78938 -1.71289,1.74414 l -0.576173,107.89258 c 0.0083,0.954 0.788183,1.72076 1.742187,1.71289 0.954767,-0.007 1.722712,-0.78743 1.714844,-1.74219 l 0.57422,-107.89453 c -0.0083,-0.954 -0.788184,-1.72076 -1.742188,-1.71289 z"
     id="path9115" />
  <path
     style="color:#000000;fill:#ffffff;stroke-linecap:round;stroke:#ffffff;stroke-opacity:1;stroke-width:0;stroke-dasharray:none"
     d="m 238.11133,182.46094 a 1.728,1.728 0 0 0 -1.71289,1.74023 l 0.0332,4.19727 a 1.728,1.728 0 0 0 1.74219,1.71484 1.728,1.728 0 0 0 1.71484,-1.74219 l -0.0351,-4.19726 a 1.728,1.728 0 0 0 -1.74219,-1.71289 z"
     id="path9121" />
  <path
     style="color:#000000;fill:#ffffff;stroke-linecap:round;stroke:#ffffff;stroke-opacity:1;stroke-width:0;stroke-dasharray:none"
     d="m 202.33398,124.48381 -25.9707,0.53711 c -0.95408,0.0211 -1.71046,0.81155 -1.68945,1.76563 0.0211,0.95408 0.81154,1.71046 1.76562,1.68945 l 25.97071,-0.53711 c 0.95408,-0.0211 1.71046,-0.81154 1.68945,-1.76562 -0.0211,-0.95409 -0.81154,-1.71047 -1.76563,-1.68946 z"
     id="path9127" />
  <path
     style="color:#000000;fill:#ffffff;stroke-linecap:round;stroke:#ffffff;stroke-opacity:1;stroke-width:0;stroke-dasharray:none"
     d="m 202.18359,24.257253 c -0.95402,-0.01223 -1.73742,0.751058 -1.75,1.705078 l 0.21094,100.226559 c -0.0122,0.95402 0.75106,1.73742 1.70508,1.75 0.95403,0.0122 1.73742,-0.75106 1.75,-1.70508 L 203.88867,26.007253 c 0.0122,-0.954025 -0.75106,-1.737424 -1.70508,-1.75 z"
     id="path9133" />
  <path
     style="color:#000000;fill:#ffffff;stroke-linecap:round;stroke:#ffffff;stroke-opacity:1;stroke-width:0;stroke-dasharray:none"
     d="m 202.16016,24.044922 -25.73047,0.02539 a 1.728,1.728 0 0 0 -1.72657,1.730469 1.728,1.728 0 0 0 1.73047,1.726563 L 202.16406,27.5 a 1.728,1.728 0 0 0 1.72656,-1.728516 1.728,1.728 0 0 0 -1.73046,-1.726562 z"
     id="path9139" />
  <path
     style="color:#000000;fill:#ffffff;stroke-linecap:round;stroke:#ffffff;stroke-opacity:1;stroke-width:0;stroke-dasharray:none"
     d="m 159.06445,38.416016 a 1.728,1.728 0 0 0 -1.74218,1.71289 1.728,1.728 0 0 0 1.71289,1.742188 l 11.29101,0.0918 a 1.728,1.728 0 0 0 1.74219,-1.714844 1.728,1.728 0 0 0 -1.71484,-1.742188 z"
     id="path9145" />
  <path
     style="color:#000000;fill:#ffffff;stroke-linecap:round;stroke:#ffffff;stroke-opacity:1;stroke-width:0;stroke-dasharray:none"
     d="m 159.05078,31.230469 a 1.728,1.728 0 0 0 -1.72851,1.728515 v 7.183594 a 1.728,1.728 0 0 0 1.72851,1.728516 1.728,1.728 0 0 0 1.72656,-1.728516 v -7.183594 a 1.728,1.728 0 0 0 -1.72656,-1.728515 z"
     id="path9151" />
  <path
     style="color:#000000;fill:#ffffff;stroke-linecap:round;stroke:#ffffff;stroke-opacity:1;stroke-width:0;stroke-dasharray:none"
     d="m 115.75391,31.230469 a 1.728,1.728 0 0 0 -1.72852,1.728515 1.728,1.728 0 0 0 1.72852,1.726563 h 43.29687 a 1.728,1.728 0 0 0 1.72656,-1.726563 1.728,1.728 0 0 0 -1.72656,-1.728515 z"
     id="path9157" />
  <path
     style="color:#000000;fill:#ffffff;stroke-linecap:round;stroke:#ffffff;stroke-opacity:1;stroke-width:0;stroke-dasharray:none"
     d="m 166.23437,45.601562 a 1.728,1.728 0 0 0 -1.72851,1.728516 l 0.002,7.183594 a 1.728,1.728 0 0 0 1.72656,1.728515 1.728,1.728 0 0 0 1.72852,-1.728515 v -7.185547 a 1.728,1.728 0 0 0 -1.72852,-1.726563 z"
     id="path9163" />
  <path
     style="color:#000000;fill:#ffffff;stroke-linecap:round;stroke:#ffffff;stroke-opacity:1;stroke-width:0;stroke-dasharray:none"
     d="m 166.27344,45.601562 a 1.728,1.728 0 0 0 -1.76563,1.689454 1.728,1.728 0 0 0 1.68946,1.765625 l 4.10546,0.08984 a 1.728,1.728 0 0 0 1.76563,-1.689453 1.728,1.728 0 0 0 -1.68945,-1.765625 z"
     id="path9169" />
  <path
     style="color:#000000;fill:#ffffff;stroke-linecap:round;stroke:#ffffff;stroke-opacity:1;stroke-width:0;stroke-dasharray:none"
     d="m 115.75391,52.787109 a 1.728,1.728 0 0 0 -1.72852,1.726563 1.728,1.728 0 0 0 1.72852,1.728515 h 50.48046 a 1.728,1.728 0 0 0 1.72852,-1.728515 1.728,1.728 0 0 0 -1.72852,-1.726563 z"
     id="path9175" />
  <path
     style="color:#000000;fill:#ffffff;stroke-linecap:round;stroke:#ffffff;stroke-opacity:1;stroke-width:0;stroke-dasharray:none"
     d="m 115.7793,48.640625 a 1.728,1.728 0 0 0 -1.73438,1.720703 l -0.0195,4.144531 a 1.728,1.728 0 0 0 1.71875,1.736328 1.728,1.728 0 0 0 1.73633,-1.720703 L 117.5,50.376953 a 1.728,1.728 0 0 0 -1.7207,-1.736328 z"
     id="path9181" />
  <path
     style="color:#000000;fill:#ffffff;stroke-linecap:round;stroke:#ffffff;stroke-opacity:1;stroke-width:0;stroke-dasharray:none"
     d="m 115.74609,31.230469 a 1.728,1.728 0 0 0 -1.7207,1.734375 l 0.0195,4.27539 a 1.728,1.728 0 0 0 1.73438,1.720703 1.728,1.728 0 0 0 1.7207,-1.736328 l -0.0195,-4.273437 a 1.728,1.728 0 0 0 -1.73438,-1.720703 z"
     id="path9187" />
  <path
     style="color:#000000;fill:#ffffff;stroke-linecap:round;stroke:#ffffff;stroke-opacity:1;stroke-width:0;stroke-dasharray:none"
     d="m 166.23633,103.26758 a 1.728,1.728 0 0 0 -1.72852,1.72656 1.728,1.728 0 0 0 1.72461,1.73047 l 4.13477,0.004 a 1.728,1.728 0 0 0 1.72851,-1.72657 1.728,1.728 0 0 0 -1.72656,-1.73047 z"
     id="path9193" />
  <path
     style="color:#000000;fill:#ffffff;stroke-linecap:round;stroke:#ffffff;stroke-opacity:1;stroke-width:0;stroke-dasharray:none"
     d="m 166.23437,45.601562 a 1.728,1.728 0 0 0 -1.72656,1.726563 v 57.667965 a 1.728,1.728 0 0 0 1.72656,1.72852 1.728,1.728 0 0 0 1.72852,-1.72852 V 47.328125 a 1.728,1.728 0 0 0 -1.72852,-1.726563 z"
     id="path9199" />
  <path
     style="color:#000000;fill:#ffffff;stroke-linecap:round;stroke:#ffffff;stroke-opacity:1;stroke-width:0;stroke-dasharray:none"
     d="m 166.27344,45.601562 a 1.728,1.728 0 0 0 -1.76563,1.689454 1.728,1.728 0 0 0 1.68946,1.765625 l 4.10546,0.08984 a 1.728,1.728 0 0 0 1.76563,-1.689453 1.728,1.728 0 0 0 -1.68945,-1.765625 z"
     id="path9205" />
  <path
     style="color:#000000;fill:#ffffff;stroke-linecap:round;stroke:#ffffff;stroke-opacity:1;stroke-width:0;stroke-dasharray:none"
     d="m 187.79102,38.416016 a 1.728,1.728 0 0 0 -1.72852,1.728515 v 57.666016 a 1.728,1.728 0 0 0 1.72852,1.728515 1.728,1.728 0 0 0 1.72851,-1.728515 V 40.144531 a 1.728,1.728 0 0 0 -1.72851,-1.728515 z"
     id="path9211" />
  <path
     style="color:#000000;fill:#ffffff;stroke-linecap:round;stroke:#ffffff;stroke-opacity:1;stroke-width:0;stroke-dasharray:none"
     d="m 187.77734,38.416016 -11.35937,0.08984 a 1.728,1.728 0 0 0 -1.71485,1.742188 1.728,1.728 0 0 0 1.74219,1.714844 l 11.35938,-0.0918 a 1.728,1.728 0 0 0 1.71484,-1.742188 1.728,1.728 0 0 0 -1.74219,-1.71289 z"
     id="path9217" />
  <path
     style="color:#000000;fill:#ffffff;stroke-linecap:round;stroke:#ffffff;stroke-opacity:1;stroke-width:0;stroke-dasharray:none"
     d="m 176.40234,96.076172 a 1.728,1.728 0 0 0 -1.72851,1.726562 1.728,1.728 0 0 0 1.72656,1.728516 l 11.38867,0.0078 a 1.728,1.728 0 0 0 1.73047,-1.726562 1.728,1.728 0 0 0 -1.72851,-1.730469 z"
     id="path9223" />
  <path
     style="color:#000000;fill:#ffffff;stroke-linecap:round;stroke:#ffffff;stroke-opacity:1;stroke-width:0;stroke-dasharray:none"
     d="m 194.9707,31.230469 -18.54492,0.0625 a 1.728,1.728 0 0 0 -1.72266,1.732422 1.728,1.728 0 0 0 1.73438,1.722656 l 18.54492,-0.0625 a 1.728,1.728 0 0 0 1.72266,-1.734375 1.728,1.728 0 0 0 -1.73438,-1.720703 z"
     id="path9229" />
  <path
     style="color:#000000;fill:#ffffff;stroke-linecap:round;stroke:#ffffff;stroke-opacity:1;stroke-width:0;stroke-dasharray:none"
     d="m 194.97461,31.230469 a 1.728,1.728 0 0 0 -1.72656,1.728515 l 0.0547,79.189456 a 1.728,1.728 0 0 0 1.72852,1.72851 1.728,1.728 0 0 0 1.72656,-1.73047 l -0.0527,-79.189449 a 1.728,1.728 0 0 0 -1.73047,-1.726562 z"
     id="path9235" />
  <path
     style="color:#000000;fill:#ffffff;stroke-linecap:round;stroke:#ffffff;stroke-opacity:1;stroke-width:0;stroke-dasharray:none"
     d="m 195.02734,110.42188 -18.6289,0.0449 a 1.728,1.728 0 0 0 -1.72461,1.73242 1.728,1.728 0 0 0 1.73242,1.72461 l 18.62891,-0.0469 a 1.728,1.728 0 0 0 1.72461,-1.73242 1.728,1.728 0 0 0 -1.73243,-1.72265 z"
     id="path9241" />
  <path
     style="color:#000000;fill:#ffffff;stroke-linecap:round;stroke:#ffffff;stroke-opacity:1;stroke-width:0;stroke-dasharray:none"
     d="m 230.98437,62.933594 a 1.728,1.728 0 0 0 -1.72656,1.728515 v 23.080078 a 1.728,1.728 0 0 0 1.72656,1.728516 1.728,1.728 0 0 0 1.72852,-1.728516 V 64.662109 a 1.728,1.728 0 0 0 -1.72852,-1.728515 z"
     id="path9247" />
  <path
     style="color:#000000;fill:#ffffff;stroke-linecap:round;stroke:#ffffff;stroke-opacity:1;stroke-width:0;stroke-dasharray:none"
     d="m 259.78516,62.933594 a 1.728,1.728 0 0 0 -1.72852,1.728515 v 5.113282 a 1.728,1.728 0 0 0 1.72852,1.728515 1.728,1.728 0 0 0 1.72851,-1.728515 v -5.113282 a 1.728,1.728 0 0 0 -1.72851,-1.728515 z"
     id="path9253" />
  <path
     style="color:#000000;fill:#ffffff;stroke-linecap:round;stroke:#ffffff;stroke-opacity:1;stroke-width:0;stroke-dasharray:none"
     d="m 252.58594,127.8418 a 1.728,1.728 0 0 0 -1.72657,1.72851 l 0.01,18.7168 a 1.728,1.728 0 0 0 1.72852,1.72656 1.728,1.728 0 0 0 1.72656,-1.72851 l -0.01,-18.7168 a 1.728,1.728 0 0 0 -1.72851,-1.72656 z"
     id="path9259" />
  <path
     style="color:#000000;fill:#ffffff;stroke-linecap:round;stroke:#ffffff;stroke-opacity:1;stroke-width:0;stroke-dasharray:none"
     d="m 144.50195,146.55859 a 1.728,1.728 0 0 0 -1.72851,1.72657 1.728,1.728 0 0 0 1.72851,1.72851 H 252.5957 a 1.728,1.728 0 0 0 1.72852,-1.72851 1.728,1.728 0 0 0 -1.72852,-1.72657 z"
     id="path9265" />
  <path
     style="color:#000000;fill:#ffffff;stroke-linecap:round;stroke:#ffffff;stroke-opacity:1;stroke-width:0;stroke-dasharray:none"
     d="m 144.57031,142.24219 a 1.728,1.728 0 0 0 -1.74804,1.70703 l -0.0488,4.3164 a 1.728,1.728 0 0 0 1.70703,1.74805 1.728,1.728 0 0 0 1.74805,-1.70703 l 0.0508,-4.31641 a 1.728,1.728 0 0 0 -1.70899,-1.74804 z"
     id="path9271" />
  <path
     style="color:#000000;fill:#ffffff;stroke-linecap:round;stroke:#ffffff;stroke-opacity:1;stroke-width:0;stroke-dasharray:none"
     d="m 238.17773,192.69141 a 1.728,1.728 0 0 0 -1.73828,1.71875 l -0.0625,11.30273 a 1.728,1.728 0 0 0 1.7168,1.73828 1.728,1.728 0 0 0 1.73828,-1.71875 l 0.0644,-11.30273 a 1.728,1.728 0 0 0 -1.71875,-1.73828 z"
     id="path9277" />
  <path
     style="color:#000000;fill:#ffffff;stroke-linecap:round;stroke:#ffffff;stroke-opacity:1;stroke-width:0;stroke-dasharray:none"
     d="m 238.10156,203.99414 -71.85742,0.10352 a 1.728,1.728 0 0 0 -1.72656,1.73046 1.728,1.728 0 0 0 1.73047,1.72461 l 71.85937,-0.10156 a 1.728,1.728 0 0 0 1.72461,-1.73047 1.728,1.728 0 0 0 -1.73047,-1.72656 z"
     id="path9283" />
  <path
     style="color:#000000;fill:#ffffff;stroke-linecap:round;stroke:#ffffff;stroke-opacity:1;stroke-width:0;stroke-dasharray:none"
     d="m 166.24805,204.09766 a 1.728,1.728 0 0 0 -1.73047,1.72461 l -0.0547,33.00976 a 1.728,1.728 0 0 0 1.72461,1.73047 1.728,1.728 0 0 0 1.73047,-1.72461 l 0.0566,-33.00977 a 1.728,1.728 0 0 0 -1.72656,-1.73046 z"
     id="path9289" />
  <path
     style="color:#000000;fill:#ffffff;stroke-linecap:round;stroke:#ffffff;stroke-opacity:1;stroke-width:0;stroke-dasharray:none"
     d="m 245.39062,192.69141 a 1.728,1.728 0 0 0 -1.72265,1.73437 l 0.0703,18.66406 a 1.728,1.728 0 0 0 1.73438,1.72266 1.728,1.728 0 0 0 1.7207,-1.73438 l -0.0684,-18.66601 a 1.728,1.728 0 0 0 -1.73438,-1.7207 z"
     id="path9295" />
  <path
     style="color:#000000;fill:#ffffff;stroke-linecap:round;stroke:#ffffff;stroke-opacity:1;stroke-width:0;stroke-dasharray:none"
     d="m 173.32031,211.16797 a 1.728,1.728 0 0 0 -1.73242,1.72265 1.728,1.728 0 0 0 1.72266,1.73243 l 72.15039,0.18945 a 1.728,1.728 0 0 0 1.73242,-1.72461 1.728,1.728 0 0 0 -1.72266,-1.73242 z"
     id="path9301" />
  <path
     style="color:#000000;fill:#ffffff;stroke-linecap:round;stroke:#ffffff;stroke-opacity:1;stroke-width:0;stroke-dasharray:none"
     d="m 173.31641,211.16797 a 1.728,1.728 0 0 0 -1.72852,1.72656 v 21.71484 a 1.728,1.728 0 0 0 1.72852,1.72852 1.728,1.728 0 0 0 1.72851,-1.72852 v -21.71484 a 1.728,1.728 0 0 0 -1.72851,-1.72656 z"
     id="path9307" />
  <path
     style="color:#000000;fill:#ffffff;stroke-linecap:round;stroke:#ffffff;stroke-opacity:1;stroke-width:0;stroke-dasharray:none"
     d="m 173.29883,232.88281 a 1.728,1.728 0 0 0 -1.71094,1.74414 l 0.041,4.22461 a 1.728,1.728 0 0 0 1.74414,1.71094 1.728,1.728 0 0 0 1.71093,-1.74609 l -0.041,-4.22266 a 1.728,1.728 0 0 0 -1.74414,-1.71094 z"
     id="path9313" />
  <path
     style="color:#000000;fill:#ffffff;stroke:#ffffff;stroke-width:0;stroke-linecap:round;stroke-dasharray:none;stroke-opacity:1"
     d="m 230.99023,100.87501 c -0.95399,-0.002 -1.72947,0.76867 -1.73242,1.72266 l -0.0723,16.83983 c -0.002,0.95475 0.76986,1.73055 1.72461,1.73242 0.95475,0.002 1.73055,-0.76986 1.73242,-1.72461 l 0.0703,-16.83788 c 0.002,-0.95397 -0.76864,-1.72945 -1.72261,-1.73242 z"
     id="path9319" />
  <path
     style="color:#000000;fill:#ffffff;stroke-linecap:round;stroke:#ffffff;stroke-opacity:1;stroke-width:0;stroke-dasharray:none"
     d="m 259.78516,91.734375 a 1.728,1.728 0 0 0 -1.72852,1.728516 v 5.113281 a 1.728,1.728 0 0 0 1.72852,1.728518 1.728,1.728 0 0 0 1.72851,-1.728518 v -5.113281 a 1.728,1.728 0 0 0 -1.72851,-1.728516 z"
     id="path9325" />
  <path
     style="color:#000000;fill:#ffffff;stroke-linecap:round;stroke:#ffffff;stroke-opacity:1;stroke-width:0;stroke-dasharray:none"
     d="m 255.4707,31.289062 a 1.728,1.728 0 0 0 -1.73828,1.71875 1.728,1.728 0 0 0 1.71875,1.738282 l 18.60156,0.09961 a 1.728,1.728 0 0 0 1.73829,-1.71875 1.728,1.728 0 0 0 -1.71875,-1.738281 z"
     id="path9331" />
  <path
     style="color:#000000;fill:#ffffff;stroke-linecap:round;stroke:#ffffff;stroke-opacity:1;stroke-width:0;stroke-dasharray:none"
     d="m 274.0625,31.388672 a 1.728,1.728 0 0 0 -1.72852,1.728515 v 43.175782 a 1.728,1.728 0 0 0 1.72852,1.728515 1.728,1.728 0 0 0 1.72852,-1.728515 V 33.117187 a 1.728,1.728 0 0 0 -1.72852,-1.728515 z"
     id="path9337" />
  <path
     style="color:#000000;fill:#ffffff;stroke-linecap:round;stroke:#ffffff;stroke-opacity:1;stroke-width:0;stroke-dasharray:none"
     d="m 274.06055,74.566406 a 1.728,1.728 0 0 0 -1.72657,1.728516 l 0.0801,93.539058 a 1.728,1.728 0 0 0 1.73047,1.72657 1.728,1.728 0 0 0 1.72656,-1.73047 l -0.0801,-93.537111 a 1.728,1.728 0 0 0 -1.73047,-1.726563 z"
     id="path9343" />
  <path
     style="color:#000000;fill:#ffffff;stroke-linecap:round;stroke:#ffffff;stroke-opacity:1;stroke-width:0;stroke-dasharray:none"
     d="m 122.95508,168.10352 a 1.728,1.728 0 0 0 -1.72852,1.72851 1.728,1.728 0 0 0 1.72852,1.72852 h 151.1875 a 1.728,1.728 0 0 0 1.72851,-1.72852 1.728,1.728 0 0 0 -1.72851,-1.72851 z"
     id="path9349" />
  <path
     style="color:#000000;fill:#ffffff;stroke-linecap:round;stroke:#ffffff;stroke-opacity:1;stroke-width:0;stroke-dasharray:none"
     d="m 122.98438,142.24219 a 1.728,1.728 0 0 0 -1.73047,1.72656 l -0.0273,25.86133 a 1.728,1.728 0 0 0 1.72657,1.73047 1.728,1.728 0 0 0 1.73046,-1.72657 l 0.0273,-25.86132 a 1.728,1.728 0 0 0 -1.72656,-1.73047 z"
     id="path9355" />
  <path
     style="color:#000000;fill:#ffffff;stroke-linecap:round;stroke:#ffffff;stroke-opacity:1;stroke-width:0;stroke-dasharray:none"
     d="m 261.69336,79.230469 a 1.728,1.728 0 0 0 -1.02149,0.839843 1.728,1.728 0 0 0 0.7129,2.337891 l 4.83203,2.576172 a 1.728,1.728 0 0 0 2.33789,-0.710938 1.728,1.728 0 0 0 -0.71289,-2.33789 l -4.83203,-2.576172 a 1.728,1.728 0 0 0 -1.31641,-0.128906 z"
     id="path9361" />
  <path
     style="color:#000000;fill:#ffffff;stroke-linecap:round;stroke:#ffffff;stroke-opacity:1;stroke-width:0;stroke-dasharray:none"
     d="m 267.0332,81.732422 a 1.728,1.728 0 0 0 -1.73047,1.724609 l -0.13086,79.130859 a 1.728,1.728 0 0 0 1.72657,1.73047 1.728,1.728 0 0 0 1.73047,-1.72461 l 0.1289,-79.130859 a 1.728,1.728 0 0 0 -1.72461,-1.730469 z"
     id="path9367" />
  <path
     style="color:#000000;fill:#ffffff;stroke-linecap:round;stroke:#ffffff;stroke-opacity:1;stroke-width:0;stroke-dasharray:none"
     d="m 130.19727,160.86133 a 1.728,1.728 0 0 0 -1.72852,1.72851 1.728,1.728 0 0 0 1.72852,1.72852 h 136.70312 a 1.728,1.728 0 0 0 1.72852,-1.72852 1.728,1.728 0 0 0 -1.72852,-1.72851 z"
     id="path9373" />
  <path
     style="color:#000000;fill:#ffffff;stroke-linecap:round;stroke:#ffffff;stroke-opacity:1;stroke-width:0;stroke-dasharray:none"
     d="m 130.18555,142.24219 a 1.728,1.728 0 0 0 -1.72657,1.72851 l 0.01,18.6211 a 1.728,1.728 0 0 0 1.72852,1.72656 1.728,1.728 0 0 0 1.72851,-1.72852 l -0.0117,-18.62109 a 1.728,1.728 0 0 0 -1.72851,-1.72656 z"
     id="path9379" />
  <path
     style="color:#000000;fill:#ffffff;stroke-linecap:round;stroke:#ffffff;stroke-opacity:1;stroke-width:0;stroke-dasharray:none"
     d="m 259.76562,109.4043 a 1.728,1.728 0 0 0 -1.76171,1.69336 l -0.0195,1.04101 a 1.728,1.728 0 0 0 1.69336,1.76172 1.728,1.728 0 0 0 1.76172,-1.69531 l 0.0195,-1.04102 a 1.728,1.728 0 0 0 -1.69336,-1.75976 z"
     id="path9385" />
  <path
     style="color:#000000;fill:#ffffff;stroke-linecap:round;stroke:#ffffff;stroke-opacity:1;stroke-width:0;stroke-dasharray:none"
     d="m 259.70703,110.44336 a 1.728,1.728 0 0 0 -1.72266,1.73242 l 0.12696,43.17774 a 1.728,1.728 0 0 0 1.73242,1.72265 1.728,1.728 0 0 0 1.72266,-1.73242 l -0.12696,-43.17773 a 1.728,1.728 0 0 0 -1.73242,-1.72266 z"
     id="path9391" />
  <path
     style="color:#000000;fill:#ffffff;stroke-linecap:round;stroke:#ffffff;stroke-opacity:1;stroke-width:0;stroke-dasharray:none"
     d="m 137.43945,153.61914 a 1.728,1.728 0 0 0 -1.72851,1.72852 1.728,1.728 0 0 0 1.72851,1.72851 h 122.39844 a 1.728,1.728 0 0 0 1.72852,-1.72851 1.728,1.728 0 0 0 -1.72852,-1.72852 z"
     id="path9397" />
  <path
     style="color:#000000;fill:#ffffff;stroke-linecap:round;stroke:#ffffff;stroke-opacity:1;stroke-width:0;stroke-dasharray:none"
     d="m 137.38867,142.24219 a 1.728,1.728 0 0 0 -1.7207,1.73437 l 0.0449,11.37891 a 1.728,1.728 0 0 0 1.73438,1.7207 1.728,1.728 0 0 0 1.7207,-1.73437 l -0.0449,-11.37891 a 1.728,1.728 0 0 0 -1.73438,-1.7207 z"
     id="path9403" />
  <path
     style="color:#000000;fill:#ffffff;stroke-linecap:round;stroke:#ffffff;stroke-opacity:1;stroke-width:0;stroke-dasharray:none"
     d="m 108.56055,189.53711 a 1.728,1.728 0 0 0 -1.73047,1.72656 1.728,1.728 0 0 0 1.72656,1.72852 l 112.20898,0.13476 a 1.728,1.728 0 0 0 1.73047,-1.72656 1.728,1.728 0 0 0 -1.72656,-1.73047 z"
     id="path9409" />
  <path
     style="color:#000000;fill:#ffffff;stroke-linecap:round;stroke:#ffffff;stroke-opacity:1;stroke-width:0;stroke-dasharray:none"
     d="m 108.58594,48.640625 a 1.728,1.728 0 0 0 -1.72852,1.728516 l -0.0273,140.896479 a 1.728,1.728 0 0 0 1.72851,1.72852 1.728,1.728 0 0 0 1.72852,-1.72852 l 0.0254,-140.896479 a 1.728,1.728 0 0 0 -1.72656,-1.728516 z"
     id="path9415" />
  <path
     style="color:#000000;fill:#ffffff;stroke-linecap:round;stroke:#ffffff;stroke-opacity:1;stroke-width:0;stroke-dasharray:none"
     d="m 86.884766,31.347656 a 1.728,1.728 0 0 0 -1.728516,1.728516 1.728,1.728 0 0 0 1.728516,1.726562 h 7.318359 a 1.728,1.728 0 0 0 1.728516,-1.726562 1.728,1.728 0 0 0 -1.728516,-1.728516 z"
     id="path9421" />
  <path
     style="color:#000000;fill:#ffffff;stroke-linecap:round;stroke:#ffffff;stroke-opacity:1;stroke-width:0;stroke-dasharray:none"
     d="m 151.85742,211.16797 a 1.728,1.728 0 0 0 -1.73047,1.72461 l -0.0625,25.9375 a 1.728,1.728 0 0 0 1.72266,1.73242 1.728,1.728 0 0 0 1.73242,-1.72461 l 0.0625,-25.9375 a 1.728,1.728 0 0 0 -1.72461,-1.73242 z"
     id="path9427" />
  <path
     style="color:#000000;fill:#ffffff;stroke-linecap:round;stroke:#ffffff;stroke-opacity:1;stroke-width:0;stroke-dasharray:none"
     d="m 158.91992,204.09766 a 1.728,1.728 0 0 0 -1.72461,1.73046 l 0.0566,33.00977 a 1.728,1.728 0 0 0 1.73047,1.72461 1.728,1.728 0 0 0 1.72461,-1.73242 l -0.0566,-33.00781 a 1.728,1.728 0 0 0 -1.73047,-1.72461 z"
     id="path9433" />
  <path
     style="color:#000000;fill:#ffffff;stroke-linecap:round;stroke:#ffffff;stroke-opacity:1;stroke-width:0;stroke-dasharray:none"
     d="m 158.92187,204.09766 -64.720698,0.0762 a 1.728,1.728 0 0 0 -1.726563,1.73047 1.728,1.728 0 0 0 1.730469,1.72656 l 64.720702,-0.0781 a 1.728,1.728 0 0 0 1.72461,-1.73046 1.728,1.728 0 0 0 -1.72852,-1.72461 z"
     id="path9439" />
  <path
     style="color:#000000;fill:#ffffff;stroke-linecap:round;stroke:none;stroke-opacity:1;stroke-width:0;stroke-dasharray:none;fill-opacity:1"
     d="M 86.884766,31.347656 A 1.728,1.728 0 0 0 85.15625,33.076172 V 212.93945 a 1.728,1.728 0 0 0 1.728516,1.72852 1.728,1.728 0 0 0 1.728515,-1.72852 V 33.076172 a 1.728,1.728 0 0 0 -1.728515,-1.728516 z"
     id="path9445" />
  <path
     style="color:#000000;fill:#ffffff;stroke-linecap:round;stroke:#ffffff;stroke-opacity:1;stroke-width:0;stroke-dasharray:none"
     d="m 151.85352,211.16797 -64.968754,0.0449 a 1.728,1.728 0 0 0 -1.728516,1.72852 1.728,1.728 0 0 0 1.730469,1.72656 l 64.968751,-0.0449 a 1.728,1.728 0 0 0 1.72656,-1.72852 1.728,1.728 0 0 0 -1.72851,-1.72656 z"
     id="path9451" />
  <path
     style="color:#000000;fill:#ffffff;stroke-linecap:round;stroke:#ffffff;stroke-opacity:1;stroke-width:0;stroke-dasharray:none"
     d="m 94.208984,31.347656 a 1.728,1.728 0 0 0 -1.732422,1.722656 l -0.01172,4.158204 a 1.728,1.728 0 0 0 1.722656,1.732421 1.728,1.728 0 0 0 1.734375,-1.722656 l 0.0098,-4.158203 a 1.728,1.728 0 0 0 -1.722657,-1.732422 z"
     id="path9457" />
  <path
     style="color:#000000;fill:#ffffff;stroke-linecap:round;stroke:#ffffff;stroke-opacity:1;stroke-width:0;stroke-dasharray:none"
     d="m 94.185547,48.640625 a 1.728,1.728 0 0 0 -1.728516,1.728516 l 0.01953,155.533199 a 1.728,1.728 0 0 0 1.728516,1.72852 1.728,1.728 0 0 0 1.726563,-1.72852 L 95.912109,50.369141 a 1.728,1.728 0 0 0 -1.726562,-1.728516 z"
     id="path9463" />
  <path
     style="color:#000000;fill:#ffffff;stroke-linecap:round;stroke:#ffffff;stroke-opacity:1;stroke-width:0;stroke-dasharray:none"
     d="m 101.52148,31.347656 a 1.728,1.728 0 0 0 -1.726558,1.728516 1.728,1.728 0 0 0 1.726558,1.726562 h 7.03711 a 1.728,1.728 0 0 0 1.72852,-1.726562 1.728,1.728 0 0 0 -1.72852,-1.728516 z"
     id="path9469" />
  <path
     style="color:#000000;fill:#ffffff;stroke-linecap:round;stroke:#ffffff;stroke-opacity:1;stroke-width:0;stroke-dasharray:none"
     d="m 101.52148,31.347656 a 1.728,1.728 0 0 0 -1.726558,1.728516 V 198.58398 a 1.728,1.728 0 0 0 1.726558,1.72852 1.728,1.728 0 0 0 1.72852,-1.72852 V 33.076172 a 1.728,1.728 0 0 0 -1.72852,-1.728516 z"
     id="path9475" />
  <path
     style="color:#000000;fill:#ffffff;stroke-linecap:round;stroke:#ffffff;stroke-opacity:1;stroke-width:0;stroke-dasharray:none"
     d="m 101.52344,196.85547 a 1.728,1.728 0 0 0 -1.728518,1.72851 1.728,1.728 0 0 0 1.726558,1.72852 l 129.51563,0.0723 a 1.728,1.728 0 0 0 1.73047,-1.72852 1.728,1.728 0 0 0 -1.72852,-1.72852 z"
     id="path9481" />
  <path
     style="color:#000000;fill:#ffffff;stroke-linecap:round;stroke:#ffffff;stroke-opacity:1;stroke-width:0;stroke-dasharray:none"
     d="m 230.99414,192.69141 a 1.728,1.728 0 0 0 -1.71484,1.74023 l 0.0312,4.23633 a 1.728,1.728 0 0 0 1.74023,1.7168 1.728,1.728 0 0 0 1.7168,-1.74219 l -0.0312,-4.23633 a 1.728,1.728 0 0 0 -1.74219,-1.71484 z"
     id="path9487" />
  <path
     style="color:#000000;fill:#ffffff;stroke-linecap:round;stroke:#ffffff;stroke-opacity:1;stroke-width:0;stroke-dasharray:none"
     d="m 108.55273,31.347656 a 1.728,1.728 0 0 0 -1.72265,1.734375 l 0.0156,4.15625 a 1.728,1.728 0 0 0 1.73438,1.722656 1.728,1.728 0 0 0 1.72265,-1.734375 l -0.0156,-4.15625 a 1.728,1.728 0 0 0 -1.73438,-1.722656 z"
     id="path9493" />
  <path
     style="color:#000000;fill:#ffffff;stroke-linecap:round;stroke:#ffffff;stroke-opacity:1;stroke-width:0;stroke-dasharray:none"
     d="m 158.94141,96.117187 a 1.728,1.728 0 0 0 -1.72852,1.728516 v 28.677737 a 1.728,1.728 0 0 0 1.72852,1.72851 1.728,1.728 0 0 0 1.72851,-1.72851 V 97.845703 a 1.728,1.728 0 0 0 -1.72851,-1.728516 z"
     id="path9499" />
  <path
     style="color:#000000;fill:#ffffff;stroke-width:0;stroke-linecap:round;stroke:#ffffff;stroke-opacity:1;stroke-dasharray:none"
     d="m 145.14229,96.064105 c -0.9137,-2.87e-4 -1.65447,0.773763 -1.65419,1.728516 7.5e-4,0.95399 0.74122,1.72685 1.65419,1.726563 h 13.82037 c 0.91297,2.82e-4 1.65342,-0.772577 1.65418,-1.726563 2.8e-4,-0.954749 -0.74049,-1.728798 -1.65418,-1.728516 z"
     id="path9505" />
  <path
     style="color:#000000;fill:#ffffff;stroke:#ffffff;stroke-width:0;stroke-linecap:round;stroke-dasharray:none;stroke-opacity:1"
     d="m 145.30899,89.114404 c -0.9544,-0.0032 -1.73082,0.728225 -1.73415,1.633699 l -0.0269,6.820127 c -0.003,0.905478 0.76757,1.642108 1.72197,1.64526 0.9544,0.0032 1.73083,-0.728221 1.73416,-1.633699 l 0.0269,-6.820128 c 0.003,-0.90547 -0.76757,-1.642107 -1.72197,-1.645259 z"
     id="path9511" />
  <path
     style="color:#000000;fill:#ffffff;stroke-linecap:round;stroke:#ffffff;stroke-opacity:1;stroke-width:0;stroke-dasharray:none"
     d="m 158.95117,124.79688 a 1.728,1.728 0 0 0 -1.73828,1.71679 1.728,1.728 0 0 0 1.71875,1.73828 l 11.42773,0.0625 a 1.728,1.728 0 0 0 1.73633,-1.71875 1.728,1.728 0 0 0 -1.71875,-1.73828 z"
     id="path9517" />
  <path
     style="color:#000000;fill:#ffffff;stroke:#ffffff;stroke-width:0;stroke-linecap:round;stroke-dasharray:none;stroke-opacity:1"
     d="m 29.384766,48.607425 c -0.953988,7.93e-4 -1.726848,0.774527 -1.726563,1.728515 l 0.07617,205.95117 c -2.82e-4,0.95475 0.773767,1.7288 1.728516,1.72851 0.954748,2.8e-4 1.728797,-0.77376 1.728515,-1.72851 L 31.113281,50.33594 c 2.85e-4,-0.954751 -0.773765,-1.7288 -1.728515,-1.728515 z"
     id="path9523" />
  <path
     style="color:#000000;fill:#ffffff;stroke-linecap:round;stroke:#ffffff;stroke-opacity:1;stroke-width:0;stroke-dasharray:none"
     d="m 252.5293,254.3418 -223.068363,0.21679 a 1.728,1.728 0 0 0 -1.726562,1.73047 1.728,1.728 0 0 0 1.730469,1.72656 L 252.5332,257.79883 a 1.728,1.728 0 0 0 1.72657,-1.73047 1.728,1.728 0 0 0 -1.73047,-1.72656 z"
     id="path9529" />
  <path
     style="color:#000000;fill:#ffffff;stroke-linecap:round;stroke:#ffffff;stroke-opacity:1;stroke-width:0;stroke-dasharray:none"
     d="m 252.58398,192.69141 a 1.728,1.728 0 0 0 -1.72851,1.72656 l -0.0527,61.65039 a 1.728,1.728 0 0 0 1.72657,1.73047 1.728,1.728 0 0 0 1.73047,-1.72656 l 0.0508,-61.65235 a 1.728,1.728 0 0 0 -1.72657,-1.72851 z"
     id="path9535" />
  <path
     style="color:#000000;fill:#ffffff;stroke-linecap:round;stroke:#ffffff;stroke-opacity:1;stroke-width:0;stroke-dasharray:none"
     d="m 173.37305,243.04297 a 1.728,1.728 0 0 0 -1.74414,1.71094 l -0.041,4.23242 a 1.728,1.728 0 0 0 1.71094,1.74414 1.728,1.728 0 0 0 1.74414,-1.71094 l 0.041,-4.23242 a 1.728,1.728 0 0 0 -1.71093,-1.74414 z"
     id="path9541" />
  <path
     style="color:#000000;fill:#ffffff;stroke-linecap:round;stroke:#ffffff;stroke-opacity:1;stroke-width:0;stroke-dasharray:none"
     d="M 36.5,247.24023 A 1.728,1.728 0 0 0 34.771484,248.9668 1.728,1.728 0 0 0 36.5,250.69531 l 136.81641,0.0352 a 1.728,1.728 0 0 0 1.72851,-1.72656 1.728,1.728 0 0 0 -1.72851,-1.72852 z"
     id="path9547" />
  <path
     style="color:#000000;fill:#ffffff;stroke-linecap:round;stroke:#ffffff;stroke-opacity:1;stroke-width:0;stroke-dasharray:none"
     d="m 36.5,31.347656 a 1.728,1.728 0 0 0 -1.728516,1.728516 V 248.96875 A 1.728,1.728 0 0 0 36.5,250.69531 1.728,1.728 0 0 0 38.228516,248.96875 V 33.076172 A 1.728,1.728 0 0 0 36.5,31.347656 Z"
     id="path9553" />
  <path
     style="color:#000000;fill:#ffffff;stroke-linecap:round;stroke:#ffffff;stroke-opacity:1;stroke-width:0;stroke-dasharray:none"
     d="m 22.144531,31.347656 a 1.728,1.728 0 0 0 -1.726562,1.728516 1.728,1.728 0 0 0 1.726562,1.726562 H 36.5 A 1.728,1.728 0 0 0 38.228516,33.076172 1.728,1.728 0 0 0 36.5,31.347656 Z"
     id="path9559" />
  <path
     style="color:#000000;fill:#ffffff;stroke-linecap:round;stroke:#ffffff;stroke-opacity:1;stroke-width:0;stroke-dasharray:none"
     d="m 22.134766,31.347656 a 1.728,1.728 0 0 0 -1.716797,1.738281 l 0.02148,4.15625 a 1.728,1.728 0 0 0 1.738281,1.71875 1.728,1.728 0 0 0 1.71875,-1.738281 l -0.02344,-4.15625 a 1.728,1.728 0 0 0 -1.738281,-1.71875 z"
     id="path9565" />
</svg>
