<?xml version="1.0" encoding="UTF-8" standalone="no"?>
<!-- Created with Fritzing (http://www.fritzing.org/) -->

<svg
   y="0in"
   height="100.00005mm"
   width="100.00005mm"
   version="1.2"
   viewBox="0 0 283.46499 283.46499"
   x="0in"
   id="svg723"
   xmlns="http://www.w3.org/2000/svg"
   xmlns:svg="http://www.w3.org/2000/svg">
  <defs
     id="defs727" />
  <rect
     fill="none"
     stroke="#000000"
     y="-0.5479902"
     stroke-width="0.5"
     height="282.88901"
     width="282.88901"
     id="boardoutline"
     fill-opacity="0.5"
     x="-282.66254"
     transform="scale(-1,1)"
     style="fill:#ffffff;fill-opacity:1;stroke:#ffffff;stroke-width:0.498898;stroke-dasharray:none;stroke-opacity:1" />
  <path
     id="path11242"
     style="color:#000000;fill:#ffffff;fill-opacity:1;stroke:#000000;stroke-width:1.13386;stroke-dasharray:none;stroke-opacity:1;paint-order:markers stroke fill"
     d="m 158.88882,16.771012 c -0.22565,9.6e-5 -0.4491,0.04439 -0.65772,0.130371 -0.20779,0.08568 -0.39687,0.211064 -0.55664,0.369141 -0.002,0.0015 -0.004,0.0029 -0.006,0.0044 -0.15593,0.157002 -0.28025,0.342491 -0.36621,0.546387 -0.003,0.0054 -0.007,0.01072 -0.0103,0.01611 v 0.0015 c -0.0849,0.205887 -0.12913,0.426238 -0.13037,0.648926 -4.9e-4,0.002 -9.8e-4,0.0039 -0.001,0.0059 v 0.0015 c 0,0.0015 0,0.0029 0,0.0044 v 5.482915 L 15.092299,23.654319 c -0.750419,0.02436 -1.399236,0.530508 -1.60547,1.252442 -0.04514,0.116276 -0.07755,0.237097 -0.09668,0.360352 -0.01149,0.03676 -0.02175,0.07389 -0.03076,0.111328 0.0019,0.0073 0.0039,0.01466 0.0059,0.02197 -0.0382,0.140927 -0.05838,0.286127 -0.06006,0.432129 l -0.03809,11.393565 c -1.51e-4,0.133146 0.01509,0.265862 0.04541,0.395509 -0.844781,0.551771 -1.407716,1.504668 -1.407716,2.579592 0,1.689352 1.389752,3.080569 3.079104,3.080569 1.689353,0 3.08057,-1.391217 3.08057,-3.080569 0,-1.062641 -0.551157,-2.006031 -1.379884,-2.560549 0.03192,-0.12995 0.04863,-0.263167 0.0498,-0.396973 l 0.07031,-10.129404 141.291857,0.485962 c 2.30314,0.004 4.34209,-0.02442 6.42312,-0.01282 v 5.370122 c 8.7e-4,0.01124 0.002,0.02247 0.003,0.03369 0.002,0.09239 0.0112,0.184486 0.0278,0.275391 0.005,0.0265 0.0111,0.05288 0.0176,0.0791 0.0179,0.07568 0.0409,0.150071 0.0688,0.222656 0.0105,0.02911 0.0217,0.05792 0.0337,0.08643 0.0345,0.07756 0.0746,0.152465 0.12012,0.224121 0.009,0.01676 0.0193,0.03337 0.0293,0.0498 0.0593,0.08751 0.12645,0.169395 0.20068,0.244629 0.0116,0.01041 0.0233,0.02067 0.0352,0.03076 0.063,0.0607 0.13063,0.116528 0.20214,0.166992 0.0283,0.01891 0.0571,0.03699 0.0864,0.0542 0.0613,0.03762 0.12491,0.07138 0.19043,0.101074 0.0332,0.01523 0.0669,0.02939 0.10107,0.04248 0.068,0.02534 0.13742,0.04638 0.20801,0.06299 0.0296,0.0086 0.0594,0.01642 0.0894,0.02344 0.0981,0.01882 0.19754,0.02912 0.29736,0.03076 l 4.09131,0.04102 c 0.16505,4.65e-4 0.32932,-0.02272 0.4878,-0.06885 0.54395,0.85273 1.49789,1.423829 2.5752,1.423829 1.07047,0 2.01927,-0.563962 2.56494,-1.407716 0.15826,0.04762 0.32253,0.07228 0.48779,0.07324 l 16.81203,-0.05566 0.0513,75.733954 -16.90285,0.041 c -0.1514,3e-4 -0.3021,0.0205 -0.44824,0.0601 -0.55045,-0.83698 -1.49751,-1.39454 -2.56494,-1.39454 -1.6831,0 -3.06886,1.38577 -3.06886,3.06886 0,1.68308 1.38576,3.07031 3.06886,3.07031 1.07235,0 2.02296,-0.56372 2.57226,-1.40772 l 0.001,0.001 c 0.1462,0.0391 0.29691,0.0588 0.44824,0.0586 l 18.62404,-0.0469 c 0.001,0 0.003,0 0.004,0 0.0928,-8.5e-4 0.18539,-0.009 0.27685,-0.0249 0.009,-0.001 0.0186,-0.003 0.0278,-0.004 0.0962,-0.0173 0.1908,-0.0428 0.28272,-0.0762 0.002,-9.7e-4 0.004,-0.002 0.006,-0.003 0.18675,-0.0688 0.36019,-0.16945 0.51269,-0.29736 l 0.001,-0.001 c 0.15412,-0.12925 0.2845,-0.28441 0.38525,-0.4585 4.9e-4,-0.001 9.8e-4,-0.003 0.001,-0.004 0.15092,-0.26248 0.23023,-0.56001 0.22998,-0.86279 -4.8e-4,-0.003 -9.7e-4,-0.007 -0.001,-0.0103 l -0.0527,-79.17634 v -0.0015 c 0,-0.0015 0,-0.0029 0,-0.0044 -0.002,-0.298936 -0.082,-0.59218 -0.23145,-0.851075 -9.7e-4,-0.0029 -0.002,-0.0059 -0.003,-0.0088 l -0.001,-0.0029 c -0.15049,-0.257256 -0.36495,-0.471216 -0.62256,-0.621095 -0.004,-0.0029 -0.008,-0.0059 -0.0117,-0.0088 -0.26219,-0.150166 -0.55918,-0.228958 -0.86133,-0.228516 h -0.003 l -18.54494,0.06299 c -0.16491,0.0021 -0.32869,0.0277 -0.48633,0.07617 -0.5474,-0.834799 -1.49148,-1.391603 -2.55468,-1.391603 -1.05349,0 -1.98901,0.547541 -2.53858,1.36963 -0.15858,-0.04875 -0.32336,-0.0744 -0.48926,-0.07617 l -2.38037,-0.0249 v -5.3877 c -2.4e-4,-0.03764 -0.002,-0.07525 -0.004,-0.112794 -0.005,-0.07527 -0.0146,-0.150133 -0.0293,-0.224121 -0.007,-0.03688 -0.0154,-0.07352 -0.0249,-0.109863 -0.0197,-0.07281 -0.0442,-0.144254 -0.0732,-0.213868 -0.0145,-0.03517 -0.0301,-0.06986 -0.0469,-0.104004 -0.0333,-0.06732 -0.071,-0.132404 -0.1128,-0.194824 -0.021,-0.03148 -0.0429,-0.06225 -0.0659,-0.09229 -0.046,-0.05984 -0.096,-0.116606 -0.14941,-0.169922 -0.0265,-0.02677 -0.0538,-0.05266 -0.082,-0.07764 -0.0565,-0.04974 -0.1162,-0.09574 -0.17871,-0.137696 -0.0316,-0.02108 -0.0638,-0.04111 -0.0967,-0.06006 -0.0651,-0.03757 -0.13267,-0.07084 -0.20215,-0.09961 -0.0352,-0.01436 -0.0709,-0.02755 -0.10693,-0.03955 -0.0714,-0.02427 -0.14431,-0.04385 -0.21827,-0.05859 -0.0369,-0.0076 -0.074,-0.01391 -0.11132,-0.01904 -0.0748,-0.0098 -0.15015,-0.01469 -0.22559,-0.01465 h -5.63233 v -3.899417 l 54.19634,0.161133 v 12.625499 c 5.2e-4,0.954181 0.77434,1.72734 1.72852,1.727053 l 14.74513,-0.01172 c 0.17299,-0.0012 0.34483,-0.02835 0.50976,-0.08057 0.52516,0.746725 1.39165,1.240723 2.36426,1.240723 1.58431,0 2.89161,-1.307295 2.89161,-2.891604 0,-1.584307 -1.3073,-2.890139 -2.89161,-2.890139 -0.97753,0 -1.84872,0.497902 -2.37305,1.250978 -0.16283,-0.05314 -0.33265,-0.08177 -0.5039,-0.08496 l -13.01515,0.01025 V 18.673845 c 0,-0.0015 0,-0.0029 0,-0.0044 -2e-4,-0.08088 -0.006,-0.161644 -0.0176,-0.2417 -4.8e-4,-0.0024 -9.7e-4,-0.0049 -0.001,-0.0073 -0.011,-0.07319 -0.0266,-0.14561 -0.0469,-0.216797 -0.003,-0.01176 -0.007,-0.02347 -0.0103,-0.03516 -0.0202,-0.06884 -0.0447,-0.136352 -0.0733,-0.202149 -0.005,-0.01031 -0.0106,-0.02056 -0.0161,-0.03076 -0.0314,-0.06767 -0.0671,-0.133236 -0.10693,-0.196289 -0.0441,-0.06932 -0.093,-0.135401 -0.14649,-0.197754 -0.002,-0.002 -0.004,-0.0039 -0.006,-0.0059 -0.0497,-0.05665 -0.10302,-0.109983 -0.15966,-0.159668 -0.009,-0.0079 -0.0185,-0.01572 -0.0278,-0.02344 -0.0539,-0.04643 -0.11068,-0.08948 -0.16992,-0.128906 -0.0126,-0.008 -0.0253,-0.01579 -0.0381,-0.02344 -0.0521,-0.03213 -0.10591,-0.06147 -0.16114,-0.08789 -0.0121,-0.006 -0.0243,-0.01186 -0.0366,-0.01758 -0.0611,-0.02704 -0.12369,-0.05052 -0.1875,-0.07031 -0.0194,-0.0062 -0.039,-0.01206 -0.0586,-0.01758 -0.0645,-0.01845 -0.13006,-0.03312 -0.19629,-0.04395 -0.0127,-0.0016 -0.0254,-0.0031 -0.0381,-0.0044 -0.0743,-0.01072 -0.14911,-0.01659 -0.22412,-0.01758 l -57.65191,-0.169922 c -0.001,-2e-6 -0.003,-2e-6 -0.004,0 z m 14.49611,5.979497 c -1.67394,0 -3.05274,1.378805 -3.05274,3.052737 0,1.673934 1.3788,3.049808 3.05274,3.049808 1.06839,0 2.01583,-0.560826 2.56201,-1.401857 0.15764,0.04847 0.32142,0.07412 0.48633,0.07617 l 24.00295,-0.02637 0.20508,97.018158 -24.27834,0.50244 c -0.11366,0.003 -0.224,0.0162 -0.33106,0.0395 -0.53478,-0.91048 -1.52391,-1.52783 -2.64697,-1.52783 -1.06433,0 -2.0094,0.5543 -2.56055,1.38721 -0.14553,-0.0404 -0.29574,-0.0616 -0.44678,-0.063 l -9.70753,-0.0513 V 97.845793 c -3.3e-4,-0.381713 -0.12704,-0.752576 -0.36035,-1.054688 -0.29991,-0.439581 -0.79162,-0.726735 -1.34766,-0.726564 h -11.95167 l 0.0205,-5.304204 c 5.2e-4,-0.156998 -0.023,-0.308733 -0.0659,-0.452637 0.85118,-0.550602 1.41943,-1.507114 1.41943,-2.586916 0,-1.689353 -1.38975,-3.080569 -3.0791,-3.080569 -1.68936,0 -3.08057,1.391216 -3.08057,3.080569 0,1.078652 0.56684,2.03457 1.41651,2.585451 -0.042,0.140585 -0.0654,0.289105 -0.0659,0.442384 l -0.0264,6.585943 c -0.0384,0.146236 -0.0616,0.299496 -0.0615,0.458497 7.5e-4,0.953989 0.7423,1.725874 1.65527,1.725587 h 12.07033 v 27.004424 c 9.4e-4,0.006 0.002,0.0117 0.003,0.0176 0.004,0.15543 0.0283,0.30966 0.0733,0.4585 0.0125,0.0425 0.0267,0.0846 0.0425,0.12598 0.0454,0.12146 0.1044,0.23743 0.17578,0.3457 0.0172,0.0298 0.0353,0.0591 0.0542,0.0879 0.0966,0.12794 0.21044,0.24183 0.33838,0.33838 0.0311,0.0215 0.0628,0.0421 0.0952,0.0615 0.10616,0.0694 0.21964,0.12685 0.33838,0.17139 0.0433,0.0174 0.0873,0.033 0.13184,0.0469 0.15113,0.0461 0.30786,0.0712 0.46582,0.0747 l 11.42872,0.063 c 0.15048,-0.001 0.30019,-0.0217 0.44531,-0.0615 0.54825,0.84914 1.50287,1.4165 2.5796,1.4165 1.01724,0 1.9248,-0.50684 2.48437,-1.27881 0.17943,0.0581 0.37062,0.0893 0.56983,0.085 l 25.9717,-0.53613 c 0.0891,-0.002 0.17551,-0.0129 0.26074,-0.0278 0.0157,-0.003 0.0313,-0.006 0.0469,-0.009 0.1008,-0.0205 0.19803,-0.0493 0.2915,-0.0864 0.007,-0.003 0.0147,-0.006 0.022,-0.009 0.0959,-0.0397 0.18627,-0.0881 0.27246,-0.14355 0.008,-0.005 0.0166,-0.0106 0.0249,-0.0161 0.0838,-0.056 0.16333,-0.11821 0.23584,-0.1875 0.007,-0.007 0.0146,-0.0147 0.022,-0.022 0.0704,-0.0698 0.13427,-0.14614 0.1919,-0.22705 0.007,-0.01 0.0138,-0.0194 0.0205,-0.0293 0.0562,-0.0825 0.10504,-0.17041 0.14649,-0.26221 0.004,-0.01 0.009,-0.0194 0.0132,-0.0293 0.0397,-0.0925 0.0721,-0.18875 0.0952,-0.28857 0.003,-0.0127 0.005,-0.0253 0.007,-0.0381 0.0206,-0.099 0.0323,-0.20045 0.0352,-0.30469 2.3e-4,-0.009 0.003,-0.0163 0.003,-0.0249 v -0.0615 -0.001 L 203.88886,26.00686 c 3.2e-4,-0.02503 -0.005,-0.04845 -0.006,-0.07324 0.005,-0.05405 0.007,-0.108314 0.007,-0.162598 -0.001,-0.95418 -0.7758,-1.726682 -1.72998,-1.725588 l -25.73,0.0249 c -0.16548,0.0024 -0.32976,0.02853 -0.4878,0.07764 -0.54679,-0.83821 -1.49181,-1.397462 -2.55761,-1.397462 z m 79.20124,7.360847 c -1.58431,0 -2.89014,1.305832 -2.89014,2.890139 0,1.584309 1.30583,2.891604 2.89014,2.891604 0.96957,0 1.83332,-0.490597 2.3584,-1.233399 0.16369,0.05392 0.33453,0.08305 0.50684,0.08643 l 16.88234,0.09082 v 41.456581 0.0015 l 0.0791,91.809168 H 124.68468 l 0.0264,-24.13186 c -3.3e-4,-0.1332 -0.0161,-0.26592 -0.0469,-0.39551 0.84006,-0.5526 1.40039,-1.50387 1.40039,-2.5752 0,-1.68934 -1.39122,-3.07909 -3.08057,-3.0791 -1.68936,1e-5 -3.0791,1.38976 -3.0791,3.0791 0,1.07608 0.56435,2.03103 1.41064,2.58253 -0.035,0.12568 -0.0556,0.25492 -0.0615,0.38525 l -0.0278,25.86038 v 0.001 0.001 c 4.8e-4,0.001 9.7e-4,0.003 0.001,0.004 0.008,0.26832 0.078,0.53112 0.20508,0.76758 0.0214,0.0469 0.0448,0.0929 0.0703,0.13769 0.13781,0.21896 0.32303,0.40419 0.54199,0.542 0.0444,0.0254 0.0898,0.0489 0.13623,0.0703 0.23765,0.12822 0.50205,0.19896 0.77198,0.20654 h 0.001 151.18813 0.001 c 0.11578,-0.002 0.2311,-0.0149 0.34423,-0.0396 0.0364,-0.009 0.0726,-0.0183 0.1084,-0.0293 0.0799,-0.0212 0.15828,-0.0481 0.23438,-0.0806 0.0362,-0.0159 0.0719,-0.033 0.10693,-0.0513 0.0787,-0.041 0.15412,-0.088 0.22559,-0.14063 0.0238,-0.016 0.0473,-0.0326 0.0703,-0.0498 0.0924,-0.0751 0.17687,-0.15951 0.25195,-0.25195 0.0105,-0.015 0.0208,-0.0301 0.0308,-0.0454 0.0592,-0.0779 0.1116,-0.16075 0.15674,-0.24756 0.0173,-0.0341 0.0334,-0.0688 0.0483,-0.10401 0.0331,-0.0775 0.0606,-0.15729 0.082,-0.23877 0.0103,-0.0334 0.0196,-0.0671 0.0278,-0.10107 0.025,-0.11457 0.0382,-0.23138 0.0396,-0.34863 v -0.001 -0.001 l -0.0806,-93.536223 V 33.127472 c -9e-5,-0.07052 -0.004,-0.14096 -0.0132,-0.210938 -0.002,-0.0181 -0.005,-0.03617 -0.007,-0.0542 -0.009,-0.06463 -0.0218,-0.1287 -0.0381,-0.191895 -4.9e-4,-0.0015 -9.8e-4,-0.0029 -0.001,-0.0044 -0.0184,-0.06771 -0.0409,-0.134242 -0.0674,-0.199219 -0.004,-0.0098 -0.009,-0.01957 -0.0132,-0.0293 -0.0266,-0.06327 -0.0569,-0.124905 -0.0908,-0.184571 -0.002,-0.0024 -0.004,-0.0049 -0.006,-0.0073 -0.0682,-0.116554 -0.1498,-0.224714 -0.24317,-0.322266 -0.0162,-0.01743 -0.0328,-0.03453 -0.0498,-0.05127 -0.046,-0.04465 -0.0944,-0.08671 -0.14502,-0.125977 -9.8e-4,-9.78e-4 -0.002,-0.002 -0.003,-0.0029 -0.0539,-0.04036 -0.11018,-0.07753 -0.16846,-0.111328 -0.016,-0.009 -0.0321,-0.01784 -0.0483,-0.02637 -0.11675,-0.06488 -0.24062,-0.115999 -0.36914,-0.152344 -0.0165,-0.0046 -0.0331,-0.009 -0.0498,-0.01318 -0.0517,-0.01266 -0.10404,-0.02293 -0.15673,-0.03076 -0.019,-0.0028 -0.038,-0.0052 -0.0571,-0.0073 -0.0632,-0.0079 -0.12676,-0.0123 -0.19043,-0.01318 l -18.60207,-0.09961 c -0.17251,0.0013 -0.34384,0.02849 -0.5083,0.08057 -0.52322,-0.75698 -1.39544,-1.258302 -2.37598,-1.258302 z M 115.7462,31.230497 c -0.21608,0.0027 -0.42974,0.04595 -0.62988,0.127442 -0.0147,0.0061 -0.0294,0.01249 -0.0439,0.01904 -0.19942,0.08403 -0.38129,0.20478 -0.53613,0.355957 -0.002,0.0015 -0.004,0.0029 -0.006,0.0044 -0.1517,0.154721 -0.27295,0.336593 -0.35742,0.536133 -0.008,0.01746 -0.0149,0.03504 -0.022,0.05274 -0.081,0.200242 -0.12372,0.413894 -0.12597,0.629883 v 0.0029 0.0015 c 0,0.0015 0,0.0029 0,0.0044 l 0.0205,4.275883 c 0.002,0.131901 0.0193,0.263127 0.0513,0.391114 -0.83595,0.553314 -1.3916,1.501157 -1.3916,2.569338 0,1.689352 1.39121,3.080569 3.08057,3.080569 1.68935,0 3.07911,-1.391217 3.07911,-3.080569 0,-1.075359 -0.56384,-2.027923 -1.40919,-2.579592 0.0299,-0.130181 0.0447,-0.263395 0.0439,-0.396973 l -0.0117,-2.538577 h 39.835 v 5.456548 c 3.4e-4,0.119651 0.0131,0.238943 0.0381,0.355957 0.008,0.03002 0.0168,0.05981 0.0264,0.08936 0.0229,0.08866 0.0528,0.175356 0.0894,0.259278 0.0173,0.03628 0.0359,0.07195 0.0557,0.106933 0.0384,0.07284 0.082,0.142844 0.13037,0.209473 0.0274,0.03628 0.0562,0.07146 0.0864,0.105469 0.0492,0.0566 0.10206,0.109935 0.1582,0.159668 0.0367,0.03286 0.0749,0.06414 0.11426,0.09375 0.0576,0.04226 0.11779,0.08091 0.18018,0.115723 0.0447,0.02697 0.0907,0.0519 0.13769,0.07471 0.0686,0.02943 0.13909,0.05439 0.21094,0.07471 0.0434,0.01542 0.0874,0.02911 0.13183,0.04102 0.0927,0.01891 0.18674,0.03018 0.28126,0.03369 0.0239,0.0034 0.0478,0.0064 0.0718,0.0088 l 11.29103,0.09228 c 0.16435,-0.0017 0.32762,-0.02687 0.48486,-0.07471 0.54426,0.851775 1.49759,1.422365 2.57374,1.422365 1.07613,0 2.02947,-0.57059 2.57373,-1.422365 0.15772,0.04797 0.32149,0.07313 0.48633,0.07471 l 9.61817,-0.07764 v 54.194874 l -9.66065,-0.0044 c -0.15055,0.0015 -0.30026,0.02268 -0.44532,0.06299 -0.54934,-0.843777 -1.50008,-1.406252 -2.57226,-1.406252 -1.6831,0 -3.06886,1.387226 -3.06886,3.070316 0,1.68309 1.38576,3.067387 3.06886,3.067387 1.07119,0 2.02122,-0.56142 2.5708,-1.403323 0.14499,0.0408 0.2947,0.06247 0.44531,0.06445 l 11.38771,0.0073 h 0.001 0.001 c 0.11225,-0.0013 0.22411,-0.01359 0.33398,-0.03662 0.0295,-0.0056 0.0588,-0.01193 0.0879,-0.01904 0.10728,-0.02656 0.21176,-0.06335 0.31201,-0.109863 0.0143,-0.0076 0.0284,-0.01543 0.0425,-0.02344 0.0954,-0.04814 0.18611,-0.105024 0.271,-0.169922 0.0143,-0.01052 0.0285,-0.02127 0.0425,-0.03223 0.0883,-0.07192 0.16925,-0.152388 0.2417,-0.240234 0.014,-0.01828 0.0277,-0.03684 0.041,-0.05566 0.0629,-0.08227 0.11832,-0.170022 0.16552,-0.262208 0.007,-0.01309 0.0148,-0.02627 0.022,-0.03955 0.048,-0.102496 0.0857,-0.209455 0.11279,-0.319337 0.006,-0.02527 0.0113,-0.05066 0.0161,-0.07617 0.0246,-0.112652 0.0378,-0.227482 0.0396,-0.342773 v -0.0015 -57.666557 c 2e-5,-0.0049 2e-5,-0.0098 0,-0.01465 -9.4e-4,-0.0068 -0.002,-0.01368 -0.003,-0.02051 -0.003,-0.107398 -0.0155,-0.214307 -0.0381,-0.319337 -0.005,-0.02552 -0.0112,-0.05092 -0.0176,-0.07617 -0.0277,-0.108934 -0.066,-0.214905 -0.11426,-0.316406 -0.009,-0.01576 -0.0173,-0.03139 -0.0264,-0.04687 -0.0474,-0.09117 -0.10275,-0.177944 -0.16552,-0.259278 -0.0119,-0.01682 -0.0241,-0.03342 -0.0366,-0.0498 -0.071,-0.08501 -0.14994,-0.163011 -0.23584,-0.232911 -0.023,-0.01817 -0.0464,-0.03576 -0.0703,-0.05273 -0.0816,-0.06075 -0.16832,-0.114178 -0.25927,-0.159668 -0.0107,-0.006 -0.0214,-0.01183 -0.0322,-0.01758 -0.10449,-0.04732 -0.21342,-0.08413 -0.3252,-0.109863 -0.0233,-0.0059 -0.0468,-0.01123 -0.0703,-0.01611 -0.10987,-0.02303 -0.22173,-0.03529 -0.33398,-0.03662 -0.001,4.86e-4 -0.003,9.75e-4 -0.004,0.0015 -0.003,-4.99e-4 -0.007,-9.87e-4 -0.0103,-0.0015 l -11.35841,0.09082 c -0.16463,0.0036 -0.3279,0.03075 -0.48486,0.08057 -0.5483,-0.829137 -1.48952,-1.379885 -2.54883,-1.379885 -1.05673,0 -1.99557,0.548272 -2.54444,1.374025 -0.15772,-0.04797 -0.32149,-0.07313 -0.48633,-0.07471 l -9.57716,-0.07764 v -5.469731 c 2.9e-4,-0.953606 -0.77197,-1.727183 -1.72558,-1.728518 h -43.2979 -0.001 c -0.002,-3e-6 -0.004,-3e-6 -0.006,0 z m -93.610926,0.117188 c -0.11333,0.0021 -0.226178,0.01535 -0.336914,0.03955 -0.02899,0.0066 -0.05781,0.01391 -0.08643,0.02197 -0.09173,0.02337 -0.18139,0.05423 -0.268067,0.09229 -0.02167,0.0088 -0.04316,0.01812 -0.06445,0.02783 -0.101376,0.0505 -0.197542,0.110853 -0.287109,0.180176 -0.02245,0.01848 -0.04443,0.03753 -0.06592,0.05713 -0.07065,0.06053 -0.13629,0.12666 -0.19629,0.197754 -0.01754,0.01963 -0.03464,0.03965 -0.05127,0.06006 -0.07059,0.09083 -0.131926,0.188484 -0.183106,0.291504 -0.0076,0.01697 -0.01492,0.03406 -0.02197,0.05127 -0.04017,0.09032 -0.07251,0.18393 -0.09668,0.279786 -0.0076,0.02911 -0.01444,0.05842 -0.02051,0.08789 -0.02238,0.106516 -0.03464,0.214908 -0.03662,0.323731 -5.18e-4,0.0059 -0.001,0.01172 -0.0015,0.01758 -2e-6,0.0015 -2e-6,0.0029 0,0.0044 -3e-6,0.002 -3e-6,0.0039 0,0.0059 l 0.02051,4.155766 c 0.003,0.132505 0.02114,0.26423 0.0542,0.392578 -0.833524,0.553726 -1.387208,1.500092 -1.387208,2.566409 0,1.689352 1.389752,3.080569 3.079104,3.080569 1.689352,0 3.080569,-1.391217 3.080569,-3.080569 0,-1.076962 -0.566122,-2.031234 -1.413575,-2.582522 0.02983,-0.129704 0.04458,-0.26242 0.04395,-0.395508 l -0.01318,-2.419924 H 34.771028 V 248.96947 c 9.73e-4,0.002 0.002,0.004 0.0029,0.006 0.02032,0.39808 0.177648,0.7769 0.445313,1.07226 0.06128,0.0723 0.128399,0.13941 0.200683,0.20069 0.297074,0.26976 0.678769,0.42771 1.079591,0.44677 l 136.816535,0.0352 c 0.002,-4.8e-4 0.004,-9.7e-4 0.006,-0.001 0.29493,-0.002 0.58439,-0.0799 0.84082,-0.22559 0.0108,-0.006 0.0216,-0.0126 0.0322,-0.019 0.24616,-0.14648 0.45204,-0.35186 0.59913,-0.59766 0.008,-0.0131 0.0168,-0.0263 0.0249,-0.0395 0.14305,-0.25267 0.22013,-0.53731 0.22412,-0.82764 v -0.0103 c 4.9e-4,-0.001 9.8e-4,-0.003 0.001,-0.004 -4.7e-4,-0.004 -9.6e-4,-0.008 -0.001,-0.0117 l 0.0396,-4.11035 h 0.38965 0.99316 v -6.15967 h -1.38281 l -0.0396,-4.08839 c 5.5e-4,-0.008 0.001,-0.0166 0.001,-0.0249 v -19.98195 l 70.41657,0.18457 c 0.001,-4.9e-4 0.003,-9.8e-4 0.004,-0.001 0.002,5e-4 0.005,9.9e-4 0.007,0.001 0.22318,-0.001 0.44405,-0.0453 0.65039,-0.13037 l 0.001,-0.001 c 0.20534,-0.085 0.39235,-0.20887 0.55078,-0.36474 0.005,-0.005 0.01,-0.01 0.0146,-0.0146 0.15441,-0.15595 0.2777,-0.3399 0.36328,-0.54199 0.003,-0.007 0.007,-0.0146 0.0103,-0.022 0.0849,-0.20589 0.12913,-0.42623 0.13037,-0.64892 0,-0.001 0,-0.003 0,-0.004 0,-0.002 0,-0.004 0,-0.006 l -0.0688,-18.66505 c -0.003,-0.12901 -0.0209,-0.25726 -0.0527,-0.38233 0.86423,-0.55931 1.44141,-1.53104 1.44141,-2.62793 0,-1.71659 -1.41232,-3.12891 -3.12891,-3.12891 -1.7166,0 -3.12891,1.41232 -3.12891,3.12891 0,1.10508 0.58545,2.08386 1.46045,2.64112 -0.0303,0.12524 -0.0465,0.25348 -0.0483,0.38232 l 0.0645,16.92482 -70.41218,-0.18311 h -0.001 -0.003 c -0.20006,0.004 -0.39782,0.0436 -0.58448,0.11573 -0.0467,0.0171 -0.0926,0.0361 -0.13769,0.0571 -0.18045,0.0797 -0.34593,0.18966 -0.48926,0.32519 -0.003,0.002 -0.006,0.004 -0.009,0.006 l -0.001,0.001 c -0.13723,0.14343 -0.24873,0.30943 -0.32959,0.49072 -0.0223,0.0479 -0.0423,0.0968 -0.0601,0.14648 -0.0707,0.1825 -0.10978,0.37568 -0.11573,0.57129 -4.9e-4,0.003 -9.8e-4,0.006 -0.001,0.009 v 0.001 0.003 21.71486 c 4.8e-4,0.002 9.7e-4,0.004 0.001,0.006 -5e-4,0.004 -9.9e-4,0.008 -0.001,0.0117 l 0.0395,4.09571 h -1.32275 v 6.15967 h 1.32275 l -0.0234,2.39356 -133.375607,-0.0352 V 33.076202 c 5.3e-5,-0.150845 -0.01965,-0.301047 -0.05859,-0.446777 -9.71e-4,-0.0024 -0.0019,-0.0049 -0.0029,-0.0073 -0.03877,-0.143456 -0.09588,-0.281312 -0.169922,-0.410156 -0.0015,-0.002 -0.0029,-0.0039 -0.0044,-0.0059 -0.07238,-0.124171 -0.159972,-0.238826 -0.260742,-0.341309 -0.0068,-0.0069 -0.01361,-0.01373 -0.02051,-0.02051 -0.104041,-0.102709 -0.220695,-0.1918 -0.347168,-0.265137 -0.002,-9.8e-4 -0.0039,-0.002 -0.0059,-0.0029 -0.125837,-0.07172 -0.260192,-0.12733 -0.399903,-0.165528 -0.0058,-0.002 -0.01171,-0.0039 -0.01758,-0.0059 -0.1439,-0.03795 -0.292099,-0.05715 -0.440919,-0.05713 h -14.355482 -0.0029 c -0.002,-3e-6 -0.0039,-3e-6 -0.0059,0 z m 64.749083,0 c -0.954752,-2.86e-4 -1.728803,0.773765 -1.728517,1.728517 v 179.863938 0.001 c 6.31e-4,0.4571 0.182349,0.89533 0.505372,1.21875 l 0.0015,0.001 0.0015,0.001 c 0.324137,0.32374 0.763564,0.50552 1.221681,0.50537 h 0.0015 l 63.235893,-0.0439 -0.0586,24.2051 c 0.005,0.13027 0.0256,0.25951 0.0601,0.38525 -0.85118,0.5506 -1.41944,1.50859 -1.41944,2.58839 0,1.68935 1.39122,3.0791 3.08057,3.0791 1.68935,0 3.07911,-1.38975 3.07911,-3.0791 0,-1.07493 -0.56294,-2.02929 -1.40772,-2.58106 0.0354,-0.12515 0.0565,-0.2539 0.063,-0.38379 l 0.0615,-25.93801 c 0,-0.002 0,-0.004 0,-0.006 v -0.001 c -9.6e-4,-0.2221 -0.0447,-0.44193 -0.1289,-0.64746 -0.002,-0.006 -0.005,-0.0127 -0.007,-0.019 -0.0856,-0.2021 -0.20887,-0.38604 -0.36328,-0.542 -0.006,-0.006 -0.0117,-0.0127 -0.0176,-0.019 -0.15651,-0.15404 -0.34096,-0.27683 -0.54345,-0.36181 -0.005,-0.002 -0.0107,-0.004 -0.0161,-0.006 -0.20543,-0.0847 -0.42526,-0.12895 -0.64746,-0.13038 -0.001,0 -0.003,0 -0.004,0 l -63.240296,0.044 V 34.803255 h 3.859867 l -0.0073,2.425783 c 0.0015,0.132335 0.01823,0.264058 0.0498,0.392579 -0.845352,0.551668 -1.409181,1.504232 -1.409181,2.579592 0,1.689352 1.389751,3.08057 3.079104,3.080569 1.689353,0 3.080569,-1.391217 3.080569,-3.080569 0,-1.069005 -0.557496,-2.017673 -1.394532,-2.570803 0.03207,-0.128463 0.04928,-0.260187 0.05127,-0.392579 l 0.0088,-4.15723 c 2e-6,-0.0015 2e-6,-0.0029 0,-0.0044 3e-6,-0.002 3e-6,-0.0039 0,-0.0059 1.27e-4,-0.03567 -8.5e-4,-0.07133 -0.0029,-0.106934 -0.0019,-0.02544 -0.0043,-0.05084 -0.0073,-0.07617 -0.0013,-0.01222 -0.0028,-0.02443 -0.0044,-0.03662 -0.0026,-0.02007 -0.0055,-0.04009 -0.0088,-0.06006 -9.51e-4,-0.0054 -0.0019,-0.01075 -0.0029,-0.01611 -0.0048,-0.02649 -0.01013,-0.05286 -0.01611,-0.0791 -0.0049,-0.02208 -0.01031,-0.04405 -0.01611,-0.06592 -0.0024,-0.0093 -0.0048,-0.01858 -0.0073,-0.02783 -0.0076,-0.02705 -0.01595,-0.05392 -0.0249,-0.08057 -0.0015,-0.0039 -0.0029,-0.0078 -0.0044,-0.01172 -0.01078,-0.03208 -0.02251,-0.06383 -0.03516,-0.09522 -0.01195,-0.02816 -0.02465,-0.05601 -0.03809,-0.0835 l -0.0015,-0.0015 c -0.0024,-0.0059 -0.0049,-0.01173 -0.0073,-0.01758 -0.0043,-0.0083 -0.0087,-0.01664 -0.01318,-0.0249 -0.01306,-0.02524 -0.02673,-0.05015 -0.04102,-0.07471 -0.01,-0.01727 -0.02021,-0.03436 -0.03076,-0.05127 -0.0015,-0.002 -0.0029,-0.0039 -0.0044,-0.0059 -0.01547,-0.02531 -0.03159,-0.05022 -0.04834,-0.07471 -0.0133,-0.01883 -0.02697,-0.03739 -0.04102,-0.05566 -0.0058,-0.0074 -0.01166,-0.0147 -0.01758,-0.02197 -0.0039,-0.0044 -0.0078,-0.0088 -0.01172,-0.01318 -0.01661,-0.0209 -0.03371,-0.04141 -0.05127,-0.06152 -0.02132,-0.02405 -0.0433,-0.04749 -0.06592,-0.07031 -0.01252,-0.01191 -0.02522,-0.02363 -0.03809,-0.03516 -0.04287,-0.04136 -0.08785,-0.08047 -0.134766,-0.117188 -0.01591,-0.012 -0.03203,-0.02372 -0.04834,-0.03516 -0.01449,-0.01048 -0.02914,-0.02074 -0.04394,-0.03076 -0.01211,-0.008 -0.02432,-0.01578 -0.03662,-0.02344 -0.01977,-0.01261 -0.03979,-0.02482 -0.06006,-0.03662 -0.0078,-0.0045 -0.01559,-0.0088 -0.02344,-0.01318 -0.123812,-0.06913 -0.255663,-0.122755 -0.392578,-0.159668 -0.0044,-9.94e-4 -0.0088,-0.002 -0.01318,-0.0029 -0.06891,-0.01797 -0.13887,-0.03167 -0.209473,-0.04101 -0.0088,-0.001 -0.01757,-0.002 -0.02637,-0.0029 -0.0049,-5.09e-4 -0.0098,-9.97e-4 -0.01465,-0.0015 -0.02728,-0.0031 -0.05463,-0.0055 -0.08203,-0.0073 -0.0205,-8.54e-4 -0.04101,-0.0013 -0.06152,-0.0015 -0.0122,-6.18e-4 -0.02441,-0.0011 -0.03662,-0.0015 -0.0015,-2e-6 -0.0029,-2e-6 -0.0044,0 z m 14.636733,0 c -0.95361,0.0013 -1.725874,0.774908 -1.725588,1.728517 V 198.58466 c -2.82e-4,0.95361 0.771978,1.72718 1.725588,1.72851 l 129.51574,0.0718 c 0.002,0 0.004,0 0.006,0 0.002,1e-5 0.005,1e-5 0.007,0 0.1252,-6.4e-4 0.24995,-0.0149 0.37207,-0.0425 h 0.001 c 0.12022,-0.028 0.2371,-0.0687 0.34864,-0.12158 0.009,-0.004 0.0186,-0.009 0.0278,-0.0132 0.11236,-0.0548 0.21845,-0.12157 0.3164,-0.19922 0.003,-0.003 0.007,-0.006 0.0103,-0.009 0.19866,-0.16057 0.35925,-0.36319 0.47021,-0.59327 0.056,-0.11643 0.0987,-0.23878 0.12745,-0.36474 v -0.003 c 0.0272,-0.12021 0.0414,-0.24297 0.0425,-0.36621 5.1e-4,-0.005 0.001,-0.0107 0.001,-0.0161 -4.7e-4,-0.004 -9.6e-4,-0.009 -0.001,-0.0132 l -0.0308,-4.23633 c -0.003,-0.12994 -0.0198,-0.25918 -0.0513,-0.38526 0.85765,-0.56061 1.43116,-1.52771 1.43116,-2.61914 0,-1.71659 -1.41524,-3.12891 -3.13184,-3.12891 -1.71659,0 -3.12891,1.41232 -3.12891,3.12891 0,1.10854 0.58969,2.08916 1.46924,2.64551 -0.0294,0.12583 -0.0447,0.25456 -0.0454,0.38379 l 0.0176,2.49463 -126.04699,-0.0688 V 34.803255 h 3.5874 l 0.009,2.434572 c 0.002,0.13294 0.0201,0.265162 0.0527,0.394044 -0.8361,0.553291 -1.39307,1.501054 -1.39307,2.569338 0,1.689352 1.39121,3.080569 3.08057,3.080569 1.68935,0 3.08057,-1.391217 3.08057,-3.080569 0,-1.075082 -0.56419,-2.027858 -1.40918,-2.579592 0.0303,-0.129647 0.0456,-0.262363 0.0454,-0.395509 l -0.0161,-4.149906 c 0,-0.002 0,-0.0039 0,-0.0059 v -0.0029 c -5.3e-4,-0.08535 -0.007,-0.170545 -0.0205,-0.254883 -0.001,-0.0088 -0.003,-0.01759 -0.004,-0.02637 -0.0293,-0.173978 -0.0852,-0.342435 -0.16553,-0.499512 -0.001,-0.0029 -0.003,-0.0059 -0.004,-0.0088 -0.0399,-0.07654 -0.0854,-0.149989 -0.13623,-0.219727 l -0.001,-0.0029 c -0.001,-0.002 -0.003,-0.0039 -0.004,-0.0059 -0.0525,-0.07071 -0.11024,-0.137313 -0.17285,-0.199219 -0.002,-0.002 -0.004,-0.0039 -0.006,-0.0059 -0.19109,-0.187951 -0.42329,-0.328873 -0.67823,-0.411622 -0.008,-0.0025 -0.0166,-0.0049 -0.0249,-0.0073 -0.08,-0.02495 -0.16181,-0.04405 -0.24463,-0.05713 -0.002,-5e-6 -0.005,-5e-6 -0.007,0 -0.0853,-0.01327 -0.17148,-0.02012 -0.25781,-0.02051 z M 7.7856517,37.084018 c -1.7103336,0 -3.1201202,1.406858 -3.1201201,3.117191 -10e-8,1.710333 1.4097865,3.118655 3.1201201,3.118655 1.7103337,0 3.1171903,-1.408322 3.1171903,-3.118655 0,-1.710333 -1.4068566,-3.117191 -3.1171903,-3.117191 z m 21.5991413,0.03662 c -1.689353,0 -3.080569,1.391217 -3.08057,3.080569 1e-6,1.689352 1.391217,3.080569 3.08057,3.080569 1.689352,0 3.080569,-1.391217 3.080569,-3.080569 0,-1.689352 -1.391217,-3.080569 -3.080569,-3.080569 z m 14.400892,0 c -1.689353,0 -3.080569,1.391217 -3.080569,3.080569 0,1.689352 1.391216,3.080569 3.080569,3.080569 1.689352,0 3.079104,-1.391217 3.079104,-3.080569 0,-1.689352 -1.389752,-3.080569 -3.079104,-3.080569 z m 7.198249,0 c -1.689353,0 -3.079105,1.391217 -3.079105,3.080569 0,1.689352 1.389752,3.080569 3.079105,3.080569 1.689352,0 3.080569,-1.391217 3.080569,-3.080569 0,-1.689352 -1.391217,-3.080569 -3.080569,-3.080569 z m 7.201178,0 c -1.689352,0 -3.079104,1.391217 -3.079104,3.080569 0,1.689352 1.389752,3.080569 3.079104,3.080569 1.689352,0 3.080569,-1.391217 3.080569,-3.080569 0,-1.689352 -1.391217,-3.080569 -3.080569,-3.080569 z m 7.199714,0 c -1.689353,0 -3.080568,1.391217 -3.080569,3.080569 10e-7,1.689352 1.391216,3.080569 3.080569,3.080569 1.689352,0 3.080569,-1.391217 3.080569,-3.080569 0,-1.689352 -1.391217,-3.080569 -3.080569,-3.080569 z m 7.201178,0 c -1.689351,0 -3.080569,1.391217 -3.080569,3.080569 0,1.689352 1.391218,3.080569 3.080569,3.080569 1.689353,0 3.080569,-1.391217 3.080569,-3.080569 0,-1.689352 -1.391216,-3.080569 -3.080569,-3.080569 z m 7.199714,0 c -1.689352,0 -3.080569,1.391217 -3.080569,3.080569 0,1.689352 1.391217,3.080569 3.080569,3.080569 1.689352,0 3.079104,-1.391217 3.079104,-3.080569 0,-1.689352 -1.389752,-3.080569 -3.079104,-3.080569 z m 43.198282,0 c -1.68936,0 -3.0791,1.391217 -3.0791,3.080569 0,1.689352 1.38974,3.080569 3.0791,3.080569 1.68935,0 3.08057,-1.391217 3.08057,-3.080569 0,-1.689352 -1.39122,-3.080569 -3.08057,-3.080569 z m 7.20118,0 c -1.68936,0 -3.07911,1.391217 -3.07911,3.080569 0,1.689352 1.38975,3.080569 3.07911,3.080569 1.68935,0 3.08057,-1.391217 3.08057,-3.080569 0,-1.689352 -1.39122,-3.080569 -3.08057,-3.080569 z m 7.19971,0 c -1.68936,0 -3.08057,1.391217 -3.08057,3.080569 0,1.689352 1.39121,3.080569 3.08057,3.080569 1.68935,0 3.08057,-1.391217 3.08057,-3.080569 0,-1.689352 -1.39122,-3.080569 -3.08057,-3.080569 z m 7.20118,0 c -1.68936,0 -3.08057,1.391217 -3.08057,3.080569 0,1.689352 1.39121,3.080569 3.08057,3.080569 1.68935,0 3.08057,-1.391217 3.08057,-3.080569 0,-1.689352 -1.39122,-3.080569 -3.08057,-3.080569 z m 7.19971,0 c -1.68935,0 -3.08057,1.391217 -3.08057,3.080569 0,1.689352 1.39122,3.080569 3.08057,3.080569 1.68935,0 3.07911,-1.391217 3.07911,-3.080569 0,-1.689352 -1.38976,-3.080569 -3.07911,-3.080569 z M 7.7856517,44.283732 c -1.7103336,0 -3.1201202,1.408321 -3.1201201,3.118655 0,1.113693 0.5978529,2.098199 1.4868178,2.649905 -0.046048,0.118101 -0.078961,0.24091 -0.098145,0.366211 L 5.9721735,162.69302 c 4.863e-4,0.001 9.746e-4,0.003 0.00146,0.004 -5.233e-4,0.006 -0.00101,0.0127 -0.00146,0.019 0.00459,0.2922 0.083213,0.57847 0.2285158,0.83203 0.00387,0.006 0.00778,0.0117 0.011719,0.0176 0.1477971,0.25169 0.3569378,0.46183 0.6079107,0.61084 0.010673,0.006 0.021416,0.0128 0.032227,0.019 0.2555633,0.14524 0.5439529,0.22288 0.8378914,0.22559 0.00293,9.8e-4 0.00586,0.002 0.00879,0.003 0.00342,-4.8e-4 0.00684,-9.7e-4 0.010254,-0.001 0.00439,5.1e-4 0.00879,0.001 0.013184,0.001 l 4.1821326,-0.0557 v 0.3208 0.9917 h 6.159674 v -6.15967 h -6.159674 v 1.3916 l -2.4741233,0.0322 0.080566,-110.525492 c -0.00129,-0.133316 -0.018001,-0.266035 -0.049805,-0.395508 0.8638905,-0.556638 1.4414075,-1.526973 1.4414075,-2.622073 0,-1.710334 -1.4068566,-3.118655 -3.1171903,-3.118655 z m 7.1982483,0.03662 c -1.689352,1e-6 -3.079104,1.391217 -3.079104,3.080569 0,1.065167 0.552256,2.010968 1.384279,2.564944 -0.03235,0.127453 -0.05004,0.258183 -0.05274,0.389649 l -0.03369,4.346195 c 0.0012,0.01613 0.0027,0.03225 0.0044,0.04834 -5.01e-4,0.0039 -9.89e-4,0.0078 -0.0015,0.01172 0.0014,0.01076 0.0028,0.0215 0.0044,0.03223 0.004,0.0881 0.01481,0.175755 0.03223,0.262207 0.0061,0.02849 0.01296,0.05682 0.02051,0.08496 0.02004,0.07785 0.0455,0.154209 0.07617,0.228516 0.0088,0.02364 0.01804,0.04708 0.02783,0.07031 0.0889,0.191143 0.212018,0.364406 0.363281,0.511231 0.01914,0.01753 0.03868,0.03462 0.05859,0.05127 0.05906,0.05308 0.121709,0.102022 0.1875,0.146484 0.02734,0.01788 0.05518,0.03497 0.0835,0.05127 0.06285,0.03629 0.127918,0.06858 0.194825,0.09668 0.03086,0.0141 0.06212,0.02729 0.09375,0.03955 0.09049,0.03311 0.183585,0.05859 0.27832,0.07617 0.0054,0.0015 0.01074,0.003 0.01611,0.0044 h 0.0015 c 0.09098,0.01564 0.183076,0.02397 0.275391,0.0249 0.01026,-8.85e-4 0.02052,-0.0019 0.03076,-0.0029 0.01025,0.0011 0.0205,0.002 0.03076,0.0029 l 5.494634,-0.152343 0.435059,97.464937 -2.92969,-0.0322 c -0.135685,-0.002 -0.268352,0.012 -0.395509,0.0396 -0.548473,-0.86227 -1.513323,-1.43994 -2.601565,-1.43994 -1.689352,0 -3.079104,1.39122 -3.079104,3.08057 0,1.68935 1.389752,3.08057 3.079104,3.08057 1.053254,0 1.990939,-0.54141 2.547366,-1.35792 0.126583,0.0317 0.257925,0.0506 0.394043,0.0527 l 2.98389,0.0337 -0.566895,106.19834 c 0.0041,0.47024 0.196438,0.89373 0.503907,1.20264 0.0015,0.002 0.0029,0.004 0.0044,0.006 0.311972,0.3108 0.741806,0.50298 1.215822,0.5039 0.0015,4.9e-4 0.0029,9.8e-4 0.0044,0.001 l 244.859109,0.0147 c 0.13337,-0.002 0.26609,-0.019 0.39551,-0.0513 0.0335,-0.008 0.0667,-0.0166 0.0996,-0.0264 0.25551,-0.0772 0.48966,-0.21261 0.68408,-0.39551 0.0251,-0.0232 0.0496,-0.0471 0.0733,-0.0718 0.18382,-0.19512 0.31973,-0.43032 0.39697,-0.68702 0.0103,-0.0334 0.0196,-0.0671 0.0278,-0.10107 0.0323,-0.12942 0.0495,-0.26214 0.0513,-0.39551 v -79.08552 c 10e-6,-0.003 10e-6,-0.006 0,-0.009 -6.4e-4,-0.30304 -0.081,-0.60059 -0.23291,-0.86279 l -0.001,-0.001 c -0.30762,-0.53063 -0.87347,-0.85844 -1.48681,-0.86133 l -28.80179,-0.1289 c -0.002,4.8e-4 -0.005,9.7e-4 -0.007,0.001 -0.005,-5.1e-4 -0.0107,-0.001 -0.0161,-0.001 -0.16702,0.002 -0.33281,0.0291 -0.49219,0.0791 -0.009,0.002 -0.0176,0.004 -0.0264,0.006 -0.16351,0.0539 -0.31805,0.13188 -0.4585,0.23144 -0.008,0.005 -0.0157,0.01 -0.0234,0.0146 -0.13758,0.10064 -0.2595,0.22109 -0.36182,0.35742 -0.007,0.008 -0.0137,0.0165 -0.0205,0.0249 -0.10187,0.14099 -0.18188,0.29655 -0.2373,0.46143 -0.002,0.005 -0.004,0.01 -0.006,0.0147 -0.054,0.16564 -0.0827,0.33849 -0.085,0.5127 -0.001,0.005 -0.002,0.0107 -0.003,0.0161 4.8e-4,0.002 9.7e-4,0.005 0.001,0.007 -5.1e-4,0.005 -9.9e-4,0.01 -0.001,0.0146 l 0.0337,4.19678 c 0.003,0.12994 0.0197,0.25918 0.0513,0.38526 -0.85689,0.56075 -1.42823,1.5283 -1.42823,2.61914 0,1.092 0.57276,2.06012 1.43116,2.62061 -0.0302,0.12673 -0.0459,0.25646 -0.0469,0.38672 l -0.0527,9.58741 -70.14264,0.10107 c -0.005,9.5e-4 -0.0108,0.002 -0.0161,0.003 -0.20064,0.005 -0.39891,0.0444 -0.58594,0.11719 -0.0582,0.0257 -0.11491,0.0545 -0.16992,0.0864 -0.12913,0.0643 -0.24969,0.14451 -0.35889,0.23877 -0.0529,0.0472 -0.10275,0.0976 -0.14941,0.15087 -0.0948,0.10911 -0.17548,0.22968 -0.24023,0.35889 -0.0314,0.0546 -0.0597,0.1108 -0.085,0.16846 -0.0755,0.19144 -0.11616,0.39483 -0.12012,0.60058 l -0.0557,33.01029 c 0.006,0.12978 0.0257,0.25852 0.0601,0.38379 -0.84992,0.55083 -1.4165,1.50808 -1.4165,2.58692 0,1.68935 1.38974,3.0791 3.0791,3.0791 1.68935,0 3.08057,-1.38975 3.08057,-3.0791 0,-1.07508 -0.56419,-2.02933 -1.40918,-2.58106 0.0349,-0.12521 0.0555,-0.25395 0.0615,-0.38379 l 0.0542,-31.28909 70.13532,-0.0982 c 0.11078,-0.002 0.22115,-0.0139 0.32959,-0.0366 0.0329,-0.007 0.0657,-0.0147 0.0982,-0.0234 0.0866,-0.0227 0.17134,-0.0521 0.25341,-0.0879 0.0251,-0.01 0.05,-0.0199 0.0747,-0.0308 0.10075,-0.0497 0.19642,-0.10902 0.28565,-0.17724 0.0234,-0.0189 0.0464,-0.0385 0.0688,-0.0586 0.0672,-0.0571 0.12984,-0.11933 0.1875,-0.18603 0.0222,-0.0243 0.0437,-0.0492 0.0645,-0.0747 0.0678,-0.0869 0.12717,-0.18011 0.17724,-0.27832 0.0103,-0.0237 0.0201,-0.0476 0.0293,-0.0718 0.0383,-0.0852 0.0697,-0.17339 0.0937,-0.26367 0.008,-0.0291 0.0144,-0.0584 0.0205,-0.0879 0.0227,-0.10551 0.0354,-0.21291 0.0381,-0.3208 0.001,-0.007 0.002,-0.0137 0.003,-0.0205 l 0.0645,-11.30275 c 0.001,-0.13053 -0.0127,-0.26075 -0.041,-0.38818 0.87405,-0.55744 1.45899,-1.53528 1.45899,-2.63965 0,-1.10738 -0.58828,-2.08739 -1.46631,-2.64405 0.0282,-0.12695 0.0419,-0.25667 0.041,-0.38671 l -0.0205,-2.44776 25.33304,0.11426 v 75.6446 l -241.393293,-0.0161 0.565431,-106.13681 c 4.7e-5,-0.003 -3.3e-5,-0.007 0,-0.0103 v -0.0337 -0.001 L 23.925315,54.531788 c 5.8e-5,-0.0055 -0.0015,-0.01061 -0.0015,-0.01611 2.54e-4,-0.01709 2.54e-4,-0.03418 0,-0.05127 -0.0035,-0.03922 -0.0084,-0.0783 -0.01465,-0.117188 -0.0066,-0.06762 -0.01076,-0.135548 -0.0249,-0.200684 -0.01037,-0.03897 -0.02209,-0.07757 -0.03516,-0.115723 -0.02001,-0.06844 -0.03941,-0.137486 -0.06738,-0.202148 -0.01814,-0.0383 -0.03769,-0.07593 -0.05859,-0.112793 -0.03328,-0.0635 -0.06628,-0.126007 -0.106933,-0.184571 -0.02562,-0.03419 -0.05249,-0.06741 -0.08057,-0.09961 -0.04104,-0.05068 -0.08101,-0.102234 -0.127441,-0.14795 -0.04162,-0.03874 -0.08513,-0.07541 -0.130372,-0.109863 -0.04291,-0.03466 -0.08421,-0.07058 -0.130371,-0.101074 -0.0461,-0.02858 -0.09351,-0.05498 -0.14209,-0.0791 -0.05254,-0.028 -0.10405,-0.05655 -0.159668,-0.0791 -0.04998,-0.01895 -0.10082,-0.03557 -0.152344,-0.0498 -0.05564,-0.01673 -0.11059,-0.03429 -0.168457,-0.04541 -0.06499,-0.01057 -0.130522,-0.01742 -0.196289,-0.02051 -0.03847,-0.0029 -0.07512,-0.0128 -0.114258,-0.01318 -0.01003,-1.06e-4 -0.0193,0.0029 -0.0293,0.0029 -0.0122,-0.0011 -0.0244,-0.0021 -0.03662,-0.0029 l -5.475591,0.150879 0.01904,-2.556155 c 6.31e-4,-0.133088 -0.01412,-0.265804 -0.04395,-0.395508 0.848972,-0.55101 1.416505,-1.505866 1.416505,-2.583987 0,-1.689352 -1.391217,-3.080568 -3.08057,-3.080569 z m 7.201179,0 c -1.689352,1e-6 -3.079104,1.391217 -3.079104,3.080569 0,1.689353 1.389752,3.079105 3.079104,3.079105 1.689352,0 3.080569,-1.389752 3.080569,-3.079105 0,-1.689353 -1.391217,-3.080569 -3.080569,-3.080569 z m 7.199714,0 c -1.689353,1e-6 -3.080569,1.391217 -3.08057,3.080569 1e-6,1.08116 0.570869,2.038113 1.42383,2.588382 -0.02445,0.115862 -0.07035,0.224025 -0.07031,0.347168 l 0.07617,205.951358 v 0.001 0.001 c 6.68e-4,0.47619 0.196136,0.90805 0.508301,1.22022 l 0.0015,0.001 c 0.31259,0.31113 0.742842,0.50406 1.218751,0.50391 h 0.0015 0.0015 l 223.063681,-0.2168 c 0.001,0 0.003,0 0.004,0 0.20063,-0.005 0.39891,-0.0444 0.58593,-0.11718 0.0452,-0.0167 0.0897,-0.0353 0.1333,-0.0557 0.18463,-0.0809 0.35368,-0.1934 0.49952,-0.33252 l 0.001,-0.001 0.001,-0.001 c 0.13846,-0.14551 0.25049,-0.31405 0.33105,-0.49805 0.0204,-0.0432 0.0389,-0.0871 0.0557,-0.13183 0.0736,-0.18786 0.11378,-0.38716 0.11865,-0.58887 l 0.0498,-61.6524 c -0.001,-0.12879 -0.0171,-0.25702 -0.0469,-0.38232 0.87008,-0.55821 1.45166,-1.53391 1.45166,-2.63526 0,-1.71659 -1.41232,-3.12891 -3.12891,-3.12891 -1.7166,0 -3.13037,1.41232 -3.13037,3.12891 0,1.11028 0.59121,2.09256 1.47363,2.64844 -0.0377,0.11954 -0.0622,0.24283 -0.0732,0.36768 l -0.0513,59.92534 -219.613973,0.21387 -0.07764,-204.221378 c 3.7e-5,-0.122984 -0.04592,-0.231449 -0.07031,-0.347168 0.852386,-0.550377 1.422365,-1.50766 1.422365,-2.588382 0,-1.689352 -1.391217,-3.080568 -3.080569,-3.080569 z m 14.400892,0 c -1.689353,1e-6 -3.080569,1.391217 -3.080569,3.080569 0,1.689353 1.391216,3.079105 3.080569,3.079105 1.689352,0 3.079104,-1.389752 3.079104,-3.079105 0,-1.689352 -1.389752,-3.080568 -3.079104,-3.080569 z m 7.198249,0 c -1.689353,1e-6 -3.079105,1.391217 -3.079105,3.080569 0,1.689353 1.389752,3.079105 3.079105,3.079105 1.689352,0 3.080569,-1.389752 3.080569,-3.079105 0,-1.689352 -1.391217,-3.080568 -3.080569,-3.080569 z m 7.201178,0 c -1.689352,1e-6 -3.079104,1.391217 -3.079104,3.080569 0,1.689353 1.389752,3.079105 3.079104,3.079105 1.689352,0 3.080569,-1.389752 3.080569,-3.079105 0,-1.689352 -1.391217,-3.080568 -3.080569,-3.080569 z m 7.199714,0 c -1.689353,1e-6 -3.080568,1.391217 -3.080569,3.080569 10e-7,1.689353 1.391216,3.079105 3.080569,3.079105 1.689352,0 3.080569,-1.389752 3.080569,-3.079105 0,-1.689352 -1.391217,-3.080568 -3.080569,-3.080569 z m 7.201178,0 c -1.689351,1e-6 -3.080569,1.391217 -3.080569,3.080569 0,1.689353 1.391218,3.079105 3.080569,3.079105 1.689353,0 3.080569,-1.389752 3.080569,-3.079105 0,-1.689352 -1.391216,-3.080568 -3.080569,-3.080569 z m 7.199714,0 c -1.689352,1e-6 -3.080569,1.391217 -3.080569,3.080569 0,1.689353 1.391217,3.079105 3.080569,3.079105 1.689352,0 3.079104,-1.389752 3.079104,-3.079105 0,-1.689352 -1.389752,-3.080568 -3.079104,-3.080569 z m 14.399427,0 c -1.689353,0 -3.079104,1.391216 -3.079104,3.080569 0,1.091424 0.580804,2.05686 1.447267,2.604495 -0.04534,0.117218 -0.07776,0.239032 -0.09668,0.363282 l 0.02051,155.521141 c -9.98e-4,0.005 -0.002,0.01 -0.0029,0.0147 0.008,0.27228 0.0803,0.5388 0.210938,0.77783 0.03786,0.0652 0.07994,0.12781 0.125977,0.1875 0.116016,0.16597 0.2603,0.31025 0.426269,0.42627 0.06106,0.0467 0.125167,0.0893 0.191895,0.12744 0.238843,0.1294 0.504826,0.20066 0.776368,0.20801 l 62.992737,-0.0776 0.0542,31.2847 c 0.006,0.12984 0.0266,0.25858 0.0615,0.38379 -0.84556,0.55163 -1.40918,1.50554 -1.40918,2.58106 0,1.68935 1.38975,3.0791 3.0791,3.0791 1.68936,0 3.08057,-1.38975 3.08057,-3.0791 0,-1.07277 -0.56137,-2.02586 -1.40332,-2.57813 0.0303,-0.12965 0.0456,-0.26236 0.0454,-0.39551 l -0.0557,-33.00736 c -0.004,-0.20633 -0.0454,-0.41024 -0.12159,-0.60205 -0.026,-0.0592 -0.0554,-0.11692 -0.0879,-0.17285 -0.0646,-0.12759 -0.14482,-0.24666 -0.23877,-0.35449 -0.0471,-0.0539 -0.0975,-0.10473 -0.15087,-0.15234 -0.10762,-0.0923 -0.22618,-0.17103 -0.35303,-0.23438 -0.0568,-0.0331 -0.11553,-0.0629 -0.17578,-0.0894 -0.19246,-0.0753 -0.39687,-0.11551 -0.60352,-0.11865 l -62.988339,0.0747 -0.01904,-153.804341 c -4.42e-4,-0.132712 -0.01617,-0.264932 -0.04687,-0.394044 0.840066,-0.552606 1.400391,-1.50241 1.400391,-2.573733 0,-1.689352 -1.391216,-3.080568 -3.080569,-3.080569 z m 14.400895,0 c -1.68936,1e-6 -3.08057,1.391217 -3.08057,3.080569 0,1.092002 0.5815,2.058479 1.44873,2.60596 -0.0452,0.116747 -0.0777,0.238065 -0.0967,0.361817 l -0.0278,140.897591 c 4.5e-4,0.30242 0.0803,0.59942 0.23144,0.86133 0.30797,0.53606 0.87886,0.86674 1.49708,0.86719 0.008,-9.2e-4 0.0166,-0.002 0.0249,-0.003 l 112.07383,0.13476 v 1.40479 h 6.25782 v -6.25782 h -5.26612 -0.9917 v 1.396 l -110.37022,-0.13037 0.0264,-139.170541 c -4.4e-4,-0.132712 -0.0162,-0.264932 -0.0469,-0.394044 0.84007,-0.552606 1.4004,-1.50241 1.4004,-2.573733 0,-1.689352 -1.39122,-3.080568 -3.08057,-3.080569 z m 7.19971,0 c -1.68936,1e-6 -3.08057,1.391217 -3.08057,3.080569 0,1.068181 0.55565,2.016025 1.3916,2.569339 -0.032,0.127987 -0.0492,0.259213 -0.0513,0.391113 l -0.0205,4.144047 c 0,0.002 0,0.0039 0,0.0059 v 0.0029 c 4.8e-4,0.002 9.7e-4,0.0039 0.001,0.0059 0.002,0.215989 0.045,0.429641 0.12598,0.629883 0.006,0.01522 0.0115,0.03036 0.0176,0.04541 0.085,0.200816 0.20729,0.383723 0.36035,0.539063 l 0.001,0.0015 c 0.001,9.79e-4 0.003,0.002 0.004,0.0029 0.15354,0.150721 0.33388,0.271443 0.53174,0.355957 0.0174,0.0076 0.035,0.01494 0.0527,0.02197 0.19841,0.08028 0.41001,0.122995 0.62403,0.125977 0.002,3e-6 0.004,3e-6 0.006,0 h 0.003 48.75444 v 48.752972 0.001 c 0.002,0.21491 0.0444,0.42753 0.12452,0.62695 0.008,0.0207 0.0162,0.0412 0.0249,0.0615 0.0845,0.19786 0.20524,0.3782 0.35596,0.53174 h 0.001 c 0.15447,0.15275 0.33636,0.275 0.53613,0.36035 0.0155,0.007 0.0312,0.0129 0.0469,0.019 0.20152,0.082 0.41672,0.12527 0.63428,0.12744 h 0.003 l 4.13232,0.004 c 0.15055,-0.002 0.30026,-0.0227 0.44532,-0.063 0.54943,0.84271 1.50044,1.40478 2.57227,1.40478 1.68308,0 3.06886,-1.38576 3.06885,-3.06885 1e-5,-1.68309 -1.38577,-3.06738 -3.06885,-3.06738 -1.06852,0 -2.01621,0.55908 -2.56641,1.39746 -0.14661,-0.0397 -0.29782,-0.0599 -0.44971,-0.0601 l -2.40528,-0.003 V 54.51421 49.095748 l 2.33936,0.05127 c 0.16477,0.0024 0.32903,-0.01884 0.48779,-0.06299 0.54056,0.869884 1.50437,1.454591 2.59425,1.454591 1.67392,0 3.05273,-1.378805 3.05273,-3.052737 0,-1.673934 -1.37881,-3.049808 -3.05273,-3.049808 -1.04059,0 -1.96738,0.531206 -2.51954,1.335939 -0.003,-9.87e-4 -0.007,-0.002 -0.0102,-0.0029 -0.15428,-0.04801 -0.31454,-0.07414 -0.47608,-0.07764 l -4.10596,-0.08935 c -0.008,4.28e-4 -0.0166,9.17e-4 -0.0249,0.0015 -0.004,-5.05e-4 -0.009,-9.94e-4 -0.0132,-0.0015 -0.0166,0.0012 -0.0332,0.0027 -0.0498,0.0044 -0.082,0.002 -0.16375,0.0098 -0.24463,0.02344 -0.0354,0.0067 -0.0706,0.01453 -0.10547,0.02344 -0.0665,0.01563 -0.13208,0.0352 -0.19629,0.05859 -0.0351,0.01255 -0.0698,0.02623 -0.104,0.04102 -0.065,0.02975 -0.12813,0.06351 -0.18896,0.101074 -0.001,9.74e-4 -0.003,0.002 -0.004,0.0029 -0.0283,0.01533 -0.0561,0.03145 -0.0835,0.04834 -0.0797,0.05513 -0.15472,0.116868 -0.22412,0.18457 -0.007,0.0058 -0.0147,0.01166 -0.022,0.01758 -0.0207,0.02338 -0.0407,0.04731 -0.0601,0.07178 -0.0433,0.04751 -0.0839,0.09739 -0.12158,0.149414 -0.0242,0.03479 -0.0472,0.07046 -0.0688,0.106934 -0.0311,0.0517 -0.0594,0.104999 -0.085,0.159668 l -0.001,0.0029 c -0.0197,0.04126 -0.0378,0.08328 -0.0542,0.125977 -0.0205,0.0557 -0.0381,0.112413 -0.0527,0.169922 -0.0117,0.03918 -0.0219,0.07875 -0.0308,0.118653 -0.0173,0.09183 -0.0271,0.184907 -0.0293,0.27832 4.6e-4,0.0054 9.5e-4,0.01074 0.001,0.01611 v 0.0029 c -0.001,0.0068 -0.002,0.01367 -0.003,0.02051 l 0.001,5.456548 H 117.4879 l 0.0117,-2.40967 c 7.4e-4,-0.133578 -0.014,-0.266792 -0.0439,-0.396973 0.84535,-0.551669 1.40919,-1.504233 1.40919,-2.579593 0,-1.689352 -1.38976,-3.080568 -3.07911,-3.080569 z m 7.19825,0 c -1.68936,1e-6 -3.0791,1.391217 -3.0791,3.080569 0,1.689353 1.38974,3.079105 3.0791,3.079105 1.68935,0 3.08057,-1.389752 3.08057,-3.079105 0,-1.689352 -1.39122,-3.080568 -3.08057,-3.080569 z m 7.20118,0 c -1.68936,1e-6 -3.07911,1.391217 -3.07911,3.080569 0,1.689353 1.38975,3.079105 3.07911,3.079105 1.68935,0 3.08057,-1.389752 3.08057,-3.079105 0,-1.689352 -1.39122,-3.080568 -3.08057,-3.080569 z m 7.19971,0 c -1.68936,1e-6 -3.08057,1.391217 -3.08057,3.080569 0,1.689353 1.39121,3.079105 3.08057,3.079105 1.68935,0 3.08057,-1.389752 3.08057,-3.079105 0,-1.689352 -1.39122,-3.080568 -3.08057,-3.080569 z m 7.20118,0 c -1.68936,1e-6 -3.08057,1.391217 -3.08057,3.080569 0,1.689353 1.39121,3.079105 3.08057,3.079105 1.68935,0 3.08057,-1.389752 3.08057,-3.079105 0,-1.689352 -1.39122,-3.080568 -3.08057,-3.080569 z m 7.19971,0 c -1.68935,1e-6 -3.08057,1.391217 -3.08057,3.080569 0,1.689353 1.39122,3.079105 3.08057,3.079105 1.68935,0 3.07911,-1.389752 3.07911,-3.079105 0,-1.689352 -1.38976,-3.080568 -3.07911,-3.080569 z m 21.59915,7.343269 c -1.67394,1e-6 -3.05274,1.37734 -3.05274,3.051272 0,1.673932 1.3788,3.052737 3.05274,3.052737 1.67392,0 3.05273,-1.378805 3.05273,-3.052737 0,-1.673932 -1.37881,-3.051271 -3.05273,-3.051272 z m 57.59917,7.166022 c -1.6297,0 -2.97071,1.343931 -2.97071,2.973635 0,1.011474 0.51778,1.910284 1.29932,2.447757 -0.0345,0.13453 -0.0527,0.272734 -0.0542,0.411621 v 23.080099 c 0.002,0.137905 0.0199,0.275112 0.0542,0.408692 -0.78159,0.538036 -1.29932,1.439172 -1.29932,2.450686 0,1.01266 0.51918,1.912864 1.30225,2.450686 -0.0379,0.131675 -0.06,0.267394 -0.0659,0.404297 l -0.0644,25.980493 c 0,0.001 0,0.003 0,0.004 -1e-5,0.003 -1e-5,0.006 0,0.009 4.6e-4,0.006 9.4e-4,0.0117 0.001,0.0176 0.001,0.077 0.008,0.15279 0.019,0.22705 0.002,0.0152 0.005,0.0303 0.007,0.0454 0.0138,0.0787 0.0317,0.15533 0.0557,0.22998 v 0.001 c 0.001,0.004 0.003,0.007 0.004,0.0102 0.001,0.005 0.003,0.01 0.004,0.0147 0.055,0.16188 0.13384,0.31191 0.23145,0.44824 0.001,0.002 0.003,0.005 0.004,0.007 v 0.001 c 0.011,0.0138 0.0223,0.0275 0.0337,0.041 0.0441,0.0571 0.0913,0.11441 0.14209,0.16553 0.012,0.0114 0.0242,0.0226 0.0366,0.0337 0.05,0.0474 0.10283,0.0921 0.1582,0.1333 0.006,0.005 0.0117,0.01 0.0176,0.0147 0.003,0.002 0.007,0.005 0.0103,0.007 0.0678,0.0484 0.13923,0.0906 0.21387,0.12891 0.0102,0.005 0.0205,0.01 0.0308,0.0147 0.0701,0.0343 0.14321,0.0647 0.21826,0.0893 l 0.001,0.001 c 0.0809,0.0265 0.16478,0.0457 0.25049,0.06 0.018,0.003 0.0361,0.005 0.0542,0.007 0.0753,0.0102 0.15044,0.0189 0.22851,0.019 h 0.001 c 0.004,1e-5 0.009,3e-5 0.0132,0 l 4.30225,-0.0234 c 0.13326,-8.1e-4 0.26598,-0.017 0.39551,-0.0483 0.55411,0.83119 1.49895,1.38428 2.56348,1.38428 1.07204,0 2.02422,-0.56084 2.57666,-1.40185 0.12804,0.0315 0.25927,0.0482 0.39111,0.0498 h 8.46388 c 0.13271,-4.4e-4 0.26493,-0.0162 0.39404,-0.0469 0.55271,0.83949 1.50431,1.39892 2.5752,1.39892 1.68935,0 3.08057,-1.39121 3.08057,-3.08057 0,-1.68934 -1.39122,-3.08057 -3.08057,-3.08057 -1.07089,0 -2.02249,0.55944 -2.5752,1.39893 -0.12911,-0.0307 -0.26133,-0.0464 -0.39404,-0.0469 h -8.46388 c -0.13184,0.002 -0.26307,0.0183 -0.39111,0.0498 -0.55244,-0.84101 -1.50462,-1.40186 -2.57666,-1.40186 -1.07813,0 -2.03298,0.56754 -2.58399,1.41651 -0.12905,-0.0312 -0.26127,-0.0474 -0.39404,-0.0483 l -2.55762,0.0147 0.063,-15.0967 c 2.2e-4,-0.10498 -0.0101,-0.20775 -0.0278,-0.30761 l 0.022,-8.833019 c -2.6e-4,-0.139748 -0.0175,-0.278949 -0.0513,-0.414551 0.7831,-0.537901 1.30224,-1.438448 1.30224,-2.450686 0,-1.009646 -0.51664,-1.909377 -1.29638,-2.447756 0.0336,-0.134651 0.0508,-0.272854 0.0513,-0.411622 V 64.662657 c -2.6e-4,-0.139748 -0.0175,-0.278949 -0.0513,-0.414551 0.77967,-0.537819 1.29638,-1.435233 1.29638,-2.444827 0,-1.629704 -1.34392,-2.973635 -2.97363,-2.973635 z m 28.80178,0 c -1.6297,0 -2.97363,1.34393 -2.97363,2.973635 0,1.011718 0.51689,1.911795 1.29932,2.449221 -0.0344,0.134055 -0.0526,0.271761 -0.0542,0.410157 v 5.11231 c 8.1e-4,0.01368 0.002,0.02736 0.003,0.04102 h -0.96827 v 4.394535 0.993165 h 5.38624 v -5.3877 h -0.96533 c 6.5e-4,-0.01367 0.001,-0.02734 0.001,-0.04102 v -5.11231 c -2.6e-4,-0.139748 -0.0175,-0.278949 -0.0513,-0.414551 0.77957,-0.537832 1.29492,-1.435308 1.29492,-2.444827 0,-1.629705 -1.34247,-2.973635 -2.97217,-2.973635 z m -86.40095,0.06152 c -1.67394,0 -3.05274,1.378805 -3.05274,3.052738 0,1.673933 1.3788,3.052737 3.05274,3.052737 1.67392,0 3.05273,-1.378804 3.05273,-3.052737 0,-1.673933 -1.37881,-3.052738 -3.05273,-3.052738 z m -28.07962,11.34962 c -1.68936,0 -3.08057,1.389753 -3.08057,3.079105 0,1.689352 1.39121,3.080569 3.08057,3.080569 1.68935,0 3.0791,-1.391217 3.0791,-3.080569 0,-1.689352 -1.38975,-3.079105 -3.0791,-3.079105 z m 7.20118,0 c -1.68935,0 -3.08057,1.389753 -3.08057,3.079105 0,1.689352 1.39122,3.080569 3.08057,3.080569 1.68935,0 3.0791,-1.391217 3.0791,-3.080569 0,-1.689352 -1.38975,-3.079105 -3.0791,-3.079105 z m 107.27939,6.663581 c -1.47551,0 -2.69385,1.218342 -2.69385,2.69385 0,1.475508 1.21834,2.692385 2.69385,2.692385 0.40179,0 0.78374,-0.08927 1.12793,-0.250488 0.13466,0.149042 0.29428,0.273463 0.47168,0.367676 l 3.91554,2.088869 -0.12598,76.3653 h -133.2511 l -0.0102,-16.89259 c -0.002,-0.1319 -0.0193,-0.26312 -0.0513,-0.39111 0.84158,-0.55234 1.40332,-1.50418 1.40332,-2.57667 0,-1.68934 -1.39122,-3.07909 -3.08057,-3.0791 -1.68936,1e-5 -3.07911,1.38976 -3.07911,3.0791 0,1.07393 0.56132,2.02759 1.40479,2.5796 -0.0319,0.12751 -0.049,0.25824 -0.0513,0.38965 l 0.009,18.62111 c 0.001,0.29917 0.0798,0.59293 0.22852,0.85254 0.001,0.003 0.003,0.007 0.004,0.0102 0.001,0.002 0.003,0.004 0.004,0.006 0.15029,0.25779 0.36477,0.47227 0.62256,0.62256 0.001,0.001 0.003,0.003 0.004,0.004 h 0.001 l 0.003,0.001 c 0.26162,0.15043 0.55808,0.22972 0.85987,0.22998 h 136.70374 c 0.29231,-0.003 0.57909,-0.0801 0.83349,-0.22412 0.0188,-0.0114 0.0373,-0.0231 0.0557,-0.0352 0.2338,-0.14183 0.4306,-0.33712 0.57422,-0.56982 0.0142,-0.0217 0.0278,-0.0436 0.041,-0.0659 0.14353,-0.25354 0.22063,-0.53925 0.22412,-0.83057 l 0.12891,-79.130931 c 0,-0.002 0,-0.0039 0,-0.0059 -6.9e-4,-0.09378 -0.009,-0.187354 -0.0249,-0.279786 -0.001,-0.0083 -0.003,-0.01661 -0.004,-0.0249 -0.017,-0.09519 -0.042,-0.188778 -0.0747,-0.279785 -0.001,-0.0029 -0.003,-0.0059 -0.004,-0.0088 -0.0321,-0.088 -0.0713,-0.173239 -0.11719,-0.254883 -0.006,-0.0093 -0.0116,-0.01861 -0.0176,-0.02783 -0.047,-0.08035 -0.10038,-0.156768 -0.15967,-0.228515 -0.003,-0.0034 -0.006,-0.0068 -0.009,-0.01025 -0.0588,-0.0689 -0.123,-0.13306 -0.1919,-0.191895 -0.007,-0.0064 -0.0146,-0.01276 -0.022,-0.01904 -0.0713,-0.05922 -0.14721,-0.11262 -0.22705,-0.159668 -0.007,-0.004 -0.0146,-0.0079 -0.022,-0.01172 -0.0136,-0.008 -0.0272,-0.01581 -0.041,-0.02344 l -4.83252,-2.576663 c -0.17649,-0.09323 -0.36779,-0.155185 -0.56543,-0.183106 -0.205,-1.279305 -1.32616,-2.271974 -2.6587,-2.271974 z m -114.48057,0.537598 c -1.68936,0 -3.08057,1.389752 -3.08057,3.079104 0,1.689352 1.39121,3.080569 3.08057,3.080569 1.68935,0 3.0791,-1.391217 3.0791,-3.080569 0,-1.689352 -1.38975,-3.079104 -3.0791,-3.079104 z m 7.20118,0 c -1.68935,0 -3.08057,1.389752 -3.08057,3.079104 0,1.689352 1.39122,3.080569 3.08057,3.080569 1.68935,0 3.0791,-1.391217 3.0791,-3.080569 0,-1.689352 -1.38975,-3.079104 -3.0791,-3.079104 z m 0,7.198249 c -1.68935,0 -3.08057,1.391216 -3.08057,3.080569 0,1.689352 1.39122,3.080569 3.08057,3.080569 1.68935,0 3.0791,-1.391217 3.0791,-3.080569 0,-1.689353 -1.38975,-3.080569 -3.0791,-3.080569 z m 20.87844,2.893069 c -1.6831,0 -3.06886,1.385761 -3.06886,3.06885 0,1.68309 1.38576,3.067386 3.06886,3.067386 1.68308,0 3.06886,-1.384296 3.06885,-3.067386 1e-5,-1.683089 -1.38577,-3.06885 -3.06885,-3.06885 z m 86.40095,0.09522 c -1.6297,0 -2.97363,1.34393 -2.97363,2.973635 0,1.01188 0.51815,1.911253 1.30078,2.449221 -0.035,0.13447 -0.0537,0.272676 -0.0557,0.411622 v 5.113774 c 8.1e-4,0.01368 0.002,0.02736 0.003,0.04102 h -0.96827 v 4.394534 0.9917 h 5.38624 v -5.386234 h -0.96533 c 6.5e-4,-0.01367 0.001,-0.02734 0.001,-0.04102 v -5.113774 c -2.6e-4,-0.139749 -0.0175,-0.27895 -0.0513,-0.414552 0.77964,-0.538393 1.29492,-1.436719 1.29492,-2.446291 0,-1.629705 -1.34247,-2.973635 -2.97217,-2.973635 z m -36.00003,7.104498 c -1.68309,0 -3.06885,1.387226 -3.06885,3.070316 0,1.68309 1.38576,3.067387 3.06885,3.067387 1.68309,0 3.06739,-1.384297 3.06739,-3.067387 0,-1.68309 -1.3843,-3.070316 -3.06739,-3.070316 z m 0,7.201183 c -1.68309,0 -3.06885,1.38429 -3.06885,3.06738 0,1.68309 1.38576,3.06885 3.06885,3.06885 1.68309,0 3.06739,-1.38576 3.06739,-3.06885 0,-1.68309 -1.3843,-3.06738 -3.06739,-3.06738 z m 36.00003,3.77051 c -1.47551,0 -2.69385,1.21834 -2.69385,2.69385 0,0.851 0.40525,1.61456 1.03125,2.10937 -0.0738,0.18832 -0.11395,0.38813 -0.11865,0.59034 l -0.0205,1.04004 c 4e-4,0.0103 8.9e-4,0.0205 0.001,0.0308 -5e-4,0.002 -9.9e-4,0.005 -0.001,0.007 l 0.12305,41.4434 H 139.16028 l -0.0366,-9.65626 c -0.001,-0.13228 -0.0172,-0.264 -0.0483,-0.39258 0.83458,-0.55354 1.39014,-1.50221 1.39014,-2.56934 0,-1.68934 -1.39122,-3.07909 -3.08057,-3.0791 -1.68936,1e-5 -3.08057,1.38976 -3.08057,3.0791 0,1.07509 0.56419,2.02933 1.40918,2.58106 -0.0302,0.12917 -0.0455,0.26139 -0.0454,0.39404 l 0.0454,11.36134 c -9.9e-4,0.003 -0.002,0.007 -0.003,0.0103 9.6e-4,0.004 0.002,0.009 0.003,0.0132 0.004,0.28534 0.0794,0.56516 0.21827,0.81445 0.015,0.0248 0.0306,0.0492 0.0469,0.0733 0.14097,0.22799 0.33304,0.42007 0.56104,0.56103 0.0236,0.0157 0.0475,0.0309 0.0718,0.0454 0.25134,0.14058 0.53382,0.21611 0.82178,0.21973 0.002,4.9e-4 0.004,9.8e-4 0.006,0.001 h 122.39953 c 0.001,0 0.003,0 0.004,0 h 0.001 c 0.0973,-0.002 0.19436,-0.0114 0.29004,-0.0293 0.028,-0.005 0.0558,-0.011 0.0835,-0.0176 0.096,-0.0203 0.19008,-0.0487 0.28125,-0.085 0.002,-9.7e-4 0.004,-0.002 0.006,-0.003 0.0923,-0.0396 0.18106,-0.0871 0.26514,-0.14209 0.0183,-0.0119 0.0364,-0.0241 0.0542,-0.0366 0.0842,-0.0574 0.16308,-0.12208 0.23584,-0.19336 l 0.001,-0.001 0.001,-0.001 c 0.0695,-0.0711 0.13271,-0.14803 0.18896,-0.22998 0.0146,-0.0212 0.0288,-0.0427 0.0425,-0.0645 0.0544,-0.0837 0.10146,-0.17188 0.14063,-0.26367 4.9e-4,-0.001 9.8e-4,-0.003 0.001,-0.004 0.0362,-0.0912 0.0647,-0.18526 0.085,-0.28125 0.006,-0.0257 0.0113,-0.0516 0.0161,-0.0776 0.0183,-0.0981 0.0281,-0.19758 0.0293,-0.29736 v -0.001 -0.003 l -0.12745,-43.13822 v -0.006 -0.0337 l 0.019,-1.00196 c 0.004,-0.20171 -0.0281,-0.4025 -0.0937,-0.59326 0.6724,-0.49154 1.11328,-1.28475 1.11328,-2.17236 0,-1.47551 -1.21688,-2.69385 -2.69239,-2.69385 z m -115.19981,3.41895 c -1.68936,0 -3.08057,1.38974 -3.08057,3.0791 0,1.68935 1.39121,3.08057 3.08057,3.08057 1.68935,0 3.08057,-1.39122 3.08057,-3.08057 0,-1.68936 -1.39122,-3.0791 -3.08057,-3.0791 z m 7.19971,0 c -1.68935,0 -3.08057,1.38974 -3.08057,3.0791 0,1.68935 1.39122,3.08057 3.08057,3.08057 1.68935,0 3.07911,-1.39122 3.07911,-3.08057 0,-1.68936 -1.38976,-3.0791 -3.07911,-3.0791 z m 72.00007,0.009 c -1.68309,0 -3.06885,1.38577 -3.06885,3.06886 0,1.68308 1.38576,3.07031 3.06885,3.07031 1.68309,0 3.06739,-1.38723 3.06739,-3.07031 0,-1.68309 -1.3843,-3.06886 -3.06739,-3.06886 z m -79.19978,7.18946 c -1.68936,0 -3.08057,1.39123 -3.08057,3.08057 0,1.68936 1.39121,3.08057 3.08057,3.08057 1.68935,0 3.08057,-1.39121 3.08057,-3.08057 0,-1.68934 -1.39122,-3.08057 -3.08057,-3.08057 z m 7.19971,0 c -1.68935,0 -3.08057,1.39123 -3.08057,3.08057 0,1.68936 1.39122,3.08057 3.08057,3.08057 1.68935,0 3.07911,-1.39121 3.07911,-3.08057 0,-1.68934 -1.38976,-3.08057 -3.07911,-3.08057 z m 21.59915,0.0117 c -1.6831,0 -3.06886,1.38577 -3.06886,3.06885 0,1.68309 1.38576,3.06885 3.06886,3.06885 1.68308,0 3.06886,-1.38576 3.06885,-3.06885 1e-5,-1.68308 -1.38577,-3.06885 -3.06885,-3.06885 z m 50.40092,0 c -1.68309,0 -3.06885,1.38577 -3.06885,3.06885 0,1.68309 1.38576,3.06885 3.06885,3.06885 1.68309,0 3.06739,-1.38576 3.06739,-3.06885 0,-1.68308 -1.3843,-3.06885 -3.06739,-3.06885 z m -79.19978,7.188 c -1.68936,0 -3.08057,1.39122 -3.08057,3.08057 0,1.68936 1.39121,3.0791 3.08057,3.0791 1.68935,0 3.08057,-1.38974 3.08057,-3.0791 0,-1.68935 -1.39122,-3.08057 -3.08057,-3.08057 z m 7.19971,0 c -1.68935,0 -3.08057,1.39122 -3.08057,3.08057 0,1.68936 1.39122,3.0791 3.08057,3.0791 1.68935,0 3.07911,-1.38974 3.07911,-3.0791 0,-1.68935 -1.38976,-3.08057 -3.07911,-3.08057 z m 83.32039,0 v 5.16797 0.9917 h 1.37403 l 0.0703,9.54493 -81.79841,0.0454 c -0.12381,0.0195 -0.24513,0.0524 -0.36182,0.0982 -0.54756,-0.86685 -1.51278,-1.44726 -2.6045,-1.44727 -1.68935,1e-5 -3.08057,1.38976 -3.08057,3.0791 0,1.68936 1.39122,3.08057 3.08057,3.08057 1.09244,0 2.0586,-0.58239 2.60596,-1.45019 0.11675,0.0452 0.23807,0.0777 0.36182,0.0967 l 83.54158,-0.0483 c 0.001,0 0.003,0 0.004,0 0.001,0 0.003,0 0.004,0 0.0908,-0.001 0.18146,-0.01 0.271,-0.0249 0.0162,-0.003 0.0323,-0.006 0.0483,-0.009 0.0851,-0.0166 0.16883,-0.0397 0.25048,-0.0689 0.007,-0.002 0.0147,-0.005 0.022,-0.007 0.18561,-0.0687 0.35804,-0.1688 0.50976,-0.2959 0.004,-0.004 0.008,-0.008 0.0117,-0.0117 0.0661,-0.0568 0.12779,-0.11848 0.18457,-0.18457 0.009,-0.0106 0.0187,-0.0214 0.0278,-0.0322 0.12059,-0.14691 0.21611,-0.31271 0.28272,-0.49072 0.004,-0.0102 0.007,-0.0205 0.0103,-0.0308 0.0302,-0.0849 0.0537,-0.17213 0.0703,-0.26074 0.002,-0.008 0.003,-0.0156 0.004,-0.0234 0.014,-0.0867 0.0213,-0.17437 0.022,-0.2622 0.001,-0.009 0.002,-0.0176 0.003,-0.0264 -4.8e-4,-0.002 -9.7e-4,-0.004 -0.001,-0.006 0,-0.002 0,-0.004 0,-0.006 l -0.0835,-11.2588 h 1.32862 v -6.15967 z m 14.39943,0 v 5.16797 0.9917 h 1.35352 l 0.009,16.87795 H 146.24867 l 0.0308,-2.56934 c 0.001,-0.13248 -0.0123,-0.2647 -0.041,-0.39404 0.8558,-0.54973 1.42822,-1.51092 1.42822,-2.59425 0,-1.68934 -1.39122,-3.07909 -3.08057,-3.0791 -1.68936,1e-5 -3.08057,1.38976 -3.08057,3.0791 0,1.05961 0.54779,2.00247 1.37256,2.55762 -0.0333,0.12734 -0.052,0.25807 -0.0557,0.38965 l -0.0483,4.3169 c 4.7e-4,0.005 9.5e-4,0.01 0.001,0.0146 -4.9e-4,0.001 -9.8e-4,0.003 -0.001,0.004 4.8e-4,0.002 9.7e-4,0.004 0.001,0.006 0.002,0.29593 0.0794,0.58646 0.22559,0.84375 0.006,0.009 0.0116,0.0186 0.0176,0.0278 0.1484,0.25133 0.35804,0.46097 0.60937,0.60937 0.007,0.004 0.0136,0.009 0.0205,0.0132 0.25356,0.1453 0.53983,0.22392 0.83203,0.22851 0.006,-4.6e-4 0.0117,-9.4e-4 0.0176,-0.001 0.001,4.9e-4 0.003,9.8e-4 0.004,0.001 h 108.09385 0.001 c 0.10962,1.3e-4 0.219,-0.0102 0.32666,-0.0308 0.009,-0.002 0.0176,-0.005 0.0264,-0.007 0.0991,-0.0208 0.19612,-0.0502 0.29004,-0.0879 0.0132,-0.005 0.0264,-0.0106 0.0395,-0.0161 0.0961,-0.0414 0.18831,-0.0914 0.27539,-0.14941 0.002,-0.002 0.005,-0.004 0.007,-0.006 0.0852,-0.0577 0.16514,-0.12291 0.23877,-0.19483 0.01,-0.01 0.0197,-0.0194 0.0293,-0.0293 0.0689,-0.0707 0.13164,-0.14713 0.1875,-0.22852 0.008,-0.0116 0.0158,-0.0233 0.0234,-0.0352 0.0537,-0.0823 0.10023,-0.16905 0.13916,-0.25927 0.006,-0.0121 0.0109,-0.0243 0.0161,-0.0366 0.0409,-0.10035 0.0723,-0.20432 0.0937,-0.31055 0.0222,-0.11093 0.0335,-0.22378 0.0337,-0.33692 l -0.0102,-18.60353 h 1.35205 v -6.15967 z m -205.719915,7.20118 c -1.689353,0 -3.080569,1.39122 -3.080569,3.08057 0,1.68935 1.391216,3.0791 3.080569,3.0791 1.689352,0 3.079104,-1.38975 3.079104,-3.0791 0,-1.68935 -1.389752,-3.08057 -3.079104,-3.08057 z m 7.198249,0 c -1.689353,0 -3.079105,1.39122 -3.079105,3.08057 0,1.68935 1.389752,3.0791 3.079105,3.0791 1.689352,0 3.080569,-1.38975 3.080569,-3.0791 0,-1.68935 -1.391217,-3.08057 -3.080569,-3.08057 z m 7.201178,0 c -1.689352,0 -3.079104,1.39122 -3.079104,3.08057 0,1.68935 1.389752,3.0791 3.079104,3.0791 1.689352,0 3.080569,-1.38975 3.080569,-3.0791 0,-1.68935 -1.391217,-3.08057 -3.080569,-3.08057 z m 7.199714,0 c -1.689353,0 -3.080568,1.39122 -3.080569,3.08057 10e-7,1.68935 1.391216,3.0791 3.080569,3.0791 1.689352,0 3.080569,-1.38975 3.080569,-3.0791 0,-1.68935 -1.391217,-3.08057 -3.080569,-3.08057 z m 7.201178,0 c -1.689351,0 -3.082034,1.39122 -3.082034,3.08057 0,1.68935 1.392683,3.0791 3.082034,3.0791 1.689353,0 3.080569,-1.38975 3.080569,-3.0791 0,-1.68935 -1.391216,-3.08057 -3.080569,-3.08057 z m 7.199714,0 c -1.689352,0 -3.080569,1.39122 -3.080569,3.08057 0,1.68935 1.391217,3.0791 3.080569,3.0791 1.689352,0 3.079104,-1.38975 3.079104,-3.0791 0,-1.68935 -1.389752,-3.08057 -3.079104,-3.08057 z m 36.000032,0 c -1.68936,0 -3.08057,1.39122 -3.08057,3.08057 0,1.68935 1.39121,3.0791 3.08057,3.0791 1.68935,0 3.07911,-1.38975 3.07911,-3.0791 0,-1.68935 -1.38976,-3.08057 -3.07911,-3.08057 z m 7.19825,0 c -1.68936,0 -3.0791,1.39122 -3.0791,3.08057 0,1.68935 1.38974,3.0791 3.0791,3.0791 1.68935,0 3.08057,-1.38975 3.08057,-3.0791 0,-1.68935 -1.39122,-3.08057 -3.08057,-3.08057 z m 7.20118,0 c -1.68936,0 -3.07911,1.39122 -3.07911,3.08057 0,1.68935 1.38975,3.0791 3.07911,3.0791 1.68935,0 3.08057,-1.38975 3.08057,-3.0791 0,-1.68935 -1.39122,-3.08057 -3.08057,-3.08057 z m 7.19971,0 c -1.68936,0 -3.08057,1.39122 -3.08057,3.08057 0,1.68935 1.39121,3.0791 3.08057,3.0791 1.68935,0 3.08057,-1.38975 3.08057,-3.0791 0,-1.68935 -1.39122,-3.08057 -3.08057,-3.08057 z m 7.20118,0 c -1.68936,0 -3.08057,1.39122 -3.08057,3.08057 0,1.68935 1.39121,3.0791 3.08057,3.0791 1.68935,0 3.08057,-1.38975 3.08057,-3.0791 0,-1.68935 -1.39122,-3.08057 -3.08057,-3.08057 z m 7.19971,0 c -1.68935,0 -3.08057,1.39122 -3.08057,3.08057 0,1.68935 1.39122,3.0791 3.08057,3.0791 1.68935,0 3.07911,-1.38975 3.07911,-3.0791 0,-1.68935 -1.38976,-3.08057 -3.07911,-3.08057 z m -108.000095,7.19971 c -1.689353,1e-5 -3.080569,1.38976 -3.080569,3.0791 0,1.68936 1.391216,3.08057 3.080569,3.08057 1.689352,0 3.079104,-1.39121 3.079104,-3.08057 0,-1.68934 -1.389752,-3.07909 -3.079104,-3.0791 z m 7.198249,0 c -1.689353,1e-5 -3.079105,1.38976 -3.079105,3.0791 0,1.68936 1.389752,3.08057 3.079105,3.08057 1.689352,0 3.080569,-1.39121 3.080569,-3.08057 0,-1.68934 -1.391217,-3.07909 -3.080569,-3.0791 z m 7.201178,0 c -1.689352,1e-5 -3.079104,1.38976 -3.079104,3.0791 0,1.68936 1.389752,3.08057 3.079104,3.08057 1.689352,0 3.080569,-1.39121 3.080569,-3.08057 0,-1.68934 -1.391217,-3.07909 -3.080569,-3.0791 z m 7.199714,0 c -1.689353,1e-5 -3.080568,1.38976 -3.080569,3.0791 10e-7,1.68936 1.391216,3.08057 3.080569,3.08057 1.689352,0 3.080569,-1.39121 3.080569,-3.08057 0,-1.68934 -1.391217,-3.07909 -3.080569,-3.0791 z m 7.201178,0 c -1.689351,1e-5 -3.082034,1.38976 -3.082034,3.0791 0,1.68936 1.392683,3.08057 3.082034,3.08057 1.689353,0 3.080569,-1.39121 3.080569,-3.08057 0,-1.68934 -1.391216,-3.07909 -3.080569,-3.0791 z m 7.199714,0 c -1.689352,1e-5 -3.080569,1.38976 -3.080569,3.0791 0,1.68936 1.391217,3.08057 3.080569,3.08057 1.689352,0 3.079104,-1.39121 3.079104,-3.08057 0,-1.68934 -1.389752,-3.07909 -3.079104,-3.0791 z m 36.000032,0 c -1.68936,1e-5 -3.08057,1.38976 -3.08057,3.0791 0,1.68936 1.39121,3.08057 3.08057,3.08057 1.68935,0 3.07911,-1.39121 3.07911,-3.08057 0,-1.68934 -1.38976,-3.07909 -3.07911,-3.0791 z m 144.00013,50.35112 c -1.71659,0 -3.12891,1.41232 -3.12891,3.12891 0,1.7166 1.41232,3.12891 3.12891,3.12891 1.71659,0 3.12745,-1.41231 3.12745,-3.12891 0,-1.71659 -1.41086,-3.12891 -3.12745,-3.12891 z" />
  <path
     id="text23917"
     style="font-style:normal;font-variant:normal;font-weight:normal;font-stretch:normal;font-size:20px;font-family:Magneto;-inkscape-font-specification:'Magneto, Normal';font-variant-ligatures:normal;font-variant-caps:normal;font-variant-numeric:normal;font-variant-east-asian:normal;fill:#ffffff;fill-opacity:1;stroke:#000000;stroke-width:0.850394;stroke-linecap:round;stroke-linejoin:miter;stroke-dasharray:none;stroke-opacity:1;paint-order:normal"
     d="M 98.497649 5.2939502 L 97.199796 7.7753978 L 100.29501 7.7753978 L 98.712981 12.394054 L 92.286706 12.394054 L 88.624593 17.198746 L 88.565999 12.394054 L 85.021074 12.394054 L 85.441485 19.034197 L 89.348227 19.034197 L 93.47909 13.957044 L 97.580656 13.957044 C 97.793022 13.957044 97.998481 13.934144 98.198821 13.894056 L 96.438077 19.034197 L 99.983002 19.034197 L 103.8209 8.0771559 C 103.95761 7.6865313 104.02597 7.3252014 104.02597 6.9931705 C 104.02597 6.4658273 103.86224 6.0459034 103.53672 5.7334037 C 103.23073 5.4404353 102.82431 5.2939502 102.3165 5.2939502 L 98.497649 5.2939502 z M 47.022992 6.0556696 C 46.300337 6.0556696 45.6851 6.2840236 45.177288 6.7397523 C 44.675986 7.195481 44.425822 7.7461021 44.425822 8.3906327 C 44.425822 9.0416737 44.675986 9.5945735 45.177288 10.050302 C 45.6851 10.506031 46.300337 10.734385 47.022992 10.734385 C 47.732627 10.734385 48.338099 10.506031 48.8394 10.050302 C 49.347212 9.5945735 49.60112 9.0416737 49.60112 8.3906327 C 49.60112 7.7461021 49.347212 7.195481 48.8394 6.7397523 C 48.338099 6.2840236 47.732627 6.0556696 47.022992 6.0556696 z M 34.387239 10.010751 C 33.586458 10.010751 32.895374 10.180511 32.315948 10.519053 C 31.619334 10.929208 31.271513 11.509127 31.271513 12.257824 C 31.271513 12.304558 31.278555 12.348504 31.281767 12.394054 L 24.309104 12.394054 C 22.876814 12.394054 21.730487 12.690768 20.871113 13.283215 C 20.063822 13.843111 19.575539 14.614599 19.406268 15.597671 C 19.373716 15.773452 19.357928 15.949234 19.357928 16.125015 C 19.357928 17.016941 19.72528 17.735857 20.460956 18.282732 C 21.287778 18.901221 22.469425 19.203956 24.005881 19.190936 C 25.327495 19.184425 26.401719 18.885433 27.228541 18.292986 C 28.094425 17.674497 28.572943 16.82114 28.664089 15.733901 C 28.690131 15.453954 28.63528 15.125664 28.498561 14.74806 C 28.361843 14.363946 28.186061 14.100273 27.971217 13.957044 L 32.629425 13.957044 L 31.34915 17.472672 L 32.384795 17.472672 C 32.990264 17.472672 33.384634 17.234553 33.566925 16.759293 L 34.650911 13.957044 L 36.730991 13.957044 L 35.626498 17.129899 C 35.541862 17.370784 35.500521 17.595394 35.500521 17.803727 C 35.500521 18.624039 35.994827 19.034197 36.984409 19.034197 L 40.724159 19.034197 C 41.205929 19.034197 41.668659 18.897478 42.111367 18.624041 C 42.43011 18.425343 42.635428 18.195095 42.751504 17.938493 C 42.782573 18.666665 43.244299 19.034197 44.143107 19.034197 L 48.000044 19.034197 C 48.449262 19.034197 48.865443 18.93654 49.249557 18.741228 C 49.753192 18.483269 50.088466 18.087987 50.267624 17.563493 C 50.442626 17.829174 50.672191 18.069505 50.959031 18.282732 C 51.785853 18.901221 52.9675 19.203956 54.503956 19.190936 C 55.82557 19.184425 56.899793 18.885433 57.726616 18.292986 C 58.5925 17.674497 59.071018 16.82114 59.162164 15.733901 C 59.188205 15.453954 59.133355 15.125664 58.996636 14.74806 C 58.859918 14.363946 58.684136 14.100273 58.469292 13.957044 L 63.193417 13.957044 L 61.407771 19.034197 L 63.205136 19.034197 C 63.712948 19.034197 64.361226 18.760758 65.148986 18.213884 L 68.507876 15.372084 L 67.765199 17.472672 C 67.674053 17.733089 67.628968 17.959978 67.628968 18.15529 C 67.628968 18.741227 68.074446 19.034197 68.966372 19.034197 L 72.86286 19.034197 C 73.33161 19.034197 73.771065 18.93654 74.181221 18.741228 C 74.760647 18.467791 75.135486 18.045588 75.304757 17.472672 L 71.310124 17.472672 L 72.569891 13.957044 C 72.674058 13.657565 72.726629 13.386405 72.726629 13.14552 C 72.726629 12.494479 72.408106 12.156424 71.770086 12.130382 C 70.826076 12.104341 69.949444 12.420586 69.142153 13.078137 L 66.164123 15.518569 L 67.267152 12.394054 L 66.925843 12.394054 L 63.742734 12.394054 L 54.807179 12.394054 C 53.374889 12.394054 52.228562 12.690768 51.369188 13.283215 C 50.561897 13.843111 50.073613 14.614599 49.904343 15.597671 C 49.871791 15.773452 49.856003 15.949234 49.856003 16.125015 C 49.856003 16.630599 49.978507 17.077958 50.21489 17.472672 L 46.319867 17.472672 L 48.127486 12.394054 L 44.582561 12.394054 L 42.88334 17.150406 C 42.843413 17.261634 42.816421 17.367692 42.793985 17.472672 L 38.77152 17.472672 L 40.548377 12.394054 L 36.427768 12.394054 L 35.148958 12.394054 L 35.969271 10.010751 L 34.387239 10.010751 z M 76.50593 13.350598 L 75.646066 15.832046 L 82.22908 15.832046 L 83.087479 13.350598 L 76.50593 13.350598 z M 23.547385 13.957044 L 25.782739 13.957044 L 24.484886 17.657243 C 24.39374 17.663753 24.286318 17.667497 24.16262 17.667497 C 23.120954 17.667497 22.59963 17.388036 22.59963 16.82814 C 22.59963 16.710953 22.622905 16.586278 22.668478 16.45607 L 23.547385 13.957044 z M 54.04546 13.957044 L 56.280813 13.957044 L 54.982961 17.657243 C 54.891815 17.663753 54.784393 17.667497 54.660695 17.667497 C 53.619029 17.667497 53.097705 17.388036 53.097705 16.82814 C 53.097705 16.710953 53.12098 16.586278 53.166553 16.45607 L 54.04546 13.957044 z " />
</svg>
